<svg width="462" height="194" viewBox="0 0 462 194" fill="none" xmlns="http://www.w3.org/2000/svg">
<g clip-path="url(#clip0)">
<path d="M231 194C358.578 194 462 190.31 462 185.757C462 181.205 358.578 177.514 231 177.514C103.422 177.514 0 181.205 0 185.757C0 190.31 103.422 194 231 194Z" fill="#3F3D56"/>
<path d="M411.169 139.664C412.026 138.167 412.469 136.468 412.452 134.742C412.452 130.295 409.704 126.688 406.297 126.688C402.89 126.688 400.146 130.295 400.146 134.742C400.129 136.468 400.572 138.167 401.43 139.664C400.588 141.168 400.146 142.863 400.146 144.587C400.146 146.31 400.588 148.005 401.43 149.509C400.588 151.012 400.146 152.706 400.146 154.429C400.146 156.152 400.588 157.846 401.43 159.349C400.588 160.853 400.146 162.548 400.146 164.271C400.146 165.995 400.588 167.689 401.43 169.193C400.572 170.691 400.129 172.39 400.146 174.115C400.146 178.563 402.894 182.17 406.297 182.17C409.7 182.17 412.452 178.563 412.452 174.115C412.469 172.39 412.026 170.691 411.169 169.193C412.01 167.689 412.452 165.995 412.452 164.271C412.452 162.548 412.01 160.853 411.169 159.349C412.01 157.846 412.452 156.152 412.452 154.429C412.452 152.706 412.01 151.012 411.169 149.509C412.01 148.005 412.452 146.31 412.452 144.587C412.452 142.863 412.01 141.168 411.169 139.664Z" fill="#3F3D56"/>
<path d="M406.281 132.952C409.678 132.952 412.432 129.346 412.432 124.898C412.432 120.45 409.678 116.844 406.281 116.844C402.884 116.844 400.13 120.45 400.13 124.898C400.13 129.346 402.884 132.952 406.281 132.952Z" fill="#3F3D56"/>
<path d="M406.281 123.108C409.678 123.108 412.432 119.502 412.432 115.054C412.432 110.606 409.678 107 406.281 107C402.884 107 400.13 110.606 400.13 115.054C400.13 119.502 402.884 123.108 406.281 123.108Z" fill="#3F3D56"/>
<path d="M383.252 47.6902C382.411 46.6203 381.645 45.4937 380.959 44.3185L397.127 41.6651L379.64 41.7947C377.964 38.1453 377.049 34.1922 376.953 30.1772C376.856 26.1622 377.58 22.1697 379.079 18.444L402.536 30.6119L380.904 14.7112C382.929 11.2054 385.653 8.15426 388.909 5.74799C392.164 3.34172 395.881 1.63194 399.826 0.725274C403.771 -0.181391 407.861 -0.265493 411.841 0.478204C415.82 1.2219 419.603 2.77745 422.955 5.04785C426.307 7.31825 429.155 10.2548 431.321 13.6744C433.488 17.094 434.927 20.9233 435.548 24.9235C436.169 28.9237 435.96 33.009 434.933 36.9246C433.905 40.8403 432.082 44.5023 429.577 47.6824C430.89 49.347 432.017 51.1502 432.937 53.0598L411.953 63.9678L434.327 56.459C435.897 61.1031 436.285 66.0655 435.455 70.8972C434.625 75.7289 432.604 80.2774 429.573 84.1312C432.994 88.4777 435.123 93.6992 435.715 99.1986C436.308 104.698 435.341 110.253 432.925 115.229C430.509 120.204 426.742 124.4 422.054 127.335C417.365 130.27 411.946 131.827 406.414 131.827C400.883 131.827 395.464 130.27 390.775 127.335C386.087 124.4 382.32 120.204 379.904 115.229C377.488 110.253 376.521 104.698 377.114 99.1986C377.706 93.6992 379.835 88.4777 383.256 84.1312C379.169 78.9368 376.948 72.5197 376.948 65.9107C376.948 59.3017 379.169 52.8846 383.256 47.6902H383.252Z" fill="#57B894"/>
<path opacity="0.1" d="M435.897 65.9109C435.907 72.5216 433.685 78.9419 429.589 84.1314C433.01 88.4779 435.139 93.6994 435.732 99.1987C436.324 104.698 435.357 110.253 432.941 115.229C430.525 120.204 426.758 124.4 422.07 127.335C417.382 130.27 411.962 131.827 406.431 131.827C400.899 131.827 395.48 130.27 390.791 127.335C386.103 124.4 382.336 120.204 379.92 115.229C377.504 110.253 376.537 104.698 377.13 99.1987C377.722 93.6994 379.851 88.4779 383.272 84.1314C379.303 79.119 435.897 62.6059 435.897 65.9109Z" fill="black"/>
<path d="M386.667 2.74756H75.3332C70.9065 2.74756 67.3179 6.33606 67.3179 10.7627V173.719C67.3179 178.145 70.9065 181.734 75.3332 181.734H386.667C391.094 181.734 394.682 178.145 394.682 173.719V10.7627C394.682 6.33606 391.094 2.74756 386.667 2.74756Z" fill="#F2F2F2"/>
<path d="M67.5142 11.5792H172.71V181.93H75.5295C73.4037 181.93 71.365 181.086 69.8618 179.583C68.3586 178.079 67.5142 176.041 67.5142 173.915V11.5792Z" fill="#096DD9"/>
<path d="M394.682 10.7629V15.3121H67.3179V10.7629C67.3179 9.71047 67.5252 8.66841 67.9281 7.69619C68.3309 6.72397 68.9214 5.84065 69.6657 5.09669C70.4101 4.35273 71.2937 3.7627 72.2662 3.36033C73.2386 2.95796 74.2808 2.75113 75.3332 2.75165H386.667C387.719 2.75113 388.762 2.95796 389.734 3.36033C390.707 3.7627 391.59 4.35273 392.334 5.09669C393.079 5.84065 393.669 6.72397 394.072 7.69619C394.475 8.66841 394.682 9.71047 394.682 10.7629Z" fill="#3F3D56"/>
<path d="M75.757 11.5792C77.0577 11.5792 78.1121 10.5248 78.1121 9.2241C78.1121 7.92343 77.0577 6.86902 75.757 6.86902C74.4563 6.86902 73.4019 7.92343 73.4019 9.2241C73.4019 10.5248 74.4563 11.5792 75.757 11.5792Z" fill="#096DD9"/>
<path d="M81.6447 11.5792C82.9454 11.5792 83.9998 10.5248 83.9998 9.2241C83.9998 7.92343 82.9454 6.86902 81.6447 6.86902C80.344 6.86902 79.2896 7.92343 79.2896 9.2241C79.2896 10.5248 80.344 11.5792 81.6447 11.5792Z" fill="#096DD9"/>
<path d="M87.5329 11.5792C88.8336 11.5792 89.888 10.5248 89.888 9.2241C89.888 7.92343 88.8336 6.86902 87.5329 6.86902C86.2322 6.86902 85.1777 7.92343 85.1777 9.2241C85.1777 10.5248 86.2322 11.5792 87.5329 11.5792Z" fill="#096DD9"/>
<path opacity="0.3" d="M375.355 36.5508H240.122C239.854 36.5508 239.636 36.7688 239.636 37.0376V40.3818C239.636 40.6506 239.854 40.8685 240.122 40.8685H375.355C375.623 40.8685 375.841 40.6506 375.841 40.3818V37.0376C375.841 36.7688 375.623 36.5508 375.355 36.5508Z" fill="#096DD9"/>
<path d="M373.392 44.7936H345.711C345.442 44.7936 345.224 45.0115 345.224 45.2804V54.1198C345.224 54.3886 345.442 54.6065 345.711 54.6065H373.392C373.66 54.6065 373.878 54.3886 373.878 54.1198V45.2804C373.878 45.0115 373.66 44.7936 373.392 44.7936Z" fill="#096DD9"/>
<path opacity="0.3" d="M375.355 89.0536H240.122C239.854 89.0536 239.636 89.2715 239.636 89.5403V92.8845C239.636 93.1533 239.854 93.3712 240.122 93.3712H375.355C375.623 93.3712 375.841 93.1533 375.841 92.8845V89.5403C375.841 89.2715 375.623 89.0536 375.355 89.0536Z" fill="#096DD9"/>
<path d="M373.392 97.2964H345.711C345.442 97.2964 345.224 97.5144 345.224 97.7832V106.623C345.224 106.891 345.442 107.109 345.711 107.109H373.392C373.66 107.109 373.878 106.891 373.878 106.623V97.7832C373.878 97.5144 373.66 97.2964 373.392 97.2964Z" fill="#096DD9"/>
<path opacity="0.3" d="M375.355 142.435H240.122C239.854 142.435 239.636 142.653 239.636 142.922V146.266C239.636 146.535 239.854 146.753 240.122 146.753H375.355C375.623 146.753 375.841 146.535 375.841 146.266V142.922C375.841 142.653 375.623 142.435 375.355 142.435Z" fill="#096DD9"/>
<path d="M373.392 150.678H345.711C345.442 150.678 345.224 150.896 345.224 151.165V160.004C345.224 160.273 345.442 160.491 345.711 160.491H373.392C373.66 160.491 373.878 160.273 373.878 160.004V151.165C373.878 150.896 373.66 150.678 373.392 150.678Z" fill="#096DD9"/>
<path d="M210.074 117.518C220.81 117.518 229.512 108.816 229.512 98.0811C229.512 87.3462 220.81 78.6439 210.074 78.6439C199.339 78.6439 190.637 87.3462 190.637 98.0811C190.637 108.816 199.339 117.518 210.074 117.518Z" fill="#3F3D56"/>
<path d="M227.228 108.334C227.207 108.381 227.179 108.424 227.146 108.464C226.934 108.814 226.705 109.153 226.459 109.48C224.303 112.464 221.342 114.772 217.921 116.133C217.584 116.275 217.238 116.404 216.889 116.526C216.566 116.267 216.266 115.979 215.994 115.666C215.183 114.745 214.64 113.62 214.424 112.412C213.907 112.512 213.381 112.562 212.854 112.561C212.802 112.565 212.749 112.565 212.697 112.561C208.654 112.491 205.184 109.531 203.634 105.308L203.571 105.127C202.625 102.376 202.519 99.4058 203.265 96.5939C203.284 96.4997 203.316 96.4055 203.343 96.3152C204.67 91.7581 208.171 88.4375 212.336 88.1745C212.465 88.1745 212.595 88.1745 212.728 88.1745C212.862 88.1745 212.94 88.1745 213.046 88.1745H213.235C218.51 88.3668 222.757 93.4695 222.954 99.8518C224.032 100.56 224.886 101.561 225.415 102.737C225.944 103.914 226.126 105.217 225.941 106.493C226.467 107.033 226.902 107.655 227.228 108.334Z" fill="#192534"/>
<path opacity="0.1" d="M227.145 108.463C226.933 108.814 226.704 109.153 226.458 109.48C226.174 108.97 225.821 108.501 225.41 108.087C225.455 107.763 225.479 107.436 225.481 107.109C225.481 105.986 225.201 104.88 224.668 103.891C224.134 102.902 223.362 102.062 222.423 101.445C222.207 94.9295 217.776 89.7247 212.347 89.7247C208.469 89.7247 205.105 92.3703 203.413 96.2562C203.37 96.3582 203.331 96.4564 203.284 96.5623C203.142 96.8999 203.017 97.2414 202.891 97.5986C203.03 96.881 203.222 96.1751 203.468 95.4869L203.523 95.4319C205.034 91.2673 208.41 88.3117 212.374 88.1351C212.504 88.1351 212.634 88.1351 212.767 88.1351C212.9 88.1351 212.979 88.1351 213.085 88.1351H213.273C218.474 88.4491 222.639 93.5282 222.839 99.8438C223.92 100.55 224.776 101.55 225.307 102.727C225.837 103.904 226.02 105.208 225.834 106.485C226.385 107.061 226.829 107.731 227.145 108.463Z" fill="black"/>
<path d="M206.664 102.89C206.712 103.287 206.667 103.691 206.53 104.067C206.299 104.605 205.745 105.088 205.898 105.637C205.976 105.81 206.094 105.961 206.241 106.08C206.388 106.199 206.561 106.281 206.746 106.32C208.438 106.893 210.279 106.552 212.069 106.63C212.665 106.683 213.264 106.704 213.863 106.693C214.465 106.68 215.047 106.476 215.527 106.112C214.597 105.661 213.719 105.109 212.909 104.468C212.712 104.322 212.534 104.152 212.379 103.961C212.046 103.423 211.886 102.796 211.92 102.164C211.92 101.539 211.92 100.915 211.92 100.295C210.64 100.295 209.364 100.276 208.085 100.276C207.692 100.276 206.424 100.177 206.279 100.621C206.209 100.841 206.483 101.488 206.526 101.736C206.592 102.118 206.638 102.503 206.664 102.89Z" fill="#A0616A"/>
<path opacity="0.1" d="M206.664 102.89C206.712 103.287 206.667 103.691 206.53 104.067C206.299 104.605 205.745 105.088 205.898 105.637C205.976 105.81 206.094 105.961 206.241 106.08C206.388 106.199 206.561 106.281 206.746 106.32C208.438 106.893 210.279 106.552 212.069 106.63C212.665 106.683 213.264 106.704 213.863 106.693C214.465 106.68 215.047 106.476 215.527 106.112C214.597 105.661 213.719 105.109 212.909 104.468C212.712 104.322 212.534 104.152 212.379 103.961C212.046 103.423 211.886 102.796 211.92 102.164C211.92 101.539 211.92 100.915 211.92 100.295C210.64 100.295 209.364 100.276 208.085 100.276C207.692 100.276 206.424 100.177 206.279 100.621C206.209 100.841 206.483 101.488 206.526 101.736C206.592 102.118 206.638 102.503 206.664 102.89Z" fill="black"/>
<path d="M209.293 102.324C211.784 102.324 213.803 100.305 213.803 97.8145C213.803 95.3237 211.784 93.3045 209.293 93.3045C206.802 93.3045 204.783 95.3237 204.783 97.8145C204.783 100.305 206.802 102.324 209.293 102.324Z" fill="#A0616A"/>
<path d="M217.846 110.897C217.846 111.018 217.823 111.148 217.803 111.289C217.657 112.021 217.443 112.737 217.163 113.428C216.998 113.898 216.798 114.354 216.567 114.794C216.398 115.097 216.174 115.375 215.994 115.67L215.734 116.09C215.569 116.373 215.429 116.67 215.314 116.977C214.557 117.171 213.787 117.311 213.01 117.397C212.251 117.488 211.487 117.534 210.722 117.534C206.62 117.534 202.196 116.47 199.06 114.296C199.06 114.296 199.519 113.978 199.453 113.903C199.453 113.723 199.433 113.546 199.433 113.366C199.428 112.901 199.504 112.439 199.657 112C199.79 111.579 200.023 111.197 200.336 110.885C200.728 110.492 201.254 110.249 201.674 109.872C202.211 109.353 202.591 108.693 202.769 107.969C202.868 107.655 202.938 107.321 203.005 106.999C203.065 106.559 203.186 106.129 203.366 105.723C203.391 105.672 203.42 105.622 203.452 105.574C203.512 105.474 203.583 105.38 203.664 105.296C204.065 104.905 204.533 104.591 205.046 104.369C205.474 104.149 206.074 103.977 206.373 104.342V104.369C206.47 104.594 206.553 104.825 206.62 105.06C206.86 105.555 207.527 105.617 208.068 105.606C209.984 105.566 211.896 105.406 213.791 105.127L214.71 104.978C215.373 104.868 215.837 105.449 216.209 106.014C217.175 107.47 217.991 109.146 217.846 110.897Z" fill="#096DD9"/>
<path opacity="0.1" d="M204.073 111.203C203.653 111.298 203.41 111.721 203.214 112.106C202.842 112.738 202.678 113.472 202.747 114.202C202.735 114.489 202.766 114.776 202.837 115.054C202.909 115.334 203.086 115.576 203.332 115.729" stroke="black" stroke-miterlimit="10"/>
<path d="M215.334 95.8237C215.674 94.4922 213.762 92.8534 211.063 92.1635C208.364 91.4736 205.901 91.9937 205.56 93.3253C205.22 94.6568 207.132 96.2956 209.831 96.9855C212.53 97.6754 214.993 97.1553 215.334 95.8237Z" fill="#192534"/>
<path opacity="0.1" d="M210.082 96.0406C207.684 95.4282 205.91 94.078 205.764 92.8376C205.653 92.9774 205.573 93.1393 205.529 93.3126C205.187 94.6432 207.099 96.28 209.795 96.9708C212.492 97.6616 214.957 97.1396 215.291 95.7933C215.329 95.6446 215.339 95.4904 215.322 95.338C214.604 96.3271 212.433 96.6411 210.082 96.0406Z" fill="black"/>
<path d="M217.964 114.096C217.964 114.779 217.964 115.458 217.921 116.133C217.584 116.275 217.238 116.404 216.889 116.526C216.374 116.705 215.85 116.854 215.319 116.973C214.561 117.167 213.792 117.308 213.015 117.393C212.877 115.768 212.567 114.202 212.72 112.554C212.848 111.291 213.281 110.078 213.984 109.021C214.26 108.558 214.654 108.177 215.126 107.918C215.362 107.793 215.629 107.737 215.895 107.758C216.161 107.779 216.416 107.875 216.63 108.036C216.897 108.315 217.084 108.66 217.171 109.037C217.436 109.773 217.649 110.527 217.807 111.294C217.807 111.376 217.835 111.466 217.847 111.553C217.955 112.396 217.995 113.247 217.964 114.096Z" fill="#A0616A"/>
<path d="M229.509 151.463C229.518 154.714 228.708 157.915 227.153 160.77C226.981 161.084 226.8 161.402 226.596 161.716C226.575 161.763 226.547 161.806 226.514 161.845C226.302 162.196 226.073 162.535 225.827 162.862C224.335 164.93 222.447 166.681 220.273 168.012L220.159 168.09C219.444 168.519 218.703 168.903 217.941 169.24C217.729 169.335 217.509 169.425 217.289 169.515C217.07 169.605 216.865 169.688 216.646 169.758C216.536 169.806 216.418 169.845 216.304 169.884C216.291 169.882 216.278 169.882 216.265 169.884C216.025 169.97 215.778 170.045 215.535 170.12L215.35 170.163C215.13 170.229 214.911 170.284 214.691 170.332C213.932 170.526 213.161 170.666 212.383 170.752C211.629 170.843 210.87 170.889 210.11 170.889C210.032 170.889 209.953 170.889 209.875 170.889C208.821 170.886 207.77 170.788 206.734 170.598L206.546 170.567C206.354 170.536 206.153 170.496 205.969 170.449L205.604 170.367C205.217 170.282 204.834 170.177 204.458 170.053C203.691 169.823 202.94 169.544 202.209 169.217L202.126 169.181C201.056 168.697 200.032 168.115 199.068 167.443C198.986 167.394 198.908 167.341 198.833 167.282C196.119 165.347 193.949 162.747 192.53 159.732C191.111 156.717 190.491 153.387 190.73 150.063C190.969 146.739 192.059 143.533 193.895 140.752C195.731 137.97 198.252 135.708 201.214 134.182C204.177 132.656 207.482 131.917 210.813 132.037C214.143 132.157 217.387 133.131 220.232 134.866C223.077 136.601 225.429 139.039 227.06 141.944C228.691 144.85 229.548 148.127 229.548 151.459L229.509 151.463Z" fill="#3F3D56"/>
<path d="M214.777 146.78C214.731 147.842 214.276 148.845 213.508 149.581C212.741 150.316 211.719 150.726 210.656 150.726C209.593 150.726 208.571 150.316 207.803 149.581C207.035 148.845 206.581 147.842 206.534 146.78C206.534 146.714 206.534 146.647 206.534 146.584C206.534 145.491 206.968 144.443 207.741 143.67C208.514 142.897 209.563 142.463 210.656 142.463C211.749 142.463 212.797 142.897 213.57 143.67C214.343 144.443 214.777 145.491 214.777 146.584C214.773 146.647 214.777 146.714 214.777 146.78Z" fill="#192534"/>
<path opacity="0.1" d="M214.777 146.781C214.731 147.843 214.276 148.846 213.508 149.581C212.741 150.316 211.719 150.726 210.656 150.726C209.593 150.726 208.571 150.316 207.803 149.581C207.035 148.846 206.581 147.843 206.534 146.781C206.534 146.714 206.534 146.647 206.534 146.585C207.697 145.633 209.153 145.113 210.656 145.113C212.158 145.113 213.614 145.633 214.777 146.585C214.773 146.647 214.777 146.714 214.777 146.781Z" fill="black"/>
<path d="M210.652 158.501C214.248 158.501 217.164 155.586 217.164 151.989C217.164 148.393 214.248 145.477 210.652 145.477C207.055 145.477 204.14 148.393 204.14 151.989C204.14 155.586 207.055 158.501 210.652 158.501Z" fill="#192534"/>
<path d="M206.706 145.87C206.707 144.871 207.07 143.906 207.729 143.155C208.387 142.403 209.296 141.916 210.286 141.784C209.703 141.705 209.11 141.752 208.546 141.921C207.982 142.09 207.462 142.378 207.018 142.765C206.575 143.153 206.22 143.63 205.977 144.166C205.733 144.702 205.607 145.283 205.607 145.872C205.607 146.46 205.733 147.042 205.977 147.578C206.22 148.114 206.575 148.591 207.018 148.978C207.462 149.366 207.982 149.654 208.546 149.823C209.11 149.992 209.703 150.039 210.286 149.96C209.295 149.828 208.386 149.34 207.728 148.588C207.069 147.835 206.706 146.87 206.706 145.87Z" fill="#192534"/>
<path d="M203.304 154.635C202.555 153.973 202.072 153.062 201.944 152.07C201.816 151.079 202.053 150.075 202.609 149.245C202.471 149.368 202.339 149.499 202.217 149.638C201.843 150.042 201.554 150.516 201.366 151.033C201.179 151.55 201.097 152.099 201.124 152.649C201.152 153.198 201.29 153.736 201.529 154.232C201.768 154.727 202.103 155.17 202.516 155.534C202.928 155.898 203.409 156.175 203.931 156.35C204.452 156.526 205.003 156.595 205.552 156.554C206.101 156.513 206.635 156.362 207.125 156.112C207.615 155.861 208.049 155.515 208.403 155.094C208.523 154.957 208.634 154.813 208.737 154.662C207.981 155.316 207.014 155.674 206.015 155.669C205.016 155.664 204.053 155.296 203.304 154.635Z" fill="#192534"/>
<path d="M207.245 160.248C206.906 160.314 206.578 160.429 206.271 160.589C205.73 160.982 205.749 161.767 205.91 162.406C206.279 163.867 207.182 165.268 208.564 165.865C209.419 166.18 210.331 166.314 211.241 166.257C212.226 166.257 213.341 166.124 213.953 165.346C214.229 164.936 214.417 164.474 214.507 163.988C214.809 162.811 215.115 161.594 215.005 160.377C214.408 160.428 213.741 160.464 213.27 160.087C212.799 159.71 212.693 158.992 212.485 158.395C212.463 158.299 212.409 158.213 212.332 158.152C212.246 158.113 212.151 158.099 212.057 158.112C211.431 158.139 210.803 158.113 210.181 158.034C209.788 157.983 208.839 157.579 208.548 157.92C208.336 158.167 208.47 158.921 208.305 159.27C208.202 159.495 208.055 159.698 207.873 159.865C207.691 160.033 207.478 160.163 207.245 160.248Z" fill="#FFC1C7"/>
<path opacity="0.05" d="M207.245 160.248C206.906 160.314 206.578 160.429 206.271 160.589C205.73 160.982 205.749 161.767 205.91 162.406C206.279 163.867 207.182 165.268 208.564 165.865C209.419 166.18 210.331 166.314 211.241 166.257C212.226 166.257 213.341 166.124 213.953 165.346C214.229 164.936 214.417 164.474 214.507 163.988C214.809 162.811 215.115 161.594 215.005 160.377C214.408 160.428 213.741 160.464 213.27 160.087C212.799 159.71 212.693 158.992 212.485 158.395C212.463 158.299 212.409 158.213 212.332 158.152C212.246 158.113 212.151 158.099 212.057 158.112C211.431 158.139 210.803 158.113 210.181 158.034C209.788 157.983 208.839 157.579 208.548 157.92C208.336 158.167 208.47 158.921 208.305 159.27C208.202 159.495 208.055 159.698 207.873 159.865C207.691 160.033 207.478 160.163 207.245 160.248Z" fill="black"/>
<path d="M210.561 159.687C213.076 159.687 215.114 157.648 215.114 155.133C215.114 152.619 213.076 150.58 210.561 150.58C208.046 150.58 206.008 152.619 206.008 155.133C206.008 157.648 208.046 159.687 210.561 159.687Z" fill="#FFC1C7"/>
<path d="M220.543 164.997C220.512 165.036 220.48 165.083 220.445 165.123L220.253 165.374C219.283 166.536 218.498 167.84 217.925 169.24C217.713 169.334 217.493 169.425 217.273 169.515C217.054 169.605 216.849 169.688 216.63 169.758C216.52 169.805 216.402 169.845 216.288 169.884C216.275 169.882 216.262 169.882 216.249 169.884C216.009 169.97 215.762 170.045 215.519 170.119L215.334 170.163C215.115 170.229 214.895 170.284 214.675 170.331C213.916 170.526 213.145 170.666 212.367 170.751C211.613 170.843 210.854 170.889 210.094 170.889C210.016 170.889 209.937 170.889 209.859 170.889C208.805 170.886 207.754 170.788 206.718 170.598L206.53 170.567C206.338 170.535 206.137 170.496 205.953 170.449L205.588 170.367C205.201 170.282 204.818 170.177 204.442 170.053C204.547 169.395 204.84 168.781 205.286 168.286C204.403 167.23 202.95 166.814 202.012 165.817C201.93 165.723 201.854 165.623 201.784 165.519C201.735 165.444 201.695 165.364 201.663 165.28C201.635 165.214 201.617 165.143 201.612 165.072C201.582 164.927 201.57 164.779 201.576 164.632C201.553 163.517 201.604 162.246 202.467 161.547C202.892 161.25 203.368 161.037 203.873 160.919C204.749 160.645 205.602 160.301 206.424 159.89C206.499 160.066 206.549 160.251 206.573 160.44C206.652 160.895 206.644 161.374 206.75 161.826C206.956 162.631 207.454 163.33 208.147 163.788C208.839 164.241 209.626 164.527 210.447 164.624C211.256 164.742 211.9 164.322 212.661 164.035C212.999 163.928 213.31 163.751 213.576 163.517C213.92 163.12 214.103 162.61 214.09 162.085C214.09 161.567 214.031 161.048 214.063 160.515C214.063 160.46 214.07 160.406 214.082 160.354C214.083 160.217 214.127 160.084 214.207 159.974C214.287 159.863 214.4 159.781 214.53 159.737C214.677 159.725 214.824 159.752 214.958 159.816L216.426 160.377C217.062 160.597 217.674 160.88 218.255 161.221C218.896 161.637 219.435 162.193 219.831 162.847C220.227 163.501 220.471 164.236 220.543 164.997Z" fill="#096DD9"/>
<path opacity="0.1" d="M206.699 170.602L206.511 170.571C206.318 170.539 206.118 170.5 205.934 170.453L205.568 170.371C205.181 170.286 204.799 170.181 204.422 170.057C203.655 169.827 202.904 169.547 202.173 169.22C201.806 168.025 201.672 166.769 201.781 165.523C201.828 164.988 201.939 164.461 202.11 163.953C202.935 164.738 204.34 164.294 205.274 164.922C205.527 165.102 205.735 165.338 205.879 165.613C206.14 166.116 206.318 166.659 206.405 167.219C206.463 167.525 206.518 167.835 206.565 168.145C206.565 168.2 206.565 168.243 206.565 168.29C206.565 168.337 206.565 168.388 206.565 168.439C206.597 168.659 206.624 168.887 206.636 169.111C206.699 169.617 206.699 170.104 206.699 170.602Z" fill="black"/>
<path d="M206.51 170.571C206.318 170.54 206.118 170.5 205.933 170.453L205.568 170.371C205.181 170.286 204.799 170.181 204.422 170.057C203.655 169.827 202.904 169.547 202.173 169.221L202.091 169.185C201.64 167.865 201.47 166.465 201.592 165.076C201.648 164.574 201.756 164.079 201.914 163.6C202.738 164.385 204.144 163.949 205.078 164.577C205.438 164.836 205.711 165.197 205.863 165.613C206.015 166.017 206.13 166.433 206.204 166.858C206.291 167.317 206.373 167.776 206.428 168.243C206.44 168.308 206.447 168.374 206.448 168.44C206.448 168.483 206.448 168.538 206.448 168.581C206.448 168.624 206.448 168.691 206.448 168.75C206.522 169.35 206.518 169.963 206.51 170.571Z" fill="#096DD9"/>
<path opacity="0.1" d="M220.143 168.09C219.428 168.519 218.688 168.903 217.925 169.24C217.713 169.334 217.493 169.425 217.274 169.515C217.054 169.605 216.85 169.688 216.63 169.758C216.52 169.805 216.402 169.845 216.288 169.884C216.275 169.882 216.262 169.882 216.249 169.884C216.01 169.97 215.762 170.045 215.519 170.12L215.334 170.163C215.334 169.813 215.334 169.452 215.374 169.099C215.401 168.82 215.433 168.542 215.472 168.263C215.472 168.212 215.472 168.161 215.491 168.11C215.495 168.077 215.495 168.044 215.491 168.012C215.539 167.745 215.59 167.474 215.641 167.207C215.722 166.646 215.9 166.102 216.167 165.602C216.314 165.332 216.522 165.101 216.775 164.927C217.709 164.299 219.13 164.726 219.915 163.957C220.07 164.413 220.176 164.884 220.233 165.362C220.339 166.271 220.309 167.19 220.143 168.09Z" fill="black"/>
<path d="M220.256 168.012L220.142 168.09C219.428 168.519 218.687 168.904 217.925 169.24C217.713 169.335 217.493 169.425 217.273 169.515C217.053 169.605 216.849 169.688 216.629 169.759C216.519 169.806 216.402 169.845 216.288 169.884C216.275 169.882 216.262 169.882 216.249 169.884C216.009 169.971 215.762 170.045 215.519 170.12C215.519 169.657 215.519 169.197 215.558 168.738C215.558 168.62 215.558 168.499 215.589 168.381C215.589 168.33 215.589 168.271 215.589 168.22C215.589 168.169 215.589 168.134 215.589 168.098C215.648 167.674 215.719 167.262 215.805 166.846C215.88 166.422 215.994 166.005 216.147 165.602C216.298 165.185 216.572 164.824 216.932 164.566C217.866 163.938 219.287 164.365 220.072 163.588C220.24 164.081 220.351 164.592 220.402 165.111C220.507 166.08 220.458 167.059 220.256 168.012Z" fill="#096DD9"/>
<path d="M210.472 154.493C213.489 154.493 215.936 152.863 215.936 150.851C215.936 148.839 213.489 147.208 210.472 147.208C207.454 147.208 205.008 148.839 205.008 150.851C205.008 152.863 207.454 154.493 210.472 154.493Z" fill="#192534"/>
<path opacity="0.05" d="M205.929 169.903C205.929 169.986 205.929 170.072 205.929 170.162C205.929 170.253 205.929 170.335 205.929 170.422C205.928 170.432 205.928 170.443 205.929 170.453L205.564 170.371C205.558 170.301 205.558 170.232 205.564 170.162C205.564 169.798 205.642 169.439 205.793 169.107C205.944 168.776 206.164 168.481 206.439 168.243C206.475 168.205 206.516 168.172 206.561 168.145C206.772 167.974 207.011 167.841 207.268 167.752C207.503 167.662 207.753 167.614 208.006 167.611C208.039 167.607 208.074 167.607 208.108 167.611C208.17 167.607 208.233 167.607 208.296 167.611H208.167C207.565 167.674 207.008 167.953 206.596 168.396C206.551 168.439 206.51 168.486 206.475 168.537C206.161 168.928 205.971 169.404 205.929 169.903Z" fill="black"/>
<path d="M209.925 170.163C209.925 170.409 209.896 170.654 209.839 170.893C208.785 170.89 207.735 170.792 206.699 170.602L206.51 170.571C206.318 170.54 206.118 170.5 205.933 170.453V170.422C205.933 170.335 205.933 170.253 205.933 170.163C205.933 170.072 205.933 169.986 205.933 169.904C205.966 169.377 206.146 168.87 206.451 168.44C206.486 168.386 206.527 168.336 206.573 168.29C206.756 168.062 206.992 167.882 207.26 167.764C207.466 167.666 207.691 167.615 207.919 167.615C207.945 167.611 207.972 167.611 207.998 167.615C208.051 167.611 208.105 167.611 208.159 167.615C209.152 167.784 209.925 168.86 209.925 170.163Z" fill="#096DD9"/>
<path opacity="0.05" d="M216.63 169.759C216.52 169.806 216.403 169.845 216.289 169.884C216.233 169.322 215.986 168.796 215.59 168.393L215.472 168.275C215.08 167.923 214.59 167.7 214.067 167.635H213.938C213.998 167.631 214.058 167.631 214.118 167.635C214.153 167.631 214.189 167.631 214.224 167.635C214.477 167.641 214.728 167.689 214.966 167.776C215.155 167.841 215.335 167.928 215.504 168.035C215.547 168.058 215.587 168.087 215.621 168.122C215.889 168.315 216.116 168.558 216.289 168.839C216.463 169.12 216.578 169.433 216.63 169.759Z" fill="black"/>
<path d="M216.288 169.884C216.275 169.882 216.262 169.882 216.249 169.884C216.009 169.971 215.762 170.045 215.518 170.12L215.334 170.163C215.114 170.23 214.894 170.285 214.675 170.332C213.916 170.526 213.145 170.666 212.367 170.752C212.327 170.554 212.307 170.353 212.308 170.151C212.308 168.848 213.093 167.772 214.078 167.623C214.13 167.619 214.183 167.619 214.235 167.623C214.26 167.619 214.285 167.619 214.309 167.623C214.54 167.622 214.768 167.673 214.977 167.772C215.172 167.859 215.35 167.98 215.503 168.13C215.546 168.162 215.585 168.199 215.621 168.24C216.014 168.702 216.248 169.278 216.288 169.884Z" fill="#096DD9"/>
<path opacity="0.1" d="M210.472 154.132C207.544 154.132 205.153 152.602 205.012 150.674C205.012 150.733 205.012 150.792 205.012 150.855C205.012 152.868 207.461 154.497 210.48 154.497C213.498 154.497 215.943 152.868 215.943 150.855C215.943 150.792 215.943 150.733 215.943 150.674C215.786 152.602 213.396 154.132 210.472 154.132Z" fill="black"/>
<path d="M190.637 45.5826C190.63 48.8318 191.44 52.0306 192.992 54.8852C193.169 55.2031 193.349 55.521 193.549 55.8311C193.572 55.8781 193.601 55.9216 193.636 55.9607C193.852 56.3078 194.086 56.6432 194.338 56.9655C195.153 58.0996 196.094 59.1384 197.141 60.0624C197.335 60.2488 197.54 60.4243 197.753 60.5884C198.426 61.1503 199.139 61.6607 199.889 62.1153L200.006 62.1938C200.721 62.6218 201.46 63.0071 202.22 63.3478L202.876 63.6186C203.092 63.7089 203.296 63.7952 203.519 63.8659C203.629 63.9091 203.743 63.9483 203.861 63.9876H203.916C204.154 64.0739 204.397 64.1524 204.646 64.2231L204.826 64.2663C205.046 64.333 205.27 64.3919 205.49 64.435C205.788 64.5135 206.083 64.5803 206.389 64.6352C206.848 64.7255 207.323 64.804 207.794 64.8589C208.548 64.9491 209.307 64.9936 210.067 64.9924H210.298C211.352 64.9859 212.402 64.8874 213.438 64.698C213.502 64.6917 213.565 64.6812 213.627 64.6666C213.819 64.6352 214.019 64.596 214.204 64.5489C214.33 64.5253 214.443 64.4978 214.569 64.4664C214.961 64.3801 215.354 64.278 215.715 64.1564C215.947 64.0818 216.174 64.0111 216.402 63.9326C216.861 63.7717 217.321 63.599 217.76 63.4027C217.829 63.38 217.896 63.3525 217.96 63.3203L218.047 63.281C218.628 63.0194 219.193 62.7276 219.742 62.4057C220.21 62.1388 220.665 61.8484 221.104 61.5422H221.132C221.204 61.5005 221.272 61.4532 221.336 61.4009C224.053 59.4683 226.227 56.8692 227.648 53.8536C229.07 50.8381 229.693 47.5074 229.455 44.1819C229.218 40.8564 228.129 37.6479 226.293 34.8649C224.457 32.0819 221.936 29.818 218.972 28.2909C216.008 26.7638 212.702 26.0248 209.37 26.145C206.038 26.2653 202.793 27.2406 199.947 28.9774C197.101 30.7141 194.75 33.1538 193.119 36.0619C191.489 38.97 190.634 42.2486 190.637 45.5826Z" fill="#3F3D56"/>
<path d="M214.388 53.2838C214.675 53.5361 214.874 53.8728 214.957 54.2454C214.392 54.3946 213.815 54.1159 213.289 53.8529C211.656 53.0869 209.932 52.5316 208.159 52.2004C208.017 52.1873 207.881 52.1357 207.766 52.0513C207.677 51.9311 207.631 51.7845 207.636 51.6351C207.64 51.4856 207.694 51.3419 207.79 51.227C207.986 51.0229 208.355 51.0504 208.622 51.0386C209.686 50.9842 210.749 51.1546 211.743 51.5387C212.736 51.9229 213.638 52.5121 214.388 53.2681V53.2838Z" fill="#096DD9"/>
<path d="M208.646 51.7217C208.528 52.0157 208.352 52.283 208.129 52.5076C207.906 52.7322 207.64 52.9095 207.346 53.0288C207.028 53.1426 206.687 53.1622 206.365 53.2525C206.2 53.2869 206.046 53.359 205.914 53.4632C205.782 53.5674 205.675 53.7009 205.604 53.8531C205.56 53.9901 205.541 54.1334 205.545 54.277C205.494 55.6312 205.454 57.0246 205.996 58.2806C206.463 59.3561 207.319 60.2039 208.167 61.0086C209.156 61.9545 210.204 62.9123 211.507 63.3362C212.269 63.5835 213.167 63.611 213.799 63.1203C214.047 62.9052 214.263 62.6553 214.439 62.3785C214.88 61.8012 215.249 61.1725 215.538 60.5062C216.076 59.1245 215.896 57.578 215.707 56.1061C215.706 56.0186 215.672 55.9347 215.613 55.8706C215.531 55.8196 215.432 55.8027 215.338 55.8235C215.001 55.8577 214.662 55.7852 214.368 55.6162C214.074 55.4472 213.841 55.1902 213.701 54.8815C213.62 54.6013 213.59 54.3088 213.611 54.0179L213.639 52.338C213.652 52.1576 213.63 51.9765 213.576 51.8041C213.421 51.5242 213.172 51.3084 212.873 51.1957C211.956 50.7366 210.999 50.3596 210.016 50.0692C209.584 49.9436 209.254 49.7317 209.062 50.1948C208.869 50.658 208.869 51.235 208.646 51.7217Z" fill="#FBBEBE"/>
<path opacity="0.1" d="M208.646 51.7217C208.528 52.0157 208.352 52.283 208.129 52.5076C207.906 52.7322 207.64 52.9095 207.346 53.0288C207.028 53.1426 206.687 53.1622 206.365 53.2525C206.2 53.2869 206.046 53.359 205.914 53.4632C205.782 53.5674 205.675 53.7009 205.604 53.8531C205.56 53.9901 205.541 54.1334 205.545 54.277C205.494 55.6312 205.454 57.0246 205.996 58.2806C206.463 59.3561 207.319 60.2039 208.167 61.0086C209.156 61.9545 210.204 62.9123 211.507 63.3362C212.269 63.5835 213.167 63.611 213.799 63.1203C214.047 62.9052 214.263 62.6553 214.439 62.3785C214.88 61.8012 215.249 61.1725 215.538 60.5062C216.076 59.1245 215.896 57.578 215.707 56.1061C215.706 56.0186 215.672 55.9347 215.613 55.8706C215.531 55.8196 215.432 55.8027 215.338 55.8235C215.001 55.8577 214.662 55.7852 214.368 55.6162C214.074 55.4472 213.841 55.1902 213.701 54.8815C213.62 54.6013 213.59 54.3088 213.611 54.0179L213.639 52.338C213.652 52.1576 213.63 51.9765 213.576 51.8041C213.421 51.5242 213.172 51.3084 212.873 51.1957C211.956 50.7366 210.999 50.3596 210.016 50.0692C209.584 49.9436 209.254 49.7317 209.062 50.1948C208.869 50.658 208.869 51.235 208.646 51.7217Z" fill="black"/>
<path d="M213.191 53.0835C216.022 53.0835 218.317 50.7884 218.317 47.9573C218.317 45.1261 216.022 42.8311 213.191 42.8311C210.36 42.8311 208.064 45.1261 208.064 47.9573C208.064 50.7884 210.36 53.0835 213.191 53.0835Z" fill="#FBBEBE"/>
<path d="M206.381 64.6587C206.84 64.749 207.315 64.8275 207.786 64.8825C208.541 64.9726 209.3 65.0172 210.059 65.0159H210.291C211.344 65.0094 212.395 64.9109 213.431 64.7215C213.494 64.7152 213.557 64.7047 213.619 64.6901C213.812 64.6587 214.012 64.6195 214.196 64.5724C214.322 64.5488 214.436 64.5214 214.561 64.49C214.954 64.4036 215.346 64.3015 215.708 64.1799C215.939 64.1053 216.167 64.0346 216.394 63.9561C216.854 63.7952 217.313 63.6225 217.753 63.4262C217.64 63.0773 217.546 62.7221 217.474 62.3625C217.347 61.5948 217.297 60.8164 217.325 60.0388C217.325 59.4147 217.352 58.7946 217.325 58.1744C217.335 57.6713 217.262 57.1701 217.109 56.6907C217.031 56.4512 216.906 56.2296 216.742 56.0389C216.577 55.8482 216.377 55.6922 216.151 55.5799C215.566 55.3208 214.687 55.1874 214.11 55.4778C214.044 55.5133 213.981 55.554 213.922 55.5995C213.796 55.7046 213.699 55.8396 213.639 55.992C213.451 56.463 213.246 56.938 213.066 57.409C212.95 57.7371 212.795 58.0506 212.607 58.3432C212.322 58.728 211.924 59.015 211.47 59.1647C211.015 59.3144 210.525 59.3195 210.067 59.1792C210.009 59.1604 209.953 59.1381 209.898 59.1125C209.113 58.7946 208.395 58.1077 207.574 58.2922C207.348 58.3525 207.137 58.4638 206.96 58.6175C206.782 58.7712 206.642 58.9633 206.55 59.1792C206.539 59.2019 206.529 59.2255 206.523 59.2499C206.357 59.6604 206.262 60.0955 206.24 60.5373C206.121 61.9118 206.169 63.2956 206.381 64.6587Z" fill="#F2F2F2"/>
<path d="M197.141 60.0745C197.335 60.2609 197.539 60.4364 197.753 60.6005C198.425 61.1624 199.139 61.6728 199.888 62.1274L200.006 62.2059C200.721 62.6339 201.46 63.0192 202.22 63.3599L202.875 63.6307C203.091 63.721 203.295 63.8073 203.519 63.878C203.629 63.9212 203.743 63.9604 203.861 63.9997H203.916C204.154 64.086 204.397 64.1645 204.646 64.2352L204.826 64.2784C205.046 64.3451 205.27 64.404 205.49 64.4471C205.788 64.5256 206.082 64.5924 206.388 64.6473C206.848 64.7376 207.323 64.8161 207.794 64.8711C208.548 64.9612 209.307 65.0057 210.066 65.0045H210.298C211.351 64.998 212.402 64.8995 213.438 64.7101C213.502 64.7038 213.565 64.6933 213.627 64.6787C213.819 64.6473 214.019 64.6081 214.204 64.561C214.329 64.5374 214.443 64.5099 214.569 64.4785C214.961 64.3922 215.354 64.2901 215.715 64.1685C215.946 64.0939 216.174 64.0232 216.402 63.9447C216.861 63.7838 217.32 63.6111 217.76 63.4148C217.828 63.3921 217.895 63.3646 217.96 63.3324L218.046 63.2931C218.627 63.0315 219.193 62.7397 219.742 62.4178C220.128 61.3903 220.455 60.3419 220.723 59.2777C220.722 59.2568 220.722 59.2358 220.723 59.2149C220.111 58.1277 219.569 56.9972 218.961 55.91C218.788 55.5006 218.51 55.1442 218.155 54.8768C217.8 54.6094 217.381 54.4404 216.94 54.387C216.514 54.2467 216.072 54.1649 215.625 54.1436C215.37 54.12 215.118 54.0767 214.871 54.0141C214.361 53.9003 213.795 53.7904 213.607 54.0141C213.599 54.02 213.592 54.0277 213.587 54.0365C213.583 54.0453 213.58 54.0551 213.58 54.0651C213.509 54.3288 213.541 54.6094 213.67 54.8502C213.756 55.0974 213.87 55.3565 213.929 55.5685C213.964 55.6696 213.984 55.7755 213.988 55.8825C214.002 56.3422 213.986 56.8024 213.941 57.2602C213.831 57.9275 213.462 58.5162 213.289 59.1639C213.211 59.4701 213.171 59.788 213.12 60.0981C213.011 60.7984 212.828 61.4852 212.575 62.147C212.529 62.2876 212.461 62.4201 212.374 62.5395C212.053 62.932 211.519 62.7829 211.012 62.7083C210.643 62.3943 210.663 61.8369 210.62 61.3659C210.512 60.5747 210.27 59.8076 209.905 59.0972L209.772 58.8146C209.38 58.002 208.987 57.1935 208.618 56.377C208.143 55.3644 207.652 54.2064 208.045 53.1584C208.159 52.8444 208.343 52.5657 208.469 52.2635C208.489 52.219 208.506 52.1731 208.52 52.1261C208.556 52.0104 208.576 51.8902 208.579 51.7689C208.593 51.6605 208.584 51.5504 208.553 51.4457C208.522 51.3409 208.469 51.2438 208.398 51.1605C208.377 51.1285 208.351 51.1006 208.32 51.0781C208.307 51.0642 208.29 51.0535 208.273 51.0467C208.143 50.9724 207.998 50.9301 207.85 50.9232C207.701 50.9164 207.552 50.9453 207.417 51.0075C207.262 51.0637 207.111 51.1306 206.965 51.2076C206.195 51.6418 205.452 52.1228 204.74 52.6482C204.531 52.7722 204.368 52.961 204.277 53.1859C204.26 53.335 204.235 53.4831 204.202 53.6294C204.092 53.9081 203.759 53.9906 203.472 54.0534C202.287 54.327 201.17 54.8395 200.19 55.5597C199.21 56.2798 198.388 57.1924 197.773 58.2415C197.565 58.5788 197.401 58.9416 197.286 59.3209C197.216 59.5675 197.167 59.8196 197.141 60.0745Z" fill="#096DD9"/>
<path d="M215.449 45.0646C214.754 45.775 213.643 45.8025 212.65 45.7868L212.682 45.3943L211.288 45.8928C211.65 45.6242 211.96 45.2917 212.203 44.9115C212.106 44.8394 211.99 44.7969 211.869 44.7892C211.749 44.7816 211.629 44.809 211.524 44.8683C211.315 44.9897 211.14 45.1627 211.017 45.3707C210.621 45.9635 210.369 46.6405 210.282 47.3479C210.194 48.0553 210.272 48.7734 210.511 49.445C210.369 49.5148 210.211 49.546 210.054 49.5357C209.896 49.5254 209.744 49.4738 209.612 49.3861C209.35 49.2067 209.149 48.9521 209.035 48.6561C208.953 48.4677 208.866 48.2636 208.67 48.189C208.585 48.1682 208.496 48.1763 208.416 48.2118C208.337 48.2473 208.271 48.3084 208.23 48.3852C208.148 48.5375 208.115 48.7118 208.136 48.8837C208.164 49.2762 208.458 49.6688 208.529 50.0613C208.599 50.4538 209.18 50.7678 208.874 51.0308C208.515 51.1658 208.141 51.2542 207.759 51.2938C207.684 51.2711 207.615 51.2303 207.559 51.1748C207.503 51.1194 207.461 51.0511 207.437 50.9758C207.127 50.2928 207.237 49.496 207.045 48.7699C206.867 48.1935 206.593 47.6509 206.236 47.1645C206.15 47.0159 206.048 46.8776 205.93 46.7524C205.807 46.6621 205.705 46.5454 205.632 46.4109C205.581 46.2696 205.679 46.0616 205.828 46.089C205.585 45.8531 205.322 45.6378 205.043 45.4453C205.318 45.0999 205.585 44.7466 205.828 44.3934C205.918 44.2678 206.012 44.1147 205.946 43.9773C205.908 43.9133 205.854 43.8604 205.789 43.8242L205.094 43.3532C205.094 43.0235 205.75 43.1452 205.852 42.8351C205.877 42.7533 205.877 42.6657 205.852 42.5839L205.608 41.6968L206.535 42.1168C206.642 42.1784 206.765 42.2071 206.888 42.1992C207.131 42.1639 207.249 41.8774 207.28 41.6301C207.255 41.3827 207.287 41.1329 207.375 40.9C207.795 40.9 208.215 40.9 208.631 40.9C208.658 40.6901 208.603 40.4777 208.478 40.3073L211.571 40.1346C212.096 40.0747 212.629 40.112 213.141 40.2445C213.304 40.3215 213.482 40.3617 213.663 40.3623C213.839 40.3623 214.02 40.1778 213.969 40.0051C214.433 40.2669 214.857 40.5933 215.229 40.9746C215.328 41.0947 215.449 41.1947 215.586 41.269C215.656 41.3048 215.734 41.3191 215.812 41.31C215.889 41.3009 215.963 41.2688 216.022 41.2179C216.108 41.1277 216.147 40.9667 216.273 40.9589C216.399 40.951 216.414 41.0217 216.462 41.0805C216.638 41.3078 216.782 41.5589 216.889 41.8263C217.112 41.7961 217.329 41.7381 217.537 41.6536C217.44 41.7571 217.377 41.8876 217.356 42.0278C217.335 42.168 217.357 42.3113 217.419 42.4386C217.521 42.7016 217.71 42.9254 217.835 43.1766C217.959 43.4482 218.042 43.7365 218.083 44.0322C218.145 44.4012 218.145 44.8683 217.82 45.0489C217.665 45.1022 217.499 45.1113 217.339 45.0752C217.18 45.0392 217.033 44.9594 216.917 44.8448C216.167 44.3109 216.03 44.4679 215.449 45.0646Z" fill="#192534"/>
<path d="M197.753 60.6002C198.425 61.1621 199.139 61.6725 199.888 62.1271L200.006 62.2056C200.721 62.6336 201.46 63.0189 202.22 63.3596L202.875 63.6304C203.091 63.7207 203.295 63.807 203.519 63.8777C203.629 63.9208 203.743 63.9601 203.861 63.9994C203.723 63.6068 203.633 63.2143 203.511 62.8218C203.187 61.7733 202.609 60.8213 201.827 60.0507C201.152 59.3755 200.077 58.3903 199.08 58.9869C198.776 59.1917 198.51 59.4481 198.295 59.7445C198.103 59.9629 197.94 60.2042 197.808 60.4628C197.788 60.4981 197.773 60.5452 197.753 60.6002Z" fill="#096DD9"/>
<path d="M216.418 63.952C216.877 63.7911 217.336 63.6184 217.776 63.4221C217.845 63.3994 217.912 63.3718 217.976 63.3397L218.063 63.3004C218.644 63.0388 219.209 62.747 219.758 62.4251C220.225 62.1582 220.681 61.8677 221.12 61.5616H221.148C221.113 61.124 221.113 60.6843 221.148 60.2467C221.17 60.0999 221.161 59.9499 221.12 59.807C221.066 59.6939 220.991 59.5916 220.901 59.5048C220.843 59.447 220.789 59.3854 220.74 59.3203C220.296 58.8218 219.935 58.2841 219.17 58.3626C218.404 58.4411 217.745 59.1005 217.423 59.8345C217.388 59.9051 217.359 59.9787 217.336 60.0543C217.118 60.7362 216.947 61.4327 216.826 62.1386C216.724 62.5743 216.595 62.9943 216.5 63.43C216.477 63.5909 216.442 63.7714 216.418 63.952Z" fill="#096DD9"/>
<path d="M127.935 179.599L127.762 179.693L127.935 179.599Z" fill="url(#paint0_linear)"/>
<path d="M103.823 158.399C102.307 162.764 104.078 169.849 104.898 173.008C105.442 175.294 105.802 177.62 105.974 179.964C107.82 180.278 109.709 180.235 111.54 179.838L110.213 173.326C111.159 169.468 110.213 159.161 110.213 159.161C110.213 159.161 112.36 155.177 112.568 149.104C112.752 143.13 114.224 141.199 114.272 141.136C117.306 142.706 121.164 159.667 121.164 159.667C120.846 163.777 121.227 170.1 122.491 173.515C123.258 175.684 123.581 177.985 123.441 180.282C123.686 180.458 123.967 180.579 124.264 180.636C124.561 180.693 124.867 180.684 125.16 180.611C126.966 180.321 129.132 178.763 129.132 178.763C129.132 178.763 128.438 160.315 127.931 159.604C127.425 158.894 127.931 154.925 127.931 154.925L127.107 148.472C127.107 148.472 127.233 137.533 126.032 135.637C124.995 133.997 124.756 131.119 124.709 130.362C124.709 130.244 124.709 130.177 124.709 130.177L122.88 127.983C122.88 127.983 105.173 126.657 103.842 127.983C103.516 128.309 103.316 129.051 103.195 129.985C102.829 132.854 103.249 137.533 103.249 137.533C103.249 137.533 103.779 141.011 104.541 144.551C104.996 146.678 104.996 148.877 104.541 151.004C104.783 153.492 104.539 156.004 103.823 158.399Z" fill="#575A89"/>
<path d="M104.914 186.13C105.699 187.174 110.354 186.73 111.143 186.405C111.626 186.208 111.591 185.298 111.461 184.364C111.379 183.767 111.257 183.159 111.206 182.715C111.08 181.577 111.598 179.269 111.598 179.269C111.598 179.269 110.554 180.376 110.303 179.269C110.244 179.058 110.129 178.867 109.97 178.716C109.811 178.565 109.614 178.46 109.4 178.413C108.859 178.249 108.276 178.285 107.76 178.515C106.935 178.868 105.565 179.63 105.797 180.658C106.142 182.111 104.91 184.191 104.91 184.191C104.687 184.469 104.565 184.815 104.565 185.172C104.565 185.529 104.687 185.875 104.91 186.153L104.914 186.13Z" fill="#CBCEDA"/>
<path opacity="0.1" d="M104.913 186.13C105.698 187.174 110.354 186.731 111.143 186.405C111.626 186.209 111.59 185.298 111.461 184.364C110.962 184.595 110.11 184.792 108.713 184.658C108.383 184.628 108.051 184.618 107.72 184.627C106.714 184.674 105.705 184.655 104.701 184.568C104.589 184.822 104.55 185.103 104.587 185.379C104.624 185.655 104.737 185.915 104.913 186.13Z" fill="black"/>
<path opacity="0.1" d="M121.136 159.667C120.818 163.777 121.199 170.1 122.463 173.515C123.23 175.684 123.553 177.985 123.413 180.282C123.659 180.458 123.939 180.579 124.236 180.636C124.533 180.693 124.839 180.685 125.132 180.612C124.74 177.946 123.126 166.454 122.082 157.375C121.327 151.087 119.013 145.087 115.351 139.92L114.244 141.136C117.278 142.718 121.136 159.667 121.136 159.667Z" fill="black"/>
<path d="M106.814 93.2025L107.599 96.9981L111.383 103.353L116.046 101.363C116.046 101.363 122.385 94.7215 118.401 93.7717C117.924 93.6714 117.473 93.4707 117.078 93.1829C116.737 92.9109 116.465 92.5615 116.286 92.1635C116.106 91.7656 116.024 91.3305 116.046 90.8945C116.077 89.9535 116.297 89.0284 116.694 88.1744L108.533 85.6191C108.867 86.6917 109.064 87.8022 109.118 88.9241C109.181 91.1457 108.353 92.2409 107.678 92.7629C107.422 92.9652 107.128 93.1146 106.814 93.2025Z" fill="#FBBEBE"/>
<path opacity="0.1" d="M108.533 85.6191C108.867 86.6917 109.063 87.8022 109.118 88.9241C109.265 89.1019 109.423 89.2698 109.593 89.4265C110.786 90.571 112.375 91.2107 114.028 91.2125C114.705 91.2138 115.379 91.1065 116.022 90.8945C116.053 89.9535 116.273 89.0284 116.67 88.1744L108.533 85.6191Z" fill="black"/>
<path d="M107.583 84.5708C107.582 85.8476 107.96 87.0959 108.669 88.1578C109.378 89.2196 110.386 90.0473 111.565 90.5361C112.745 91.0249 114.043 91.1528 115.295 90.9036C116.547 90.6544 117.698 90.0393 118.6 89.1363C119.503 88.2332 120.117 87.0826 120.365 85.8303C120.614 84.5779 120.485 83.28 119.996 82.1008C119.506 80.9216 118.678 79.9141 117.616 79.2058C116.553 78.4975 115.305 78.1203 114.028 78.1218C113.18 78.1182 112.34 78.2825 111.556 78.6054C110.772 78.9282 110.06 79.4032 109.461 80.0028C108.862 80.6024 108.387 81.3148 108.065 82.0989C107.742 82.8829 107.578 83.7231 107.583 84.5708Z" fill="#FBBEBE"/>
<path opacity="0.1" d="M106.814 93.2023L107.599 96.9979L111.383 103.353L116.046 101.363C116.046 101.363 122.385 94.7213 118.401 93.7714C117.924 93.6711 117.473 93.4705 117.078 93.1826C117.797 95.1452 114.829 99.2745 114.829 99.2745C114.484 99.7808 113.691 99.4629 113.691 99.4629C111.775 99.1724 108.255 93.6733 107.681 92.7587C107.425 92.9629 107.13 93.1137 106.814 93.2023Z" fill="black"/>
<path opacity="0.1" d="M103.159 129.973C104.281 130.229 110.495 131.606 112.85 131.261C115.445 130.868 120.485 130.629 120.485 130.629C120.485 130.629 123.696 130.802 124.681 130.35C124.681 130.232 124.681 130.166 124.681 130.166L122.852 127.972C122.852 127.972 105.145 126.645 103.814 127.972C103.481 128.309 103.28 129.051 103.159 129.973Z" fill="black"/>
<path d="M114.813 99.4629C114.813 99.4629 118.15 94.843 116.89 93.0414L122.526 95.3533C122.526 95.3533 125.918 94.9412 127.142 100.005C127.338 100.847 127.41 101.713 127.354 102.576C127.321 103.916 127.64 105.241 128.281 106.418C129.674 109.201 129.356 115.587 126.51 116.231C123.665 116.875 122.652 116.545 122.652 116.545C122.652 116.545 123.044 128.116 124.677 129.447C126.31 130.778 120.485 130.46 120.485 130.46C120.485 130.46 115.445 130.711 112.851 131.092C110.256 131.472 102.986 129.761 102.986 129.761C102.986 129.761 104.062 124.894 104.439 121.793C104.816 118.692 105.707 112.098 105.707 112.098L99.2535 103.361C99.2535 103.361 98.1152 98.0813 102.099 95.7419C106.083 93.4025 107.595 92.8255 107.595 92.8255C107.595 92.8255 111.598 99.3452 113.687 99.6631C113.675 99.6552 114.468 99.9732 114.813 99.4629Z" fill="#3F3D56"/>
<path opacity="0.1" d="M122.213 101.296C122.213 101.296 122.276 103.384 121.895 104.208C121.514 105.033 120.125 109.582 120.125 109.582H123.284C123.284 109.582 121.577 107.749 121.714 106.862C121.852 105.975 122.213 101.296 122.213 101.296Z" fill="black"/>
<path d="M112.85 117.044C112.85 117.044 119.833 115.337 120.485 113.88C121.136 112.424 122.93 109.17 122.93 109.17L122.192 108.177L118.797 110.842C118.797 110.842 114.75 114.069 112.85 114.375C110.95 114.681 112.85 117.044 112.85 117.044Z" fill="#FBBEBE"/>
<path opacity="0.05" d="M112.85 117.044C112.85 117.044 119.833 115.337 120.485 113.88C121.136 112.424 122.93 109.17 122.93 109.17L122.192 108.177L118.797 110.842C118.797 110.842 114.75 114.069 112.85 114.375C110.95 114.681 112.85 117.044 112.85 117.044Z" fill="black"/>
<path d="M106.814 108.825V112.612H107.422C110.43 112.612 113.389 113.378 116.019 114.838L117.161 115.47L117.467 115.643L119.43 111.227L117.597 109.582H117.502C117.051 109.625 115.112 109.79 114.292 109.511C113.471 109.233 112.541 108.405 110.237 108.993C109.106 109.284 108.137 110.563 107.038 110.171L106.814 108.825Z" fill="#FBBEBE"/>
<path opacity="0.1" d="M100.71 101.932L99.4463 103.353V106.815C99.4463 106.815 100.522 117.691 103.937 118.892C107.352 120.093 113.448 118.198 113.448 118.198C113.448 118.198 115.018 114.025 114.284 113.77C113.55 113.515 107.776 111.992 107.776 111.992C107.776 111.992 107.854 105.614 106.598 103.718C106.598 103.718 107.422 97.7711 104.577 97.6455C101.731 97.5199 100.71 101.932 100.71 101.932Z" fill="black"/>
<path d="M100.522 101.932L99.2539 103.353V106.815C99.2539 106.815 100.329 117.691 103.744 118.892C107.159 120.093 113.243 118.198 113.243 118.198C113.243 118.198 114.814 114.025 114.083 113.77C113.353 113.515 107.571 111.992 107.571 111.992C107.571 111.992 107.654 105.614 106.394 103.718C106.394 103.718 107.214 97.7711 104.368 97.6455C101.523 97.5199 100.522 101.932 100.522 101.932Z" fill="#3F3D56"/>
<path opacity="0.1" d="M109.353 87.311C109.298 86.8957 109.348 86.4733 109.499 86.0824C109.578 85.89 109.719 85.729 109.899 85.6241C110.079 85.5192 110.289 85.4761 110.496 85.5015C111.037 85.6271 111.281 86.3336 111.803 86.5024C112.033 86.5485 112.271 86.5149 112.48 86.4072C112.688 86.2994 112.854 86.124 112.949 85.9097C113.13 85.4744 113.206 85.0021 113.169 84.532C113.169 84.006 113.169 83.4761 113.169 82.9619C113.169 82.4477 113.188 81.7647 113.542 81.3134C113.985 80.7521 115.021 80.5048 115.712 80.5283C116.173 80.5319 116.615 80.71 116.949 81.0268C117.118 81.196 117.322 81.3254 117.548 81.4055C117.773 81.4857 118.014 81.5145 118.252 81.49C118.462 81.458 118.659 81.3674 118.82 81.2286C118.981 81.0897 119.1 80.9082 119.162 80.705C119.161 80.6986 119.161 80.6917 119.162 80.6853C118.624 79.9764 117.945 79.3865 117.168 78.9528C116.391 78.5191 115.533 78.2509 114.647 78.1651C113.761 78.0794 112.867 78.1779 112.021 78.4545C111.175 78.7312 110.395 79.1799 109.731 79.7725C109.067 80.365 108.533 81.0886 108.162 81.8977C107.792 82.7068 107.592 83.5839 107.577 84.4738C107.562 85.3636 107.731 86.247 108.074 87.0683C108.417 87.8897 108.926 88.6311 109.569 89.2461C109.459 88.6058 109.387 87.9597 109.353 87.311Z" fill="black"/>
<path d="M118.259 81.3016C118.469 81.2688 118.665 81.1778 118.826 81.0391C118.987 80.9004 119.106 80.7194 119.17 80.5166C119.221 80.3125 119.209 80.0926 119.268 79.8925C119.417 79.394 119.947 79.1349 120.3 78.7581C121.014 78.0005 120.967 76.7563 120.461 75.8496C120.068 75.1156 119.283 74.4993 118.439 74.6406C117.929 74.7309 117.486 75.0959 116.968 75.1273C116.468 75.0925 115.984 74.9362 115.558 74.672C114.461 74.1751 113.228 74.0658 112.061 74.3619C111.702 74.4334 111.369 74.6017 111.099 74.8487C110.916 75.0784 110.746 75.3182 110.589 75.567C109.996 76.3206 108.94 76.4658 108.002 76.6346C107.064 76.8034 106 77.1763 105.69 78.083C105.486 78.6796 105.69 79.3312 105.8 79.9553C105.842 80.0844 105.834 80.2246 105.777 80.3478C105.631 80.5911 105.262 80.4891 104.992 80.548C104.462 80.6579 104.324 81.333 104.305 81.8904C104.281 82.5145 104.265 83.1385 104.254 83.7626C104.22 84.0526 104.257 84.3464 104.36 84.6195C104.463 84.8926 104.63 85.1371 104.846 85.3327L106.935 87.8409C107.861 88.9556 108.842 90.2509 108.658 91.6875C109.094 91.8838 109.616 91.503 109.761 91.0438C109.859 90.5706 109.834 90.0802 109.69 89.619C109.521 88.8049 109.411 87.9798 109.36 87.15C109.305 86.7348 109.355 86.3124 109.506 85.9215C109.585 85.7279 109.726 85.566 109.907 85.461C110.088 85.3559 110.299 85.3136 110.507 85.3406C111.048 85.4662 111.292 86.1688 111.814 86.3415C112.044 86.3868 112.282 86.3529 112.49 86.2453C112.698 86.1376 112.864 85.9626 112.96 85.7488C113.141 85.3134 113.217 84.8412 113.18 84.3711V82.801C113.18 82.2279 113.199 81.6234 113.553 81.1524C113.996 80.5911 115.032 80.3478 115.723 80.3674C116.183 80.3748 116.623 80.5524 116.96 80.8659C117.13 81.0304 117.336 81.1548 117.56 81.2301C117.785 81.3055 118.024 81.3299 118.259 81.3016Z" fill="#3F3D56"/>
<path opacity="0.1" d="M116.803 101.139L114.84 109.276C114.84 109.276 113.262 109.264 116.803 101.139Z" fill="black"/>
<path opacity="0.1" d="M110.036 99.7809C110.036 99.7809 112.631 104.028 111.606 108.416L111.123 108.452C111.123 108.452 111.999 106.422 110.036 99.7809Z" fill="black"/>
<path opacity="0.1" d="M108.392 123.811C108.392 123.811 105.208 122.759 104.977 125.2C104.977 125.2 105.577 123.524 108.392 123.811Z" fill="black"/>
<path opacity="0.1" d="M117.596 109.77C117.596 109.77 118.228 114.198 117.089 115.968C118.876 116.6 120.773 116.858 122.663 116.726L123.056 109.77H117.596Z" fill="black"/>
<path opacity="0.1" d="M117.168 115.47L117.474 115.643L119.437 111.227L117.604 109.582H117.506C117.529 109.794 118.039 113.598 117.168 115.47Z" fill="black"/>
<path d="M117.596 109.582C117.596 109.582 118.228 114.01 117.089 115.78C118.876 116.41 120.773 116.667 122.663 116.538L124.877 109.582H117.596Z" fill="#3F3D56"/>
<path d="M123.056 183.437C123.093 183.753 123.233 184.047 123.456 184.274C123.678 184.501 123.97 184.647 124.285 184.689C126 184.948 130.137 185.6 131.181 186.098C132.512 186.73 137.76 186.287 138.011 185.655C138.047 185.529 138.057 185.397 138.042 185.267C138.026 185.137 137.985 185.011 137.921 184.897C137.742 184.51 137.445 184.19 137.073 183.983C136.947 183.916 136.816 183.859 136.681 183.814C135.692 183.484 133.827 182.786 133.321 182.052C133.321 182.052 130.993 180.015 130.33 178.912C130.205 178.695 130.028 178.512 129.816 178.38C129.604 178.248 129.362 178.17 129.113 178.154C128.559 178.13 127.935 178.409 127.692 179.622C127.692 179.622 124.658 181.353 123.837 179.834C123.837 179.834 123.708 182.165 123.205 182.805C123.074 182.988 123.021 183.215 123.056 183.437Z" fill="#CBCEDA"/>
<path opacity="0.1" d="M123.056 183.437C123.093 183.753 123.233 184.047 123.456 184.274C123.678 184.501 123.97 184.647 124.285 184.689C126 184.949 130.137 185.6 131.181 186.099C132.512 186.731 137.76 186.287 138.011 185.655C138.047 185.529 138.057 185.397 138.042 185.267C138.026 185.137 137.985 185.012 137.921 184.897C137.742 184.511 137.445 184.19 137.073 183.983C136.217 184.552 134.325 185.109 130.141 184.454C126.153 183.834 124.179 183.221 123.217 182.809C123.083 182.989 123.025 183.215 123.056 183.437Z" fill="black"/>
<g opacity="0.1">
<path opacity="0.1" d="M105.809 80.0296C105.809 80.0296 105.809 80.01 105.809 80.0021C105.687 79.5327 105.623 79.0504 105.616 78.5656C105.647 78.9574 105.703 79.3469 105.785 79.7313C105.814 79.8279 105.822 79.9296 105.809 80.0296Z" fill="black"/>
<path opacity="0.1" d="M109.499 85.9489C109.399 86.1783 109.346 86.425 109.342 86.675C109.314 86.3311 109.367 85.9854 109.499 85.6662C109.579 85.4731 109.72 85.3116 109.901 85.2066C110.082 85.1017 110.292 85.0591 110.5 85.0853C111.041 85.2109 111.285 85.9175 111.807 86.0862C112.037 86.1323 112.275 86.0987 112.484 85.991C112.692 85.8833 112.858 85.7078 112.953 85.4935C113.135 85.0583 113.21 84.586 113.173 84.1158C113.173 83.5899 113.173 83.06 113.173 82.5458C113.173 82.0316 113.192 81.3486 113.546 80.8972C113.989 80.3359 115.025 80.0886 115.716 80.1122C116.177 80.1157 116.619 80.2939 116.953 80.6107C117.122 80.7799 117.327 80.9093 117.552 80.9894C117.777 81.0695 118.018 81.0984 118.256 81.0738C118.466 81.0423 118.664 80.9519 118.825 80.813C118.986 80.674 119.104 80.4923 119.167 80.2888C119.218 80.0847 119.206 79.8649 119.265 79.6647C119.414 79.1662 119.944 78.9072 120.297 78.5303C120.631 78.1649 120.821 77.6907 120.831 77.1958C120.858 77.4882 120.824 77.7829 120.732 78.0618C120.64 78.3406 120.492 78.5977 120.297 78.8169C119.944 79.2094 119.414 79.4527 119.265 79.9473C119.206 80.1514 119.218 80.3673 119.167 80.5714C119.104 80.7747 118.985 80.9562 118.824 81.095C118.663 81.2339 118.466 81.3245 118.256 81.3564C118.018 81.3813 117.777 81.3522 117.551 81.2714C117.325 81.1905 117.121 81.06 116.953 80.8894C116.618 80.5742 116.176 80.3963 115.716 80.3909C115.025 80.3673 113.989 80.6146 113.546 81.1759C113.192 81.6273 113.177 82.2514 113.173 82.8244C113.169 83.3975 113.173 83.8803 113.173 84.3945C113.21 84.8634 113.134 85.3343 112.953 85.7683C112.859 85.9835 112.694 86.1599 112.485 86.2678C112.276 86.3757 112.037 86.4086 111.807 86.361C111.277 86.1922 111.041 85.4896 110.5 85.364C110.292 85.3367 110.08 85.3793 109.899 85.4851C109.718 85.591 109.577 85.7541 109.499 85.9489Z" fill="black"/>
<path opacity="0.1" d="M104.302 84.2103C104.418 84.5351 104.601 84.8319 104.84 85.0816L106.928 87.5898C107.807 88.6457 108.737 89.8664 108.667 91.2166C108.604 89.9802 107.744 88.8615 106.928 87.8724L104.84 85.3642C104.623 85.1686 104.456 84.9241 104.353 84.651C104.25 84.3779 104.214 84.0842 104.247 83.7942C104.247 83.9347 104.265 84.0746 104.302 84.2103Z" fill="black"/>
<path opacity="0.1" d="M109.754 90.7927C109.789 90.6818 109.81 90.5672 109.817 90.4512C109.834 90.6613 109.813 90.8728 109.754 91.0753C109.609 91.5346 109.091 91.9153 108.651 91.7151C108.664 91.6241 108.67 91.5323 108.671 91.4404C108.9 91.4964 109.143 91.4599 109.345 91.3387C109.548 91.2175 109.695 91.0214 109.754 90.7927Z" fill="black"/>
</g>
<path opacity="0.1" d="M130.766 179.489C130.766 179.489 130.106 180.666 127.712 179.626L130.766 179.489Z" fill="black"/>
<path opacity="0.1" d="M110.515 179.767C110.515 179.767 108.45 182.201 105.848 180.552L110.515 179.767Z" fill="black"/>
<path opacity="0.1" d="M104.505 151.004C104.505 151.004 105.962 151.915 106.013 152.437C106.064 152.959 105.259 152.044 105.259 152.044L104.505 151.004Z" fill="black"/>
<path opacity="0.1" d="M103.929 157.995C104.436 158.418 105.067 158.665 105.726 158.698C106.818 158.745 106.727 160.166 106.013 159.742C105.275 159.213 104.578 158.629 103.929 157.995Z" fill="black"/>
<path opacity="0.1" d="M103.649 158.905C103.649 158.905 104.352 162.348 104.921 161.684L103.649 158.905Z" fill="black"/>
<path d="M32.6934 180.462C33.8709 178.299 32.5324 175.65 31.0094 173.722C29.4865 171.795 27.6298 169.797 27.6691 167.328C27.7279 163.796 31.4765 161.708 34.4715 159.835C36.6954 158.447 38.7457 156.799 40.5792 154.925C41.3463 154.203 41.9813 153.353 42.4554 152.413C43.0756 151.031 43.056 149.461 43.0167 147.95C42.8859 142.908 42.6373 137.872 42.2709 132.842" stroke="#3F3D56" stroke-width="4" stroke-miterlimit="10"/>
<path d="M47.9661 132.568C47.9243 131.645 47.6507 130.748 47.1704 129.959C46.6902 129.17 46.0188 128.515 45.2184 128.054L43.9859 130.491L44.0212 127.54C42.9039 127.213 41.7118 127.25 40.6167 127.645C39.5217 128.039 38.5803 128.772 37.9282 129.736C37.2761 130.7 36.947 131.846 36.9883 133.01C37.0297 134.173 37.4394 135.293 38.1583 136.208C38.8772 137.124 39.8683 137.787 40.9886 138.103C42.1089 138.419 43.3006 138.371 44.3919 137.966C45.4832 137.561 46.4178 136.82 47.0608 135.85C47.7039 134.88 48.0222 133.731 47.97 132.568H47.9661Z" fill="#57B894"/>
<path d="M38.1412 169.853C37.5633 170.973 36.6181 171.86 35.4638 172.366C34.3096 172.872 33.0165 172.966 31.8012 172.632C30.586 172.298 29.5225 171.556 28.789 170.532C28.0554 169.507 27.6964 168.261 27.7721 167.003C27.8478 165.745 28.3536 164.551 29.2048 163.622C30.0559 162.692 31.2007 162.084 32.4472 161.898C33.6937 161.712 34.9662 161.96 36.0514 162.601C37.1367 163.242 37.9687 164.236 38.4081 165.417L34.9657 168.216L38.7535 167.341C38.7521 168.215 38.5422 169.076 38.1412 169.853Z" fill="#57B894"/>
<path d="M35.4211 159.157C34.0523 159.253 32.6969 158.835 31.6213 157.982C30.5458 157.13 29.828 155.907 29.609 154.552C29.39 153.197 29.6858 151.81 30.4381 150.662C31.1904 149.515 32.3448 148.69 33.6744 148.351L33.643 150.62L34.8912 148.151C35.614 148.115 36.3367 148.223 37.0177 148.468C37.6987 148.712 38.3248 149.089 38.8598 149.576C39.3948 150.064 39.8284 150.652 40.1355 151.307C40.4426 151.962 40.6173 152.672 40.6495 153.395C40.6818 154.03 40.6021 154.667 40.414 155.275C40.083 156.357 39.4257 157.311 38.532 158.006C37.6383 158.701 36.5519 159.103 35.4211 159.157Z" fill="#57B894"/>
<path d="M48.7941 150.258C47.9484 150.29 47.1067 150.126 46.3349 149.778C45.563 149.431 44.8817 148.911 44.3441 148.257C43.8065 147.603 43.4272 146.834 43.2358 146.01C43.0443 145.186 43.0458 144.328 43.2402 143.504C43.4346 142.681 43.8166 141.913 44.3565 141.261C44.8964 140.61 45.5795 140.091 46.3526 139.747C47.1257 139.403 47.968 139.241 48.8136 139.276C49.6592 139.311 50.4854 139.54 51.2278 139.947L50.2543 142.616L52.2601 140.692C53.3329 141.675 53.9723 143.043 54.0382 144.496C54.0644 145.006 54.0181 145.518 53.9009 146.015C53.626 147.181 52.9789 148.226 52.0576 148.991C51.1362 149.757 49.9907 150.201 48.7941 150.258Z" fill="#57B894"/>
<path opacity="0.1" d="M47.2245 134.036C45.9527 134.173 44.7163 134.569 43.4406 134.648C42.1649 134.726 40.7636 134.42 39.955 133.431C39.5232 132.897 39.3034 132.218 38.9383 131.637C38.5897 131.094 38.1124 130.645 37.5488 130.33C37.2164 131.025 37.0338 131.782 37.0128 132.552C36.9918 133.322 37.1328 134.088 37.4268 134.799C37.7208 135.511 38.1612 136.153 38.7194 136.684C39.2775 137.215 39.941 137.622 40.6668 137.88C41.3926 138.138 42.1644 138.24 42.9323 138.18C43.7002 138.121 44.447 137.9 45.1241 137.533C45.8013 137.166 46.3938 136.661 46.8632 136.05C47.3325 135.44 47.6683 134.737 47.8486 133.989C47.6419 133.996 47.4338 134.012 47.2245 134.036Z" fill="black"/>
<path opacity="0.1" d="M48.7953 150.258C47.8452 150.307 46.8988 150.107 46.0488 149.68C45.1989 149.253 44.4743 148.612 43.9462 147.821C43.418 147.03 43.1043 146.115 43.0358 145.166C42.9672 144.218 43.1462 143.267 43.5551 142.408C43.9922 142.702 44.3681 143.078 44.662 143.515C45.0545 144.108 45.294 144.795 45.7532 145.336C46.6128 146.345 48.077 146.675 49.4076 146.616C50.7383 146.557 52.0218 146.176 53.3328 146.055C53.5173 146.055 53.7018 146.027 53.8902 146.023C53.6144 147.186 52.9685 148.227 52.0496 148.991C51.1308 149.755 49.9887 150.2 48.7953 150.258Z" fill="black"/>
<path opacity="0.1" d="M35.4213 159.157C34.4797 159.205 33.5415 159.01 32.6969 158.591C31.8523 158.172 31.1297 157.543 30.5987 156.764C30.0676 155.985 29.7459 155.082 29.6646 154.143C29.5832 153.204 29.7448 152.259 30.134 151.401C30.5917 151.698 30.9908 152.077 31.3115 152.519C31.7394 153.124 32.0063 153.818 32.5087 154.376C33.439 155.412 35.0013 155.777 36.4065 155.742C37.8117 155.707 39.0874 155.381 40.4416 155.275C40.109 156.362 39.4476 157.318 38.5485 158.014C37.6494 158.709 36.5568 159.108 35.4213 159.157Z" fill="black"/>
<path opacity="0.1" d="M38.1417 169.852C37.5457 171.184 36.445 172.225 35.0817 172.745C33.7184 173.266 32.2042 173.223 30.8722 172.627C29.5401 172.031 28.4995 170.931 27.979 169.568C27.4586 168.204 27.501 166.69 28.097 165.358C28.5526 165.654 28.9603 166.018 29.306 166.438C29.832 167.073 30.1774 167.8 30.7819 168.4C31.9084 169.507 33.7258 169.97 35.3469 170.005C36.2807 170.01 37.214 169.959 38.1417 169.852Z" fill="black"/>
<path d="M24.3843 177.973C24.3843 177.973 28.7334 177.86 30.0288 176.906C31.3241 175.952 36.7017 174.861 37.0392 176.356C37.3768 177.852 43.5747 183.814 38.6643 183.838C33.7538 183.861 27.2615 183.053 25.9504 182.267C24.6394 181.482 24.3843 177.973 24.3843 177.973Z" fill="#656380"/>
<path opacity="0.2" d="M38.7703 183.316C33.8598 183.359 27.3635 182.554 26.0564 181.746C25.0594 181.137 24.663 178.959 24.5295 177.958H24.3843C24.3843 177.958 24.659 181.463 25.9544 182.276C27.2497 183.088 33.7617 183.877 38.6682 183.846C40.0852 183.846 40.5759 183.332 40.5484 182.586C40.3639 183.029 39.8419 183.308 38.7703 183.316Z" fill="black"/>
</g>
<defs>
<linearGradient id="paint0_linear" x1="127.849" y1="179.693" x2="127.849" y2="179.599" gradientUnits="userSpaceOnUse">
<stop stop-color="#808080" stop-opacity="0.25"/>
<stop offset="0.54" stop-color="#808080" stop-opacity="0.12"/>
<stop offset="1" stop-color="#808080" stop-opacity="0.1"/>
</linearGradient>
<clipPath id="clip0">
<rect width="462" height="194" fill="white"/>
</clipPath>
</defs>
</svg>
