<svg width="183" height="119" viewBox="0 0 183 119" fill="none" xmlns="http://www.w3.org/2000/svg">
<g clip-path="url(#clip0)">
<path d="M183 55.8701C183 60.6045 181.216 65.1646 178.004 68.6388C174.792 72.1129 170.39 74.2451 165.676 74.6091C165.517 74.6212 165.356 74.6332 165.195 74.6404V56.8026C165.195 56.6243 165.155 56.4483 165.078 56.2873C165.002 56.1264 164.89 55.9847 164.752 55.8725C164.736 55.8561 164.718 55.8415 164.699 55.8291C164.681 55.8149 164.663 55.802 164.644 55.7906C164.475 55.6816 164.281 55.6168 164.08 55.6021C163.88 55.5874 163.679 55.6232 163.496 55.7063L163.296 55.2677C163.514 55.1681 163.752 55.1164 163.992 55.1159L150.286 43.2923C150.392 43.1718 150.503 43.0538 150.613 42.9357C153.197 40.2082 156.538 38.3192 160.205 37.513C163.872 36.7067 167.696 37.0202 171.183 38.4129C174.671 39.8056 177.661 42.2135 179.767 45.3255C181.874 48.4375 183 52.1105 183 55.8701Z" fill="#F2F2F2"/>
<path d="M4.75906 68.6854C4.69091 68.3366 4.69993 67.9772 4.7855 67.6324C4.87106 67.2875 5.03109 66.9657 5.25431 66.6894C5.47753 66.4132 5.75851 66.1894 6.07746 66.0337C6.39641 65.878 6.74557 65.7942 7.10035 65.7883L17.9189 52.8916L20.6198 56.3497L9.59418 68.3523C9.56465 68.9498 9.31728 69.5157 8.89894 69.9427C8.4806 70.3698 7.92035 70.6284 7.32437 70.6694C6.72838 70.7105 6.13806 70.5312 5.66526 70.1655C5.19246 69.7998 4.87003 69.2732 4.75908 68.6854H4.75906Z" fill="#FFB8B8"/>
<path d="M56.1317 52.8119C56.056 52.9216 55.989 53.037 55.9314 53.1573L44.1186 54.8482L42.3249 52.5677L38.5342 54.8288L42.0974 60.3922L56.5043 56.1393C56.8845 56.4839 57.3604 56.7045 57.8688 56.7716C58.3772 56.8388 58.894 56.7494 59.3505 56.5152C59.8069 56.2811 60.1813 55.9134 60.424 55.461C60.6666 55.0085 60.766 54.4929 60.7088 53.9825C60.6517 53.4722 60.4407 52.9914 60.104 52.604C59.7674 52.2166 59.3209 51.9411 58.824 51.814C58.3272 51.6869 57.8034 51.7143 57.3225 51.8926C56.8416 52.0708 56.4262 52.3915 56.1317 52.8119Z" fill="#FFB8B8"/>
<path d="M35.9541 95.9018L38.0446 97.986L47.0676 90.9039L43.9824 87.8276L35.9541 95.9018Z" fill="#FFB8B8"/>
<path d="M40.1436 103.95L33.5739 97.3989L36.1013 94.8571L40.1327 98.8768C40.466 99.2092 40.7307 99.6041 40.9116 100.039C41.0926 100.474 41.1862 100.94 41.1872 101.411C41.1883 101.882 41.0966 102.349 40.9175 102.784C40.7385 103.22 40.4755 103.616 40.1435 103.95L40.1436 103.95Z" fill="#2F2E41"/>
<path d="M24.8423 115.894H27.7922L29.1955 104.5H24.8418L24.8423 115.894Z" fill="#FFB8B8"/>
<path d="M33.4814 118.637L24.2104 118.637L24.2103 115.05L29.8993 115.05C30.3697 115.05 30.8355 115.143 31.2701 115.323C31.7047 115.503 32.0996 115.767 32.4322 116.1C32.7648 116.433 33.0287 116.829 33.2087 117.264C33.3888 117.699 33.4814 118.166 33.4814 118.637Z" fill="#2F2E41"/>
<path d="M24.2015 107.094L20.8415 82.2786C20.3156 78.5284 20.4788 74.7135 21.323 71.0221C22.0125 68.0555 22.944 66.0006 24.0917 64.9147C24.2728 64.7445 24.5047 64.6385 24.7517 64.6129L35.8456 63.4556C36.0593 63.4337 36.2748 63.4731 36.4669 63.5693C36.6591 63.6655 36.82 63.8144 36.9308 63.9986L37.2955 64.6072C37.3397 64.6811 37.3754 64.7598 37.4019 64.8418L39.7474 72.1234C39.7824 72.2334 39.8389 72.3354 39.9136 72.4234C39.9883 72.5113 40.0798 72.5835 40.1826 72.6358C43.8755 74.5239 55.8714 80.8975 55.1849 83.6474C54.5399 86.2312 48.5008 90.4206 46.6653 91.6429C46.4784 91.768 46.2582 91.834 46.0334 91.8323C45.8086 91.8306 45.5894 91.7613 45.4044 91.6333L42.3575 89.5457C42.2088 89.4438 42.0865 89.3077 42.0011 89.1487C41.9156 88.9898 41.8693 88.8127 41.8662 88.6322C41.863 88.4517 41.9031 88.2731 41.983 88.1113C42.0628 87.9495 42.1802 87.8092 42.3253 87.7021L44.4265 86.1517C44.5551 86.0568 44.6554 85.9285 44.7167 85.7808C44.7779 85.633 44.7977 85.4714 44.7741 85.3132C44.7504 85.155 44.6841 85.0062 44.5823 84.883C44.4805 84.7597 44.347 84.6665 44.1963 84.6135L32.9118 80.6485C32.7851 80.6039 32.6499 80.5891 32.5166 80.6051C32.3833 80.6211 32.2554 80.6675 32.1428 80.7407C32.0301 80.8139 31.9358 80.9121 31.867 81.0275C31.7981 81.143 31.7566 81.2727 31.7457 81.4067L29.6651 106.873C29.6421 107.146 29.5212 107.401 29.3247 107.592C29.1281 107.782 28.8693 107.895 28.5961 107.91L25.3768 108.071C25.3572 108.072 25.3378 108.072 25.3183 108.072C25.0451 108.073 24.7809 107.975 24.5753 107.794C24.3696 107.614 24.2367 107.365 24.2015 107.094Z" fill="#2F2E41"/>
<path d="M29.2896 42.9104C32.5535 42.9104 35.1994 40.2608 35.1994 36.9923C35.1994 33.7238 32.5535 31.0742 29.2896 31.0742C26.0258 31.0742 23.3799 33.7238 23.3799 36.9923C23.3799 40.2608 26.0258 42.9104 29.2896 42.9104Z" fill="#FFB8B8"/>
<path d="M23.7612 63.9011L19.4111 48.0066L19.4856 47.9563C19.5791 47.8933 28.9554 41.6931 39.9331 46.6896L40.1322 46.804L37.5545 63.3014C37.4983 63.6779 37.3126 64.0229 37.0295 64.277C36.7465 64.5311 36.3837 64.6783 36.0039 64.6933L25.3969 65.1018C25.3756 65.1026 25.3542 65.1031 25.333 65.1031C24.9755 65.1039 24.6276 64.9865 24.3434 64.7692C24.0593 64.5519 23.8546 64.2468 23.7612 63.9011Z" fill="#CCCCCC"/>
<path d="M19.2463 58.3545L15.6233 54.1823C15.4488 53.9818 15.3506 53.7261 15.3459 53.4602C15.3412 53.1943 15.4304 52.9353 15.5977 52.7288L19.3851 48.0435L22.2926 48.8376L23.834 54.2402L21.0235 58.261C20.9254 58.4021 20.7964 58.5188 20.6463 58.6021C20.4962 58.6854 20.3289 58.7332 20.1575 58.7417C20.1372 58.7427 20.1171 58.7432 20.0969 58.7432C19.9356 58.7435 19.776 58.7089 19.6292 58.6418C19.4824 58.5748 19.3518 58.4767 19.2463 58.3545Z" fill="#CCCCCC"/>
<path d="M39.281 57.4852C39.1095 57.4767 38.9423 57.4289 38.7922 57.3456C38.6421 57.2623 38.5131 57.1456 38.415 57.0045L35.6045 52.9837L36.9563 47.2966L39.6333 46.5654L40.1328 46.8041L43.8408 51.4723C44.0081 51.6788 44.0973 51.9378 44.0926 52.2037C44.0879 52.4696 43.9897 52.7253 43.8152 52.9257L40.1922 57.098C40.0867 57.2202 39.9561 57.3182 39.8093 57.3853C39.6625 57.4524 39.5029 57.487 39.3416 57.4867C39.3215 57.4867 39.3012 57.4862 39.281 57.4852Z" fill="#CCCCCC"/>
<path d="M165.194 55.6218C165.196 55.6818 165.176 55.7404 165.136 55.7857C165.095 55.8342 165.036 55.8643 164.972 55.8693C164.909 55.8742 164.846 55.8537 164.797 55.8122L163.991 55.1158L150.286 43.2922L111.845 10.1249C111.626 9.93689 111.347 9.83378 111.058 9.83423C110.769 9.83467 110.49 9.93863 110.272 10.1273L58.5058 55.164L58.0391 55.5688C58.0211 55.5847 58.0008 55.5977 57.9789 55.6073C57.9404 55.6244 57.898 55.6311 57.8561 55.6266C57.796 55.6202 57.7404 55.5919 57.6998 55.5471C57.6788 55.5234 57.6628 55.4958 57.6526 55.4659C57.6424 55.436 57.6381 55.4043 57.6401 55.3727C57.6421 55.3412 57.6504 55.3103 57.6643 55.2819C57.6782 55.2536 57.6976 55.2282 57.7214 55.2074L57.7863 55.1495L109.956 9.76345C110.263 9.49978 110.653 9.3544 111.057 9.35352C111.462 9.35264 111.853 9.4963 112.16 9.75863L150.613 42.9356L165.11 55.4459C165.135 55.4679 165.156 55.4948 165.17 55.5251C165.185 55.5553 165.193 55.5883 165.194 55.6218Z" fill="#3F3D56"/>
<path d="M135.967 62.7371L135.334 60.9926L133.154 54.9687L128.458 41.9982L123.207 27.5L113.739 1.34924C113.553 0.839281 113.173 0.423881 112.682 0.194008C112.191 -0.0358641 111.629 -0.0614735 111.119 0.122788L56.3769 19.9991C55.8675 20.1851 55.4525 20.5657 55.2229 21.0576C54.9934 21.5495 54.9679 22.1124 55.1522 22.6231L68.576 59.6962L68.8046 60.33L82.8949 66.7249L86.8554 68.5224L87.4979 68.8139L104.266 76.4257L104.916 76.1895L115.914 72.1969L132.505 66.1731L134.74 65.3611C135.25 65.1753 135.665 64.7948 135.895 64.303C136.125 63.8111 136.151 63.248 135.967 62.7371Z" fill="#E6E6E6"/>
<path d="M113.012 31.8564C112.739 31.1058 112.18 30.4944 111.457 30.1561C110.735 29.8177 109.908 29.7802 109.157 30.0516L87.4972 37.9188L77.0378 41.7162C76.6662 41.8507 76.3246 42.0572 76.0327 42.324C75.7409 42.5908 75.5044 42.9126 75.3367 43.2709C75.1691 43.6293 75.0736 44.0172 75.0558 44.4125C75.038 44.8079 75.0981 45.2028 75.2328 45.5749C75.3675 45.9469 75.5741 46.2887 75.8408 46.5807C76.1075 46.8728 76.429 47.1093 76.787 47.2768C77.1451 47.4443 77.5325 47.5396 77.9273 47.557C78.3221 47.5745 78.7165 47.5139 79.0878 47.3786L87.4972 44.3257L111.21 35.7164C111.959 35.443 112.57 34.883 112.908 34.1594C113.246 33.4358 113.283 32.6076 113.012 31.8564Z" fill="white"/>
<path d="M116.826 42.391C116.553 41.6405 115.994 41.029 115.271 40.6907C114.549 40.3524 113.722 40.3148 112.971 40.5863L109.302 41.9187L87.4976 49.8365L80.8519 52.2484C80.1025 52.5212 79.4918 53.0808 79.1541 53.8042C78.8165 54.5276 78.7794 55.3556 79.0511 56.1064C79.3228 56.8571 79.881 57.4691 80.6031 57.8079C81.3251 58.1468 82.152 58.1846 82.9019 57.9133L87.4975 56.2435L115.024 46.2487C115.086 46.227 115.147 46.2005 115.207 46.174C115.906 45.8669 116.462 45.3052 116.762 44.6028C117.063 43.9003 117.086 43.1096 116.826 42.391Z" fill="white"/>
<path d="M120.68 53.037C120.408 52.2866 119.849 51.6751 119.127 51.3368C118.405 50.9984 117.578 50.9608 116.828 51.2322L106.537 54.9694L98.5703 57.8633L87.4972 61.8824L84.7062 62.8968C84.0611 63.1321 83.5156 63.5809 83.1599 64.1689C82.8041 64.7569 82.6595 65.4489 82.7499 66.1304C82.7775 66.3332 82.8259 66.5327 82.8943 66.7256L86.8548 68.5231L87.4972 68.2894H87.502L107.596 60.9933L118.878 56.8971C119.628 56.6242 120.239 56.0643 120.577 55.3405C120.915 54.6167 120.952 53.7882 120.68 53.037H120.68Z" fill="white"/>
<path d="M98.1278 21.5004C97.8547 20.7499 97.2956 20.1384 96.573 19.8001C95.8504 19.4618 95.0233 19.4242 94.2731 19.6956L81.8333 24.2111C81.0839 24.4839 80.4732 25.0434 80.1356 25.7668C79.7979 26.4902 79.7609 27.3183 80.0325 28.069C80.3042 28.8198 80.8624 29.4318 81.5845 29.7706C82.3066 30.1094 83.1334 30.1473 83.8834 29.8759L87.8199 28.4471L90.4256 27.5001L96.3256 25.358C97.0749 25.0851 97.6855 24.5257 98.0234 23.8024C98.3612 23.0792 98.3988 22.2513 98.1278 21.5004Z" fill="white"/>
<path d="M147.772 27.5005H89.5433C89.1998 27.5008 88.862 27.5878 88.5609 27.7532C88.2599 27.9187 88.0052 28.1575 87.8206 28.4474C87.6094 28.7757 87.4974 29.1581 87.498 29.5486V68.8145L104.267 76.4262L106.629 77.4984L110.361 79.1924C110.58 79.2912 110.817 79.3423 111.057 79.3423C111.296 79.3423 111.533 79.2912 111.752 79.1924L115.484 77.4984L127.163 72.1975L138.049 67.2555L149.817 61.916V29.5486C149.817 29.0055 149.601 28.4848 149.218 28.1007C148.834 27.7167 148.314 27.5008 147.772 27.5005Z" fill="#096DD9"/>
<path d="M135.741 54.9692H101.573C100.796 54.9697 100.05 55.2712 99.4901 55.8107C98.9303 56.3502 98.6007 57.0857 98.5704 57.8631C98.5664 57.9023 98.5648 57.9417 98.5656 57.9812C98.5668 58.7796 98.884 59.5451 99.4478 60.1097C100.012 60.6743 100.776 60.992 101.573 60.9931H135.741C136.538 60.9931 137.303 60.6758 137.867 60.1109C138.431 59.5461 138.748 58.78 138.748 57.9812C138.748 57.1824 138.431 56.4163 137.867 55.8514C137.303 55.2866 136.538 54.9692 135.741 54.9692Z" fill="white"/>
<path d="M137.687 66.8914C137.145 66.4268 136.454 66.172 135.74 66.1733H101.573C100.775 66.1733 100.01 66.4907 99.4464 67.0555C98.8823 67.6204 98.5654 68.3865 98.5654 69.1853C98.5654 69.9841 98.8823 70.7502 99.4464 71.315C100.01 71.8799 100.775 72.1972 101.573 72.1972H127.162L138.048 67.2552C137.938 67.124 137.817 67.0022 137.687 66.8914Z" fill="white"/>
<path d="M106.629 77.4985L110.361 79.1924C110.579 79.2913 110.816 79.3424 111.056 79.3424C111.296 79.3424 111.533 79.2913 111.752 79.1924L115.483 77.4985H106.629Z" fill="white"/>
<path d="M128.099 42.1286C127.887 41.5488 127.502 41.0481 126.997 40.6943C126.492 40.3405 125.89 40.1506 125.274 40.1504H112.04C111.462 40.1509 110.897 40.318 110.411 40.6316C109.926 40.9452 109.541 41.3921 109.302 41.919C109.124 42.3091 109.032 42.7333 109.032 43.1623C109.033 43.9608 109.351 44.7262 109.914 45.2908C110.478 45.8554 111.243 46.1731 112.04 46.1742H125.274C125.758 46.1743 126.234 46.0574 126.663 45.8336C127.092 45.6097 127.461 45.2855 127.739 44.8884C128.016 44.4913 128.193 44.0331 128.256 43.5527C128.319 43.0722 128.265 42.5837 128.099 42.1286Z" fill="white"/>
<path d="M125.996 72.197L114.316 77.4979L111.552 78.7533C111.396 78.8236 111.227 78.8599 111.056 78.8599C110.885 78.8599 110.716 78.8236 110.56 78.7533L107.796 77.4979H106.629L110.361 79.1919C110.579 79.2907 110.816 79.3419 111.056 79.3419C111.296 79.3419 111.533 79.2907 111.751 79.1919L115.483 77.4979L127.163 72.197H125.996ZM125.996 72.197L114.316 77.4979L111.552 78.7533C111.396 78.8236 111.227 78.8599 111.056 78.8599C110.885 78.8599 110.716 78.8236 110.56 78.7533L107.796 77.4979H106.629L110.361 79.1919C110.579 79.2907 110.816 79.3419 111.056 79.3419C111.296 79.3419 111.533 79.2907 111.751 79.1919L115.483 77.4979L127.163 72.197H125.996ZM125.996 72.197L114.316 77.4979L111.552 78.7533C111.396 78.8236 111.227 78.8599 111.056 78.8599C110.885 78.8599 110.716 78.8236 110.56 78.7533L107.796 77.4979H106.629L110.361 79.1919C110.579 79.2907 110.816 79.3419 111.056 79.3419C111.296 79.3419 111.533 79.2907 111.751 79.1919L115.483 77.4979L127.163 72.197H125.996ZM165.194 55.6217C165.105 55.5333 165.008 55.4542 164.903 55.3856C164.667 55.2321 164.395 55.1409 164.114 55.1202C163.833 55.0996 163.552 55.1503 163.296 55.2675L137.687 66.8912L125.996 72.197L114.316 77.4979L111.552 78.7533C111.396 78.8236 111.227 78.8599 111.056 78.8599C110.885 78.8599 110.716 78.8236 110.56 78.7533L107.796 77.4979L104.915 76.1896L87.5022 68.2887L87.4974 68.2863L82.75 66.1298L68.5755 59.6963L58.8162 55.2675C58.7169 55.2215 58.6128 55.1868 58.5058 55.1639C58.2701 55.105 58.0242 55.1 57.7863 55.1495C57.4058 55.2275 57.0638 55.4345 56.8179 55.7356C56.572 56.0367 56.4373 56.4135 56.4365 56.8024V117.313C56.437 117.76 56.6146 118.189 56.9304 118.505C57.2461 118.822 57.6743 118.999 58.1208 119H163.991C164.438 118.999 164.866 118.822 165.181 118.505C165.497 118.189 165.675 117.76 165.675 117.313V56.8024C165.676 56.3608 165.503 55.9367 165.194 55.6217V55.6217ZM165.194 117.313C165.194 117.633 165.067 117.939 164.842 118.165C164.616 118.391 164.31 118.518 163.991 118.518H58.1208C57.8018 118.518 57.4958 118.391 57.2703 118.165C57.0447 117.939 56.9179 117.633 56.9177 117.313V56.8024C56.9178 56.6011 56.9683 56.4029 57.0646 56.2262C57.1608 56.0494 57.2998 55.8996 57.4688 55.7904C57.5876 55.7142 57.7186 55.6588 57.8561 55.6266C57.8966 55.6178 57.9376 55.6114 57.9789 55.6073C58.0259 55.6005 58.0733 55.5973 58.1208 55.5976C58.2919 55.5979 58.4609 55.6348 58.6165 55.7061L68.804 60.33L82.8944 66.7249L86.8549 68.5224L87.4974 68.814L104.266 76.4257L106.629 77.4979L110.361 79.1919C110.579 79.2907 110.816 79.3419 111.056 79.3419C111.296 79.3419 111.533 79.2907 111.751 79.1919L115.483 77.4979L127.163 72.197L138.048 67.255L163.495 55.7061C163.678 55.623 163.879 55.5872 164.08 55.6019C164.28 55.6167 164.474 55.6815 164.643 55.7904C164.662 55.8018 164.681 55.8147 164.698 55.829C164.718 55.8413 164.735 55.8559 164.751 55.8723C164.89 55.9845 165.001 56.1262 165.078 56.2871C165.155 56.4481 165.194 56.6241 165.194 56.8024L165.194 117.313ZM125.996 72.197L114.316 77.4979L111.552 78.7533C111.396 78.8236 111.227 78.8599 111.056 78.8599C110.885 78.8599 110.716 78.8236 110.56 78.7533L107.796 77.4979H106.629L110.361 79.1919C110.579 79.2907 110.816 79.3419 111.056 79.3419C111.296 79.3419 111.533 79.2907 111.751 79.1919L115.483 77.4979L127.163 72.197H125.996ZM125.996 72.197L114.316 77.4979L111.552 78.7533C111.396 78.8236 111.227 78.8599 111.056 78.8599C110.885 78.8599 110.716 78.8236 110.56 78.7533L107.796 77.4979H106.629L110.361 79.1919C110.579 79.2907 110.816 79.3419 111.056 79.3419C111.296 79.3419 111.533 79.2907 111.751 79.1919L115.483 77.4979L127.163 72.197H125.996ZM86.8549 68.5224L87.4974 68.814V68.2887L86.8549 68.5224ZM125.996 72.197L114.316 77.4979L111.552 78.7533C111.396 78.8236 111.227 78.8599 111.056 78.8599C110.885 78.8599 110.716 78.8236 110.56 78.7533L107.796 77.4979H106.629L110.361 79.1919C110.579 79.2907 110.816 79.3419 111.056 79.3419C111.296 79.3419 111.533 79.2907 111.751 79.1919L115.483 77.4979L127.163 72.197H125.996Z" fill="#3F3D56"/>
<path d="M42.2337 119H15.0443C14.9805 119 14.9193 118.975 14.8742 118.929C14.8291 118.884 14.8037 118.823 14.8037 118.759C14.8037 118.695 14.8291 118.634 14.8742 118.589C14.9193 118.543 14.9805 118.518 15.0443 118.518H42.2337C42.2975 118.518 42.3587 118.543 42.4039 118.589C42.449 118.634 42.4743 118.695 42.4743 118.759C42.4743 118.823 42.449 118.884 42.4039 118.929C42.3587 118.975 42.2975 119 42.2337 119Z" fill="#3F3D56"/>
<path d="M27.0415 41.3202C26.5976 41.0947 26.2285 40.7451 25.9789 40.3138C25.7293 39.8825 25.6098 39.388 25.635 38.8902C25.6602 38.3923 25.829 37.9125 26.1209 37.5087C26.4128 37.1049 26.8153 36.7945 27.2797 36.615C29.063 35.9259 31.0622 37.3323 32.9315 36.9324C34.7947 36.5339 35.8725 34.3033 35.4278 32.4481C34.983 30.593 33.3644 29.1956 31.5796 28.5283C30.4139 28.0935 29.1655 27.9268 27.9268 28.0405C26.6881 28.1542 25.4907 28.5454 24.4234 29.1852C23.3671 29.8436 22.4873 30.7505 21.8607 31.8269C21.234 32.9033 20.8793 34.1168 20.8275 35.3617C20.8033 36.6077 21.1073 37.8382 21.7089 38.9292C22.3106 40.0201 23.1887 40.9331 24.2547 41.5761C24.7298 41.8503 25.2829 42.0705 25.8172 41.947C26.2559 41.8043 26.6691 41.5928 27.0415 41.3202Z" fill="#2F2E41"/>
<path d="M25.127 29.0406C23.5544 26.9519 21.4317 25.2361 18.9616 24.3853C16.4914 23.5346 13.6687 23.6029 11.3488 24.8051C9.02895 26.0074 7.29887 28.395 7.11828 31.0046C6.81773 35.3477 10.5236 39.0395 10.9039 43.3764C11.0244 44.751 10.8016 46.1341 10.2555 47.401C9.70945 48.668 8.85724 49.779 7.77564 50.634C6.69405 51.489 5.41706 52.0612 4.05969 52.299C2.70232 52.5367 1.3072 52.4327 0 51.9961C0.931067 52.7636 2.01056 53.33 3.17068 53.6597C4.33079 53.9894 5.54646 54.0753 6.74131 53.912C7.9342 53.7327 9.07231 53.2898 10.0731 52.6154C11.0739 51.941 11.9122 51.0521 12.5274 50.013C13.3615 48.5619 13.7039 46.8762 13.837 45.2072C14.0459 42.5682 13.7629 39.9132 13.0026 37.3778C12.5869 35.9945 12.0232 34.5709 12.2868 33.1506C12.437 32.4118 12.8007 31.7336 13.3327 31.2001C13.8646 30.6666 14.5414 30.3014 15.2789 30.1498C16.4708 29.9262 17.6893 30.2905 18.8274 30.7097C19.9654 31.1289 21.1128 31.614 22.325 31.6418C23.5373 31.6695 24.8577 31.1138 25.3262 29.9938L25.127 29.0406Z" fill="#2F2E41"/>
</g>
<defs>
<clipPath id="clip0">
<rect width="183" height="119" fill="white"/>
</clipPath>
</defs>
</svg>
