<svg width="307" height="235" viewBox="0 0 307 235" fill="none" xmlns="http://www.w3.org/2000/svg">
<g clip-path="url(#clip0)">
<path opacity="0.1" d="M66.5768 0.176501C56.7047 -0.183006 46.3924 -0.435784 37.4661 3.74911C28.5397 7.934 21.6384 18.0732 24.6318 27.3952C25.6088 30.4341 27.5116 33.0827 29.1163 35.8492C37.1395 49.6846 37.5115 67.5673 30.0734 81.7201C24.3478 92.6149 14.6433 100.906 7.6567 111.057C0.670135 121.207 -3.30028 135.276 3.57268 145.502C8.27868 152.504 17.0119 155.911 25.4725 156.736C33.933 157.562 42.4419 156.262 50.9393 155.928C67.4748 155.299 83.9397 158.379 99.1012 164.935C119.973 173.984 137.953 189.466 159.93 195.44C162.568 196.156 165.326 196.734 168.024 196.249C172.81 195.386 176.289 191.474 180.035 188.384C191.994 178.591 208.552 176.762 224.076 176.307C239.599 175.852 255.768 176.203 269.801 169.611C282.053 163.856 291.485 153.15 297.349 141.056C303.214 128.962 305.762 115.522 306.722 102.139C307.29 94.1737 307.27 85.95 304.387 78.493C301.147 70.1092 294.575 63.433 287.682 57.5966C280.479 51.4962 272.629 45.9688 263.737 42.677C253.115 38.7449 241.585 38.1832 230.275 37.2507C207.085 35.3353 184.075 31.6811 161.444 26.3194C139.964 21.2414 116.38 15.6943 96.8178 5.35004C86.9997 0.156841 77.6445 0.569713 66.5768 0.176501Z" fill="#0050B3"/>
<g opacity="0.1">
<path opacity="0.1" d="M202.747 176.852C202.747 176.852 203.752 162.919 211.682 155.321C215.029 152.156 217.248 148.002 218.004 143.483C218.345 141.335 218.488 139.16 218.43 136.986" fill="#0050B3"/>
<path opacity="0.1" d="M223.397 132.17C222.815 133.709 218.314 137.13 218.314 137.13C218.314 137.13 217.178 131.628 217.766 130.088C218.045 129.35 218.609 128.751 219.334 128.424C220.06 128.097 220.887 128.068 221.634 128.344C222.381 128.62 222.986 129.178 223.317 129.896C223.647 130.613 223.676 131.431 223.397 132.17Z" fill="#0050B3"/>
<path opacity="0.1" d="M224.834 142.413C223.499 143.39 217.842 143.842 217.842 143.842C217.842 143.842 219.915 138.615 221.25 137.635C221.891 137.19 222.683 137.011 223.457 137.134C224.23 137.258 224.925 137.675 225.392 138.298C225.859 138.92 226.062 139.698 225.958 140.466C225.853 141.234 225.45 141.931 224.834 142.41V142.413Z" fill="#0050B3"/>
<path opacity="0.1" d="M219.128 156.897C217.475 157.077 212.36 154.65 212.36 154.65C212.36 154.65 216.819 151.173 218.469 150.999C219.236 150.957 219.99 151.208 220.577 151.699C221.163 152.19 221.536 152.884 221.621 153.64C221.705 154.395 221.494 155.153 221.03 155.759C220.567 156.365 219.886 156.772 219.128 156.897Z" fill="#0050B3"/>
<path opacity="0.1" d="M212.314 166.896C210.718 167.348 205.26 165.803 205.26 165.803C205.26 165.803 209.06 161.632 210.656 161.18C211.039 161.06 211.443 161.016 211.843 161.053C212.244 161.089 212.633 161.205 212.988 161.393C213.342 161.58 213.655 161.837 213.908 162.146C214.16 162.455 214.348 162.812 214.459 163.194C214.569 163.576 214.602 163.977 214.553 164.372C214.505 164.767 214.377 165.148 214.177 165.493C213.977 165.838 213.71 166.14 213.39 166.381C213.07 166.622 212.704 166.797 212.314 166.896Z" fill="#0050B3"/>
<path opacity="0.1" d="M211.815 141.955C212.525 143.438 217.302 146.469 217.302 146.469C217.302 146.469 217.961 140.893 217.248 139.408C216.892 138.718 216.279 138.193 215.538 137.943C214.797 137.693 213.987 137.739 213.28 138.071C212.572 138.403 212.024 138.994 211.75 139.719C211.477 140.444 211.5 141.246 211.815 141.955Z" fill="#0050B3"/>
<path opacity="0.1" d="M203.996 153.748C205.132 154.953 210.6 156.434 210.6 156.434C210.6 156.434 209.54 150.917 208.413 149.71C207.87 149.134 207.119 148.794 206.324 148.764C205.529 148.735 204.754 149.019 204.17 149.553C203.585 150.087 203.239 150.829 203.207 151.615C203.174 152.402 203.458 153.169 203.996 153.748Z" fill="#0050B3"/>
<path opacity="0.1" d="M197.99 166.241C198.893 167.618 204.039 169.991 204.039 169.991C204.039 169.991 203.937 164.374 203.031 163C202.586 162.363 201.907 161.923 201.139 161.773C200.37 161.623 199.574 161.776 198.917 162.198C198.261 162.62 197.797 163.278 197.623 164.033C197.45 164.788 197.582 165.581 197.99 166.241Z" fill="#0050B3"/>
<path opacity="0.1" d="M223.397 132.17C222.815 133.709 218.314 137.13 218.314 137.13C218.314 137.13 217.178 131.628 217.766 130.088C218.045 129.35 218.609 128.751 219.334 128.424C220.06 128.097 220.887 128.068 221.634 128.344C222.381 128.62 222.986 129.178 223.317 129.896C223.647 130.613 223.676 131.431 223.397 132.17Z" fill="#0050B3"/>
<path opacity="0.1" d="M224.834 142.413C223.499 143.39 217.842 143.842 217.842 143.842C217.842 143.842 219.915 138.615 221.25 137.635C221.891 137.19 222.683 137.011 223.457 137.134C224.23 137.258 224.925 137.675 225.392 138.298C225.859 138.92 226.062 139.698 225.958 140.466C225.853 141.234 225.45 141.931 224.834 142.41V142.413Z" fill="#0050B3"/>
<path opacity="0.1" d="M219.128 156.897C217.475 157.077 212.36 154.65 212.36 154.65C212.36 154.65 216.819 151.173 218.469 150.999C219.236 150.957 219.99 151.208 220.577 151.699C221.163 152.19 221.536 152.884 221.621 153.64C221.705 154.395 221.494 155.153 221.03 155.759C220.567 156.365 219.886 156.772 219.128 156.897Z" fill="#0050B3"/>
<path opacity="0.1" d="M212.314 166.896C210.718 167.348 205.26 165.803 205.26 165.803C205.26 165.803 209.06 161.632 210.656 161.18C211.039 161.06 211.443 161.016 211.843 161.053C212.244 161.089 212.633 161.205 212.988 161.393C213.342 161.58 213.655 161.837 213.908 162.146C214.16 162.455 214.348 162.812 214.459 163.194C214.569 163.576 214.602 163.977 214.553 164.372C214.505 164.767 214.377 165.148 214.177 165.493C213.977 165.838 213.71 166.14 213.39 166.381C213.07 166.622 212.704 166.797 212.314 166.896Z" fill="#0050B3"/>
<path opacity="0.1" d="M211.815 141.955C212.525 143.438 217.302 146.469 217.302 146.469C217.302 146.469 217.961 140.893 217.248 139.408C216.892 138.718 216.279 138.193 215.538 137.943C214.797 137.693 213.987 137.739 213.28 138.071C212.572 138.403 212.024 138.994 211.75 139.719C211.477 140.444 211.5 141.246 211.815 141.955Z" fill="#0050B3"/>
<path opacity="0.1" d="M203.996 153.748C205.132 154.953 210.6 156.434 210.6 156.434C210.6 156.434 209.54 150.917 208.413 149.71C207.87 149.134 207.119 148.794 206.324 148.764C205.529 148.735 204.754 149.019 204.17 149.553C203.585 150.087 203.239 150.829 203.207 151.615C203.174 152.402 203.458 153.169 203.996 153.748Z" fill="#0050B3"/>
<path opacity="0.1" d="M197.99 166.241C198.893 167.618 204.039 169.991 204.039 169.991C204.039 169.991 203.937 164.374 203.031 163C202.586 162.363 201.907 161.923 201.139 161.773C200.37 161.623 199.574 161.776 198.917 162.198C198.261 162.62 197.797 163.278 197.623 164.033C197.45 164.788 197.582 165.581 197.99 166.241Z" fill="#0050B3"/>
</g>
<g opacity="0.1">
<path opacity="0.1" d="M205.53 124.112C205.53 124.112 206.536 110.178 214.465 102.58C217.811 99.4142 220.03 95.2604 220.787 90.742C221.131 88.5942 221.274 86.4194 221.213 84.2456" fill="#0050B3"/>
<path opacity="0.1" d="M226.18 79.4287C225.612 80.9651 221.099 84.386 221.099 84.386C221.099 84.386 219.963 78.8839 220.548 77.3475C220.827 76.609 221.392 76.0103 222.117 75.6832C222.843 75.3561 223.67 75.3274 224.416 75.6034C225.163 75.8793 225.769 76.4374 226.099 77.1548C226.43 77.8722 226.459 78.6902 226.18 79.4287Z" fill="#0050B3"/>
<path opacity="0.1" d="M227.625 89.6692C226.293 90.6494 220.633 91.0988 220.633 91.0988C220.633 91.0988 222.706 85.8747 224.041 84.8945C224.357 84.6491 224.719 84.4688 225.107 84.3643C225.495 84.2597 225.9 84.2331 226.298 84.2859C226.696 84.3387 227.08 84.4699 227.426 84.6717C227.772 84.8735 228.074 85.1419 228.313 85.461C228.553 85.78 228.725 86.1433 228.82 86.5294C228.915 86.9154 228.931 87.3164 228.867 87.7087C228.803 88.101 228.66 88.4766 228.447 88.8133C228.233 89.15 227.954 89.441 227.625 89.6692Z" fill="#0050B3"/>
<path opacity="0.1" d="M221.912 104.156C220.261 104.336 215.146 101.909 215.146 101.909C215.146 101.909 219.605 98.4349 221.256 98.2579C221.652 98.2075 222.054 98.2358 222.44 98.341C222.825 98.4462 223.185 98.6264 223.499 98.8708C223.813 99.1153 224.075 99.4192 224.269 99.7647C224.463 100.11 224.585 100.491 224.629 100.884C224.672 101.276 224.636 101.674 224.523 102.053C224.409 102.432 224.22 102.785 223.967 103.091C223.714 103.397 223.402 103.65 223.049 103.835C222.696 104.02 222.31 104.134 221.912 104.17V104.156Z" fill="#0050B3"/>
<path opacity="0.1" d="M215.098 114.155C213.502 114.607 208.043 113.062 208.043 113.062C208.043 113.062 211.846 108.891 213.439 108.436C214.202 108.231 215.017 108.331 215.706 108.715C216.395 109.098 216.904 109.735 217.121 110.487C217.339 111.239 217.248 112.046 216.869 112.732C216.49 113.419 215.852 113.93 215.095 114.155H215.098Z" fill="#0050B3"/>
<path opacity="0.1" d="M214.598 89.2113C215.308 90.697 220.088 93.7276 220.088 93.7276C220.088 93.7276 220.744 88.1496 220.034 86.6666C219.87 86.306 219.635 85.9813 219.342 85.7115C219.05 85.4418 218.706 85.2325 218.331 85.0958C217.955 84.959 217.556 84.8977 217.157 84.9153C216.757 84.9329 216.365 85.0291 216.004 85.1983C215.643 85.3675 215.319 85.6063 215.052 85.9007C214.785 86.1951 214.58 86.5392 214.449 86.9128C214.318 87.2865 214.264 87.6822 214.289 88.0769C214.315 88.4715 214.42 88.8572 214.598 89.2113Z" fill="#0050B3"/>
<path opacity="0.1" d="M206.78 101.005C207.916 102.213 213.386 103.69 213.386 103.69C213.386 103.69 212.323 98.1737 211.196 96.9688C210.649 96.4127 209.904 96.09 209.12 96.0693C208.336 96.0486 207.575 96.3317 206.999 96.8582C206.423 97.3846 206.077 98.1128 206.036 98.8874C205.995 99.662 206.262 100.422 206.78 101.005Z" fill="#0050B3"/>
<path opacity="0.1" d="M200.773 113.501C201.679 114.877 206.822 117.25 206.822 117.25C206.822 117.25 206.72 111.633 205.814 110.259C205.604 109.92 205.328 109.626 205.001 109.394C204.675 109.162 204.304 108.997 203.912 108.909C203.52 108.821 203.114 108.811 202.718 108.881C202.322 108.951 201.945 109.099 201.608 109.316C201.27 109.533 200.981 109.814 200.755 110.143C200.53 110.473 200.374 110.844 200.296 111.234C200.218 111.624 200.22 112.026 200.302 112.415C200.384 112.804 200.544 113.173 200.773 113.501Z" fill="#0050B3"/>
<path opacity="0.1" d="M226.18 79.4287C225.612 80.9651 221.099 84.386 221.099 84.386C221.099 84.386 219.963 78.8839 220.548 77.3475C220.827 76.609 221.392 76.0103 222.117 75.6832C222.843 75.3561 223.67 75.3274 224.416 75.6034C225.163 75.8793 225.769 76.4374 226.099 77.1548C226.43 77.8722 226.459 78.6902 226.18 79.4287Z" fill="#0050B3"/>
<path opacity="0.1" d="M227.625 89.6692C226.293 90.6494 220.633 91.0988 220.633 91.0988C220.633 91.0988 222.706 85.8747 224.041 84.8945C224.357 84.6491 224.719 84.4688 225.107 84.3643C225.495 84.2597 225.9 84.2331 226.298 84.2859C226.696 84.3387 227.08 84.4699 227.426 84.6717C227.772 84.8735 228.074 85.1419 228.313 85.461C228.553 85.78 228.725 86.1433 228.82 86.5294C228.915 86.9154 228.931 87.3164 228.867 87.7087C228.803 88.101 228.66 88.4766 228.447 88.8133C228.233 89.15 227.954 89.441 227.625 89.6692Z" fill="#0050B3"/>
<path opacity="0.1" d="M221.912 104.156C220.261 104.336 215.146 101.909 215.146 101.909C215.146 101.909 219.605 98.4349 221.256 98.2579C221.652 98.2075 222.054 98.2358 222.44 98.341C222.825 98.4462 223.185 98.6264 223.499 98.8708C223.813 99.1153 224.075 99.4192 224.269 99.7647C224.463 100.11 224.585 100.491 224.629 100.884C224.672 101.276 224.636 101.674 224.523 102.053C224.409 102.432 224.22 102.785 223.967 103.091C223.714 103.397 223.402 103.65 223.049 103.835C222.696 104.02 222.31 104.134 221.912 104.17V104.156Z" fill="#0050B3"/>
<path opacity="0.1" d="M215.098 114.155C213.502 114.607 208.043 113.062 208.043 113.062C208.043 113.062 211.846 108.891 213.439 108.436C214.202 108.231 215.017 108.331 215.706 108.715C216.395 109.098 216.904 109.735 217.121 110.487C217.339 111.239 217.248 112.046 216.869 112.732C216.49 113.419 215.852 113.93 215.095 114.155H215.098Z" fill="#0050B3"/>
<path opacity="0.1" d="M214.598 89.2113C215.308 90.697 220.088 93.7276 220.088 93.7276C220.088 93.7276 220.744 88.1496 220.034 86.6666C219.87 86.306 219.635 85.9813 219.342 85.7115C219.05 85.4418 218.706 85.2325 218.331 85.0958C217.955 84.959 217.556 84.8977 217.157 84.9153C216.757 84.9329 216.365 85.0291 216.004 85.1983C215.643 85.3675 215.319 85.6063 215.052 85.9007C214.785 86.1951 214.58 86.5392 214.449 86.9128C214.318 87.2865 214.264 87.6822 214.289 88.0769C214.315 88.4715 214.42 88.8572 214.598 89.2113Z" fill="#0050B3"/>
<path opacity="0.1" d="M206.78 101.005C207.916 102.213 213.386 103.69 213.386 103.69C213.386 103.69 212.323 98.1737 211.196 96.9688C210.649 96.4127 209.904 96.09 209.12 96.0693C208.336 96.0486 207.575 96.3317 206.999 96.8582C206.423 97.3846 206.077 98.1128 206.036 98.8874C205.995 99.662 206.262 100.422 206.78 101.005Z" fill="#0050B3"/>
<path opacity="0.1" d="M200.773 113.501C201.679 114.877 206.822 117.25 206.822 117.25C206.822 117.25 206.72 111.633 205.814 110.259C205.604 109.92 205.328 109.626 205.001 109.394C204.675 109.162 204.304 108.997 203.912 108.909C203.52 108.821 203.114 108.811 202.718 108.881C202.322 108.951 201.945 109.099 201.608 109.316C201.27 109.533 200.981 109.814 200.755 110.143C200.53 110.473 200.374 110.844 200.296 111.234C200.218 111.624 200.22 112.026 200.302 112.415C200.384 112.804 200.544 113.173 200.773 113.501Z" fill="#0050B3"/>
</g>
<g opacity="0.1">
<path opacity="0.1" d="M54.8673 142.368C54.8673 142.368 42.7374 135.217 39.4344 124.802C38.0816 120.422 35.3267 116.595 31.5844 113.896C29.7975 112.627 27.8961 111.523 25.9043 110.599" fill="#0050B3"/>
<path opacity="0.1" d="M23.7886 104.038C24.9246 105.243 25.9839 110.759 25.9839 110.759C25.9839 110.759 20.5054 109.285 19.3779 108.08C18.8615 107.497 18.5953 106.738 18.6359 105.965C18.6765 105.191 19.0207 104.464 19.5953 103.937C20.1699 103.411 20.9295 103.127 21.7126 103.145C22.4958 103.164 23.2405 103.485 23.7886 104.038Z" fill="#0050B3"/>
<path opacity="0.1" d="M33.6867 107.389C33.9707 109.007 31.835 114.208 31.835 114.208C31.835 114.208 28.0463 110.026 27.7623 108.408C27.6838 108.019 27.6847 107.618 27.7651 107.23C27.8456 106.841 28.0038 106.472 28.2306 106.145C28.4574 105.817 28.7482 105.538 29.0857 105.324C29.4233 105.109 29.8008 104.964 30.1961 104.896C30.5914 104.828 30.9965 104.838 31.3875 104.928C31.7785 105.017 32.1475 105.182 32.4727 105.415C32.798 105.647 33.073 105.941 33.2815 106.28C33.49 106.619 33.6277 106.996 33.6867 107.389Z" fill="#0050B3"/>
<path opacity="0.1" d="M44.206 118.927C43.638 120.466 39.1251 123.89 39.1251 123.89C39.1251 123.89 37.9891 118.387 38.5713 116.851C38.701 116.475 38.9057 116.128 39.1733 115.831C39.4409 115.534 39.7659 115.294 40.1292 115.123C40.4925 114.953 40.8867 114.856 41.2884 114.839C41.6901 114.822 42.0912 114.884 42.468 115.023C42.8448 115.162 43.1896 115.374 43.4821 115.647C43.7746 115.92 44.0087 116.248 44.1708 116.612C44.3328 116.976 44.4194 117.368 44.4255 117.766C44.4315 118.163 44.3569 118.558 44.206 118.927Z" fill="#0050B3"/>
<path opacity="0.1" d="M50.1725 129.44C49.8657 131.054 46.0146 135.194 46.0146 135.194C46.0146 135.194 43.9555 129.962 44.2651 128.35C44.3384 127.966 44.4874 127.601 44.7035 127.274C44.9197 126.947 45.1987 126.666 45.5248 126.446C45.8509 126.226 46.2176 126.072 46.604 125.992C46.9905 125.912 47.389 125.908 47.7769 125.981C48.1647 126.053 48.5344 126.2 48.8647 126.414C49.195 126.628 49.4795 126.904 49.702 127.226C49.9244 127.549 50.0805 127.912 50.1612 128.294C50.2419 128.676 50.2457 129.07 50.1725 129.454V129.44Z" fill="#0050B3"/>
<path opacity="0.1" d="M27.4205 118.668C29.0791 118.708 33.9668 115.86 33.9668 115.86C33.9668 115.86 29.2239 112.77 27.5625 112.731C26.775 112.728 26.0178 113.03 25.4534 113.573C24.889 114.116 24.5624 114.856 24.5438 115.635C24.5252 116.413 24.8161 117.168 25.354 117.737C25.8918 118.306 26.6338 118.643 27.4205 118.677V118.668Z" fill="#0050B3"/>
<path opacity="0.1" d="M34.5577 130.878C36.1538 130.423 39.9538 126.249 39.9538 126.249C39.9538 126.249 34.4952 124.707 32.8991 125.162C32.1495 125.394 31.5215 125.907 31.1492 126.591C30.777 127.275 30.6901 128.076 30.9071 128.822C31.1241 129.569 31.6278 130.202 32.3105 130.586C32.9932 130.97 33.8008 131.075 34.5605 130.878H34.5577Z" fill="#0050B3"/>
<path opacity="0.1" d="M43.1406 141.801C44.7936 141.621 49.2496 138.149 49.2496 138.149C49.2496 138.149 44.1375 135.717 42.4817 135.902C42.0738 135.924 41.6747 136.029 41.3089 136.208C40.943 136.388 40.6181 136.64 40.354 136.948C40.0898 137.257 39.892 137.615 39.7727 138.001C39.6533 138.388 39.6149 138.794 39.6598 139.196C39.7046 139.597 39.8318 139.986 40.0336 140.337C40.2354 140.688 40.5075 140.995 40.8333 141.239C41.1591 141.483 41.5317 141.658 41.9285 141.755C42.3252 141.851 42.7376 141.867 43.1406 141.801Z" fill="#0050B3"/>
<path opacity="0.1" d="M23.7886 104.038C24.9246 105.243 25.9839 110.759 25.9839 110.759C25.9839 110.759 20.5054 109.285 19.3779 108.08C18.8615 107.497 18.5953 106.738 18.6359 105.965C18.6765 105.191 19.0207 104.464 19.5953 103.937C20.1699 103.411 20.9295 103.127 21.7126 103.145C22.4958 103.164 23.2405 103.485 23.7886 104.038Z" fill="#0050B3"/>
<path opacity="0.1" d="M33.6867 107.389C33.9707 109.007 31.835 114.208 31.835 114.208C31.835 114.208 28.0463 110.026 27.7623 108.408C27.6838 108.019 27.6847 107.618 27.7651 107.23C27.8456 106.841 28.0038 106.472 28.2306 106.145C28.4574 105.817 28.7482 105.538 29.0857 105.324C29.4233 105.109 29.8008 104.964 30.1961 104.896C30.5914 104.828 30.9965 104.838 31.3875 104.928C31.7785 105.017 32.1475 105.182 32.4727 105.415C32.798 105.647 33.073 105.941 33.2815 106.28C33.49 106.619 33.6277 106.996 33.6867 107.389Z" fill="#0050B3"/>
<path opacity="0.1" d="M44.206 118.927C43.638 120.466 39.1251 123.89 39.1251 123.89C39.1251 123.89 37.9891 118.387 38.5713 116.851C38.701 116.475 38.9057 116.128 39.1733 115.831C39.4409 115.534 39.7659 115.294 40.1292 115.123C40.4925 114.953 40.8867 114.856 41.2884 114.839C41.6901 114.822 42.0912 114.884 42.468 115.023C42.8448 115.162 43.1896 115.374 43.4821 115.647C43.7746 115.92 44.0087 116.248 44.1708 116.612C44.3328 116.976 44.4194 117.368 44.4255 117.766C44.4315 118.163 44.3569 118.558 44.206 118.927Z" fill="#0050B3"/>
<path opacity="0.1" d="M50.1725 129.44C49.8657 131.054 46.0146 135.194 46.0146 135.194C46.0146 135.194 43.9555 129.962 44.2651 128.35C44.3384 127.966 44.4874 127.601 44.7035 127.274C44.9197 126.947 45.1987 126.666 45.5248 126.446C45.8509 126.226 46.2176 126.072 46.604 125.992C46.9905 125.912 47.389 125.908 47.7769 125.981C48.1647 126.053 48.5344 126.2 48.8647 126.414C49.195 126.628 49.4795 126.904 49.702 127.226C49.9244 127.549 50.0805 127.912 50.1612 128.294C50.2419 128.676 50.2457 129.07 50.1725 129.454V129.44Z" fill="#0050B3"/>
<path opacity="0.1" d="M27.4205 118.668C29.0791 118.708 33.9668 115.86 33.9668 115.86C33.9668 115.86 29.2239 112.77 27.5625 112.731C26.775 112.728 26.0178 113.03 25.4534 113.573C24.889 114.116 24.5624 114.856 24.5438 115.635C24.5252 116.413 24.8161 117.168 25.354 117.737C25.8918 118.306 26.6338 118.643 27.4205 118.677V118.668Z" fill="#0050B3"/>
<path opacity="0.1" d="M34.5577 130.878C36.1538 130.423 39.9538 126.249 39.9538 126.249C39.9538 126.249 34.4952 124.707 32.8991 125.162C32.1495 125.394 31.5215 125.907 31.1492 126.591C30.777 127.275 30.6901 128.076 30.9071 128.822C31.1241 129.569 31.6278 130.202 32.3105 130.586C32.9932 130.97 33.8008 131.075 34.5605 130.878H34.5577Z" fill="#0050B3"/>
<path opacity="0.1" d="M43.1406 141.801C44.7936 141.621 49.2496 138.149 49.2496 138.149C49.2496 138.149 44.1375 135.717 42.4817 135.902C42.0738 135.924 41.6747 136.029 41.3089 136.208C40.943 136.388 40.6181 136.64 40.354 136.948C40.0898 137.257 39.892 137.615 39.7727 138.001C39.6533 138.388 39.6149 138.794 39.6598 139.196C39.7046 139.597 39.8318 139.986 40.0336 140.337C40.2354 140.688 40.5075 140.995 40.8333 141.239C41.1591 141.483 41.5317 141.658 41.9285 141.755C42.3252 141.851 42.7376 141.867 43.1406 141.801Z" fill="#0050B3"/>
</g>
<path opacity="0.1" d="M203.556 226.476C211.71 229.984 221.658 227.849 230.911 228.096C232.175 228.13 233.518 228.234 234.532 228.841C235.546 229.447 236.049 230.428 236.745 231.27C239.338 234.399 244.651 235.404 249.295 234.874C253.938 234.343 258.196 232.585 262.578 231.248C270.152 228.933 278.809 227.877 286.281 230.405C286.966 230.635 287.701 230.902 288.423 230.81C290.061 230.604 290.55 228.925 291.694 227.967C293.762 226.234 298.255 226.706 299.164 224.423C299.695 223.086 298.471 221.715 297.136 220.802C292.024 217.308 284.725 216.733 278.042 217.272C271.359 217.811 264.79 219.297 258.074 219.302C249.704 219.302 241.618 217.022 233.331 216.087C227.591 215.441 221.326 215.525 215.944 217.426C210.111 219.482 208.827 224.114 203.556 226.476Z" fill="#0050B3"/>
<path opacity="0.1" d="M49.25 215.716C63.1663 219.679 80.1499 217.266 95.9407 217.547C98.102 217.586 100.391 217.702 102.126 218.39C103.862 219.078 104.714 220.187 105.904 221.137C110.329 224.673 119.397 225.81 127.321 225.209C135.244 224.608 142.515 222.622 149.996 221.111C162.924 218.496 177.703 217.306 190.455 220.156C191.625 220.418 192.858 220.718 194.113 220.614C196.908 220.381 197.74 218.485 199.697 217.401C203.227 215.435 210.892 215.977 212.443 213.399C213.352 211.888 211.262 210.337 208.984 209.306C200.271 205.36 187.803 204.709 176.394 205.318C164.986 205.928 153.773 207.604 142.313 207.613C128.028 207.613 114.225 205.037 100.079 203.978C90.2805 203.248 79.5876 203.338 70.4 205.495C60.4399 207.823 58.2445 213.056 49.25 215.716Z" fill="#0050B3"/>
<path opacity="0.1" d="M11.999 225.428C15.9751 227.793 20.8032 226.355 25.3076 226.521C25.9239 226.543 26.5771 226.613 27.0713 227.021C27.5654 227.428 27.8097 228.093 28.1477 228.661C29.4086 230.77 31.9931 231.45 34.251 231.09C36.5088 230.731 38.5821 229.548 40.715 228.644C44.407 227.085 48.6132 226.375 52.2456 228.082C52.5569 228.279 52.9216 228.377 53.2908 228.363C54.086 228.223 54.3246 227.091 54.8812 226.445C55.8866 225.276 58.0734 225.602 58.5137 224.055C58.7721 223.153 58.1757 222.229 57.5282 221.614C55.0459 219.257 51.4902 218.87 48.2383 219.232C44.9864 219.594 41.7913 220.577 38.5224 220.577C34.4526 220.577 30.5191 219.041 26.4862 218.409C23.6916 217.971 20.6442 218.027 18.0256 219.314C15.1884 220.718 14.5636 223.841 11.999 225.428Z" fill="#0050B3"/>
<path d="M197.522 10.0184H65.5663C63.9791 10.0159 62.4069 10.3225 60.9396 10.9209C59.4722 11.5193 58.1385 12.3976 57.0144 13.5058C55.8904 14.6141 54.9981 15.9304 54.3886 17.3797C53.779 18.8289 53.4642 20.3828 53.4619 21.9524V202.754C53.4687 205.922 54.7476 208.959 57.0174 211.195C59.2873 213.431 62.3623 214.685 65.5663 214.679H197.522C199.109 214.682 200.681 214.375 202.148 213.777C203.616 213.179 204.949 212.3 206.073 211.192C207.197 210.084 208.09 208.767 208.699 207.318C209.309 205.869 209.624 204.315 209.626 202.745V21.9524C209.624 20.3828 209.309 18.8289 208.699 17.3797C208.09 15.9304 207.197 14.6141 206.073 13.5058C204.949 12.3976 203.616 11.5193 202.148 10.9209C200.681 10.3225 199.109 10.0159 197.522 10.0184Z" fill="url(#paint0_linear)"/>
<path d="M202.073 12.4705H61.0014C57.8644 12.4705 55.3213 14.9854 55.3213 18.0878V207.234C55.3213 210.336 57.8644 212.851 61.0014 212.851H202.073C205.21 212.851 207.753 210.336 207.753 207.234V18.0878C207.753 14.9854 205.21 12.4705 202.073 12.4705Z" fill="#535461"/>
<path d="M200.009 31.4232H63.0664V193.895H200.009V31.4232Z" fill="#F6F7F9"/>
<path d="M130.919 23.5C131.946 23.5 132.779 22.6764 132.779 21.6603C132.779 20.6443 131.946 19.8207 130.919 19.8207C129.891 19.8207 129.059 20.6443 129.059 21.6603C129.059 22.6764 129.891 23.5 130.919 23.5Z" fill="#F6F7F9"/>
<path d="M130.919 208.562C133.999 208.562 136.497 206.092 136.497 203.046C136.497 199.999 133.999 197.53 130.919 197.53C127.838 197.53 125.341 199.999 125.341 203.046C125.341 206.092 127.838 208.562 130.919 208.562Z" fill="#F6F7F9"/>
<g opacity="0.2">
<path opacity="0.2" d="M200.009 31.4232H63.0664V39.5206H200.009V31.4232Z" fill="#0050B3"/>
</g>
<path d="M67.3492 37.2006C68.3138 37.2006 69.0958 36.4273 69.0958 35.4733C69.0958 34.5193 68.3138 33.746 67.3492 33.746C66.3845 33.746 65.6025 34.5193 65.6025 35.4733C65.6025 36.4273 66.3845 37.2006 67.3492 37.2006Z" fill="#F6F7F9"/>
<path d="M71.7994 37.2006C72.764 37.2006 73.546 36.4273 73.546 35.4733C73.546 34.5193 72.764 33.746 71.7994 33.746C70.8347 33.746 70.0527 34.5193 70.0527 35.4733C70.0527 36.4273 70.8347 37.2006 71.7994 37.2006Z" fill="#F6F7F9"/>
<path d="M76.2476 37.2006C77.2123 37.2006 77.9942 36.4273 77.9942 35.4733C77.9942 34.5193 77.2123 33.746 76.2476 33.746C75.283 33.746 74.501 34.5193 74.501 35.4733C74.501 36.4273 75.283 37.2006 76.2476 37.2006Z" fill="#F6F7F9"/>
<path d="M194.678 79.1843H67.1562V79.6056H194.678V79.1843Z" fill="#DCE0ED"/>
<path d="M194.678 88.9669H67.1562V89.3882H194.678V88.9669Z" fill="#DCE0ED"/>
<path d="M194.678 98.7522H67.1562V99.1735H194.678V98.7522Z" fill="#DCE0ED"/>
<path d="M194.678 108.535H67.1562V108.956H194.678V108.535Z" fill="#DCE0ED"/>
<path d="M194.678 118.317H67.1562V118.739H194.678V118.317Z" fill="#DCE0ED"/>
<g opacity="0.2">
<path opacity="0.2" d="M194.678 118.739H67V99.4993L78.7096 105.206L90.8282 106.833L101.461 103.662L114.29 93.823L120.743 90.1381L125.46 89.2393L129.973 89.478L137.394 93.104L147.485 99.46L155.403 100.465L161.679 98.3253L174.988 87.5485L181.781 85.1527L188.89 86.2397L194.678 89.5454V118.739Z" fill="#0050B3"/>
</g>
<path d="M89.2547 106.827C77.7552 106.827 67.1306 99.8729 66.9971 99.783L67.3152 99.3168C67.4799 99.4263 83.833 110.124 97.7294 104.766C102.796 102.8 106.403 99.7718 109.893 96.8312C113.537 93.7613 116.977 90.8628 121.668 89.6045C127.047 88.1637 132.926 89.4669 137.394 93.0985C141.214 96.202 148.819 101.185 156.854 99.696C160.949 98.9348 164.4 95.9773 168.055 92.8457C175.062 86.8408 182.309 80.6309 194.846 89.5399L194.513 89.9949C182.341 81.3442 175.269 87.4081 168.427 93.2698C164.712 96.452 161.205 99.4488 156.959 100.246C148.694 101.78 140.93 96.6963 137.033 93.531C132.708 90.0174 127.022 88.7563 121.816 90.1466C117.249 91.3711 113.864 94.2303 110.26 97.2581C106.735 100.23 103.091 103.299 97.9368 105.288C95.1651 106.332 92.2204 106.854 89.2547 106.827Z" fill="#0050B3"/>
<path d="M128.519 92.3373C130.265 92.3373 131.68 90.9377 131.68 89.2112C131.68 87.4848 130.265 86.0852 128.519 86.0852C126.774 86.0852 125.358 87.4848 125.358 89.2112C125.358 90.9377 126.774 92.3373 128.519 92.3373Z" fill="#0050B3"/>
<g opacity="0.2">
<path opacity="0.2" d="M169.751 47.8455H129.876C129.704 47.8455 129.54 47.9129 129.418 48.033C129.297 48.1531 129.229 48.316 129.229 48.4858V75.154C129.229 75.2822 129.268 75.4074 129.341 75.5134C129.414 75.6194 129.517 75.7014 129.638 75.7486C129.758 75.7958 129.89 75.8061 130.017 75.7782C130.143 75.7503 130.259 75.6855 130.348 75.5921L137.257 68.3037C137.318 68.2398 137.391 68.1889 137.472 68.1541C137.553 68.1193 137.64 68.1014 137.729 68.1015H169.751C169.922 68.1015 170.087 68.034 170.208 67.9139C170.33 67.7938 170.398 67.6309 170.398 67.4611V48.4802C170.397 48.3114 170.328 48.1499 170.206 48.031C170.085 47.9121 169.921 47.8455 169.751 47.8455Z" fill="#0050B3"/>
</g>
<path d="M161.165 52.783H138.459V55.5916H161.165V52.783Z" fill="#F6F7F9"/>
<path d="M144.693 59.007H138.459V61.8156H144.693V59.007Z" fill="#F6F7F9"/>
<g opacity="0.2">
<path opacity="0.2" d="M84.1597 138.837H77.9258V141.646H84.1597V138.837Z" fill="#0050B3"/>
</g>
<g opacity="0.2">
<path opacity="0.2" d="M84.1597 144.266H77.9258V147.075H84.1597V144.266Z" fill="#0050B3"/>
</g>
<g opacity="0.2">
<path opacity="0.2" d="M84.1597 149.696H77.9258V152.504H84.1597V149.696Z" fill="#0050B3"/>
</g>
<g opacity="0.2">
<path opacity="0.2" d="M84.1597 155.128H77.9258V157.936H84.1597V155.128Z" fill="#0050B3"/>
</g>
<g opacity="0.2">
<path opacity="0.2" d="M84.1597 160.557H77.9258V163.365H84.1597V160.557Z" fill="#0050B3"/>
</g>
<g opacity="0.2">
<path opacity="0.2" d="M84.1597 165.986H77.9258V168.794H84.1597V165.986Z" fill="#0050B3"/>
</g>
<g opacity="0.2">
<path opacity="0.2" d="M84.1597 171.418H77.9258V174.226H84.1597V171.418Z" fill="#0050B3"/>
</g>
<g opacity="0.2">
<path opacity="0.2" d="M84.1597 176.847H77.9258V179.655H84.1597V176.847Z" fill="#0050B3"/>
</g>
<g opacity="0.2">
<path opacity="0.2" d="M95.898 179.656H89.6641V182.464H95.898V179.656Z" fill="#0050B3"/>
</g>
<g opacity="0.2">
<path opacity="0.2" d="M106.88 179.656H100.646V182.464H106.88V179.656Z" fill="#0050B3"/>
</g>
<g opacity="0.2">
<path opacity="0.2" d="M117.863 179.656H111.629V182.464H117.863V179.656Z" fill="#0050B3"/>
</g>
<g opacity="0.2">
<path opacity="0.2" d="M128.842 179.656H122.608V182.464H128.842V179.656Z" fill="#0050B3"/>
</g>
<g opacity="0.2">
<path opacity="0.2" d="M139.825 179.656H133.591V182.464H139.825V179.656Z" fill="#0050B3"/>
</g>
<g opacity="0.2">
<path opacity="0.2" d="M150.807 179.656H144.573V182.464H150.807V179.656Z" fill="#0050B3"/>
</g>
<g opacity="0.2">
<path opacity="0.2" d="M161.788 179.656H155.554V182.464H161.788V179.656Z" fill="#0050B3"/>
</g>
<g opacity="0.2">
<path opacity="0.2" d="M172.77 179.656H166.536V182.464H172.77V179.656Z" fill="#0050B3"/>
</g>
<g opacity="0.2">
<path opacity="0.2" d="M183.752 179.656H177.519V182.464H183.752V179.656Z" fill="#0050B3"/>
</g>
<path d="M161.165 59.007H151.699V61.8156H161.165V59.007Z" fill="#F6F7F9"/>
<path d="M95.898 159.245H89.6641V176.847H95.898V159.245Z" fill="#0050B3"/>
<path d="M106.88 151.1H100.646V176.847H106.88V151.1Z" fill="#0050B3"/>
<path d="M117.863 144.266H111.629V176.847H117.863V144.266Z" fill="#0050B3"/>
<path d="M128.842 147.808H122.608V176.844H128.842V147.808Z" fill="#0050B3"/>
<path d="M139.825 141.646H133.591V176.847H139.825V141.646Z" fill="#0050B3"/>
<g opacity="0.2">
<path opacity="0.2" d="M150.807 155.128H144.573V176.847H150.807V155.128Z" fill="#0050B3"/>
</g>
<g opacity="0.2">
<path opacity="0.2" d="M161.788 155.128H155.554V176.847H161.788V155.128Z" fill="#0050B3"/>
</g>
<g opacity="0.2">
<path opacity="0.2" d="M172.77 155.128H166.536V176.847H172.77V155.128Z" fill="#0050B3"/>
</g>
<g opacity="0.2">
<path opacity="0.2" d="M183.752 155.128H177.519V176.847H183.752V155.128Z" fill="#0050B3"/>
</g>
<path d="M281.019 76.5358C274.268 72.6963 271.718 71.7442 271.703 71.7386L271.567 71.6403C270.831 71.081 270.245 70.3507 269.863 69.5141C269.863 69.3596 269.863 69.208 269.863 69.0563V69.1012C269.971 67.0678 271.434 65.2169 272.822 63.6019L276.37 59.4732C276.774 59.0656 277.086 58.5772 277.284 58.0408C277.357 57.7536 277.39 57.4577 277.381 57.1617C277.381 57.0409 277.381 56.9201 277.381 56.8022C277.364 55.777 277.332 54.749 277.296 53.7126C277.261 52.8167 277.029 51.6876 276.123 51.5022C275.651 51.4067 275.029 51.5753 274.779 51.1736C274.695 51.0095 274.674 50.8211 274.72 50.6428C274.718 50.6568 274.718 50.6709 274.72 50.6849V50.6344C274.896 49.9427 275.009 49.2367 275.058 48.5251C275.075 48.1633 275.025 47.8015 274.91 47.4578C274.384 45.9692 272.578 45.3597 270.979 45.0788C269.38 44.798 267.591 44.5564 266.588 43.3206C266.279 42.9386 266.069 42.478 265.717 42.1326C265.254 41.7273 264.69 41.4519 264.084 41.3349C262.1 40.8502 260.011 41.03 258.142 41.8461C257.37 42.1859 256.594 42.6465 255.748 42.596C254.902 42.5454 254.115 41.9416 253.246 41.7955C251.843 41.5596 250.499 42.5791 249.809 43.784C249.399 44.5007 249.181 45.3087 249.173 46.1321C249.173 46.177 249.173 46.2248 249.173 46.2697C249.152 47.1548 249.479 48.0135 250.085 48.6655C250.69 49.2862 251.593 49.7131 251.843 50.5304C251.945 50.8619 251.92 51.2214 252.01 51.5584C252.01 51.6005 252.036 51.6427 252.05 51.682L252.005 51.741C250.557 53.5764 249.773 55.8391 249.778 58.1672C249.793 60.4256 250.534 62.6208 251.893 64.4354C253.253 66.25 255.161 67.5899 257.341 68.2615C257.341 68.3654 257.341 68.4721 257.341 68.576C257.341 69.8512 256.975 71.1516 255.873 72.1093L246.313 75.9122C246.313 75.9122 240.551 75.2353 238.472 83.5658C238.137 84.9489 238.017 86.374 238.114 87.7928C238.191 89.0483 238.015 91.2615 236.538 94.1235C234.172 98.7016 234.712 109.212 239.545 110.254C244.109 111.237 245.896 110.815 246.077 110.779V110.961C246.004 112.927 245.279 129.945 242.647 132.004C241.92 132.566 242.056 132.959 242.647 133.217C242.647 133.217 242.647 133.327 242.63 133.523C242.55 134.768 242.144 139.506 240.383 142.202C238.341 145.322 238.554 163.329 238.554 163.329L237.182 173.954C237.182 173.954 238.034 180.509 237.182 181.655C236.416 182.675 235.393 206.933 235.194 212.188H235.103C234.683 212.213 234.275 212.34 233.915 212.556C233.555 212.773 233.254 213.074 233.039 213.432C231.903 215.247 227.955 218.597 227.955 218.597C227.103 219.802 223.925 220.954 222.246 221.499C222.021 221.57 221.805 221.664 221.599 221.78C220.972 222.118 220.468 222.643 220.159 223.279C220.05 223.467 219.98 223.675 219.953 223.89C219.926 224.105 219.943 224.324 220.003 224.532C220.434 225.571 229.352 226.299 231.607 225.26C233.382 224.439 240.412 223.364 243.328 222.942C243.858 222.876 244.35 222.637 244.728 222.264C245.106 221.891 245.348 221.405 245.416 220.881C245.441 220.699 245.43 220.513 245.381 220.335C245.332 220.158 245.247 219.992 245.132 219.847C244.564 219.162 244.28 217.294 244.158 216.075C244.395 215.981 244.616 215.851 244.814 215.69C244.574 211.909 245.122 208.12 246.424 204.557C248.574 198.94 249.219 188.528 248.696 181.765C248.696 181.765 255.251 153.875 260.408 151.271C260.488 151.37 262.99 154.549 263.308 164.382C263.632 174.372 267.284 180.928 267.284 180.928C267.284 180.928 265.671 197.892 267.284 204.24L265.174 214.255C265.021 214.123 264.921 214.022 264.921 214.022C264.921 214.022 264.984 214.303 265.072 214.747L265.026 214.957L265.117 214.98C265.356 216.233 265.711 218.415 265.566 219.696C265.481 220.423 265.282 221.423 265.134 222.403C264.913 223.945 264.85 225.439 265.671 225.774C267.014 226.307 274.913 227.037 276.256 225.321C276.557 224.971 276.754 224.545 276.823 224.09C276.892 223.636 276.832 223.171 276.648 222.749C276.55 222.513 276.418 222.292 276.256 222.094C276.256 222.094 274.16 218.704 274.751 216.314C274.807 216.08 274.814 215.838 274.771 215.602C274.728 215.365 274.636 215.14 274.501 214.941C274.592 213.767 275.069 208.337 276.31 203.726C277.653 198.718 280.491 187.739 278.403 180.518C278.324 180.237 278.233 179.956 278.136 179.675C276.932 175.734 276.53 171.595 276.955 167.5C276.18 164.002 276.18 160.38 276.955 156.883C278.244 151.055 279.144 145.331 279.144 145.331C279.144 145.331 279.857 137.632 279.235 132.911L279.193 132.608L279.534 132.532C279.534 132.532 277.707 124.519 277.063 119.421C276.909 118.216 276.71 116.691 276.495 115.062C277.09 114.968 277.676 114.824 278.247 114.632C284.029 112.647 285.847 94.7499 285.847 94.7499V89.0764C285.847 89.0764 287.79 80.3864 281.019 76.5358ZM237.793 214.741C237.614 214.651 237.509 214.592 237.509 214.592L237.793 214.741Z" fill="url(#paint1_linear)"/>
<path d="M277.517 179.827C280.034 186.983 277.097 198.597 275.734 203.782C274.371 208.967 273.95 215.193 273.95 215.193C268.602 216.022 264.723 214.983 264.723 214.983L266.924 204.31C265.351 197.985 266.924 181.08 266.924 181.08C266.924 181.08 263.36 174.547 263.044 164.59C262.735 154.788 260.292 151.622 260.204 151.524C255.172 154.116 248.773 181.914 248.773 181.914C249.298 188.654 248.668 199.024 246.572 204.624C245.301 208.182 244.766 211.956 244.999 215.721C244.266 216.334 243.246 216.438 242.144 216.264C239.159 215.772 235.578 213.222 235.578 213.222C235.578 213.222 236.714 182.942 237.566 181.799C238.418 180.655 237.566 174.123 237.566 174.123L238.927 163.545C238.927 163.545 238.719 145.601 240.71 142.48C242.431 139.792 242.826 135.071 242.903 133.832C242.903 133.636 242.92 133.526 242.92 133.526L245.953 129.931C245.953 129.931 275.319 127.754 277.52 129.931C278.063 130.468 278.395 131.681 278.594 133.212C279.199 137.916 278.506 145.589 278.506 145.589C278.506 145.589 277.625 151.294 276.367 157.105C275.609 160.591 275.609 164.196 276.367 167.682C275.95 171.766 276.34 175.891 277.517 179.827Z" fill="#65617D"/>
<path d="M275.682 225.305C274.37 227.015 266.662 226.288 265.35 225.757C264.549 225.428 264.612 223.94 264.827 222.403C264.964 221.426 265.165 220.437 265.248 219.704C265.458 217.836 264.617 214.05 264.617 214.05C264.617 214.05 266.35 215.865 266.767 214.05C266.952 213.258 267.596 212.851 268.264 212.646C269.163 212.379 270.129 212.439 270.987 212.814C272.348 213.399 274.623 214.646 274.214 216.331C273.646 218.713 275.682 222.091 275.682 222.091C275.84 222.29 275.968 222.509 276.063 222.743C276.242 223.164 276.302 223.625 276.235 224.076C276.168 224.528 275.976 224.953 275.682 225.305Z" fill="#A27772"/>
<path opacity="0.1" d="M275.683 225.305C274.371 227.015 266.663 226.288 265.351 225.757C264.55 225.428 264.612 223.94 264.828 222.403C265.655 222.785 267.063 223.105 269.409 222.889C269.958 222.839 270.509 222.822 271.059 222.839C272.728 222.914 274.399 222.882 276.064 222.74C276.244 223.161 276.304 223.623 276.236 224.075C276.169 224.527 275.978 224.953 275.683 225.305Z" fill="black"/>
<path opacity="0.1" d="M248.781 181.902C249.306 188.643 248.676 199.013 246.58 204.613C245.309 208.17 244.774 211.944 245.007 215.71C244.274 216.322 243.254 216.426 242.152 216.252C242.786 211.871 245.481 193.03 247.222 178.142C249.176 161.186 258.378 149.519 258.378 149.519L260.212 151.516C255.174 154.105 248.781 181.902 248.781 181.902Z" fill="black"/>
<path d="M272.536 72.9014L271.255 79.1226L264.984 89.5455L257.25 86.2791C257.25 86.2791 246.742 75.3899 253.345 73.8339C254.136 73.6668 254.883 73.3377 255.538 72.8677C256.836 71.9016 257.242 70.4944 257.242 69.1182C257.242 66.846 256.168 64.6552 256.168 64.6552L269.696 60.4423C269.137 62.2002 268.81 64.0222 268.724 65.863C268.622 69.5142 269.991 71.3005 271.113 72.1571C271.533 72.4958 272.016 72.7487 272.536 72.9014Z" fill="#FBBEBE"/>
<path opacity="0.1" d="M269.704 60.4563C269.145 62.2142 268.819 64.0362 268.733 65.877C268.487 66.167 268.224 66.4427 267.946 66.7028C266.55 68.0227 264.818 68.9442 262.935 69.3695C261.052 69.7948 259.088 69.7079 257.25 69.1182C257.25 66.846 256.177 64.6552 256.177 64.6552L269.704 60.4563Z" fill="black"/>
<path d="M271.255 58.7458C271.254 60.8381 270.626 62.8833 269.45 64.6227C268.274 66.362 266.603 67.7173 264.647 68.5171C262.692 69.3169 260.541 69.5253 258.466 69.1159C256.392 68.7066 254.486 67.6978 252.991 66.2173C251.496 64.7368 250.478 62.8511 250.067 60.7986C249.656 58.7461 249.87 56.6191 250.681 54.6867C251.492 52.7543 252.865 51.1033 254.625 49.9425C256.386 48.7818 258.455 48.1634 260.57 48.1656C261.976 48.1611 263.368 48.4318 264.668 48.9621C265.967 49.4924 267.147 50.2718 268.14 51.2554C269.134 52.2389 269.92 53.4071 270.455 54.6927C270.989 55.9783 271.261 57.3558 271.255 58.7458Z" fill="#FBBEBE"/>
<path opacity="0.1" d="M272.536 72.9014L271.255 79.1226L264.984 89.5455L257.25 86.279C257.25 86.279 246.742 75.3899 253.345 73.8339C254.136 73.6668 254.883 73.3377 255.538 72.8677C254.345 76.1117 259.27 82.8581 259.27 82.8581C259.838 83.7007 261.158 83.167 261.158 83.167C264.328 82.6952 270.17 73.671 271.121 72.1711C271.54 72.5038 272.02 72.7519 272.536 72.9014Z" fill="black"/>
<path opacity="0.1" d="M278.591 133.228C276.73 133.647 266.427 135.905 262.519 135.341C258.222 134.717 249.86 134.304 249.86 134.304C249.86 134.304 244.538 134.585 242.899 133.849C242.899 133.653 242.916 133.543 242.916 133.543L245.95 129.948C245.95 129.948 275.316 127.771 277.517 129.948C278.059 130.479 278.392 131.692 278.591 133.228Z" fill="black"/>
<path d="M259.269 83.167C259.269 83.167 253.737 75.5836 255.822 72.6373L246.475 76.4262C246.475 76.4262 240.849 75.7521 238.807 84.0545C238.481 85.4341 238.363 86.8538 238.457 88.2675C238.531 89.5202 238.361 91.725 236.918 94.5757C234.609 99.1398 235.134 109.613 239.855 110.652C244.575 111.692 246.25 111.169 246.25 111.169C246.25 111.169 245.623 130.15 242.896 132.327C240.17 134.504 249.846 133.987 249.846 133.987C249.846 133.987 258.207 134.402 262.507 135.023C266.807 135.644 278.866 132.846 278.866 132.846C278.866 132.846 277.082 124.859 276.455 119.778C275.827 114.697 274.356 103.875 274.356 103.875L285.054 89.551C285.054 89.551 286.94 80.892 280.334 77.0554C273.728 73.2187 271.246 72.2806 271.246 72.2806C271.246 72.2806 264.617 82.9535 261.158 83.4787C261.158 83.4787 259.843 84.0012 259.269 83.167Z" fill="#7C7CDD"/>
<path opacity="0.1" d="M247 86.175C247 86.175 246.895 89.5988 247.523 90.9498C248.151 92.3007 250.46 99.7661 250.46 99.7661H245.217C245.217 99.7661 248.057 96.7581 247.838 95.306C247.619 93.8539 247 86.175 247 86.175Z" fill="black"/>
<path d="M262.521 112.001C262.521 112.001 250.939 109.192 249.86 106.813C248.781 104.434 245.802 99.092 245.802 99.092L247.023 97.463L252.658 101.836C252.658 101.836 259.369 107.125 262.516 107.644C265.662 108.164 262.521 112.001 262.521 112.001Z" fill="#FBBEBE"/>
<path opacity="0.05" d="M262.521 112.001C262.521 112.001 250.939 109.192 249.86 106.813C248.781 104.434 245.802 99.092 245.802 99.092L247.023 97.463L252.658 101.836C252.658 101.836 259.369 107.125 262.516 107.644C265.662 108.164 262.521 112.001 262.521 112.001Z" fill="black"/>
<path d="M272.536 98.5191V104.732H271.525C266.535 104.733 261.628 105.989 257.265 108.383L255.374 109.422L254.865 109.703L251.613 102.462L254.655 99.7662H254.811C255.555 99.8364 258.773 100.103 260.136 99.6482C261.431 99.2129 263.039 97.8338 266.853 98.8056C268.733 99.2803 270.338 101.364 272.161 100.713L272.536 98.5191Z" fill="#FBBEBE"/>
<path opacity="0.1" d="M282.655 87.2144L284.754 89.5456V95.1994C284.754 95.1994 282.97 113.037 277.307 115.009C271.644 116.98 261.536 113.866 261.536 113.866C261.536 113.866 258.923 107.021 260.144 106.608C261.366 106.195 270.937 103.693 270.937 103.693C270.937 103.693 270.803 93.2277 272.899 90.1157C272.899 90.1157 271.536 80.3697 276.256 80.1618C280.976 79.954 282.655 87.2144 282.655 87.2144Z" fill="black"/>
<path d="M282.97 87.2144L285.069 89.5456V95.1994C285.069 95.1994 283.291 113.037 277.611 115.009C271.931 116.98 261.837 113.866 261.837 113.866C261.837 113.866 259.227 107.021 260.448 106.608C261.67 106.195 271.241 103.693 271.241 103.693C271.241 103.693 271.104 93.2277 273.203 90.1157C273.203 90.1157 271.84 80.3697 276.56 80.1618C281.28 79.954 282.97 87.2144 282.97 87.2144Z" fill="#7C7CDD"/>
<path opacity="0.1" d="M268.321 63.2396C268.363 62.5571 268.377 61.8353 268.082 61.2202C267.787 60.6051 267.094 60.1136 266.418 60.2708C265.52 60.4787 265.134 61.633 264.254 61.9111C263.512 62.1442 262.703 61.6302 262.351 60.9393C261.999 60.2484 261.987 59.4507 261.984 58.6924C261.984 57.8273 261.984 56.9594 261.984 56.0944C261.984 55.1507 261.953 54.1283 261.365 53.3925C260.635 52.4684 258.917 52.0668 257.77 52.1033C257.005 52.1121 256.272 52.4048 255.716 52.9234C255.103 53.4374 254.393 53.8194 253.555 53.6817C253.207 53.6296 252.881 53.4811 252.615 53.2535C252.348 53.0259 252.152 52.7284 252.05 52.3954V52.3617C252.941 51.1966 254.068 50.2269 255.357 49.5137C256.647 48.8004 258.071 48.3591 259.542 48.2176C261.013 48.0761 262.497 48.2373 263.901 48.6913C265.305 49.1453 266.599 49.882 267.702 50.8552C268.804 51.8283 269.69 53.0167 270.305 54.3454C270.919 55.6741 271.249 57.1144 271.272 58.5753C271.296 60.0363 271.014 61.4862 270.442 62.8338C269.871 64.1814 269.024 65.3973 267.954 66.4049C268.136 65.3575 268.259 64.3007 268.321 63.2396Z" fill="black"/>
<path d="M253.55 53.3616C253.201 53.3089 252.875 53.1599 252.609 52.9318C252.343 52.7037 252.147 52.4058 252.044 52.0724C251.956 51.7382 251.979 51.3815 251.88 51.0472C251.635 50.2327 250.744 49.8086 250.176 49.1907C248.994 47.9493 249.071 45.9102 249.909 44.416C250.585 43.2139 251.897 42.2 253.263 42.4331C254.115 42.5792 254.845 43.1774 255.705 43.2308C256.566 43.2841 257.287 42.8235 258.043 42.4837C259.861 41.6694 261.905 41.4901 263.839 41.9753C264.434 42.0934 264.985 42.368 265.435 42.7701C265.74 43.1495 266.024 43.5442 266.287 43.9526C267.267 45.1856 269.017 45.4271 270.576 45.7052C272.135 45.9833 273.896 46.5927 274.41 48.0757C274.748 49.0587 274.41 50.126 274.225 51.1484C274.16 51.3567 274.174 51.5817 274.265 51.7803C274.509 52.1791 275.117 52.0134 275.577 52.1089C276.463 52.2915 276.69 53.4178 276.713 54.3109C276.751 55.3333 276.779 56.3556 276.798 57.378C276.851 57.852 276.789 58.3316 276.618 58.7774C276.446 59.2232 276.171 59.6224 275.813 59.9423L272.351 64.0569C270.814 65.8826 269.184 68.0087 269.494 70.3624C268.767 70.6854 267.903 70.0618 267.665 69.3091C267.426 68.5564 267.619 67.7475 267.778 66.9751C268.059 65.6398 268.242 64.2863 268.326 62.925C268.369 62.2397 268.383 61.5207 268.088 60.9056C267.793 60.2905 267.1 59.7822 266.424 59.9535C265.526 60.1613 265.14 61.3157 264.259 61.5937C263.521 61.8269 262.709 61.3129 262.357 60.6219C262.004 59.931 261.993 59.1334 261.99 58.375V55.7742C261.99 54.8333 261.959 53.8082 261.371 53.0723C260.641 52.1482 258.923 51.7466 257.776 51.7831C257.011 51.7924 256.279 52.0851 255.722 52.6032C255.097 53.1172 254.387 53.4964 253.55 53.3616Z" fill="#7C5C5C"/>
<path opacity="0.1" d="M255.967 85.9167L259.25 99.2578C259.25 99.2578 261.84 99.2438 255.967 85.9167Z" fill="black"/>
<path opacity="0.1" d="M267.188 83.6866C267.188 83.6866 262.888 90.6521 264.567 97.8507L265.367 97.9097C265.367 97.9097 263.936 94.5758 267.188 83.6866Z" fill="black"/>
<path opacity="0.1" d="M269.914 123.098C269.914 123.098 275.194 121.37 275.577 125.378C275.577 125.378 274.58 122.631 269.914 123.098Z" fill="black"/>
<path opacity="0.1" d="M254.655 100.086C254.655 100.086 253.607 107.347 255.507 110.251C255.507 110.251 251.667 111.807 246.277 111.495L245.638 100.086H254.655Z" fill="black"/>
<path opacity="0.1" d="M255.374 109.419L254.865 109.7L251.613 102.46L254.655 99.7633H254.811C254.763 100.112 253.917 106.347 255.374 109.419Z" fill="black"/>
<path d="M254.655 99.7633C254.655 99.7633 253.607 107.021 255.507 109.925C255.507 109.925 251.667 111.481 246.277 111.169L242.607 99.7633H254.655Z" fill="#7C7CDD"/>
<path d="M245.584 220.889C245.523 221.407 245.29 221.889 244.921 222.261C244.552 222.633 244.069 222.872 243.547 222.942C240.707 223.364 233.84 224.437 232.107 225.251C229.906 226.288 221.202 225.563 220.781 224.527C220.663 224.107 220.717 223.659 220.932 223.279C221.235 222.646 221.731 222.122 222.352 221.782C222.552 221.668 222.763 221.574 222.982 221.502C224.621 220.96 227.717 219.816 228.554 218.609C228.554 218.609 232.414 215.269 233.513 213.463C233.721 213.109 234.013 212.81 234.365 212.593C234.716 212.377 235.116 212.249 235.53 212.222C236.45 212.18 237.472 212.638 237.89 214.629C237.89 214.629 242.922 217.468 244.283 214.977C244.283 214.977 244.493 218.802 245.328 219.847C245.438 219.996 245.518 220.164 245.562 220.343C245.606 220.522 245.613 220.708 245.584 220.889Z" fill="#A27772"/>
<path opacity="0.1" d="M245.584 220.889C245.523 221.407 245.29 221.889 244.921 222.261C244.552 222.632 244.069 222.872 243.547 222.942C240.707 223.364 233.84 224.437 232.107 225.251C229.906 226.288 221.202 225.563 220.781 224.526C220.663 224.107 220.717 223.659 220.932 223.279C221.235 222.646 221.731 222.122 222.352 221.782C223.772 222.715 226.921 223.625 233.851 222.555C240.46 221.535 243.732 220.535 245.328 219.853C245.438 220 245.517 220.168 245.56 220.346C245.604 220.524 245.612 220.708 245.584 220.889Z" fill="black"/>
<g opacity="0.1">
<path opacity="0.1" d="M274.204 51.3001V51.2495C274.354 50.4715 274.578 49.6683 274.527 48.8931C274.46 49.5293 274.352 50.1606 274.204 50.7833C274.164 50.9533 274.164 51.1301 274.204 51.3001Z" fill="black"/>
<path opacity="0.1" d="M268.08 61.0068C268.245 61.3808 268.333 61.7838 268.338 62.192C268.387 61.629 268.298 61.0627 268.08 60.5405C267.796 59.9198 267.095 59.4311 266.419 59.5884C265.521 59.7962 265.135 60.9506 264.254 61.2286C263.513 61.4618 262.704 60.9478 262.349 60.2569C261.994 59.5659 261.988 58.7683 261.985 58.0099C261.985 57.1421 261.985 56.277 261.985 55.4091C261.985 54.4682 261.954 53.4431 261.366 52.7072C260.636 51.7831 258.915 51.3815 257.771 51.418C257.006 51.4268 256.273 51.7196 255.717 52.2381C255.101 52.7549 254.394 53.1341 253.556 52.9993C253.208 52.9466 252.882 52.7976 252.615 52.5695C252.349 52.3414 252.153 52.0435 252.051 51.7101C251.963 51.3759 251.985 51.0192 251.886 50.685C251.639 49.8705 250.75 49.4463 250.182 48.8284C249.63 48.2265 249.316 47.4475 249.299 46.6349C249.255 47.1144 249.311 47.5976 249.463 48.055C249.614 48.5124 249.859 48.9342 250.182 49.2947C250.773 49.9126 251.65 50.3395 251.886 51.154C251.985 51.4854 251.963 51.8421 252.051 52.1764C252.153 52.5097 252.349 52.8076 252.615 53.0357C252.882 53.2638 253.208 53.4128 253.556 53.4655C254.408 53.6003 255.101 53.2212 255.717 52.7044C256.273 52.1858 257.006 51.893 257.771 51.8843C258.907 51.8477 260.636 52.2522 261.366 53.1734C261.954 53.9149 261.982 54.9345 261.985 55.8754C261.985 56.7432 261.985 57.6083 261.985 58.4762C261.985 59.2457 261.985 60.0462 262.349 60.7231C262.712 61.4 263.513 61.928 264.254 61.6949C265.135 61.414 265.521 60.2625 266.419 60.0546C267.103 59.9002 267.787 60.386 268.08 61.0068Z" fill="black"/>
<path opacity="0.1" d="M276.699 58.1504C276.508 58.6832 276.204 59.1696 275.807 59.5772C274.654 60.9497 273.5 62.3212 272.345 63.6919C270.888 65.4248 269.343 67.4302 269.457 69.6406C269.562 67.6127 270.991 65.7674 272.345 64.1581L275.807 60.0462C276.203 59.6372 276.507 59.15 276.699 58.6166C276.785 58.2486 276.816 57.87 276.79 57.4932C276.787 57.7151 276.757 57.9358 276.699 58.1504Z" fill="black"/>
<path opacity="0.1" d="M267.671 68.9441C267.615 68.7614 267.581 68.5729 267.569 68.3823C267.539 68.7264 267.574 69.073 267.671 69.4047C267.91 70.1574 268.776 70.7781 269.503 70.4551C269.483 70.3034 269.472 70.1518 269.466 70.0001C268.733 70.2978 267.893 69.6855 267.671 68.9441Z" fill="black"/>
</g>
<path opacity="0.1" d="M232.812 214.398C232.812 214.398 233.908 216.306 237.878 214.626L232.812 214.398Z" fill="black"/>
<path opacity="0.1" d="M266.393 214.868C266.393 214.868 269.818 218.856 274.135 216.174L266.393 214.868Z" fill="black"/>
<path opacity="0.1" d="M276.365 167.691C276.365 167.691 273.942 169.188 273.866 170.044C273.789 170.901 275.115 169.421 275.115 169.421L276.365 167.691Z" fill="black"/>
<path opacity="0.1" d="M277.327 179.158C276.485 179.851 275.439 180.255 274.345 180.31C272.536 180.389 272.686 182.722 273.868 182.02C275.049 181.318 277.327 179.158 277.327 179.158Z" fill="black"/>
<path opacity="0.1" d="M277.778 180.655C277.778 180.655 276.617 186.301 275.674 185.211L277.778 180.655Z" fill="black"/>
<path d="M38.841 206.916C38.841 206.916 40.4002 208.933 38.1196 211.972C35.839 215.011 33.9589 217.589 34.7115 219.488C34.7115 219.488 38.1508 213.831 40.9597 213.753C43.7685 213.674 41.9224 210.318 38.841 206.916Z" fill="#0050B3"/>
<path opacity="0.1" d="M38.841 206.916C38.9776 207.11 39.0848 207.323 39.1591 207.548C41.8912 210.722 43.3482 213.685 40.7211 213.761C38.2758 213.828 35.325 218.156 34.6377 219.249C34.6609 219.333 34.6884 219.415 34.7201 219.496C34.7201 219.496 38.1594 213.84 40.9682 213.761C43.777 213.682 41.9225 210.318 38.841 206.916Z" fill="black"/>
<path d="M41.7406 209.486C41.7406 210.197 41.661 210.773 41.5616 210.773C41.4622 210.773 41.3799 210.197 41.3799 209.486C41.3799 208.776 41.4821 209.113 41.5815 209.113C41.6809 209.113 41.7406 208.781 41.7406 209.486Z" fill="#FFD037"/>
<path d="M42.737 210.334C42.1065 210.674 41.5556 210.879 41.5073 210.795C41.459 210.711 41.9333 210.362 42.5638 210.023C43.1943 209.683 42.9444 209.93 42.9926 210.023C43.0409 210.115 43.3675 209.995 42.737 210.334Z" fill="#FFD037"/>
<path d="M30.5991 206.916C30.5991 206.916 29.0399 208.933 31.3205 211.972C33.6011 215.011 35.4812 217.589 34.7286 219.488C34.7286 219.488 31.2893 213.831 28.4805 213.753C25.6716 213.674 27.5205 210.318 30.5991 206.916Z" fill="#0050B3"/>
<path opacity="0.1" d="M30.5995 206.916C30.4641 207.111 30.357 207.324 30.2814 207.548C27.5492 210.722 26.0923 213.685 28.7193 213.761C31.1675 213.828 34.1155 218.156 34.8028 219.249C34.7809 219.333 34.7533 219.416 34.7204 219.496C34.7204 219.496 31.2811 213.84 28.4723 213.761C25.6634 213.682 27.5208 210.318 30.5995 206.916Z" fill="black"/>
<path d="M27.6992 209.486C27.6992 210.197 27.7787 210.773 27.8781 210.773C27.9775 210.773 28.0599 210.197 28.0599 209.486C28.0599 208.776 27.9577 209.113 27.8583 209.113C27.7589 209.113 27.6992 208.781 27.6992 209.486Z" fill="#FFD037"/>
<path d="M26.7047 210.334C27.3351 210.674 27.8833 210.879 27.9316 210.795C27.9798 210.711 27.5055 210.362 26.8751 210.023C26.2446 209.683 26.4945 209.93 26.4462 210.023C26.3979 210.115 26.0742 209.995 26.7047 210.334Z" fill="#FFD037"/>
<path d="M28.1963 219.232C28.1963 219.232 32.5586 219.1 33.8764 218.173C35.1942 217.246 40.5847 216.143 40.9113 217.628C41.2379 219.114 47.4661 225.012 42.5415 225.052C37.6168 225.091 31.0988 224.293 29.7867 223.501C28.4746 222.709 28.1963 219.232 28.1963 219.232Z" fill="#A8A8A8"/>
<path opacity="0.2" d="M42.6267 224.535C37.702 224.574 31.184 223.777 29.8719 222.985C28.8722 222.383 28.4746 220.224 28.3411 219.227H28.1963C28.1963 219.227 28.4803 222.706 29.7839 223.496C31.0875 224.285 37.6139 225.085 42.5386 225.046C43.9587 225.046 44.4528 224.535 44.4244 223.793C44.2285 224.246 43.686 224.526 42.6267 224.535Z" fill="black"/>
</g>
<defs>
<linearGradient id="paint0_linear" x1="131.538" y1="214.688" x2="131.538" y2="10.0185" gradientUnits="userSpaceOnUse">
<stop stop-color="#808080" stop-opacity="0.25"/>
<stop offset="0.54" stop-color="#808080" stop-opacity="0.12"/>
<stop offset="1" stop-color="#808080" stop-opacity="0.1"/>
</linearGradient>
<linearGradient id="paint1_linear" x1="63102.3" y1="155277" x2="63102.3" y2="33012.4" gradientUnits="userSpaceOnUse">
<stop stop-color="#808080" stop-opacity="0.25"/>
<stop offset="0.54" stop-color="#808080" stop-opacity="0.12"/>
<stop offset="1" stop-color="#808080" stop-opacity="0.1"/>
</linearGradient>
<clipPath id="clip0">
<rect width="307" height="235" fill="white"/>
</clipPath>
</defs>
</svg>
