<svg width="80" height="80" viewBox="0 0 80 80" fill="none" xmlns="http://www.w3.org/2000/svg">
<path d="M54.6104 27.5781H50.9463C50.1494 27.5781 49.3916 27.9609 48.9229 28.6172L36.6416 45.6484L31.0791 37.9297C30.6104 37.2812 29.8604 36.8906 29.0557 36.8906H25.3916C24.8838 36.8906 24.5869 37.4687 24.8838 37.8828L34.6182 51.3828C34.8481 51.7038 35.1513 51.9653 35.5025 52.1457C35.8537 52.3261 36.2429 52.4203 36.6377 52.4203C37.0326 52.4203 37.4217 52.3261 37.7729 52.1457C38.1241 51.9653 38.4273 51.7038 38.6572 51.3828L55.1104 28.5703C55.4151 28.1563 55.1182 27.5781 54.6104 27.5781Z" fill="#13C2C2"/>
<path d="M40 5C20.6719 5 5 20.6719 5 40C5 59.3281 20.6719 75 40 75C59.3281 75 75 59.3281 75 40C75 20.6719 59.3281 5 40 5ZM40 69.0625C23.9531 69.0625 10.9375 56.0469 10.9375 40C10.9375 23.9531 23.9531 10.9375 40 10.9375C56.0469 10.9375 69.0625 23.9531 69.0625 40C69.0625 56.0469 56.0469 69.0625 40 69.0625Z" fill="#13C2C2"/>
</svg>
