<svg width="115" height="85" viewBox="0 0 115 85" fill="none" xmlns="http://www.w3.org/2000/svg">
<g clip-path="url(#clip0)">
<path opacity="0.1" d="M11.5683 8.51184C10.8526 8.80681 10.118 9.18542 9.72465 9.8491C9.30806 10.5502 9.35792 11.4208 9.43548 12.2319C10.1113 19.2671 11.8918 26.7492 8.81723 33.1218C7.3248 36.2134 4.82856 38.6909 2.84309 41.4986C0.857618 44.3063 -0.641458 47.8118 0.280368 51.1147C1.40606 55.1507 5.60746 57.3883 8.43942 60.4942C10.293 62.5249 11.5927 64.9925 13.3222 67.1288C15.0517 69.2651 17.4217 71.1472 20.1827 71.2726C24.1537 71.4542 27.3845 68.0478 31.2779 67.2587C35.2666 66.4508 39.2829 68.5068 42.5171 70.9678C45.7512 73.4288 48.6929 76.4103 52.461 77.9468C56.6226 79.6451 61.3137 79.3853 65.6946 80.4056C69.6832 81.3356 73.355 83.3135 77.3149 84.3679C81.2748 85.4222 85.916 85.3584 88.984 82.6652C92.9826 79.1432 92.668 72.8696 95.2218 68.2107C97.594 63.882 102.237 61.2977 105.363 57.4708C110.987 50.5831 110.803 40.0557 106.028 32.5648C101.252 25.074 92.6026 20.5383 83.7577 19.3574C79.769 18.8258 75.6618 18.8984 71.8271 17.6888C61.563 14.453 55.4548 2.85904 44.9756 0.44648C38.3146 -1.08449 31.8363 1.56691 26.1624 4.83026C21.2375 7.66326 16.6937 6.39975 11.5683 8.51184Z" fill="#096DD9"/>
<path d="M21.5697 31.239C21.5697 31.239 17.7882 34.7841 13.7297 34.8898C12.0255 34.9235 10.3782 35.5055 9.03529 36.5484C8.40052 37.0469 7.81306 37.6021 7.28027 38.2071" stroke="#535461" stroke-width="2" stroke-miterlimit="10"/>
<path d="M4.72116 38.294C5.26628 38.0188 7.34703 38.2015 7.34703 38.2015C7.34703 38.2015 6.26788 39.979 5.72276 40.2542C5.59221 40.3311 5.44715 40.3805 5.29657 40.3994C5.146 40.4183 4.99313 40.4062 4.84744 40.364C4.70174 40.3218 4.56634 40.2503 4.44962 40.1539C4.33289 40.0575 4.23735 39.9384 4.1689 39.8038C4.10045 39.6693 4.06055 39.5222 4.05169 39.3717C4.04283 39.2212 4.0652 39.0705 4.11739 38.9289C4.16959 38.7873 4.25051 38.6579 4.35513 38.5487C4.45975 38.4395 4.58585 38.3528 4.72559 38.294H4.72116Z" fill="#096DD9"/>
<path d="M6.91132 35.1516C7.51959 35.2155 9.16602 36.4922 9.16602 36.4922C9.16602 36.4922 7.28248 37.4013 6.67975 37.3386C6.39776 37.2962 6.14306 37.1475 5.96865 36.9234C5.79424 36.6992 5.71355 36.4169 5.74339 36.1352C5.77322 35.8534 5.91127 35.5939 6.12881 35.4107C6.34635 35.2275 6.62663 35.1347 6.91132 35.1516Z" fill="#096DD9"/>
<path d="M12.1057 32.6191C12.5976 32.979 13.371 34.9073 13.371 34.9073C13.371 34.9073 11.2869 34.7499 10.795 34.3911C10.5732 34.2131 10.4291 33.9571 10.3925 33.6763C10.3559 33.3955 10.4296 33.1114 10.5984 32.8832C10.7672 32.6551 11.018 32.5003 11.2988 32.4511C11.5795 32.4019 11.8685 32.462 12.1057 32.6191Z" fill="#096DD9"/>
<path d="M16.47 31.5835C17.0163 31.8554 18.1065 33.6263 18.1065 33.6263C18.1065 33.6263 16.0258 33.8211 15.4795 33.5492C15.3417 33.4894 15.2176 33.4024 15.1147 33.2934C15.0118 33.1845 14.9324 33.0558 14.8812 32.9154C14.83 32.7749 14.8081 32.6256 14.8168 32.4764C14.8256 32.3273 14.8648 32.1815 14.9321 32.0479C14.9994 31.9143 15.0934 31.7957 15.2084 31.6994C15.3233 31.6031 15.4568 31.531 15.6007 31.4875C15.7445 31.4441 15.8958 31.4302 16.0453 31.4467C16.1948 31.4632 16.3393 31.5097 16.47 31.5835Z" fill="#096DD9"/>
<path d="M10.3242 38.4965C10.5059 37.9165 9.97404 35.9089 9.97404 35.9089C9.97404 35.9089 8.39186 37.2649 8.21016 37.8449C8.15895 37.9849 8.13689 38.1338 8.1453 38.2825C8.15371 38.4312 8.19242 38.5767 8.25908 38.7101C8.32574 38.8435 8.41898 38.9621 8.53313 39.0587C8.64728 39.1553 8.77998 39.2278 8.92319 39.272C9.0664 39.3161 9.21713 39.3309 9.36627 39.3155C9.5154 39.3001 9.65984 39.2547 9.79082 39.1822C9.9218 39.1097 10.0366 39.0116 10.1283 38.8937C10.22 38.7758 10.2866 38.6407 10.3242 38.4965Z" fill="#096DD9"/>
<path d="M15.4129 37.2164C15.4129 36.6089 14.2994 34.8523 14.2994 34.8523C14.2994 34.8523 13.1981 36.6133 13.1992 37.223C13.2001 37.5149 13.3177 37.7945 13.5261 38.0003C13.7345 38.2061 14.0167 38.3212 14.3105 38.3203C14.6044 38.3195 14.8858 38.2027 15.093 37.9956C15.3001 37.7886 15.416 37.5083 15.4151 37.2164H15.4129Z" fill="#096DD9"/>
<path d="M20.1867 35.3057C20.2887 34.707 19.4909 32.7886 19.4909 32.7886C19.4909 32.7886 18.1049 34.3427 18.004 34.9414C17.97 35.2223 18.0461 35.5054 18.2167 35.732C18.3872 35.9586 18.6391 36.1113 18.9199 36.1583C19.2008 36.2053 19.4891 36.1431 19.725 35.9845C19.9609 35.826 20.1262 35.5833 20.1867 35.3068V35.3057Z" fill="#096DD9"/>
<path d="M26.4836 21.8506C26.4836 21.8506 21.9288 19.3654 20.5749 15.5584C20.0186 13.9575 18.9545 12.5791 17.5424 11.6302C16.8685 11.1848 16.1549 10.8017 15.4106 10.4856" stroke="#535461" stroke-width="2" stroke-miterlimit="10"/>
<path d="M14.546 8.09189C14.977 8.52223 15.4412 10.5463 15.4412 10.5463C15.4412 10.5463 13.407 10.073 12.976 9.64156C12.7857 9.4316 12.6839 9.15696 12.6918 8.87453C12.6997 8.59209 12.8167 8.32349 13.0184 8.12433C13.2202 7.92518 13.4913 7.81074 13.7757 7.8047C14.0601 7.79866 14.3359 7.90148 14.546 8.09189Z" fill="#096DD9"/>
<path d="M18.23 9.19558C18.3563 9.78992 17.6395 11.7391 17.6395 11.7391C17.6395 11.7391 16.1914 10.2434 16.0651 9.64793C16.0276 9.50393 16.0199 9.35388 16.0424 9.20683C16.0649 9.05978 16.1172 8.91879 16.1961 8.79238C16.275 8.66597 16.3789 8.55675 16.5014 8.47133C16.624 8.38591 16.7628 8.32606 16.9093 8.29538C17.0558 8.26471 17.207 8.26386 17.3539 8.29287C17.5007 8.32189 17.6402 8.38018 17.7637 8.46421C17.8872 8.54824 17.9924 8.65628 18.0727 8.78179C18.153 8.9073 18.2069 9.04769 18.2311 9.19448L18.23 9.19558Z" fill="#096DD9"/>
<path d="M22.2525 13.333C22.0597 13.9086 20.4498 15.2327 20.4498 15.2327C20.4498 15.2327 19.9601 13.2153 20.1529 12.6385C20.2456 12.3612 20.4454 12.1319 20.7083 12.0009C20.9713 11.8699 21.2758 11.8481 21.555 11.9402C21.8341 12.0323 22.065 12.2308 22.1969 12.492C22.3287 12.7532 22.3507 13.0557 22.258 13.333H22.2525Z" fill="#096DD9"/>
<path d="M24.5879 17.1357C24.496 17.7355 23.1343 19.3105 23.1343 19.3105C23.1343 19.3105 22.3078 17.4042 22.3997 16.8044C22.415 16.6561 22.4605 16.5125 22.5334 16.3823C22.6062 16.252 22.705 16.1378 22.8236 16.0465C22.9422 15.9553 23.0782 15.8889 23.2234 15.8515C23.3686 15.814 23.52 15.8063 23.6683 15.8286C23.8166 15.851 23.9588 15.9031 24.0862 15.9817C24.2137 16.0603 24.3238 16.1638 24.4098 16.2859C24.4957 16.408 24.5559 16.5462 24.5865 16.6921C24.6171 16.8379 24.6176 16.9885 24.5879 17.1346V17.1357Z" fill="#096DD9"/>
<path d="M16.0744 13.4508C16.686 13.4442 18.4454 12.3237 18.4454 12.3237C18.4454 12.3237 16.6605 11.2451 16.0489 11.2517C15.7551 11.2551 15.4746 11.3743 15.2692 11.5831C15.0638 11.7918 14.9503 12.0731 14.9537 12.365C14.9571 12.6569 15.077 12.9355 15.2872 13.1396C15.4974 13.3436 15.7805 13.4563 16.0744 13.453V13.4508Z" fill="#096DD9"/>
<path d="M18.8619 17.8686C19.4425 17.6804 20.7843 16.0889 20.7843 16.0889C20.7843 16.0889 18.7556 15.5903 18.175 15.7785C18.0317 15.8192 17.8982 15.8881 17.7823 15.9811C17.6665 16.0742 17.5707 16.1895 17.5008 16.3202C17.4308 16.4509 17.3881 16.5942 17.3752 16.7417C17.3624 16.8891 17.3795 17.0376 17.4258 17.1783C17.472 17.319 17.5463 17.449 17.6442 17.5605C17.7422 17.6721 17.8618 17.7628 17.9959 17.8273C18.1299 17.8919 18.2757 17.9289 18.4246 17.9362C18.5734 17.9435 18.7221 17.9209 18.8619 17.8697V17.8686Z" fill="#096DD9"/>
<path d="M22.1637 21.7934C22.7686 21.7054 24.3619 20.3626 24.3619 20.3626C24.3619 20.3626 22.4473 19.5305 21.8435 19.6186C21.6948 19.6338 21.5507 19.6788 21.4199 19.7508C21.2892 19.8228 21.1744 19.9203 21.0826 20.0375C20.9908 20.1548 20.9238 20.2892 20.8857 20.4328C20.8476 20.5764 20.8392 20.7262 20.8609 20.8731C20.8826 21.0201 20.934 21.1611 21.012 21.2878C21.09 21.4145 21.193 21.5242 21.3149 21.6103C21.4367 21.6964 21.5748 21.7571 21.7209 21.7887C21.8669 21.8204 22.0179 21.8224 22.1648 21.7945L22.1637 21.7934Z" fill="#096DD9"/>
<path d="M57.8285 82.1516C79.9797 82.1516 97.9368 64.3135 97.9368 42.3091C97.9368 20.3047 79.9797 2.46655 57.8285 2.46655C35.6773 2.46655 17.7202 20.3047 17.7202 42.3091C17.7202 64.3135 35.6773 82.1516 57.8285 82.1516Z" fill="url(#paint0_linear)"/>
<path d="M57.8288 81.4913C79.6128 81.4913 97.2723 63.9489 97.2723 42.3091C97.2723 20.6694 79.6128 3.12695 57.8288 3.12695C36.0447 3.12695 18.3853 20.6694 18.3853 42.3091C18.3853 63.9489 36.0447 81.4913 57.8288 81.4913Z" fill="#096DD9"/>
<path d="M57.8285 73.4566C75.1456 73.4566 89.1839 59.5114 89.1839 42.309C89.1839 25.1066 75.1456 11.1614 57.8285 11.1614C40.5114 11.1614 26.4731 25.1066 26.4731 42.309C26.4731 59.5114 40.5114 73.4566 57.8285 73.4566Z" fill="#DDE1EC"/>
<path opacity="0.3" d="M58.7156 16.6646H56.9429V44.1801H58.7156V16.6646Z" fill="#535461"/>
<g opacity="0.1">
<path opacity="0.1" d="M84.7524 41.6487H59.7124V43.8499H84.7524V41.6487Z" fill="black"/>
<path opacity="0.1" d="M42.0343 33.413L41.0063 35.363L56.7618 43.5591L57.7898 41.6091L42.0343 33.413Z" fill="black"/>
<path opacity="0.1" d="M57.8293 46.051C59.665 46.051 61.1532 44.5727 61.1532 42.7491C61.1532 40.9256 59.665 39.4473 57.8293 39.4473C55.9935 39.4473 54.5054 40.9256 54.5054 42.7491C54.5054 44.5727 55.9935 46.051 57.8293 46.051Z" fill="black"/>
</g>
<path d="M84.7524 41.2085H59.7124V43.4097H84.7524V41.2085Z" fill="#535461"/>
<path d="M57.7969 41.1714L42.0415 32.9753L41.0135 34.9254L56.7689 43.1215L57.7969 41.1714Z" fill="#535461"/>
<path d="M57.8293 45.6108C59.665 45.6108 61.1531 44.1325 61.1531 42.3089C61.1531 40.4854 59.665 39.0071 57.8293 39.0071C55.9935 39.0071 54.5054 40.4854 54.5054 42.3089C54.5054 44.1325 55.9935 45.6108 57.8293 45.6108Z" fill="#535461"/>
<g opacity="0.1">
<path opacity="0.1" d="M28.9087 46.0511C28.9087 28.8484 42.9467 14.9035 60.2641 14.9035C65.1247 14.8992 69.9195 16.0193 74.2688 18.1749C78.6181 20.3306 82.4023 23.4626 85.3219 27.3229C79.9859 17.6903 69.6818 11.1614 57.8266 11.1614C40.5091 11.1614 26.4712 25.1063 26.4712 42.309C26.461 49.067 28.6736 55.6433 32.7722 61.0372C30.2304 56.4464 28.9013 51.2905 28.9087 46.0511Z" fill="black"/>
</g>
<g opacity="0.1">
<path opacity="0.1" d="M73.7934 51.8888C73.7934 51.8888 73.5596 52.3544 73.2394 52.9135C72.7502 52.6538 72.2774 52.3649 71.8234 52.0484L71.7259 51.9802L71.6738 51.9427L72.2278 51.3352L73.7934 51.8888Z" fill="black"/>
</g>
<g opacity="0.1">
<path opacity="0.1" d="M70.1494 52.492C70.0058 52.6279 69.8889 52.7891 69.8048 52.9675C69.017 52.6142 68.1894 52.1685 67.888 52.0034L67.8647 51.9913C68.015 51.8033 68.1872 51.6337 68.3777 51.4861C68.3777 51.4861 70.5549 52.1398 70.1494 52.492Z" fill="black"/>
</g>
<g opacity="0.1">
<path opacity="0.1" d="M74.4563 19.8751C74.1582 20.2613 73.7595 20.5591 73.3033 20.7364C72.8471 20.9137 72.3508 20.9637 71.8681 20.8811C71.8404 20.3176 71.7229 19.7552 71.4149 19.4118C70.605 18.5071 74.0463 18.6579 74.0463 18.6579C74.1519 19.0733 74.289 19.4802 74.4563 19.8751Z" fill="black"/>
</g>
<g opacity="0.1">
<path opacity="0.1" d="M79.9307 24.6221C79.5584 24.7585 78.117 25.3364 77.9574 26.1629C77.8588 25.7947 77.7848 25.4204 77.7358 25.0425L79.5086 24.0872C79.6767 24.2423 79.8192 24.4228 79.9307 24.6221Z" fill="black"/>
</g>
<g opacity="0.1">
<path opacity="0.1" d="M68.9353 24.6913C68.797 25.0846 68.638 25.4703 68.4589 25.847C68.3902 25.3495 68.1077 24.0772 66.9897 23.6666C67.2113 23.3662 67.3665 23.1846 67.3665 23.1846L68.9353 24.6913Z" fill="black"/>
</g>
<g opacity="0.1">
<path opacity="0.1" d="M76.7289 37.1065C76.7289 37.1065 74.4288 36.9249 72.4333 36.839L72.2328 36.8302C71.9491 36.8192 71.6788 36.8104 71.414 36.8038C69.4773 36.7576 67.2868 36.0851 66.9146 35.9673C67.0542 35.7523 67.2051 35.5448 67.3666 35.3455L70.4035 36.0058C70.4035 36.0058 70.8822 36.1577 71.9458 36.6255L70.2008 35.3455L75.519 36.3008C75.519 36.3008 75.704 36.2777 76.6824 36.8214L76.7289 37.1065Z" fill="black"/>
</g>
<g opacity="0.1">
<path opacity="0.1" d="M70.3895 17.5572C70.7962 17.5572 71.1153 17.129 71.5219 17.151C71.7324 17.162 71.913 17.2952 72.087 17.4152C72.7443 17.8673 73.4757 18.2025 74.2486 18.4057C74.5489 18.485 74.8668 18.5444 75.1682 18.4718C75.4696 18.3991 75.7521 18.1636 75.7865 17.8565C75.7949 17.7212 75.7768 17.5855 75.7333 17.457C75.3921 16.2763 74.6202 15.2643 73.5683 14.6185C73.1473 14.3621 72.6332 14.1661 72.1667 14.3268C71.7457 14.471 71.4742 14.8628 71.1696 15.1853C70.9399 15.4268 70.6791 15.637 70.394 15.8105C70.1724 15.9437 69.84 16.0306 69.7126 16.2749C69.4721 16.7306 69.85 17.5528 70.3895 17.5572Z" fill="black"/>
</g>
<path d="M106.732 48.8984C106.732 48.8984 102.097 53.5034 104.714 60.3361C107.331 67.1688 100.229 78.5316 100.229 78.5316C100.229 78.5316 100.305 78.5206 100.45 78.4964C109.971 76.8267 114.701 66.0109 109.407 57.9753C107.434 54.9871 105.818 51.4827 106.732 48.8984Z" fill="#096DD9"/>
<path opacity="0.1" d="M106.732 48.9756C106.732 48.9756 102.097 53.5806 104.714 60.4133C107.331 67.2459 100.229 78.6077 100.229 78.6077C100.229 78.6077 100.305 78.5967 100.45 78.5724C109.971 76.9028 114.701 66.087 109.407 58.0513C107.434 55.0642 105.818 51.5598 106.732 48.9756Z" fill="black"/>
<path d="M106.732 48.8984C106.732 48.8984 104.115 54.5424 106.732 59.1474C109.349 63.7524 107.175 76.6748 100.227 78.5316" stroke="#535461" stroke-miterlimit="10"/>
<path d="M114.989 67.5233C114.989 67.5233 109.699 66.6868 109.217 71.3953C108.735 76.1037 99.043 76.7564 99.043 76.7564L99.2247 76.8764C107.224 82.0933 114.872 80.1992 113.719 73.2719C113.294 70.6975 113.329 68.111 114.989 67.5233Z" fill="#096DD9"/>
<path d="M114.989 67.5232C114.989 67.5232 110.883 68.418 111.222 72.1271C111.561 75.8362 105.128 80.2816 99.0474 76.7574" stroke="#535461" stroke-miterlimit="10"/>
<path d="M110.335 76.928C110.335 76.928 106.169 76.1004 105.058 74.9964C103.947 73.8925 98.9475 71.962 98.3924 73.3455C97.8373 74.729 90.8937 79.4155 95.6148 80.2431C100.336 81.0708 106.724 81.3437 108.113 80.7934C109.501 80.2431 110.335 76.928 110.335 76.928Z" fill="#A8A8A8"/>
<path opacity="0.2" d="M95.6152 79.727C100.337 80.5547 106.725 80.8277 108.113 80.2774C109.171 79.8569 109.906 77.8384 110.196 76.8984L110.334 76.9271C110.334 76.9271 109.501 80.2377 108.113 80.7891C106.725 81.3406 100.336 81.0654 95.6152 80.2388C94.2524 80 93.8624 79.4387 94.0097 78.7288C94.125 79.1921 94.6003 79.5487 95.6152 79.727Z" fill="black"/>
</g>
<defs>
<linearGradient id="paint0_linear" x1="57.8285" y1="82.1516" x2="57.8285" y2="2.46655" gradientUnits="userSpaceOnUse">
<stop stop-color="#808080" stop-opacity="0.25"/>
<stop offset="0.54" stop-color="#808080" stop-opacity="0.12"/>
<stop offset="1" stop-color="#808080" stop-opacity="0.1"/>
</linearGradient>
<clipPath id="clip0">
<rect width="115" height="85" fill="white"/>
</clipPath>
</defs>
</svg>
