<svg width="645" height="293" viewBox="0 0 645 293" fill="none" xmlns="http://www.w3.org/2000/svg">
<path d="M315.706 243.59C325.347 253.938 325.845 269.147 325.845 269.147C325.845 269.147 310.713 267.579 301.073 257.231C291.432 246.883 290.934 231.674 290.934 231.674C290.934 231.674 306.066 233.242 315.706 243.59Z" fill="white"/>
<path d="M346.055 259.742C335.71 269.385 320.506 269.884 320.506 269.884C320.506 269.884 322.073 254.747 332.418 245.104C342.763 235.461 357.967 234.962 357.967 234.962C357.967 234.962 356.4 250.099 346.055 259.742Z" fill="white"/>
<path d="M343.484 290.454H305.436C304.706 290.454 303.991 290.249 303.372 289.862C302.753 289.474 302.256 288.921 301.936 288.264L293.652 271.231C293.364 270.637 293.231 269.98 293.266 269.321C293.301 268.662 293.503 268.023 293.853 267.463C294.202 266.904 294.689 266.442 295.266 266.122C295.843 265.803 296.492 265.635 297.152 265.635H351.768C352.428 265.635 353.077 265.803 353.654 266.122C354.231 266.442 354.718 266.904 355.068 267.463C355.418 268.023 355.62 268.662 355.655 269.321C355.69 269.98 355.557 270.637 355.268 271.231L346.984 288.264C346.665 288.921 346.167 289.474 345.548 289.862C344.929 290.249 344.214 290.454 343.484 290.454Z" fill="#3F3D56"/>
<path d="M514.358 82.718C531.855 82.718 546.039 68.5295 546.039 51.0272C546.039 33.525 531.855 19.3365 514.358 19.3365C496.861 19.3365 482.677 33.525 482.677 51.0272C482.677 68.5295 496.861 82.718 514.358 82.718Z" fill="#FFB8B8"/>
<path d="M490.712 66.8726C490.712 66.8726 496.681 111.883 487.498 116.935C478.315 121.987 542.136 122.446 542.136 122.446C542.136 122.446 527.902 83.4069 534.33 71.4654L490.712 66.8726Z" fill="#FFB8B8"/>
<path d="M588.738 122.674L583.431 146.85L572.208 198L571.872 200.802L567.999 233.231L565.422 254.774L563.695 269.246C553.191 274.646 545.579 278.373 545.579 278.373C545.579 278.373 544.924 275.09 543.868 270.888C536.497 273.099 522.857 276.766 511.298 277.499C515.508 282.192 517.442 286.6 514.818 289.854C506.9 299.663 474.209 279.115 462.775 271.452C462.509 273.287 462.408 275.142 462.474 276.994L453.724 270.263L454.59 254.774L456.05 228.568L457.885 195.703C457.307 194.296 456.822 192.852 456.433 191.381C453.754 181.848 450.501 162.813 448.007 146.85C445.999 134.004 444.491 123.148 444.172 120.838C444.129 120.536 444.108 120.381 444.108 120.381L492.545 98.9713C495.987 106.957 512.061 109.357 512.061 109.357C525.378 108.439 535.816 101.415 535.816 101.415L588.738 122.674Z" fill="#D0CDE1"/>
<path d="M549.254 269.19C549.254 269.19 547.203 269.892 543.868 270.888C536.497 273.099 522.857 276.766 511.298 277.499C501.346 278.136 492.937 276.602 491.399 270.108C490.74 267.315 491.675 265.018 493.712 263.131C499.796 257.489 515.684 255.468 528.286 254.774C531.844 254.58 535.136 254.49 537.876 254.455C542.529 254.395 545.579 254.49 545.579 254.49L545.652 254.774L549.254 269.19Z" fill="#FFB8B8"/>
<path d="M488.002 21.0507L482.079 18.6785C482.079 18.6785 494.464 5.0385 511.696 6.22464L506.85 0.887171C506.85 0.887171 518.697 -3.85715 529.467 8.59676C535.129 15.1435 541.679 22.8389 545.763 31.5076H552.106L549.459 37.3392L558.726 43.1708L549.214 42.1233C549.781 45.3167 549.868 48.5769 549.472 51.7961C549.064 55.0162 547.422 57.9518 544.891 59.9833C544.891 59.9833 537.545 44.7725 537.545 42.4003V48.3308C537.545 48.3308 531.621 42.9934 531.621 39.4352L528.39 43.5865L526.774 37.063L506.85 43.5865L510.081 38.2491L497.695 40.0282L502.542 33.5047C502.542 33.5047 488.541 41.2143 488.002 47.7378C487.464 54.2612 483.366 60.4427 483.366 60.4427C483.366 60.4427 472.386 29.9464 488.002 21.0507Z" fill="#2F2E41"/>
<path d="M623.174 233.821C619.947 237.321 611.951 242.591 602.257 248.297C598.652 250.417 594.813 252.602 590.897 254.774C581.552 259.959 571.768 265.096 563.695 269.246C553.191 274.646 545.579 278.373 545.579 278.373C545.579 278.373 544.924 275.089 543.868 270.888C542.455 265.264 540.327 257.993 538.108 254.774C538.031 254.662 537.953 254.559 537.876 254.455C537.229 253.606 536.579 253.111 535.937 253.111L567.999 233.231L581.854 224.638L571.872 200.802L559.352 170.902L566.909 146.85L574.504 122.674H588.738C588.738 122.674 593.451 132.965 599.479 147.316C600.379 149.462 601.31 151.699 602.257 154.008C614.656 184.175 630.114 226.301 623.174 233.821Z" fill="#D0CDE1"/>
<path d="M514.818 289.854C506.9 299.663 474.209 279.115 462.775 271.452C460.285 269.784 458.803 268.729 458.803 268.729L469.263 254.774L472.576 250.357C472.576 250.357 475.54 251.93 479.922 254.49C480.081 254.585 480.241 254.679 480.404 254.774C484.183 256.994 488.926 259.894 493.712 263.13C500.317 267.599 506.995 272.698 511.299 277.499C515.508 282.192 517.442 286.6 514.818 289.854Z" fill="#FFB8B8"/>
<path d="M479.922 254.49C478.753 254.485 477.585 254.581 476.432 254.774C466.528 256.477 463.607 265.445 462.775 271.452C462.509 273.287 462.408 275.142 462.474 276.994L453.724 270.263L450.535 267.811C442.863 265.134 436.025 260.381 430.097 254.774C424.955 249.824 420.342 244.352 416.333 238.445C412.34 232.624 408.78 226.517 405.683 220.173C404.819 218.403 404.354 216.464 404.322 214.494C404.29 212.524 404.691 210.572 405.498 208.774L416.333 184.619L432.17 149.315C432.286 148.475 432.414 147.653 432.553 146.85C435.694 128.836 444.108 120.838 444.108 120.838H450.535L454.835 146.85L460.177 179.168L456.433 191.381L447.783 219.587L456.05 228.568L479.922 254.49Z" fill="#D0CDE1"/>
<path d="M487.197 179.193L492.692 185.606C494.733 185.217 496.865 184.759 499.061 184.246L497.483 179.193L501.342 183.697C524.605 177.974 553.44 166.846 553.44 166.846C553.44 166.846 522.31 169.129 499.067 164.05C488.783 161.802 478.202 166.902 473.982 176.549C471.529 182.156 471.914 187.013 480.614 187.013C483.553 186.963 486.485 186.687 489.382 186.188L487.197 179.193Z" fill="white"/>
<path d="M612.468 284.596V287.212C612.47 287.93 612.337 288.642 612.076 289.311C611.96 289.609 611.821 289.897 611.658 290.173C611.145 291.035 610.416 291.749 609.544 292.244C608.671 292.74 607.685 293 606.682 293H414.299C413.296 293 412.31 292.74 411.438 292.244C410.566 291.749 409.837 291.035 409.323 290.173C409.161 289.897 409.021 289.609 408.906 289.311C408.645 288.642 408.512 287.93 408.514 287.212V284.596C408.513 283.836 408.663 283.084 408.954 282.381C409.244 281.679 409.67 281.041 410.208 280.503C410.745 279.966 411.383 279.54 412.085 279.249C412.787 278.958 413.54 278.808 414.299 278.809H425.389V277.589C425.389 277.557 425.395 277.526 425.407 277.497C425.419 277.467 425.437 277.441 425.459 277.418C425.482 277.396 425.508 277.378 425.538 277.366C425.567 277.354 425.598 277.348 425.63 277.348H431.416C431.448 277.348 431.479 277.354 431.508 277.366C431.538 277.378 431.564 277.396 431.587 277.418C431.609 277.441 431.627 277.467 431.639 277.497C431.651 277.526 431.657 277.557 431.657 277.589V278.809H435.272V277.589C435.272 277.557 435.278 277.526 435.29 277.497C435.302 277.467 435.32 277.441 435.342 277.418C435.365 277.396 435.391 277.378 435.421 277.366C435.45 277.354 435.481 277.348 435.513 277.348H441.299C441.331 277.348 441.362 277.354 441.391 277.366C441.421 277.378 441.447 277.396 441.47 277.418C441.492 277.441 441.51 277.467 441.522 277.497C441.534 277.526 441.54 277.557 441.54 277.589V278.809H445.159V277.589C445.159 277.557 445.165 277.526 445.177 277.497C445.189 277.467 445.207 277.441 445.23 277.418C445.252 277.396 445.279 277.378 445.308 277.366C445.337 277.354 445.369 277.348 445.4 277.348H451.186C451.218 277.348 451.249 277.354 451.279 277.366C451.308 277.378 451.335 277.396 451.357 277.418C451.379 277.441 451.397 277.467 451.409 277.497C451.421 277.526 451.428 277.557 451.428 277.589V278.809H455.042V277.589C455.042 277.557 455.048 277.526 455.06 277.497C455.072 277.467 455.09 277.441 455.113 277.418C455.135 277.396 455.162 277.378 455.191 277.366C455.22 277.354 455.252 277.348 455.283 277.348H461.069C461.101 277.348 461.132 277.354 461.162 277.366C461.191 277.378 461.218 277.396 461.24 277.418C461.262 277.441 461.28 277.467 461.292 277.497C461.304 277.526 461.311 277.557 461.311 277.589V278.809H464.925V277.589C464.925 277.557 464.931 277.526 464.943 277.497C464.955 277.467 464.973 277.441 464.996 277.418C465.018 277.396 465.045 277.378 465.074 277.366C465.103 277.354 465.135 277.348 465.166 277.348H470.952C470.984 277.348 471.015 277.354 471.045 277.366C471.074 277.378 471.101 277.396 471.123 277.418C471.145 277.441 471.163 277.467 471.175 277.497C471.187 277.526 471.194 277.557 471.194 277.589V278.809H474.812V277.589C474.812 277.557 474.819 277.526 474.831 277.497C474.843 277.467 474.861 277.441 474.883 277.418C474.905 277.396 474.932 277.378 474.961 277.366C474.991 277.354 475.022 277.348 475.054 277.348H480.84C480.871 277.348 480.903 277.354 480.932 277.366C480.961 277.378 480.988 277.396 481.01 277.418C481.033 277.441 481.051 277.467 481.063 277.497C481.075 277.526 481.081 277.557 481.081 277.589V278.809H484.696V277.589C484.695 277.557 484.702 277.526 484.714 277.497C484.726 277.467 484.744 277.441 484.766 277.418C484.788 277.396 484.815 277.378 484.844 277.366C484.874 277.354 484.905 277.348 484.937 277.348H530.259C530.291 277.348 530.322 277.354 530.351 277.366C530.381 277.378 530.407 277.396 530.43 277.418C530.452 277.441 530.47 277.467 530.482 277.497C530.494 277.526 530.5 277.557 530.5 277.589V278.809H534.119V277.589C534.119 277.557 534.125 277.526 534.137 277.497C534.15 277.467 534.167 277.441 534.19 277.418C534.212 277.396 534.239 277.378 534.268 277.366C534.297 277.354 534.329 277.348 534.36 277.348H540.146C540.21 277.348 540.271 277.374 540.316 277.419C540.361 277.464 540.387 277.525 540.388 277.589V278.809H544.002V277.589C544.002 277.557 544.008 277.526 544.02 277.497C544.033 277.467 544.05 277.441 544.073 277.418C544.095 277.396 544.122 277.378 544.151 277.366C544.18 277.354 544.212 277.348 544.243 277.348H550.029C550.061 277.348 550.092 277.354 550.122 277.366C550.151 277.378 550.178 277.396 550.2 277.418C550.222 277.441 550.24 277.467 550.252 277.497C550.264 277.526 550.271 277.557 550.271 277.589V278.809H553.885V277.589C553.885 277.557 553.891 277.526 553.903 277.497C553.916 277.467 553.933 277.441 553.956 277.418C553.978 277.396 554.005 277.378 554.034 277.366C554.063 277.354 554.095 277.348 554.126 277.348H559.912C559.944 277.348 559.975 277.354 560.005 277.366C560.034 277.378 560.061 277.396 560.083 277.418C560.105 277.441 560.123 277.467 560.135 277.497C560.147 277.526 560.154 277.557 560.154 277.589V278.809H563.773V277.589C563.772 277.557 563.779 277.526 563.791 277.497C563.803 277.467 563.821 277.441 563.843 277.418C563.865 277.396 563.892 277.378 563.921 277.366C563.951 277.354 563.982 277.348 564.014 277.348H569.8C569.863 277.349 569.923 277.374 569.968 277.42C570.012 277.465 570.037 277.526 570.037 277.589V278.809H573.656V277.589C573.656 277.557 573.662 277.526 573.674 277.497C573.686 277.467 573.704 277.441 573.726 277.418C573.748 277.396 573.775 277.378 573.804 277.366C573.834 277.354 573.865 277.348 573.897 277.348H579.683C579.714 277.348 579.746 277.354 579.775 277.366C579.804 277.378 579.831 277.396 579.853 277.418C579.876 277.441 579.894 277.467 579.906 277.497C579.918 277.526 579.924 277.557 579.924 277.589V278.809H583.539V277.589C583.539 277.557 583.545 277.526 583.557 277.497C583.569 277.467 583.587 277.441 583.609 277.418C583.632 277.396 583.658 277.378 583.687 277.366C583.717 277.354 583.748 277.348 583.78 277.348H589.566C589.597 277.348 589.629 277.354 589.658 277.366C589.687 277.378 589.714 277.396 589.736 277.418C589.759 277.441 589.777 277.467 589.789 277.497C589.801 277.526 589.807 277.557 589.807 277.589V278.809H606.682C607.442 278.808 608.195 278.958 608.897 279.249C609.599 279.54 610.237 279.966 610.774 280.503C611.311 281.041 611.737 281.679 612.028 282.381C612.319 283.084 612.468 283.836 612.468 284.596Z" fill="#3F3D56"/>
<path d="M596.978 174.432H525.271V172.953H492.756V174.432H420.753C420.116 174.432 419.486 174.557 418.897 174.801C418.309 175.045 417.774 175.402 417.324 175.853C416.873 176.303 416.516 176.838 416.272 177.427C416.028 178.015 415.903 178.646 415.903 179.284V277.503C415.903 278.79 416.414 280.024 417.324 280.934C418.233 281.844 419.467 282.355 420.753 282.355H596.978C598.264 282.355 599.498 281.844 600.407 280.934C601.317 280.024 601.828 278.79 601.828 277.503V179.284C601.828 178.646 601.703 178.015 601.459 177.427C601.215 176.838 600.858 176.303 600.407 175.853C599.957 175.402 599.422 175.045 598.834 174.801C598.245 174.557 597.615 174.432 596.978 174.432Z" fill="#3F3D56"/>
<path d="M509.006 219.496C514.955 219.496 519.777 214.673 519.777 208.723C519.777 202.772 514.955 197.949 509.006 197.949C503.058 197.949 498.236 202.772 498.236 208.723C498.236 214.673 503.058 219.496 509.006 219.496Z" stroke="#D0CDE1" stroke-width="2" stroke-miterlimit="10"/>
<path d="M505.56 223.375C511.508 223.375 516.331 218.551 516.331 212.601C516.331 206.651 511.508 201.827 505.56 201.827C499.612 201.827 494.789 206.651 494.789 212.601C494.789 218.551 499.612 223.375 505.56 223.375Z" fill="#D0CDE1"/>
</svg>
