<svg width="596" height="286" viewBox="0 0 596 286" fill="none" xmlns="http://www.w3.org/2000/svg">
<g clip-path="url(#clip0)">
<path d="M291.722 237.77C300.63 247.871 301.091 262.717 301.091 262.717C301.091 262.717 287.109 261.186 278.201 251.086C269.293 240.985 268.832 226.139 268.832 226.139C268.832 226.139 282.814 227.67 291.722 237.77Z" fill="white"/>
<path d="M319.766 253.537C310.207 262.949 296.157 263.436 296.157 263.436C296.157 263.436 297.606 248.661 307.165 239.248C316.723 229.835 330.773 229.349 330.773 229.349C330.773 229.349 329.325 244.124 319.766 253.537Z" fill="white"/>
<path d="M317.39 283.515H282.233C281.558 283.515 280.897 283.315 280.325 282.937C279.754 282.559 279.294 282.018 278.999 281.378L271.344 264.751C271.077 264.172 270.954 263.53 270.987 262.887C271.019 262.243 271.206 261.619 271.529 261.073C271.853 260.527 272.302 260.077 272.835 259.765C273.369 259.452 273.968 259.289 274.578 259.289H325.045C325.655 259.289 326.254 259.452 326.788 259.765C327.321 260.077 327.77 260.527 328.094 261.073C328.417 261.619 328.604 262.243 328.636 262.887C328.668 263.53 328.546 264.172 328.279 264.751L320.624 281.378C320.329 282.018 319.869 282.559 319.298 282.937C318.726 283.315 318.065 283.515 317.39 283.515V283.515Z" fill="#3F3D56"/>
<path d="M174.931 123.809C182.933 123.809 189.42 116.954 189.42 108.499C189.42 100.043 182.933 93.1884 174.931 93.1884C166.929 93.1884 160.443 100.043 160.443 108.499C160.443 116.954 166.929 123.809 174.931 123.809Z" fill="#2F2E41"/>
<path d="M178.969 93.6098C181.476 93.6102 183.941 94.2981 186.121 95.6062C188.302 96.9144 190.124 98.7981 191.409 101.073C192.695 103.348 193.399 105.937 193.454 108.586C193.509 111.235 192.913 113.854 191.723 116.186C192.98 114.525 193.895 112.606 194.41 110.551C194.926 108.496 195.03 106.35 194.717 104.25C194.405 102.15 193.681 100.142 192.593 98.3532C191.505 96.5648 190.077 95.0354 188.399 93.8627C186.721 92.6899 184.83 91.8994 182.846 91.5415C180.863 91.1836 178.831 91.2662 176.88 91.7841C174.928 92.3019 173.101 93.2437 171.513 94.5493C169.925 95.8548 168.612 97.4956 167.657 99.3671C169.011 97.5703 170.732 96.1195 172.69 95.1227C174.649 94.1259 176.795 93.6088 178.969 93.6098V93.6098Z" fill="#2F2E41"/>
<path d="M147.858 108.466C171.363 108.466 190.419 88.3307 190.419 63.4924C190.419 38.6542 171.363 18.5188 147.858 18.5188C124.352 18.5188 105.297 38.6542 105.297 63.4924C105.297 88.3307 124.352 108.466 147.858 108.466Z" fill="#2F2E41"/>
<path d="M114.455 35.5885C121.788 26.8733 132.039 21.5098 143.044 20.63C154.049 19.7502 164.948 23.4229 173.439 30.8729C173.091 30.5233 172.746 30.1709 172.385 29.8312C163.948 21.9063 152.878 17.8473 141.61 18.5471C130.342 19.2469 119.798 24.6482 112.298 33.5627C104.798 42.4772 100.957 54.1747 101.619 66.0819C102.282 77.9891 107.393 89.1307 115.829 97.0555C116.191 97.3952 116.563 97.7153 116.932 98.0396C108.935 90.0017 104.207 78.9952 103.745 67.3433C103.283 55.6913 107.123 44.3054 114.455 35.5885V35.5885Z" fill="#2F2E41"/>
<path d="M147.497 108.085C162.636 108.085 174.909 95.1163 174.909 79.1188C174.909 63.1213 162.636 50.1527 147.497 50.1527C132.357 50.1527 120.085 63.1213 120.085 79.1188C120.085 95.1163 132.357 108.085 147.497 108.085Z" fill="#A0616A"/>
<path d="M128.019 88.2661C128.019 88.2661 131.626 123.33 125.855 127.142C120.084 130.953 159.038 136.289 159.038 136.289C159.038 136.289 153.267 98.1755 167.695 88.2661L128.019 88.2661Z" fill="#A0616A"/>
<path d="M162.646 121.043C162.646 121.043 173.387 115.743 157.917 117.631C142.447 119.519 129.1 112.277 129.1 112.277C129.1 112.277 124.413 107.323 123.692 112.658C122.97 117.994 125.856 127.904 109.986 129.428C94.1155 130.953 79.688 126.379 73.917 137.813C68.1461 149.247 71.0316 198.794 71.0316 198.794C71.0316 198.794 81.8521 239.957 90.5086 246.055C99.1651 252.153 174.909 243.768 174.909 243.768L196.55 202.606V154.583C196.55 154.583 193.665 137.813 173.466 142.387C173.466 142.387 160.482 139.338 161.203 132.477C161.924 125.617 162.646 121.043 162.646 121.043Z" fill="#D0CDE1"/>
<path d="M93.3714 275.185C93.8172 273.132 94.1158 271.971 94.1158 271.971L93.8849 270.301L91.5083 253.248L90.5091 246.054C99.1636 242.243 101.329 224.71 101.329 224.71L101.656 224.504L103.133 223.57V223.566L108.435 220.205L108.543 220.138L110.684 221.644L115.036 224.71C120.74 229.208 127.27 232.399 134.207 234.078C141.145 235.758 148.338 235.89 155.326 234.465C158.579 233.876 161.76 232.906 164.809 231.571L175.303 227.874L175.629 227.76L175.951 227.81L182.106 228.795L182.217 228.816L182.727 228.896L181.302 239.307L179.236 254.438C184.694 257.492 189.546 263.23 193.79 270.301C194.729 271.866 195.64 273.494 196.521 275.185C197.667 277.372 198.762 279.648 199.805 281.979C199.932 282.256 200.056 282.538 200.179 282.82C200.581 283.733 200.979 284.654 201.366 285.579H91.4605C91.6038 284.65 91.7472 283.762 91.8865 282.908C91.8937 282.879 91.899 282.85 91.9024 282.82C91.9542 282.534 92.0019 282.256 92.0457 281.979C92.5314 279.202 93.0011 276.884 93.3714 275.185Z" fill="#2F2E41"/>
<path d="M89.0655 128.666C89.0655 128.666 97.0006 143.911 94.1151 162.968C91.2296 182.025 102.772 229.285 102.772 229.285L111.428 226.998C111.428 226.998 105.657 187.361 107.1 178.213C108.543 169.066 108.543 133.24 101.329 128.666C94.1151 124.093 89.0655 128.666 89.0655 128.666Z" fill="#2F2E41"/>
<path d="M172.958 144.509L175.991 228.904L181.762 232.715C181.762 232.715 190.057 140.1 185.729 140.1H176.922C176.384 140.1 175.851 140.216 175.357 140.44C174.862 140.665 174.416 140.993 174.045 141.405C173.674 141.818 173.386 142.306 173.2 142.839C173.013 143.373 172.931 143.941 172.958 144.509V144.509Z" fill="#2F2E41"/>
<path d="M106.739 227.379C108.731 227.379 110.346 225.673 110.346 223.568C110.346 221.463 108.731 219.757 106.739 219.757C104.747 219.757 103.132 221.463 103.132 223.568C103.132 225.673 104.747 227.379 106.739 227.379Z" fill="white"/>
<path d="M178.877 231.191C180.869 231.191 182.484 229.485 182.484 227.38C182.484 225.275 180.869 223.568 178.877 223.568C176.885 223.568 175.27 225.275 175.27 227.38C175.27 229.485 176.885 231.191 178.877 231.191Z" fill="white"/>
<path d="M124.053 42.9109V71.8773H130.401L138.48 62.7301L137.398 71.8773H165.46L163.729 62.7301L167.191 71.8773H171.663V42.9109H124.053Z" fill="#2F2E41"/>
<path d="M119.724 77.2133C120.919 77.2133 121.888 75.3362 121.888 73.0208C121.888 70.7054 120.919 68.8283 119.724 68.8283C118.529 68.8283 117.56 70.7054 117.56 73.0208C117.56 75.3362 118.529 77.2133 119.724 77.2133Z" fill="#A0616A"/>
<path d="M175.27 77.2133C176.465 77.2133 177.434 75.3362 177.434 73.0208C177.434 70.7054 176.465 68.8283 175.27 68.8283C174.075 68.8283 173.106 70.7054 173.106 73.0208C173.106 75.3362 174.075 77.2133 175.27 77.2133Z" fill="#A0616A"/>
<path d="M190.058 226.998C190.058 226.998 157.236 220.519 155.072 231.953C152.908 243.387 191.501 238.432 191.501 238.432L190.058 226.998Z" fill="#A0616A"/>
<path d="M189.337 148.485C189.337 148.485 267.966 214.802 253.539 230.81C239.111 246.817 184.287 242.244 184.287 242.244L187.894 223.187L219.634 219.376L203.764 202.606L189.337 204.131V148.485Z" fill="#D0CDE1"/>
<path d="M73.196 259.014L83.2952 267.398C83.2952 267.398 90.5089 291.029 101.329 284.168C112.15 277.308 91.2303 252.915 91.2303 252.915L78.9669 248.342L73.196 259.014Z" fill="#A0616A"/>
<path d="M83.2948 136.289L73.2228 139.492C73.2228 139.492 3.22251 194.221 0.337025 209.466C-2.54846 224.712 14.0431 233.096 14.0431 233.096L76.8024 264.349L83.2948 246.055L53.7185 230.047C53.7185 230.047 55.8827 225.474 47.2262 224.712C38.5697 223.949 37.127 214.04 37.127 214.04C37.127 214.04 54.4399 185.836 63.8177 191.934C73.1956 198.032 76.0811 202.606 76.0811 202.606L83.2948 136.289Z" fill="#D0CDE1"/>
<path d="M226.951 277.797V280.35C226.952 281.051 226.829 281.746 226.589 282.399C226.482 282.69 226.353 282.971 226.202 283.24C225.728 284.082 225.055 284.779 224.249 285.262C223.443 285.746 222.531 286 221.604 286H43.8368C42.9098 286 41.9986 285.746 41.1926 285.262C40.3865 284.779 39.7133 284.082 39.2388 283.24C39.0888 282.971 38.9596 282.69 38.8527 282.399C38.612 281.746 38.4891 281.051 38.4904 280.35V277.797C38.4902 277.055 38.6284 276.32 38.897 275.635C39.1656 274.949 39.5594 274.327 40.0559 273.802C40.5524 273.277 41.1419 272.861 41.7906 272.577C42.4393 272.293 43.1346 272.147 43.8368 272.148H54.0837V270.957C54.0836 270.926 54.0893 270.896 54.1005 270.867C54.1117 270.838 54.1281 270.812 54.1488 270.791C54.1696 270.769 54.1942 270.751 54.2212 270.739C54.2483 270.728 54.2773 270.722 54.3066 270.722H59.653C59.6822 270.722 59.7113 270.728 59.7383 270.739C59.7654 270.751 59.79 270.769 59.8107 270.791C59.8314 270.812 59.8478 270.838 59.859 270.867C59.8702 270.896 59.8759 270.926 59.8759 270.957V272.148H63.2159V270.957C63.2158 270.926 63.2216 270.896 63.2327 270.867C63.2439 270.838 63.2604 270.812 63.2811 270.791C63.3018 270.769 63.3264 270.751 63.3534 270.739C63.3805 270.728 63.4095 270.722 63.4388 270.722H68.7852C68.8145 270.722 68.8435 270.728 68.8705 270.739C68.8976 270.751 68.9222 270.769 68.9429 270.791C68.9636 270.812 68.98 270.838 68.9912 270.867C69.0024 270.896 69.0082 270.926 69.0081 270.957V272.148H72.3521V270.957C72.3521 270.926 72.3578 270.896 72.369 270.867C72.3802 270.838 72.3966 270.812 72.4173 270.791C72.438 270.769 72.4626 270.751 72.4897 270.739C72.5167 270.728 72.5457 270.722 72.575 270.722H77.9214C77.9507 270.722 77.9797 270.728 78.0068 270.739C78.0338 270.751 78.0584 270.769 78.0791 270.791C78.0999 270.812 78.1163 270.838 78.1275 270.867C78.1386 270.896 78.1444 270.926 78.1443 270.957V272.148H81.4843V270.957C81.4843 270.926 81.49 270.896 81.5012 270.867C81.5124 270.838 81.5288 270.812 81.5495 270.791C81.5702 270.769 81.5948 270.751 81.6219 270.739C81.649 270.728 81.678 270.722 81.7073 270.722H87.0536C87.0829 270.722 87.1119 270.728 87.139 270.739C87.1661 270.751 87.1907 270.769 87.2114 270.791C87.2321 270.812 87.2485 270.838 87.2597 270.867C87.2709 270.896 87.2766 270.926 87.2766 270.957V272.148H90.6165V270.957C90.6165 270.926 90.6222 270.896 90.6334 270.867C90.6446 270.838 90.661 270.812 90.6817 270.791C90.7024 270.769 90.727 270.751 90.7541 270.739C90.7812 270.728 90.8102 270.722 90.8395 270.722H96.1858C96.2151 270.722 96.2441 270.728 96.2712 270.739C96.2983 270.751 96.3229 270.769 96.3436 270.791C96.3643 270.812 96.3807 270.838 96.3919 270.867C96.4031 270.896 96.4088 270.926 96.4088 270.957V272.148H99.7527V270.957C99.7526 270.926 99.7584 270.896 99.7696 270.867C99.7807 270.838 99.7972 270.812 99.8179 270.791C99.8386 270.769 99.8632 270.751 99.8902 270.739C99.9173 270.728 99.9463 270.722 99.9756 270.722H105.322C105.351 270.722 105.38 270.728 105.407 270.739C105.434 270.751 105.459 270.769 105.48 270.791C105.5 270.812 105.517 270.838 105.528 270.867C105.539 270.896 105.545 270.926 105.545 270.957V272.148H108.885V270.957C108.885 270.926 108.891 270.896 108.902 270.867C108.913 270.838 108.929 270.812 108.95 270.791C108.971 270.769 108.995 270.751 109.023 270.739C109.05 270.728 109.079 270.722 109.108 270.722H150.987C151.016 270.722 151.045 270.728 151.072 270.739C151.1 270.751 151.124 270.769 151.145 270.791C151.166 270.812 151.182 270.838 151.193 270.867C151.204 270.896 151.21 270.926 151.21 270.957V272.148H154.554V270.957C154.554 270.926 154.56 270.896 154.571 270.867C154.582 270.838 154.598 270.812 154.619 270.791C154.64 270.769 154.664 270.751 154.692 270.739C154.719 270.728 154.748 270.722 154.777 270.722H160.123C160.182 270.722 160.239 270.747 160.28 270.791C160.322 270.835 160.346 270.895 160.346 270.957V272.148H163.686V270.957C163.686 270.926 163.692 270.896 163.703 270.867C163.714 270.838 163.731 270.812 163.751 270.791C163.772 270.769 163.797 270.751 163.824 270.739C163.851 270.728 163.88 270.722 163.909 270.722H169.255C169.285 270.722 169.314 270.728 169.341 270.739C169.368 270.751 169.393 270.769 169.413 270.791C169.434 270.812 169.45 270.838 169.462 270.867C169.473 270.896 169.478 270.926 169.478 270.957V272.148H172.818V270.957C172.818 270.926 172.824 270.896 172.835 270.867C172.846 270.838 172.863 270.812 172.884 270.791C172.904 270.769 172.929 270.751 172.956 270.739C172.983 270.728 173.012 270.722 173.041 270.722H178.388C178.417 270.722 178.446 270.728 178.473 270.739C178.5 270.751 178.525 270.769 178.545 270.791C178.566 270.812 178.583 270.838 178.594 270.867C178.605 270.896 178.611 270.926 178.611 270.957V272.148H181.955V270.957C181.955 270.926 181.96 270.896 181.971 270.867C181.983 270.838 181.999 270.812 182.02 270.791C182.041 270.769 182.065 270.751 182.092 270.739C182.119 270.728 182.148 270.722 182.178 270.722H187.524C187.582 270.722 187.638 270.748 187.679 270.792C187.72 270.836 187.743 270.895 187.743 270.957V272.148H191.087V270.957C191.087 270.926 191.093 270.896 191.104 270.867C191.115 270.838 191.131 270.812 191.152 270.791C191.173 270.769 191.197 270.751 191.224 270.739C191.251 270.728 191.28 270.722 191.31 270.722H196.656C196.685 270.722 196.714 270.728 196.741 270.739C196.769 270.751 196.793 270.769 196.814 270.791C196.835 270.812 196.851 270.838 196.862 270.867C196.873 270.896 196.879 270.926 196.879 270.957V272.148H200.219V270.957C200.219 270.926 200.225 270.896 200.236 270.867C200.247 270.838 200.264 270.812 200.284 270.791C200.305 270.769 200.33 270.751 200.357 270.739C200.384 270.728 200.413 270.722 200.442 270.722H205.788C205.818 270.722 205.847 270.728 205.874 270.739C205.901 270.751 205.925 270.769 205.946 270.791C205.967 270.812 205.983 270.838 205.994 270.867C206.006 270.896 206.011 270.926 206.011 270.957V272.148H221.605C222.307 272.147 223.002 272.293 223.651 272.577C224.299 272.861 224.889 273.277 225.385 273.802C225.882 274.327 226.276 274.949 226.544 275.635C226.813 276.32 226.951 277.055 226.951 277.797V277.797Z" fill="#3F3D56"/>
<path d="M212.637 170.263H146.377V168.819H116.333V170.263H49.8001C48.6114 170.263 47.4714 170.761 46.6309 171.65C45.7903 172.538 45.3181 173.742 45.3181 174.999V270.872C45.3181 272.128 45.7903 273.332 46.6308 274.22C47.4714 275.109 48.6114 275.608 49.8001 275.608H212.637C213.826 275.608 214.966 275.109 215.806 274.22C216.647 273.332 217.119 272.128 217.119 270.872V174.999C217.119 173.742 216.647 172.538 215.806 171.65C214.966 170.761 213.826 170.263 212.637 170.263V170.263Z" fill="#3F3D56"/>
<path d="M131.348 214.25C136.845 214.25 141.301 209.542 141.301 203.734C141.301 197.926 136.845 193.218 131.348 193.218C125.852 193.218 121.396 197.926 121.396 203.734C121.396 209.542 125.852 214.25 131.348 214.25Z" stroke="#D0CDE1" stroke-width="2" stroke-miterlimit="10"/>
<path d="M128.164 218.037C133.66 218.037 138.116 213.328 138.116 207.52C138.116 201.712 133.66 197.004 128.164 197.004C122.667 197.004 118.212 201.712 118.212 207.52C118.212 213.328 122.667 218.037 128.164 218.037Z" fill="#D0CDE1"/>
</g>
<defs>
<clipPath id="clip0">
<rect width="596" height="286" fill="white"/>
</clipPath>
</defs>
</svg>
