<svg width="175" height="124" viewBox="0 0 175 124" fill="none" xmlns="http://www.w3.org/2000/svg">
<g clip-path="url(#clip0)">
<path d="M154.41 19.0247C148.209 19.0247 142.003 19.047 135.801 19.0247C133.398 19.0247 132.066 20.2584 131.409 21.9123C130.752 23.5663 130.23 25.2425 129.662 26.9188C127.682 32.788 125.693 38.6573 123.735 44.5354C121.584 51.0036 119.469 57.4986 117.34 63.9579C115.483 69.62 113.626 75.2821 111.769 80.9442C110.014 86.3083 108.254 91.6605 106.49 97.0007C104.581 102.812 102.673 108.623 100.765 114.434C99.91 117.036 99.0594 119.633 98.1593 122.216C97.6463 123.701 97.1332 124.004 95.5401 124.004C91.9397 124.004 88.3393 124.004 84.739 124.004C81.5167 124.004 78.2943 124.004 75.072 124.004C74.62 123.985 74.1693 123.942 73.7219 123.875C73.361 123.84 73.0211 123.691 72.7521 123.449C72.4831 123.208 72.2993 122.887 72.2277 122.534C70.6841 117.617 69.0774 112.668 67.5248 107.733C65.3525 100.879 63.1833 94.0251 61.0171 87.171C59.2709 81.652 57.5233 76.1389 55.7741 70.6317C55.454 69.424 54.7324 68.3591 53.7264 67.61C53.1757 67.285 52.544 67.1207 51.9037 67.1361C47.4032 67.1004 42.9028 67.1361 38.4023 67.1138C36.3816 67.1138 35.8506 66.5863 35.8506 64.5927C35.8506 59.5325 35.8506 54.4769 35.8506 49.4167C35.8506 47.432 36.4987 46.9358 38.3798 46.909C42.7678 46.8464 47.1557 46.8867 51.5437 46.8867H66.4942C68.1818 46.8867 68.5464 47.1593 69.0504 48.7507C71.2166 55.5482 73.3738 62.3606 75.5221 69.1879L82.3537 90.7382C82.4263 91.0962 82.6286 91.4154 82.9222 91.6354C83.2157 91.8553 83.5803 91.9607 83.9469 91.9317C84.991 91.9317 85.531 91.6053 85.8101 90.7471C87.0027 87.0727 88.1863 83.3983 89.4104 79.7283C91.9127 72.1054 94.4224 64.4824 96.9397 56.8594C99.697 48.4527 102.453 40.043 105.207 31.6303C106.373 28.0945 107.583 24.5676 108.749 21.0317C110.387 16.061 112.013 11.0843 113.627 6.10166C114.163 4.47008 114.694 2.84297 115.243 1.21586C115.585 0.192215 115.851 0.0178854 116.967 0.0178854C135.626 0.0178854 154.287 0.0089463 172.952 -0.00893402C174.46 -0.00893402 175.005 0.885079 175.014 2.06965C175.014 5.16295 175.014 8.25623 175.014 11.3495C175.014 13.1376 175.014 14.9569 175.014 16.7583C175.008 17.1603 174.951 17.56 174.842 17.9474C174.779 18.2801 174.591 18.5765 174.316 18.7771C174.041 18.9778 173.701 19.0678 173.362 19.0291C167.03 19.0113 160.72 19.0247 154.41 19.0247Z" fill="white"/>
<path d="M0.00913866 62.0894V5.52055C-0.0119751 5.2224 -0.00292999 4.9229 0.0361403 4.62654C0.171154 3.96944 0.454683 3.55818 1.27827 3.55818C28.0109 3.57606 54.7421 3.57606 81.4718 3.55818C82.7004 3.55818 82.8894 3.70569 83.0334 4.89921C83.1385 5.77753 83.1941 6.66101 83.2 7.5455C83.221 11.0411 83.221 14.5382 83.2 18.0368C83.1796 18.8125 83.1074 19.586 82.9839 20.3523C82.9756 20.522 82.9326 20.6883 82.8576 20.841C82.7825 20.9937 82.6768 21.1296 82.5472 21.2404C82.4175 21.3513 82.2664 21.4347 82.1032 21.4857C81.94 21.5366 81.768 21.554 81.5978 21.5368H80.7877C61.8273 21.5368 42.8714 21.586 23.9155 21.4743C21.3098 21.4743 19.2576 23.611 19.3476 25.9041C19.3476 26.1991 19.3476 26.4942 19.3476 26.7981C19.3476 49.5002 19.3476 72.2037 19.3476 94.9087C19.3476 95.8027 19.2531 96.6968 19.2936 97.5684C19.3881 99.7185 20.8597 101.091 23.0334 101.095C27.2279 101.095 31.4268 101.095 35.6347 101.095H46.6833C48.1099 101.095 48.4025 101.31 48.8345 102.646C49.8651 105.834 50.9047 109.016 51.9263 112.203C52.6014 114.327 53.2765 116.45 53.9155 118.578C54.3656 120.089 53.8615 120.813 52.2999 120.813H1.92633C0.364672 120.813 0.0226395 120.46 0.0226395 118.918L0.00913866 62.0894Z" fill="white"/>
<path d="M174.91 118.533C174.91 120.209 174.136 121.041 172.341 121.041H119.28C119.065 121.066 118.847 121.066 118.632 121.041C117.309 120.741 116.283 120.312 116.931 118.529C118.164 115.154 119.253 111.725 120.378 108.315C120.99 106.459 121.539 104.586 122.147 102.727C122.561 101.453 123.007 101.14 124.397 101.127C126.022 101.127 127.647 101.127 129.271 101.127H150.801C151.791 101.075 152.725 100.659 153.421 99.9597C154.118 99.2603 154.527 98.3279 154.568 97.3449C154.568 89.491 154.537 81.6371 154.622 73.7831C154.575 72.9037 154.202 72.0725 153.576 71.4489C152.95 70.8253 152.114 70.4531 151.229 70.4038C146.139 70.4619 141.044 70.4306 135.954 70.435C134.402 70.435 133.934 69.8092 134.415 68.3341C135.482 65.0754 136.562 61.8167 137.633 58.558C138.34 56.4213 139.037 54.2847 139.753 52.1524C140.09 51.1511 140.504 50.8561 141.526 50.8561H173.029C174.469 50.8561 174.654 51.4149 174.865 52.7916C174.924 53.5684 174.924 54.3483 174.865 55.125" fill="white"/>
</g>
<defs>
<clipPath id="clip0">
<rect width="175" height="124" fill="white"/>
</clipPath>
</defs>
</svg>
