<svg width="809" height="152" viewBox="0 0 809 152" fill="none" xmlns="http://www.w3.org/2000/svg">
<path d="M264.75 73.6797H220.383V109.961H271.922V121H206.883V18.625H271.219V29.7344H220.383V62.6406H264.75V73.6797ZM325.016 121C324.266 119.5 323.657 116.828 323.188 112.984C317.141 119.266 309.923 122.406 301.532 122.406C294.032 122.406 287.868 120.297 283.04 116.078C278.258 111.812 275.868 106.422 275.868 99.9062C275.868 91.9844 278.868 85.8438 284.868 81.4844C290.915 77.0781 299.399 74.875 310.321 74.875H322.977V68.8984C322.977 64.3516 321.618 60.7422 318.899 58.0703C316.18 55.3516 312.173 53.9922 306.876 53.9922C302.235 53.9922 298.344 55.1641 295.204 57.5078C292.063 59.8516 290.493 62.6875 290.493 66.0156H277.415C277.415 62.2188 278.751 58.5625 281.423 55.0469C284.141 51.4844 287.798 48.6719 292.391 46.6094C297.032 44.5469 302.118 43.5156 307.649 43.5156C316.415 43.5156 323.282 45.7187 328.251 50.125C333.219 54.4844 335.798 60.5078 335.985 68.1953V103.211C335.985 110.195 336.876 115.75 338.657 119.875V121H325.016ZM303.43 111.086C307.508 111.086 311.376 110.031 315.032 107.922C318.688 105.812 321.337 103.07 322.977 99.6953V84.0859H312.782C296.844 84.0859 288.876 88.75 288.876 98.0781C288.876 102.156 290.235 105.344 292.954 107.641C295.673 109.938 299.165 111.086 303.43 111.086ZM392.033 100.82C392.033 97.3047 390.697 94.5859 388.025 92.6641C385.4 90.6953 380.783 89.0078 374.173 87.6016C367.611 86.1953 362.384 84.5078 358.493 82.5391C354.65 80.5703 351.79 78.2266 349.915 75.5078C348.087 72.7891 347.173 69.5547 347.173 65.8047C347.173 59.5703 349.798 54.2969 355.048 49.9844C360.345 45.6719 367.095 43.5156 375.298 43.5156C383.923 43.5156 390.908 45.7422 396.251 50.1953C401.642 54.6484 404.337 60.3438 404.337 67.2812H391.259C391.259 63.7188 389.736 60.6484 386.689 58.0703C383.689 55.4922 379.892 54.2031 375.298 54.2031C370.564 54.2031 366.861 55.2344 364.189 57.2969C361.517 59.3594 360.181 62.0547 360.181 65.3828C360.181 68.5234 361.423 70.8906 363.908 72.4844C366.392 74.0781 370.868 75.6016 377.337 77.0547C383.853 78.5078 389.126 80.2422 393.158 82.2578C397.189 84.2734 400.165 86.7109 402.087 89.5703C404.056 92.3828 405.04 95.8281 405.04 99.9062C405.04 106.703 402.322 112.164 396.884 116.289C391.447 120.367 384.392 122.406 375.72 122.406C369.626 122.406 364.236 121.328 359.548 119.172C354.861 117.016 351.181 114.016 348.509 110.172C345.884 106.281 344.572 102.086 344.572 97.5859H357.579C357.814 101.945 359.548 105.414 362.783 107.992C366.064 110.523 370.376 111.789 375.72 111.789C380.642 111.789 384.579 110.805 387.533 108.836C390.533 106.82 392.033 104.148 392.033 100.82ZM438.236 101.945L455.955 44.9219H469.877L439.291 132.742C434.557 145.398 427.033 151.727 416.721 151.727L414.26 151.516L409.408 150.602V140.055L412.924 140.336C417.33 140.336 420.752 139.445 423.189 137.664C425.674 135.883 427.713 132.625 429.307 127.891L432.189 120.156L405.049 44.9219H419.252L438.236 101.945ZM550.534 107.57C547.065 112.539 542.213 116.266 535.979 118.75C529.792 121.188 522.573 122.406 514.323 122.406C505.979 122.406 498.573 120.461 492.104 116.57C485.635 112.633 480.62 107.055 477.057 99.8359C473.542 92.6172 471.737 84.25 471.643 74.7344V65.8047C471.643 50.3828 475.229 38.4297 482.401 29.9453C489.62 21.4609 499.745 17.2188 512.776 17.2188C523.463 17.2188 532.065 19.9609 538.581 25.4453C545.096 30.8828 549.081 38.6172 550.534 48.6484H537.034C534.503 35.1016 526.44 28.3281 512.846 28.3281C503.799 28.3281 496.932 31.5156 492.245 37.8906C487.604 44.2188 485.26 53.4062 485.213 65.4531V73.8203C485.213 85.3047 487.838 94.4453 493.088 101.242C498.338 107.992 505.44 111.367 514.393 111.367C519.456 111.367 523.885 110.805 527.682 109.68C531.479 108.555 534.62 106.656 537.104 103.984V80.9922H513.409V70.0234H550.534V107.57ZM599.198 56.5938C597.23 56.2656 595.097 56.1016 592.8 56.1016C584.269 56.1016 578.48 59.7344 575.433 67V121H562.425V44.9219H575.081L575.292 53.7109C579.558 46.9141 585.605 43.5156 593.433 43.5156C595.964 43.5156 597.886 43.8438 599.198 44.5V56.5938ZM646.738 121C645.988 119.5 645.379 116.828 644.91 112.984C638.863 119.266 631.644 122.406 623.254 122.406C615.754 122.406 609.59 120.297 604.762 116.078C599.98 111.812 597.59 106.422 597.59 99.9062C597.59 91.9844 600.59 85.8438 606.59 81.4844C612.637 77.0781 621.121 74.875 632.043 74.875H644.699V68.8984C644.699 64.3516 643.34 60.7422 640.621 58.0703C637.902 55.3516 633.894 53.9922 628.598 53.9922C623.957 53.9922 620.066 55.1641 616.926 57.5078C613.785 59.8516 612.215 62.6875 612.215 66.0156H599.137C599.137 62.2188 600.473 58.5625 603.144 55.0469C605.863 51.4844 609.519 48.6719 614.113 46.6094C618.754 44.5469 623.84 43.5156 629.371 43.5156C638.137 43.5156 645.004 45.7187 649.973 50.125C654.941 54.4844 657.519 60.5078 657.707 68.1953V103.211C657.707 110.195 658.598 115.75 660.379 119.875V121H646.738ZM625.152 111.086C629.23 111.086 633.098 110.031 636.754 107.922C640.41 105.812 643.058 103.07 644.699 99.6953V84.0859H634.504C618.566 84.0859 610.598 88.75 610.598 98.0781C610.598 102.156 611.957 105.344 614.676 107.641C617.394 109.938 620.887 111.086 625.152 111.086ZM666.293 82.3281C666.293 70.6562 669.059 61.2812 674.59 54.2031C680.122 47.0781 687.364 43.5156 696.317 43.5156C705.223 43.5156 712.278 46.5625 717.481 52.6562V13H730.489V121H718.536L717.903 112.844C712.7 119.219 705.457 122.406 696.176 122.406C687.364 122.406 680.168 118.797 674.59 111.578C669.059 104.359 666.293 94.9375 666.293 83.3125V82.3281ZM679.301 83.8047C679.301 92.4297 681.082 99.1797 684.645 104.055C688.207 108.93 693.129 111.367 699.411 111.367C707.661 111.367 713.684 107.664 717.481 100.258V65.3125C713.59 58.1406 707.614 54.5547 699.551 54.5547C693.176 54.5547 688.207 57.0156 684.645 61.9375C681.082 66.8594 679.301 74.1484 679.301 83.8047ZM773.669 122.406C763.357 122.406 754.966 119.031 748.497 112.281C742.028 105.484 738.794 96.4141 738.794 85.0703V82.6797C738.794 75.1328 740.224 68.4062 743.083 62.5C745.989 56.5469 750.021 51.9062 755.177 48.5781C760.38 45.2031 766.005 43.5156 772.052 43.5156C781.943 43.5156 789.63 46.7734 795.114 53.2891C800.599 59.8047 803.341 69.1328 803.341 81.2734V86.6875H751.802C751.989 94.1875 754.169 100.258 758.341 104.898C762.56 109.492 767.903 111.789 774.372 111.789C778.966 111.789 782.857 110.852 786.044 108.977C789.232 107.102 792.021 104.617 794.411 101.523L802.357 107.711C795.982 117.508 786.419 122.406 773.669 122.406ZM772.052 54.2031C766.802 54.2031 762.396 56.125 758.833 59.9688C755.271 63.7656 753.068 69.1094 752.224 76H790.333V75.0156C789.958 68.4062 788.177 63.2969 784.989 59.6875C781.802 56.0312 777.489 54.2031 772.052 54.2031Z" fill="black"/>
<g clip-path="url(#clip0)">
<path d="M154.41 29.0247C148.209 29.0247 142.003 29.047 135.801 29.0247C133.398 29.0247 132.066 30.2584 131.409 31.9123C130.752 33.5662 130.23 35.2425 129.662 36.9188C127.682 42.788 125.693 48.6572 123.735 54.5354C121.584 61.0036 119.469 67.4986 117.34 73.9579C115.483 79.62 113.626 85.2821 111.769 90.9442C110.014 96.3083 108.254 101.66 106.49 107.001C104.581 112.812 102.673 118.623 100.765 124.434C99.91 127.036 99.0594 129.633 98.1593 132.216C97.6463 133.701 97.1332 134.004 95.5401 134.004C91.9397 134.004 88.3393 134.004 84.739 134.004C81.5167 134.004 78.2943 134.004 75.072 134.004C74.62 133.985 74.1693 133.942 73.7219 133.875C73.361 133.84 73.0211 133.691 72.7521 133.449C72.4831 133.208 72.2993 132.887 72.2277 132.534C70.6841 127.617 69.0774 122.668 67.5248 117.733C65.3525 110.879 63.1833 104.025 61.0171 97.171C59.2709 91.6519 57.5233 86.1389 55.7741 80.6317C55.454 79.424 54.7324 78.3591 53.7264 77.6099C53.1757 77.285 52.544 77.1207 51.9037 77.1361C47.4032 77.1004 42.9028 77.1361 38.4023 77.1138C36.3816 77.1138 35.8506 76.5863 35.8506 74.5926C35.8506 69.5325 35.8506 64.4768 35.8506 59.4167C35.8506 57.432 36.4987 56.9358 38.3798 56.909C42.7678 56.8464 47.1557 56.8867 51.5437 56.8867H66.4942C68.1818 56.8867 68.5464 57.1593 69.0504 58.7507C71.2166 65.5482 73.3738 72.3606 75.5221 79.1879L82.3537 100.738C82.4263 101.096 82.6286 101.415 82.9222 101.635C83.2157 101.855 83.5803 101.961 83.9469 101.932C84.991 101.932 85.531 101.605 85.8101 100.747C87.0027 97.0727 88.1863 93.3983 89.4104 89.7283C91.9127 82.1054 94.4224 74.4824 96.9397 66.8594C99.697 58.4527 102.453 50.043 105.207 41.6303C106.373 38.0944 107.583 34.5675 108.749 31.0317C110.387 26.061 112.013 21.0843 113.627 16.1016C114.163 14.4701 114.694 12.843 115.243 11.2159C115.585 10.1922 115.851 10.0179 116.967 10.0179C135.626 10.0179 154.287 10.0089 172.952 9.99106C174.46 9.99106 175.005 10.8851 175.014 12.0696C175.014 15.1629 175.014 18.2562 175.014 21.3495C175.014 23.1376 175.014 24.9569 175.014 26.7583C175.008 27.1603 174.951 27.56 174.842 27.9474C174.779 28.28 174.591 28.5765 174.316 28.7771C174.041 28.9778 173.701 29.0678 173.362 29.0291C167.03 29.0112 160.72 29.0247 154.41 29.0247Z" fill="#0050B3"/>
<path d="M0.00913866 72.0894V15.5206C-0.0119751 15.2224 -0.00292999 14.9229 0.0361403 14.6265C0.171154 13.9694 0.454683 13.5582 1.27827 13.5582C28.0109 13.5761 54.7421 13.5761 81.4718 13.5582C82.7004 13.5582 82.8894 13.7057 83.0334 14.8992C83.1385 15.7775 83.1941 16.661 83.2 17.5455C83.221 21.0411 83.221 24.5382 83.2 28.0368C83.1796 28.8125 83.1074 29.586 82.9839 30.3523C82.9756 30.522 82.9326 30.6883 82.8576 30.841C82.7825 30.9937 82.6769 31.1296 82.5472 31.2404C82.4175 31.3513 82.2664 31.4347 82.1032 31.4857C81.94 31.5366 81.768 31.554 81.5978 31.5368H80.7877C61.8273 31.5368 42.8714 31.586 23.9155 31.4743C21.3098 31.4743 19.2576 33.611 19.3476 35.9041C19.3476 36.1991 19.3476 36.4942 19.3476 36.7981C19.3476 59.5002 19.3476 82.2037 19.3476 104.909C19.3476 105.803 19.2531 106.697 19.2936 107.568C19.3881 109.719 20.8597 111.091 23.0334 111.095C27.2279 111.095 31.4268 111.095 35.6347 111.095H46.6833C48.1099 111.095 48.4025 111.31 48.8345 112.646C49.8651 115.834 50.9047 119.016 51.9263 122.203C52.6014 124.327 53.2765 126.45 53.9155 128.578C54.3656 130.089 53.8615 130.813 52.2999 130.813H1.92633C0.364672 130.813 0.0226395 130.46 0.0226395 128.918L0.00913866 72.0894Z" fill="#0050B3"/>
<path d="M174.91 128.533C174.91 130.209 174.136 131.041 172.341 131.041H119.28C119.065 131.066 118.847 131.066 118.632 131.041C117.309 130.741 116.283 130.312 116.931 128.529C118.164 125.154 119.253 121.725 120.378 118.315C120.99 116.459 121.539 114.586 122.147 112.727C122.561 111.453 123.007 111.14 124.397 111.127C126.022 111.127 127.647 111.127 129.271 111.127H150.801C151.791 111.075 152.725 110.659 153.421 109.96C154.118 109.26 154.527 108.328 154.568 107.345C154.568 99.491 154.537 91.6371 154.622 83.7831C154.575 82.9037 154.202 82.0725 153.576 81.4489C152.95 80.8253 152.114 80.4531 151.229 80.4038C146.139 80.4619 141.044 80.4306 135.954 80.435C134.402 80.435 133.934 79.8092 134.415 78.3341C135.482 75.0754 136.562 71.8167 137.633 68.558C138.34 66.4213 139.037 64.2847 139.753 62.1524C140.09 61.1511 140.504 60.8561 141.526 60.8561H173.029C174.469 60.8561 174.654 61.4149 174.865 62.7916C174.924 63.5684 174.924 64.3483 174.865 65.125" fill="#0050B3"/>
</g>
<defs>
<clipPath id="clip0">
<rect width="175" height="124" fill="white" transform="translate(0 10)"/>
</clipPath>
</defs>
</svg>
