<svg width="141" height="112" viewBox="0 0 141 112" fill="none" xmlns="http://www.w3.org/2000/svg">
<g clip-path="url(#clip0)">
<path opacity="0.1" d="M82.6913 18.9274C73.7696 18.6175 65.271 15.7402 57.1571 12.5916C49.0432 9.44298 41.0064 5.95417 32.2983 4.28621C26.6974 3.21326 20.2915 3.06175 15.7796 6.06161C11.4359 8.95403 10.0326 13.9331 9.27853 18.5582C8.71058 22.0374 8.37698 25.6984 9.93332 28.9558C11.0127 31.2174 12.9302 33.1181 14.255 35.2916C18.8689 42.8284 15.6087 52.1227 10.6088 59.4818C8.26532 62.9348 5.54275 66.2308 3.73414 69.9028C1.92553 73.5748 1.08739 77.7881 2.66993 81.5372C4.24005 85.2561 7.97997 88.0438 12.03 90.0065C20.2584 93.9939 29.9507 95.1344 39.4087 95.7803C60.3387 97.2114 81.379 96.5916 102.364 95.9718C110.131 95.7418 117.93 95.509 125.57 94.3093C129.813 93.6427 134.193 92.5863 137.274 90.0327C141.183 86.7918 142.152 81.3031 139.533 77.2399C135.137 70.4235 122.991 68.7307 119.914 61.4143C118.224 57.3883 119.961 52.9037 122.417 49.1683C127.689 41.1577 136.524 34.1291 136.99 24.9725C137.309 18.6822 133.061 12.385 126.494 9.40855C119.611 6.27785 110.063 6.67452 104.987 11.8382C99.7573 17.1589 90.5681 19.2001 82.6913 18.9274Z" fill="#096DD9"/>
<path d="M60.0274 95.1054L12.8436 94.8754L8.15527 83.8883L24.7333 82.6859L21.8439 70.6396L54.6333 66.3933L23.2348 55.4875L26.0084 54.8291L76.4965 63.0587L73.7161 81.8581L69.7418 92.1896L60.0274 95.1054Z" fill="#096DD9"/>
<path d="M13.5674 90.2737C13.5674 90.2737 16.4623 89.8109 18.1992 91.8549C18.1992 91.8549 16.9254 92.8576 14.185 91.4693L13.5674 90.2737Z" fill="#096DD9"/>
<path d="M13.2645 90.2283C13.2645 90.2283 11.4173 92.4995 12.3271 95.0283C12.3271 95.0283 13.8324 94.4264 13.9965 91.3604L13.2645 90.2283Z" fill="#096DD9"/>
<path d="M11.6045 86.4943C11.6045 86.4943 12.7624 84.3718 17.3942 87.3427C17.3942 87.3427 16.7767 88.7697 14.731 88.654C12.6852 88.5383 12.1449 87.6127 11.6045 86.4943Z" fill="#096DD9"/>
<path d="M11.3056 86.3414C11.3056 86.3414 8.90289 86.0659 8.66992 91.5615C8.66992 91.5615 10.1932 91.8769 11.2753 90.1387C12.3574 88.4005 11.9136 87.4254 11.3056 86.3414Z" fill="#096DD9"/>
<path d="M9.90527 81.9573C9.90527 81.9573 11.2562 78.2165 16.1582 80.8775C16.1582 80.8775 15.0389 84.3098 10.4071 83.23L9.90527 81.9573Z" fill="#096DD9"/>
<path d="M8.40039 76.3655C8.40039 76.3655 10.9479 72.5861 15.4639 76.09C15.4639 76.09 13.8814 79.6381 8.78638 77.7098L8.40039 76.3655Z" fill="#096DD9"/>
<path d="M7.86035 71.0432C7.86035 71.0432 10.8324 67.5709 15.3043 71.0432C15.3043 71.0432 12.4866 74.0899 7.86035 71.9303V71.0432Z" fill="#096DD9"/>
<path d="M7.39746 65.8742C7.39746 65.8742 10.4081 62.2491 14.6926 65.6814C14.6926 65.6814 11.2959 68.8823 7.39746 66.7227V65.8742Z" fill="#096DD9"/>
<path d="M7.66699 61.2847C7.66699 61.2847 10.8376 56.6183 14.8463 59.7807C14.8463 59.7807 11.4496 63.7915 7.66699 62.1717V61.2847Z" fill="#096DD9"/>
<path d="M8.40039 55.9243C8.40039 55.9243 11.7585 51.2964 15.6569 54.8444C15.6569 54.8444 11.6813 58.8552 8.40039 56.7727V55.9243Z" fill="#096DD9"/>
<path d="M9.52037 51.1324C9.52037 51.1324 13.496 46.7828 16.9643 48.5155C16.9643 48.5155 12.8219 53.1351 9.34668 52.2866L9.52037 51.1324Z" fill="#096DD9"/>
<path d="M10.9093 46.59C10.9093 46.59 15.497 41.2625 18.1658 43.042C18.1658 43.042 14.7857 47.174 10.584 47.5872L10.9093 46.59Z" fill="#096DD9"/>
<path d="M12.915 41.3217C12.915 41.3217 16.9306 36.9721 19.8641 38.0519C19.8641 38.0519 16.4288 42.5641 12.376 42.6798L12.915 41.3217Z" fill="#096DD9"/>
<path d="M14.7311 36.3936C14.7311 36.3936 19.1699 32.2285 21.0998 32.9612C21.0998 32.9612 17.8961 37.5891 14.5381 37.3191L14.7311 36.3936Z" fill="#096DD9"/>
<path d="M16.5059 31.8427C16.5059 31.8427 20.3271 26.8664 22.4128 27.252C22.4128 27.252 20.0955 31.6884 16.5059 32.3482V31.8427Z" fill="#096DD9"/>
<path d="M18.4332 25.7067C18.4332 25.7067 21.8105 21.8929 23.6357 21.9011C23.6357 21.9011 20.9696 26.9973 18.2939 26.9505L18.4332 25.7067Z" fill="#096DD9"/>
<path d="M19.5751 21.6215L22.838 13.677C22.838 13.677 23.0007 20.8585 19.1602 23.0953L19.5751 21.6215Z" fill="#096DD9"/>
<path d="M20.9 12.8604C20.9 12.8604 21.4404 6.22571 21.093 5.68579C21.093 5.68579 23.4254 11.202 20.8779 15.7914L20.9 12.8604Z" fill="#096DD9"/>
<path d="M9.77939 81.8694C9.77939 81.8694 6.39651 79.7745 4.20605 84.8996C4.20605 84.8996 7.21673 86.8967 10.1778 83.1765L9.77939 81.8694Z" fill="#096DD9"/>
<path d="M8.29184 76.1519C8.29184 76.1519 4.14251 74.2609 2.12988 79.6118C2.12988 79.6118 5.33493 81.8156 8.66956 77.5045L8.29184 76.1519Z" fill="#096DD9"/>
<path d="M7.66761 71.3616C7.66761 71.3616 4.69554 67.8893 0.223633 71.3616C0.223633 71.3616 3.04132 74.4083 7.66761 72.2486V71.3616Z" fill="#096DD9"/>
<path d="M7.2951 65.8742C7.2951 65.8742 4.28442 62.2491 0 65.6814C0 65.6814 3.39666 68.8823 7.2951 66.7227V65.8742Z" fill="#096DD9"/>
<path d="M7.66718 61.4171C7.66718 61.4171 5.5553 56.1901 0.964844 58.438C0.964844 58.438 3.44617 63.0727 7.4797 62.2849L7.66718 61.4171Z" fill="#096DD9"/>
<path d="M8.66683 55.8981C8.66683 55.8981 6.56735 50.5801 1.91211 53.0456C1.91211 53.0456 4.76288 57.92 8.46005 56.719L8.66683 55.8981Z" fill="#096DD9"/>
<path d="M9.9682 51.1585C9.9682 51.1585 9.14109 45.3282 5.28125 44.8062C5.28125 44.8062 6.10009 50.9546 9.4485 52.2094L9.9682 51.1585Z" fill="#096DD9"/>
<path d="M11.007 46.6009C11.007 46.6009 10.6844 39.5765 7.49316 39.3313C7.49316 39.3313 7.60069 44.663 10.6472 47.5954L11.007 46.6009Z" fill="#096DD9"/>
<path d="M13.2457 41.1248C13.2457 41.1248 12.2946 35.2835 9.24805 34.5701C9.24805 34.5701 9.62576 40.2268 12.9438 42.5586L13.2457 41.1248Z" fill="#096DD9"/>
<path d="M15.0923 36.4419C15.0923 36.4419 15.0606 30.3568 13.1996 29.4629C13.1996 29.4629 12.0458 34.9723 14.5533 37.2187L15.0923 36.4419Z" fill="#096DD9"/>
<path d="M16.6477 31.7739C16.6477 31.7739 16.3871 25.5084 14.4599 24.6255C14.4599 24.6255 13.801 29.5839 16.3595 32.1843L16.6477 31.7739Z" fill="#096DD9"/>
<path d="M18.7024 26.2067C18.7024 26.2067 18.6913 21.1106 17.3156 19.915C17.3156 19.915 15.9481 25.4974 17.9842 27.2315L18.7024 26.2067Z" fill="#096DD9"/>
<path d="M19.4135 21.3708L18.0749 12.8892C18.0749 12.8892 16.2567 19.8392 19.4769 22.9024L19.4135 21.3708Z" fill="#096DD9"/>
<path d="M19.6736 12.94C19.6736 12.94 16.2384 7.23783 16.3087 6.60425C16.3087 6.60425 16.674 12.5805 20.9956 15.557L19.6736 12.94Z" fill="#096DD9"/>
<path d="M20.0762 11.2556C20.0762 11.2556 16.8339 3.15684 15.3672 2.50122C15.3672 2.50122 19.999 4.85372 20.3464 11.0242L20.0762 11.2556Z" fill="#096DD9"/>
<path d="M18.2776 26.9987L18.0557 26.9312C20.792 18.0157 21.4744 12.3314 19.9787 10.9058L20.1372 10.7378C21.7239 12.2419 21.0801 17.8642 18.2776 26.9987Z" fill="#444053"/>
<path d="M10.7431 47.8737L10.415 47.7566C10.7059 46.9398 11.0188 46.1107 11.3469 45.2939C14.2032 38.1813 16.6349 31.5645 18.194 26.4849L18.4794 26.3472C16.9175 31.4365 14.5285 38.3066 11.6695 45.4289C11.3428 46.2305 11.0312 47.0555 10.7431 47.8737Z" fill="#444053"/>
<path d="M17.6467 96.9456C17.6026 96.8974 13.1679 91.9073 10.0759 83.3885C8.26414 78.401 7.25586 73.1579 7.08863 67.8548C6.87634 61.2256 8.26864 53.8238 10.6535 47.0996L10.9126 47.4026C5.55848 62.4942 7.68553 75.426 10.5073 83.2135C13.5663 91.6553 17.9513 96.5903 17.9941 96.6399L17.6467 96.9456Z" fill="#444053"/>
<path d="M86.9466 86.3511C86.9466 86.3511 83.8216 90.1622 86.3029 95.9236L61.3518 106.736L58.9573 107.237L57.8545 102.416L58.592 96.3327V93.0078L86.9466 86.3511Z" fill="#D5D6DB"/>
<path d="M8.15527 83.8885L42.6898 77.5981L88.4496 84.8815L60.0274 95.1056L8.15527 83.8885Z" fill="#096DD9"/>
<path d="M8.15527 83.8885L42.6898 77.5981L88.4496 84.8815L60.0274 95.1056L8.15527 83.8885Z" fill="#096DD9"/>
<path d="M8.15555 83.887C8.15555 83.887 4.92569 90.001 8.64768 95.6481L59.8595 106.736C59.8595 106.736 56.6807 101.865 60.0235 95.1054L8.15555 83.887Z" fill="#096DD9"/>
<path opacity="0.1" d="M8.15555 83.887C8.15555 83.887 4.92569 90.001 8.64768 95.6481L59.8595 106.736C59.8595 106.736 56.6807 101.865 60.0235 95.1054L8.15555 83.887Z" fill="black"/>
<path opacity="0.1" d="M9.68072 86.0068C9.68072 86.0068 7.83489 90.4805 9.68072 93.3756V86.0068Z" fill="black"/>
<path d="M59.8593 106.736L88.4497 94.5464C88.4497 94.5464 90.0488 94.8907 89.0149 96.0615C87.981 97.2322 60.4107 107.907 60.4107 107.907L8.64746 95.6483L59.8593 106.736Z" fill="#096DD9"/>
<path opacity="0.1" d="M59.8593 106.736L88.4497 94.5464C88.4497 94.5464 90.0488 94.8907 89.0149 96.0615C87.981 97.2322 60.4107 107.907 60.4107 107.907L8.64746 95.6483L59.8593 106.736Z" fill="black"/>
<path opacity="0.1" d="M57.5154 96.3369C57.5154 96.3369 54.7584 99.6425 57.5154 104.601V96.3369Z" fill="black"/>
<path opacity="0.1" d="M70.8636 96.2811L58.4971 100.403L58.5407 100.534L70.9072 96.4117L70.8636 96.2811Z" fill="black"/>
<path opacity="0.1" d="M73.3406 95.8708L58.4932 101.512L58.5422 101.641L73.3895 95.9995L73.3406 95.8708Z" fill="black"/>
<path opacity="0.1" d="M75.6155 95.8511L58.5762 102.82L58.6284 102.947L75.6677 95.9785L75.6155 95.8511Z" fill="black"/>
<path opacity="0.1" d="M78.0895 95.2541L58.7754 103.971L58.8321 104.097L78.1462 95.3797L78.0895 95.2541Z" fill="black"/>
<path opacity="0.1" d="M80.1671 95.2569L58.9277 104.533L58.9829 104.659L80.2224 95.3831L80.1671 95.2569Z" fill="black"/>
<path opacity="0.1" d="M84.7129 94.4857L59.248 105.475L59.3027 105.601L84.7675 94.6121L84.7129 94.4857Z" fill="black"/>
<path opacity="0.3" d="M20.9854 84.5605L45.2472 79.4644L60.0276 82.2879L40.1467 88.6926L20.9854 84.5605Z" fill="white"/>
<path d="M88.4498 84.8816C88.4498 84.8816 89.7042 85.3871 88.9681 86.168C88.232 86.949 60.0234 95.1056 60.0234 95.1056L88.4498 84.8816Z" fill="#096DD9"/>
<path d="M100.635 73.1038C100.635 73.1038 97.511 76.9135 99.9923 82.6763L75.0412 93.4884L72.6468 93.9926L71.5439 89.1719L72.2925 83.0895V79.7605L100.635 73.1038Z" fill="#D5D6DB"/>
<path d="M21.8438 70.6398L56.3769 64.3508L102.138 71.6342L73.7159 81.8582L21.8438 70.6398Z" fill="#3A3768"/>
<path d="M21.8381 70.6399C21.8381 70.6399 18.6069 76.7539 22.3289 82.401L73.5407 93.4886C73.5407 93.4886 70.3632 88.6142 73.7103 81.857L21.8381 70.6399Z" fill="#3A3768"/>
<path opacity="0.1" d="M21.8381 70.6399C21.8381 70.6399 18.6069 76.7539 22.3289 82.401L73.5407 93.4886C73.5407 93.4886 70.3632 88.6142 73.7103 81.857L57.5155 78.3544L21.8381 70.6399Z" fill="black"/>
<path opacity="0.1" d="M23.3686 72.7595C23.3686 72.7595 21.5241 77.2317 23.3686 80.1283V72.7595Z" fill="black"/>
<path d="M73.5468 93.4886L102.139 81.2991C102.139 81.2991 103.736 81.6434 102.702 82.8141C101.668 83.9849 74.0982 94.6593 74.0982 94.6593L22.335 82.4009L73.5468 93.4886Z" fill="#3A3768"/>
<path opacity="0.1" d="M73.5468 93.4886L102.139 81.2991C102.139 81.2991 103.736 81.6434 102.702 82.8141C101.668 83.9849 74.0982 94.6593 74.0982 94.6593L22.335 82.4009L73.5468 93.4886Z" fill="black"/>
<path opacity="0.1" d="M71.2029 83.0896C71.2029 83.0896 68.4459 86.3952 71.2029 91.3537V83.0896Z" fill="black"/>
<path opacity="0.1" d="M84.5521 83.0352L72.1855 87.1575L72.2292 87.2881L84.5957 83.1658L84.5521 83.0352Z" fill="black"/>
<path opacity="0.1" d="M87.03 82.6242L72.1826 88.2654L72.2316 88.3941L87.079 82.753L87.03 82.6242Z" fill="black"/>
<path opacity="0.1" d="M89.303 82.6025L72.2637 89.571L72.3159 89.6985L89.3552 82.73L89.303 82.6025Z" fill="black"/>
<path opacity="0.1" d="M91.7789 82.0061L72.4648 90.7234L72.5216 90.8489L91.8357 82.1316L91.7789 82.0061Z" fill="black"/>
<path opacity="0.1" d="M93.8546 82.0072L72.6152 91.283L72.6704 91.4092L93.9099 82.1334L93.8546 82.0072Z" fill="black"/>
<path opacity="0.1" d="M98.4013 81.236L72.9365 92.2251L72.9912 92.3515L98.456 81.3624L98.4013 81.236Z" fill="black"/>
<path opacity="0.45" d="M34.6738 71.3132L58.9357 66.217L73.7161 69.0406L53.8352 75.4453L34.6738 71.3132Z" fill="white"/>
<path d="M102.138 71.6343C102.138 71.6343 103.391 72.1398 102.656 72.9193C101.922 73.6989 73.7158 81.8569 73.7158 81.8569L102.138 71.6343Z" fill="#3A3768"/>
<path d="M101.93 57.949C101.93 57.949 98.8053 64.7902 101.287 70.5516L76.3355 78.3336L73.9466 78.8391L72.8438 74.0184L73.5813 67.9347V64.6057L101.93 57.949Z" fill="#D5D6DB"/>
<path d="M23.1445 55.4864L57.6791 49.196L103.44 56.4794L75.0167 66.7035L23.1445 55.4864Z" fill="#096DD9"/>
<path d="M23.1438 55.4849C23.1438 55.4849 19.9084 61.5989 23.6304 67.246L74.8422 78.3336C74.8422 78.3336 71.6633 73.4592 75.0104 66.7033L23.1438 55.4849Z" fill="#096DD9"/>
<path opacity="0.1" d="M23.1438 55.4849C23.1438 55.4849 19.9084 61.5989 23.6304 67.246L74.8422 78.3336C74.8422 78.3336 71.6633 73.4592 75.0104 66.7033L23.1438 55.4849Z" fill="black"/>
<path opacity="0.1" d="M24.67 57.6045C24.67 57.6045 22.8241 62.0781 24.67 64.9733V57.6045Z" fill="black"/>
<path d="M74.8476 78.3335L103.438 69.1741C103.438 69.1741 105.037 69.5185 104.003 70.6892C102.969 71.86 75.399 79.5042 75.399 79.5042L23.6357 67.2458L74.8476 78.3335Z" fill="#096DD9"/>
<path opacity="0.1" d="M74.8476 78.3335L103.438 69.1741C103.438 69.1741 105.037 69.5185 104.003 70.6892C102.969 71.86 75.399 79.5042 75.399 79.5042L23.6357 67.2458L74.8476 78.3335Z" fill="black"/>
<path opacity="0.1" d="M72.5046 67.9348C72.5046 67.9348 69.7476 71.2404 72.5046 76.1989V67.9348Z" fill="black"/>
<path opacity="0.1" d="M85.8539 67.8799L73.4873 72.0022L73.5309 72.1329L85.8975 68.0106L85.8539 67.8799Z" fill="black"/>
<path opacity="0.1" d="M88.3318 67.4697L73.4844 73.1108L73.5334 73.2396L88.3808 67.5984L88.3318 67.4697Z" fill="black"/>
<path opacity="0.1" d="M90.6028 67.4487L73.5635 74.4172L73.6157 74.5447L90.655 67.5762L90.6028 67.4487Z" fill="black"/>
<path opacity="0.1" d="M93.0797 66.8511L73.7656 75.5684L73.8224 75.6939L93.1365 66.9766L93.0797 66.8511Z" fill="black"/>
<path opacity="0.1" d="M95.1574 66.8536L73.918 76.1294L73.9732 76.2556L95.2126 66.9798L95.1574 66.8536Z" fill="black"/>
<path opacity="0.1" d="M99.7031 66.0831L74.2383 77.0723L74.2929 77.1987L99.7577 66.2096L99.7031 66.0831Z" fill="black"/>
<path opacity="0.3" d="M35.9736 56.1584L60.2355 51.0623L75.0159 53.8858L55.135 60.2905L35.9736 56.1584Z" fill="white"/>
<path d="M103.438 56.4792C103.438 56.4792 104.692 56.9847 103.956 57.7657C103.22 58.5466 75.0156 66.7033 75.0156 66.7033L103.438 56.4792Z" fill="#096DD9"/>
<path d="M42.7922 14.6689C42.7922 14.6689 37.5539 14.3535 38.166 18.0255C38.166 18.0255 38.0433 18.6742 38.6319 18.969C38.6319 18.969 38.6415 18.6935 39.1695 18.7885C39.3579 18.8209 39.5496 18.8301 39.7402 18.8161C39.9972 18.7985 40.2415 18.6979 40.4364 18.5296C40.4364 18.5296 41.91 17.9208 42.4835 15.5132C42.4835 15.5132 42.908 14.9884 42.897 14.8535L42.0093 15.2308C42.0093 15.2308 42.3111 15.8686 42.074 16.3988C42.074 16.3988 42.0451 15.2543 41.8742 15.2804C41.8397 15.2804 41.4151 15.5022 41.4151 15.5022C41.4151 15.5022 41.9348 16.6137 41.5419 17.4208C41.5419 17.4208 41.6908 16.0517 41.2524 15.5821L40.6294 15.9457C40.6294 15.9457 41.2373 17.093 40.8251 18.0296C40.8251 18.0296 40.9313 16.593 40.4984 16.0338L39.9332 16.4746C39.9332 16.4746 40.5053 17.6054 40.1565 18.3822C40.1565 18.3822 40.111 16.7101 39.8119 16.5834C39.8119 16.5834 39.317 17.0186 39.2426 17.1977C39.2426 17.1977 39.6341 18.0241 39.3901 18.4524C39.3901 18.4524 39.2426 17.3382 39.1144 17.3327C39.1144 17.3327 38.6222 18.0709 38.5712 18.5723C38.5951 18.1049 38.741 17.6519 38.9944 17.2583C38.7108 17.3119 38.4491 17.4474 38.2418 17.6481C38.2418 17.6481 38.3176 17.1261 39.1171 17.0806C39.1171 17.0806 39.5238 16.52 39.6327 16.487C39.6327 16.487 38.8373 16.4195 38.3562 16.633C38.3562 16.633 38.7808 16.1413 39.7774 16.3575L40.3288 15.903C40.3288 15.903 39.2839 15.7653 38.84 15.9181C38.84 15.9181 39.3515 15.4829 40.4791 15.7997L41.087 15.4374C41.087 15.4374 40.1951 15.246 39.6644 15.3149C39.6644 15.3149 40.2241 15.0132 41.2649 15.3397L41.6977 15.1455C41.6977 15.1455 41.0457 15.0174 40.8541 14.9967C40.6624 14.976 40.6528 14.9237 40.6528 14.9237C41.0666 14.8558 41.4912 14.9035 41.8797 15.0614C41.8797 15.0614 42.8102 14.7267 42.7922 14.6689Z" fill="#096DD9"/>
<path opacity="0.1" d="M116.487 29.7617C116.487 29.7617 111.248 29.4463 111.86 33.1182C111.86 33.1182 111.738 33.767 112.326 34.0617C112.326 34.0617 112.336 33.7863 112.864 33.8813C113.052 33.9129 113.244 33.9221 113.435 33.9088C113.689 33.8901 113.931 33.7896 114.124 33.6224C114.124 33.6224 115.599 33.0136 116.171 30.606C116.171 30.606 116.595 30.0812 116.584 29.9462L115.699 30.3236C115.699 30.3236 116.001 30.9613 115.764 31.4916C115.764 31.4916 115.735 30.347 115.566 30.3732C115.531 30.3732 115.105 30.595 115.105 30.595C115.105 30.595 115.625 31.7065 115.234 32.5136C115.234 32.5136 115.382 31.1445 114.943 30.6748L114.32 31.0385C114.32 31.0385 114.927 32.1858 114.515 33.1224C114.515 33.1224 114.621 31.6858 114.189 31.1266L113.625 31.5674C113.625 31.5674 114.195 32.6982 113.847 33.475C113.847 33.475 113.801 31.8029 113.502 31.6762C113.502 31.6762 113.009 32.1114 112.933 32.2905C112.933 32.2905 113.324 33.1169 113.082 33.5452C113.082 33.5452 112.933 32.431 112.806 32.4254C112.806 32.4254 112.314 33.1637 112.263 33.6651C112.287 33.1975 112.433 32.7443 112.687 32.3511C112.403 32.4048 112.141 32.5403 111.933 32.7409C111.933 32.7409 112.011 32.2188 112.809 32.1734C112.809 32.1734 113.215 31.6128 113.324 31.5784C113.324 31.5784 112.53 31.5123 112.048 31.7258C112.048 31.7258 112.472 31.234 113.469 31.4503L114.02 30.9958C114.02 30.9958 112.974 30.858 112.532 31.0109C112.532 31.0109 113.042 30.5757 114.171 30.8925L114.777 30.5302C114.777 30.5302 113.885 30.3388 113.355 30.4076C113.355 30.4076 113.914 30.106 114.955 30.4324L115.389 30.2382C115.389 30.2382 114.736 30.1101 114.544 30.0895C114.353 30.0688 114.343 30.0165 114.343 30.0165C114.757 29.9477 115.182 29.9954 115.57 30.1542C115.57 30.1542 116.503 29.8195 116.487 29.7617Z" fill="#096DD9"/>
<path opacity="0.1" d="M51.6148 37.3536C51.6148 37.3536 49.332 32.6252 46.4261 34.9556C46.4261 34.9556 45.7989 35.165 45.8292 35.822C45.8292 35.822 46.0704 35.6967 46.2427 36.2035C46.3071 36.3827 46.3922 36.5537 46.4964 36.7131C46.6374 36.9292 46.845 37.0936 47.0878 37.1814C47.0878 37.1814 48.3381 38.1704 50.7215 37.4955C50.7215 37.4955 51.3874 37.6098 51.4963 37.5299L50.7353 36.9418C50.7353 36.9418 50.3218 37.5161 49.7456 37.5671C49.7456 37.5671 50.7326 36.9845 50.6264 36.8495C50.6044 36.8219 50.2129 36.5561 50.2129 36.5561C50.2129 36.5561 49.4947 37.5519 48.5986 37.6029C48.5986 37.6029 49.8669 37.0657 50.0626 36.4528L49.4423 36.0864C49.4423 36.0864 48.7351 37.1773 47.7164 37.2737C47.7164 37.2737 49.0232 36.6663 49.3003 36.0162L48.6414 35.7407C48.6414 35.7407 47.9314 36.7903 47.0823 36.866C47.0823 36.866 48.5214 36.0107 48.4856 35.687C48.4856 35.687 47.8639 35.4694 47.6709 35.4901C47.6709 35.4901 47.1443 36.2324 46.648 36.2324C46.648 36.2324 47.5482 35.5589 47.4931 35.4501C47.4931 35.4501 46.6081 35.3812 46.1421 35.5878C46.562 35.3793 47.0292 35.2844 47.4972 35.3124C47.3115 35.0912 47.0653 34.9289 46.7886 34.8455C46.7886 34.8455 47.2821 34.6581 47.7109 35.3317C47.7109 35.3317 48.4001 35.4129 48.4815 35.4914C48.4815 35.4914 48.152 34.7669 47.7315 34.4515C47.7315 34.4515 48.3684 34.5796 48.6593 35.5534L49.3279 35.8179C49.3279 35.8179 48.9433 34.8372 48.589 34.5273C48.589 34.5273 49.2176 34.7601 49.4919 35.9046L50.104 36.2572C50.104 36.2572 49.8379 35.3854 49.5181 34.957C49.5181 34.957 50.0543 35.2986 50.2763 36.3647L50.6581 36.6484C50.6581 36.6484 50.4514 36.0162 50.3824 35.8399C50.3135 35.6636 50.348 35.6278 50.348 35.6278C50.6102 35.9548 50.7763 36.3482 50.8277 36.7641C50.8277 36.7641 51.5652 37.3949 51.6148 37.3536Z" fill="#096DD9"/>
<path opacity="0.1" d="M104.519 23.0814C104.519 23.0814 102.238 18.353 99.3303 20.6834C99.3303 20.6834 98.7044 20.8928 98.7334 21.5498C98.7334 21.5498 98.976 21.4258 99.147 21.9313C99.2112 22.1112 99.2968 22.2828 99.402 22.4423C99.5425 22.658 99.7497 22.8219 99.992 22.9092C99.992 22.9092 101.244 23.8981 103.626 23.2246C103.626 23.2246 104.292 23.3376 104.402 23.2577L103.645 22.6682C103.645 22.6682 103.231 23.2439 102.657 23.2949C102.657 23.2949 103.642 22.7109 103.536 22.5759C103.514 22.5484 103.123 22.2825 103.123 22.2825C103.123 22.2825 102.406 23.2783 101.508 23.3293C101.508 23.3293 102.778 22.7921 102.974 22.1806L102.344 21.817C102.344 21.817 101.638 22.9065 100.618 23.0043C100.618 23.0043 101.925 22.3955 102.203 21.7454L101.543 21.4699C101.543 21.4699 100.833 22.5208 99.9851 22.5952C99.9851 22.5952 101.423 21.7398 101.387 21.4176C101.387 21.4176 100.767 21.1986 100.574 21.2206C100.574 21.2206 100.047 21.9616 99.5495 21.9616C99.5495 21.9616 100.451 21.2881 100.396 21.1793C100.396 21.1793 99.5109 21.1104 99.0436 21.317C99.4634 21.1084 99.9306 21.0135 100.399 21.0415C100.214 20.8202 99.9678 20.6578 99.6915 20.5746C99.6915 20.5746 100.185 20.3873 100.614 21.0608C100.614 21.0608 101.303 21.1435 101.384 21.222C101.384 21.222 101.055 20.4961 100.633 20.1807C100.633 20.1807 101.27 20.3102 101.561 21.2895L102.231 21.5539C102.231 21.5539 101.846 20.5719 101.492 20.262C101.492 20.262 102.12 20.4947 102.393 21.6393L103.007 21.9919C103.007 21.9919 102.739 21.1214 102.42 20.6917C102.42 20.6917 102.957 21.0333 103.178 22.0993L103.56 22.3831C103.56 22.3831 103.354 21.7509 103.284 21.5746C103.214 21.3983 103.249 21.3638 103.249 21.3638C103.511 21.6912 103.676 22.0845 103.728 22.5001C103.728 22.5001 104.476 23.1255 104.519 23.0814Z" fill="#096DD9"/>
<path opacity="0.1" d="M111.809 46.4701C111.809 46.4701 109.528 41.7403 106.616 44.0707C106.616 44.0707 105.991 44.2801 106.02 44.9371C106.02 44.9371 106.262 44.8131 106.433 45.3186C106.497 45.4985 106.582 45.67 106.687 45.8296C106.827 46.0453 107.034 46.2092 107.277 46.2965C107.277 46.2965 108.528 47.2868 110.912 46.6119C110.912 46.6119 111.576 46.7263 111.687 46.645L110.926 46.0569C110.926 46.0569 110.512 46.6326 109.936 46.6836C109.936 46.6836 110.922 46.0996 110.815 45.9646C110.793 45.937 110.402 45.6712 110.402 45.6712C110.402 45.6712 109.685 46.667 108.788 46.7194C108.788 46.7194 110.057 46.1808 110.253 45.5693L109.631 45.2029C109.631 45.2029 108.925 46.2938 107.905 46.3902C107.905 46.3902 109.212 45.7814 109.491 45.1313L108.83 44.8558C108.83 44.8558 108.12 45.9054 107.273 45.9811C107.273 45.9811 108.712 45.1258 108.676 44.8021C108.676 44.8021 108.054 44.5831 107.861 44.6051C107.861 44.6051 107.335 45.3462 106.837 45.3462C106.837 45.3462 107.739 44.6726 107.683 44.5638C107.683 44.5638 106.798 44.495 106.331 44.7016C106.751 44.4931 107.219 44.3982 107.688 44.4261C107.502 44.2044 107.256 44.042 106.979 43.9592C106.979 43.9592 107.472 43.7705 107.901 44.4454C107.901 44.4454 108.59 44.5266 108.672 44.6051C108.672 44.6051 108.342 43.8807 107.922 43.5639C107.922 43.5639 108.559 43.6933 108.85 44.6726L109.518 44.9371C109.518 44.9371 109.134 43.955 108.779 43.6465C108.779 43.6465 109.408 43.8779 109.681 45.0239L110.294 45.3751C110.294 45.3751 110.027 44.5046 109.707 44.0749C109.707 44.0749 110.245 44.4164 110.467 45.4839L110.848 45.7594C110.848 45.7594 110.642 45.1272 110.573 44.9509C110.504 44.7746 110.538 44.7401 110.538 44.7401C110.8 45.0671 110.966 45.4606 111.017 45.8764C111.017 45.8764 111.767 46.5114 111.809 46.4701Z" fill="#096DD9"/>
<path opacity="0.1" d="M27.8391 108.006C29.5894 108.006 31.0083 107.847 31.0083 107.652C31.0083 107.456 29.5894 107.298 27.8391 107.298C26.0888 107.298 24.6699 107.456 24.6699 107.652C24.6699 107.847 26.0888 108.006 27.8391 108.006Z" fill="#096DD9"/>
<path opacity="0.1" d="M7.06374 101.989C8.81404 101.989 10.2329 101.831 10.2329 101.635C10.2329 101.44 8.81404 101.281 7.06374 101.281C5.31343 101.281 3.89453 101.44 3.89453 101.635C3.89453 101.831 5.31343 101.989 7.06374 101.989Z" fill="#096DD9"/>
<path opacity="0.1" d="M43.6751 112.001C45.4254 112.001 46.8443 111.843 46.8443 111.647C46.8443 111.452 45.4254 111.293 43.6751 111.293C41.9248 111.293 40.5059 111.452 40.5059 111.647C40.5059 111.843 41.9248 112.001 43.6751 112.001Z" fill="#096DD9"/>
<path opacity="0.1" d="M124.828 103.298C126.579 103.298 127.998 103.139 127.998 102.944C127.998 102.748 126.579 102.59 124.828 102.59C123.078 102.59 121.659 102.748 121.659 102.944C121.659 103.139 123.078 103.298 124.828 103.298Z" fill="#096DD9"/>
<path opacity="0.1" d="M98.4563 101.581C100.207 101.581 101.626 101.422 101.626 101.227C101.626 101.031 100.207 100.873 98.4563 100.873C96.706 100.873 95.2871 101.031 95.2871 101.227C95.2871 101.422 96.706 101.581 98.4563 101.581Z" fill="#096DD9"/>
<path opacity="0.1" d="M81.3966 109.957C83.4667 109.957 85.1448 109.669 85.1448 109.314C85.1448 108.959 83.4667 108.671 81.3966 108.671C79.3266 108.671 77.6484 108.959 77.6484 109.314C77.6484 109.669 79.3266 109.957 81.3966 109.957Z" fill="#096DD9"/>
<path d="M83.0677 102.849C83.0677 102.849 77.8486 105.543 80.545 108.716C80.545 108.716 80.7986 109.405 81.532 109.357C81.532 109.357 81.3859 109.09 81.9456 108.876C82.1447 108.799 82.334 108.699 82.5094 108.577C82.7464 108.414 82.9235 108.177 83.0139 107.904C83.0139 107.904 84.0809 106.477 83.2538 103.836C83.2538 103.836 83.3613 103.09 83.2675 102.969L82.6334 103.838C82.6334 103.838 83.2882 104.277 83.364 104.923C83.364 104.923 82.6748 103.839 82.5369 103.959C82.5066 103.984 82.2226 104.434 82.2226 104.434C82.2226 104.434 83.3585 105.204 83.4426 106.204C83.4426 106.204 82.803 104.803 82.1123 104.604L81.7167 105.309C81.7167 105.309 82.9574 106.064 83.0952 107.199C83.0952 107.199 82.3743 105.759 81.6381 105.469L81.3473 106.214C81.3473 106.214 82.5438 106.974 82.6541 107.919C82.6541 107.919 81.6533 106.339 81.2935 106.389C81.2935 106.389 81.0674 107.088 81.0978 107.305C81.0978 107.305 81.9428 107.869 81.958 108.424C81.958 108.424 81.1777 107.44 81.0578 107.504C81.0578 107.504 81.0082 108.495 81.248 109.01C81.248 109.01 80.8345 108.274 80.902 107.504C80.6603 107.718 80.4863 107.998 80.4016 108.309C80.4016 108.309 80.1769 107.765 80.9172 107.263C80.9172 107.263 80.9875 106.493 81.0729 106.398C81.0729 106.398 80.272 106.789 79.9315 107.269C79.9315 107.269 80.057 106.554 81.1433 106.199L81.419 105.444C81.419 105.444 80.3327 105.904 79.9977 106.309C79.9977 106.309 80.2389 105.599 81.5044 105.259L81.8794 104.571C81.8794 104.571 80.9144 104.896 80.443 105.259C80.443 105.259 80.8083 104.649 81.9952 104.368L82.2998 103.934C82.2998 103.934 81.5995 104.184 81.4038 104.273C81.208 104.363 81.1694 104.318 81.1694 104.318C81.5273 104.016 81.962 103.819 82.4253 103.748C82.4253 103.748 83.1159 102.896 83.0677 102.849Z" fill="#096DD9"/>
<path d="M98.5581 51.9657C97.6566 49.5182 92.6939 49.2881 90.5407 49.9121C89.0106 50.357 85.7848 50.8583 84.0617 51.1104L83.95 51.0043C84.1733 50.9382 84.1789 50.7757 84.1513 50.5346C84.1352 50.217 84.1398 49.8986 84.1651 49.5815C85.221 49.9093 86.1612 49.1339 86.1612 49.1339C87.4018 48.5829 87.0682 46.2249 87.3053 45.5803C87.4832 45.0983 87.6748 42.2582 87.7602 40.8423H87.7782L87.7878 40.3671C87.8002 40.1619 87.8057 40.042 87.8057 40.042C87.8057 40.042 87.927 36.5794 88.1641 35.8783C88.3847 35.2337 88.5639 31.986 88.5915 31.4708C88.5915 31.4268 88.5915 31.4034 88.5915 31.4034L88.5736 31.1031C88.586 30.8841 88.5915 30.6403 88.5901 30.3841C88.5901 29.2065 88.4674 27.7231 88.4522 27.4834C88.4522 27.449 88.4522 27.4077 88.4522 27.3581C88.4619 26.8554 88.3985 24.3376 86.2549 23.3858C85.465 23.0332 84.5152 22.6132 83.5957 22.2041C83.3586 20.1587 82.8169 18.1244 82.8638 16.0639C82.8638 15.754 82.8913 15.4441 82.9216 15.1356C82.9216 15.2251 82.912 15.316 82.9106 15.411C82.9106 15.6107 82.9106 15.8118 82.9106 16.0115C82.992 13.4345 83.9666 10.8438 83.8756 8.32184C83.8673 8.56839 83.8494 8.81631 83.826 9.06423C83.8735 8.21122 83.7842 7.35609 83.5613 6.5313C83.4786 6.24068 83.3669 5.94042 83.1284 5.74621C82.903 5.58981 82.6445 5.48752 82.373 5.44733C81.7207 5.2805 81.058 5.15719 80.3893 5.0782C80.2877 4.76744 80.1369 4.47495 79.9427 4.21185C78.5449 2.29459 76.4743 0.493027 74.0261 0.0798245C72.7978 -0.126777 71.3849 0.0453908 70.5495 0.922758C70.4622 0.999833 70.3803 1.08266 70.3041 1.17068C69.8547 1.70647 69.6617 2.41029 69.2013 2.9447C69.171 2.98051 69.1365 3.01357 69.1034 3.048C68.2019 3.85374 66.7972 4.02178 65.795 4.74488C65.6184 4.87469 65.4529 5.01889 65.3001 5.17599C64.8963 5.57582 64.5342 6.01562 64.2193 6.4886C63.7686 7.12218 63.3054 7.78193 63.162 8.53809C62.8739 10.0532 63.9064 11.4897 64.098 13.0145C64.5254 16.4261 60.7469 19.4535 61.4623 22.8198C61.6532 23.6467 62.0748 24.4027 62.6782 25.0001C61.2045 26.3334 59.9501 27.6267 59.9501 27.6267V27.7038H59.7171L59.7405 27.9793H59.7171L59.8453 29.4737L59.7171 31.6499C59.7171 31.6499 59.7171 31.6733 59.7171 31.7174V31.7284V31.7876C59.7171 31.7876 59.7171 31.811 59.7171 31.8551H59.7254C59.7681 32.6526 59.9377 35.5202 60.1389 36.1249C60.376 36.826 60.496 40.2886 60.496 40.2886C60.496 40.2886 60.7579 45.1823 60.9977 45.8296C61.2376 46.477 60.8971 48.8281 62.1419 49.3832C62.5061 49.6623 62.9372 49.8409 63.3922 49.9011C63.3288 50.4162 63.3688 50.7895 63.5742 50.9065C63.6621 50.9582 63.7617 50.9866 63.8637 50.9892C63.7792 51.1143 63.7041 51.2455 63.639 51.3817C63.1449 51.3302 62.6594 51.2158 62.1943 51.0415C60.8571 50.4906 56.4197 49.251 55.1308 50.1228C53.8419 50.9947 50.7402 51.7853 52.1725 55.2947C53.6048 58.8042 54.272 58.8924 54.272 58.8924C54.7128 59.2121 55.0996 59.6004 55.4175 60.0424C55.8476 60.6884 59.855 62.1663 60.8571 62.1663C61.2831 62.1597 61.709 62.1809 62.1323 62.2297C62.1323 62.2297 61.0446 63.1828 61.1894 63.7365C61.3341 64.2902 60.8585 68.7225 60.8585 68.7225C60.8585 68.7225 61.9613 69.8326 62.4328 68.3767L62.4493 68.3988C62.5375 68.5186 63.0145 69.0599 63.9119 68.3767C64.2792 68.0983 64.6693 67.8514 65.0781 67.6385L69.4232 67.0242C69.8762 66.9959 70.3305 66.9927 70.7838 67.0145C71.4731 67.071 72.1499 66.6633 72.5759 66.3479C73.4761 66.6895 74.4879 67.0628 74.969 67.1991C75.945 67.4746 80.4307 68.677 81.4797 68.301C81.6978 68.2144 81.8917 68.0764 82.0449 67.8988L83.0457 67.9305L82.577 68.0241C82.577 68.0241 83.4896 68.0393 84.7303 68.0558L84.6779 68.0861L86.2342 68.0723C88.5115 68.093 91.07 68.0999 91.4064 68.0241C91.933 67.9071 94.6694 67.9897 95.4758 68.0241H95.7005C95.7005 68.0241 98.707 67.425 97.4664 64.3769C96.5124 62.0355 93.5803 61.355 92.279 61.1677C92.6457 61.0947 92.9614 61.0383 93.1709 61.0052C94.0794 60.8675 95.8439 60.0411 95.9872 59.7587C96.1306 59.4764 97.6097 58.6568 97.9916 58.1899C98.3734 57.723 99.4638 54.4132 98.5581 51.9657ZM73.6553 58.8152L73.5078 58.8634L73.4085 58.8965L73.2183 59.0838C73.0666 58.9819 72.904 58.8745 72.7344 58.7643C73.0336 58.7822 73.341 58.8001 73.6553 58.8152Z" fill="url(#paint0_linear)"/>
<path d="M82.4443 44.2924C82.4443 44.2924 84.5535 49.8018 85.7528 49.2509C86.9521 48.6999 86.6267 46.3585 86.8556 45.7166C87.0844 45.0748 87.3381 40.2072 87.3381 40.2072C87.3381 40.2072 87.4539 36.7639 87.6827 36.0669C87.895 35.4265 88.0673 32.1966 88.0962 31.6884C88.0962 31.6443 88.0962 31.6209 88.0962 31.6209L87.8688 27.6266L86.5813 27.3057L83.5954 28.4075L83.1818 30.7669L83.0206 31.6884L82.9516 32.0809L82.4443 44.2924Z" fill="#BE6F72"/>
<path opacity="0.1" d="M83.1396 43.3699C83.1396 43.3699 85.1523 45.0158 85.7588 45.1604C86.3654 45.305 86.7376 46.5887 86.7376 46.5887" fill="black"/>
<path d="M65.9507 44.5336C65.9507 44.5336 63.8416 50.043 62.6423 49.4921C61.443 48.9411 61.7683 46.5997 61.5395 45.9578C61.3107 45.316 61.057 40.4484 61.057 40.4484C61.057 40.4484 60.9412 37.0051 60.7124 36.3082C60.5001 35.6677 60.3278 32.4378 60.2988 31.9296C60.2988 31.8855 60.2988 31.8621 60.2988 31.8621L60.5277 27.8678L61.8152 27.5469L64.8011 28.6487L65.2146 31.0081L65.3759 31.9296L65.4448 32.3221L65.9507 44.5336Z" fill="#BE6F72"/>
<path d="M79.6852 15.0503H74.9775V22.3819H79.6852V15.0503Z" fill="#3E373A"/>
<path opacity="0.1" d="M79.6852 15.0503H74.9775V22.3819H79.6852V15.0503Z" fill="black"/>
<path d="M65.1241 50.0211C65.1241 50.0211 63.5154 51.7882 64.1123 52.1091C64.7092 52.43 68.5704 58.4449 68.5704 58.4449C68.5704 58.4449 81.2527 60.0054 83.6445 57.6639C86.0362 55.3225 85.9879 51.1395 85.9879 51.1395C85.9879 51.1395 84.0663 51.5527 83.8567 51.3282C83.6472 51.1037 82.4962 50.0211 82.4962 50.0211C82.4962 50.0211 66.2269 49.0349 65.1241 50.0211Z" fill="#4B4B5B"/>
<path opacity="0.02" d="M65.1241 50.0211C65.1241 50.0211 63.5154 51.7882 64.1123 52.1091C64.7092 52.43 68.5704 58.4449 68.5704 58.4449C68.5704 58.4449 81.2527 60.0054 83.6445 57.6639C86.0362 55.3225 85.9879 51.1395 85.9879 51.1395C85.9879 51.1395 84.0663 51.5527 83.8567 51.3282C83.6472 51.1037 82.4962 50.0211 82.4962 50.0211C82.4962 50.0211 66.2269 49.0349 65.1241 50.0211Z" fill="black"/>
<path d="M87.9553 27.6846L83.8197 30.9903L82.5694 31.0812L82.1104 31.1142L74.4003 31.6789L66.4049 31.0949L65.2153 31.0082L63.6989 30.898L60.5283 27.8678C60.5283 27.8678 62.7725 25.4657 64.7383 23.8446C65.513 23.2041 66.245 22.6863 66.7785 22.4824L66.8695 22.4507C67.205 22.32 67.5046 22.1113 67.7435 21.842C69.2957 20.2429 70.7307 16.2968 70.7307 16.2968C70.7307 16.2968 77.5778 12.7625 76.7507 17.3986C75.9236 22.0348 79.8289 20.8888 79.8289 20.8888L81.1165 21.4756L81.6251 21.7083L82.9223 22.302L85.8489 23.6435C88.1455 24.6999 87.9553 27.6846 87.9553 27.6846Z" fill="#BE6F72"/>
<path opacity="0.1" d="M74.0787 20.072C77.4796 20.072 80.2365 17.3174 80.2365 13.9194C80.2365 10.5215 77.4796 7.76685 74.0787 7.76685C70.6779 7.76685 67.9209 10.5215 67.9209 13.9194C67.9209 17.3174 70.6779 20.072 74.0787 20.072Z" fill="black"/>
<path opacity="0.1" d="M87.9642 32.0672H60.2988C60.2988 32.0232 60.2988 31.9998 60.2988 31.9998L60.5277 28.0055C60.5277 28.0055 62.7719 25.6034 64.7376 23.9822L82.1069 23.2936L82.9147 22.4424L85.8413 23.7839C88.1393 24.839 87.9546 27.8237 87.9546 27.8237C87.9546 27.8237 88.2689 31.2822 87.9642 32.0672Z" fill="black"/>
<path d="M87.9642 31.9296H60.2988C60.2988 31.8855 60.2988 31.8621 60.2988 31.8621L60.5277 27.8678C60.5277 27.8678 62.7719 25.4657 64.7376 23.8446L82.1069 23.1559L82.9147 22.3047L85.8413 23.6462C88.1393 24.7013 87.9546 27.686 87.9546 27.686C87.9546 27.686 88.2689 31.1445 87.9642 31.9296Z" fill="#E7C7CA"/>
<path opacity="0.1" d="M69.644 20.7291C69.644 20.7291 74.0084 26.2853 79.8216 20.6147C85.6348 14.9442 80.4654 33.2629 80.4654 33.2629L67.9209 34.7504L69.644 20.7291Z" fill="black"/>
<path d="M69.644 21.0044C69.644 21.0044 74.0084 26.5606 79.8216 20.8901C85.6348 15.2196 80.4654 33.5383 80.4654 33.5383L67.9209 35.0258L69.644 21.0044Z" fill="#E7C7CA"/>
<path opacity="0.1" d="M81.6176 21.9797L82.0794 29.0165L82.5743 31.358L82.952 33.1486C82.952 33.1486 83.917 46.922 83.6413 47.6107C83.3656 48.2993 83.7791 48.8503 83.837 49.2167C83.8949 49.583 83.7791 50.5031 83.8246 50.9163C83.8701 51.3295 83.8246 51.5127 82.7687 51.3653C81.7128 51.2179 80.2405 50.9617 80.2405 50.9617C80.2405 50.9617 76.5185 51.2372 75.2324 50.7786C73.9462 50.3199 71.5104 50.3185 71.5104 50.3185C71.5104 50.3185 67.8339 50.4108 66.6401 50.2731C65.4463 50.1353 64.8011 51.7427 64.0209 51.2827C63.2407 50.8226 64.939 46.3711 65.4904 45.0846C66.0418 43.7982 64.7557 40.5394 64.7557 40.5394L66.4099 31.3704L66.7779 29.292V22.7579L66.8689 22.7262C67.2045 22.5955 67.5041 22.3868 67.7429 22.1174L68.1564 28.6929L81.1145 29.1529V21.7524" fill="black"/>
<path d="M81.6176 21.7043L82.0794 28.7412L82.5743 31.0826L82.952 32.8732C82.952 32.8732 83.917 46.6466 83.6413 47.3353C83.3656 48.024 83.7791 48.5749 83.837 48.9413C83.8949 49.3076 83.7791 50.2277 83.8246 50.6409C83.8701 51.0541 83.8246 51.2373 82.7687 51.0899C81.7128 50.9425 80.2405 50.6864 80.2405 50.6864C80.2405 50.6864 76.5185 50.9618 75.2324 50.5032C73.9462 50.0445 71.5104 50.0431 71.5104 50.0431C71.5104 50.0431 67.8339 50.1354 66.6401 49.9977C65.4463 49.86 64.8011 51.4673 64.0209 51.0073C63.2407 50.5472 64.939 46.0957 65.4904 44.8092C66.0418 43.5228 64.7557 40.264 64.7557 40.264L66.4099 31.095L66.7779 29.0166V22.4825L66.8689 22.4508C67.2045 22.3201 67.5041 22.1114 67.7429 21.842L68.1564 28.4175L81.1145 28.8775V21.4771" fill="#E7C7CA"/>
<path opacity="0.1" d="M83.1083 7.01893C83.0297 6.73106 82.9208 6.43218 82.6947 6.23935C82.4789 6.08447 82.2295 5.98255 81.9669 5.94184C81.3381 5.77664 80.6989 5.65424 80.0535 5.57547C79.9613 5.26963 79.8218 4.9801 79.6399 4.71739C78.289 2.81114 76.2902 1.01371 73.9384 0.607395C72.7074 0.393907 71.2806 0.585358 70.4921 1.55501C70.0593 2.08804 69.8732 2.79462 69.4362 3.31801C68.5939 4.33449 67.0734 4.45982 66.0119 5.24629C65.4454 5.65949 65.0346 6.25863 64.6334 6.83987C64.1992 7.46932 63.7525 8.12493 63.6147 8.87696C63.339 10.3796 64.3329 11.8121 64.5163 13.3285C64.9298 16.7209 61.2905 19.7304 61.9784 23.0774C62.3795 25.0291 64.184 26.4036 66.0505 27.1006C66.7081 27.3471 67.4594 27.5923 67.7668 28.2231C67.9046 28.4986 67.9281 28.8168 68.0577 29.095C68.4933 30.0233 69.9255 30.0591 70.6948 29.3828C71.464 28.7066 71.7066 27.613 71.7976 26.5923C72.167 22.1353 70.3805 17.7319 70.5886 13.2638C70.6506 11.9126 71.0311 10.3796 72.2428 9.7681C73.8736 8.9417 75.8352 10.319 77.6301 10.056C78.4794 12.1208 78.6597 14.3997 78.1456 16.5722C77.8603 17.7608 77.3668 18.9137 77.3309 20.1395C77.2772 22.0058 78.2849 23.7109 79.1561 25.361C79.343 25.6696 79.4681 26.0115 79.5242 26.3678C79.5379 26.7294 79.4705 27.0894 79.327 27.4215C78.8349 28.7451 77.9857 29.9737 77.8892 31.3827C77.861 31.5472 77.8981 31.7162 77.9926 31.8538C78.0897 31.9456 78.2151 32.0019 78.3483 32.0136C79.8371 32.2684 81.1246 30.9503 81.8511 29.6266C82.6611 28.1647 83.133 26.5401 83.2324 24.872C83.3826 22.0678 82.3763 19.309 82.4383 16.5019C82.51 13.3106 83.9533 10.0973 83.1083 7.01893Z" fill="black"/>
<path d="M83.246 6.88123C83.1674 6.59337 83.0585 6.29448 82.8324 6.10165C82.6165 5.94677 82.3672 5.84485 82.1045 5.80415C81.4758 5.63895 80.8365 5.51654 80.1912 5.43778C80.099 5.13194 79.9594 4.8424 79.7776 4.57969C78.4267 2.67345 76.4278 0.876016 74.0761 0.4697C72.8451 0.256212 71.4183 0.447662 70.6298 1.41731C70.1969 1.95034 70.0108 2.65692 69.5739 3.18031C68.7316 4.19679 67.2111 4.32213 66.1496 5.10859C65.5831 5.52179 65.1723 6.12094 64.7711 6.70218C64.3369 7.33162 63.8902 7.98724 63.7524 8.73927C63.4767 10.2419 64.4706 11.6744 64.6539 13.1908C65.0675 16.5832 61.4282 19.5927 62.1161 22.9397C62.5172 24.8914 64.3217 26.266 66.1882 26.9629C66.8458 27.2094 67.5971 27.4546 67.9045 28.0854C68.0423 28.3609 68.0658 28.6791 68.1953 28.9573C68.631 29.8856 70.0632 29.9214 70.8324 29.2451C71.6016 28.5689 71.8443 27.4753 71.9352 26.4547C72.3047 21.9976 70.5181 17.5942 70.7263 13.1261C70.7883 11.7749 71.1688 10.2419 72.3805 9.63041C74.0113 8.804 75.9729 10.1813 77.7677 9.91827C78.6171 11.9831 78.7974 14.262 78.2833 16.4345C77.998 17.6231 77.5044 18.776 77.4686 20.0018C77.4148 21.8681 78.4225 23.5732 79.2938 25.2233C79.4807 25.5319 79.6057 25.8738 79.6618 26.2301C79.6755 26.5917 79.6082 26.9517 79.4647 27.2838C78.9726 28.6074 78.1234 29.836 78.0269 31.245C77.9986 31.4095 78.0357 31.5785 78.1303 31.7161C78.2274 31.8079 78.3528 31.8642 78.4859 31.8759C79.9747 32.1307 81.2623 30.8126 81.9888 29.4889C82.7987 28.027 83.2707 26.4024 83.37 24.7343C83.5203 21.9301 82.514 19.1713 82.576 16.3642C82.6477 13.1729 84.091 9.95959 83.246 6.88123Z" fill="#3E373A"/>
<path d="M80.2002 67.8657L85.6688 68.0407L84.8844 63.9885L80.6951 64.3866L80.2002 67.8657Z" fill="#C3C7D9"/>
<path d="M97.1455 58.2617C96.7774 58.7203 95.3534 59.5468 95.2156 59.8222C95.0777 60.0977 93.378 60.9241 92.504 61.0618C91.6301 61.1996 88.8744 61.7973 88.3685 62.1183C88.006 62.3496 85.0959 63.0824 83.1839 63.4887C82.666 63.6111 82.1419 63.7054 81.6138 63.7711C80.7867 63.8165 71.7354 60.7409 71.7354 60.7409L73.4805 58.9504L73.577 58.9173C74.0706 58.7506 76.3506 57.9807 77.6161 57.6143C79.0415 57.2011 80.6957 55.5029 80.6957 55.5029C80.6957 55.5029 83.1302 54.6765 83.4527 54.5842C83.7753 54.4919 82.6256 51.3708 82.6256 51.3708C82.6256 51.3708 87.9095 50.6381 89.9772 50.0169C92.045 49.3957 96.8243 49.6258 97.6969 52.0595C98.5695 54.4933 97.5191 57.803 97.1455 58.2617Z" fill="#4B4B5B"/>
<path d="M73.067 66.0202C73.067 66.0202 72.011 67.1221 70.9537 67.0312C69.8964 66.9403 66.1992 67.3066 66.1992 67.3066C65.5292 67.5737 64.9018 67.937 64.3368 68.3851C63.4725 69.0655 63.0135 68.5228 62.928 68.4071L62.9128 68.3851C62.4524 69.8327 61.3965 68.7294 61.3965 68.7294C61.3965 68.7294 61.8555 64.3219 61.7149 63.771C61.5743 63.2201 62.6234 62.2738 62.6234 62.2738L63.864 61.9584L67.007 61.1541L71.5106 62.7146L73.067 66.0202Z" fill="#E7C7CA"/>
<path opacity="0.1" d="M63.8585 61.9585L62.928 68.4072L62.9129 68.3852C62.4524 69.8327 61.3965 68.7295 61.3965 68.7295C61.3965 68.7295 61.8555 64.322 61.7149 63.7711C61.5743 63.2201 62.6234 62.2739 62.6234 62.2739L63.8585 61.9585Z" fill="black"/>
<path opacity="0.1" d="M70.3623 43.615C70.3623 43.615 72.7968 44.4414 74.9114 43.615H70.3623Z" fill="black"/>
<path opacity="0.1" d="M78.6729 45.1768C78.6729 45.1768 79.6833 45.6809 80.4649 45.1768H78.6729Z" fill="black"/>
<path opacity="0.1" d="M78.6729 46.3725C78.6729 46.3725 80.3726 46.5998 80.6952 46.1411L78.6729 46.3725Z" fill="black"/>
<path opacity="0.1" d="M78.1221 48.9409C78.1221 48.9409 81.3147 48.5277 82.1074 47.9768L78.1221 48.9409Z" fill="black"/>
<path opacity="0.1" d="M68.3799 47.9768C68.3799 47.9768 70.172 48.9864 71.505 48.9409L68.3799 47.9768Z" fill="black"/>
<path opacity="0.1" d="M83.182 63.4886C82.6641 63.611 82.1399 63.7053 81.6118 63.771C80.7847 63.8164 71.7334 60.7408 71.7334 60.7408L73.4786 58.9503L73.5751 58.9172C73.8508 59.1114 74.0769 59.2781 74.2382 59.4048C74.9977 60.0026 75.7311 59.2216 76.0068 59.2216C76.2825 59.2216 78.6715 61.1954 78.6715 61.1954C78.6715 61.1954 80.8771 61.7008 81.2452 62.1595C81.6132 62.6181 82.8994 62.5272 83.1282 62.8482C83.1971 62.9473 83.2054 63.1911 83.182 63.4886Z" fill="black"/>
<path d="M66.1987 51.5582C66.1987 51.5582 63.9682 51.6863 62.6821 51.145C61.3959 50.6037 57.1225 49.3545 55.8818 50.2318C54.6412 51.1092 51.6539 51.8847 53.0325 55.3748C54.411 58.865 55.0547 58.9559 55.0547 58.9559C55.4813 59.2755 55.8536 59.6615 56.1576 60.0991C56.5711 60.7424 60.431 62.2106 61.3959 62.2106C62.3609 62.2106 64.0606 62.2106 66.4496 63.8634C68.8385 65.5162 70.9987 65.7008 70.9987 65.7008C70.9987 65.7008 74.0314 66.9404 74.9757 67.2159C75.92 67.4913 80.2347 68.6841 81.2465 68.3177C82.2584 67.9514 82.9008 65.654 82.9008 65.654C82.9008 65.654 83.3598 63.5879 83.1296 63.267C82.8994 62.9461 81.6132 63.037 81.2465 62.5784C80.8799 62.1197 78.6728 61.6142 78.6728 61.6142C78.6728 61.6142 76.2894 59.6391 76.0137 59.6391C75.738 59.6391 75.0046 60.4187 74.2451 59.8223C72.732 58.7026 71.1424 57.69 69.4878 56.7921C67.7426 55.8734 66.1987 51.5582 66.1987 51.5582Z" fill="#4B4B5B"/>
<path opacity="0.1" d="M61.7148 52.8899C62.112 52.8088 62.5225 52.8205 62.9144 52.9239C63.3063 53.0274 63.669 53.2198 63.9742 53.4863C65.077 54.405 68.788 56.2493 68.788 56.2493" fill="black"/>
<path opacity="0.1" d="M89.2884 52.832C89.2884 52.832 84.3712 53.5758 83.4531 54.5854L89.2884 52.832Z" fill="black"/>
<path d="M94.9396 68.0408H94.7232C93.9457 68.0132 91.3113 67.9306 90.804 68.0408C90.2071 68.1785 82.3027 68.0408 82.3027 68.0408L83.8481 67.7198C83.8481 67.7198 83.2746 65.7117 83.6385 65.545C83.6385 65.545 81.5707 64.1842 83.1298 63.2655C84.6889 62.3468 86.3694 62.7339 86.3694 62.7339L90.283 61.4089L91.0343 61.1541C91.0343 61.1541 95.4455 61.3841 96.6393 64.4142C97.8331 67.4444 94.9396 68.0408 94.9396 68.0408Z" fill="#E7C7CA"/>
<path opacity="0.1" d="M94.9398 68.0407H94.7234C96.0068 66.9829 98.91 63.7627 90.2832 61.4157L91.0345 61.1609C91.0345 61.1609 95.4457 61.3909 96.6395 64.4211C97.8333 67.4512 94.9398 68.0407 94.9398 68.0407Z" fill="black"/>
<path d="M86.8301 64.4706C86.9633 64.4706 87.0714 64.3627 87.0714 64.2296C87.0714 64.0964 86.9633 63.9885 86.8301 63.9885C86.6969 63.9885 86.5889 64.0964 86.5889 64.2296C86.5889 64.3627 86.6969 64.4706 86.8301 64.4706Z" fill="#4B4B5B"/>
<path d="M85.4278 64.8688C85.561 64.8688 85.669 64.7609 85.669 64.6278C85.669 64.4946 85.561 64.3867 85.4278 64.3867C85.2945 64.3867 85.1865 64.4946 85.1865 64.6278C85.1865 64.7609 85.2945 64.8688 85.4278 64.8688Z" fill="#4B4B5B"/>
<g opacity="0.1">
<path opacity="0.1" d="M78.5977 13.6922C78.6511 12.1772 78.3814 10.6683 77.8064 9.26544C76.0143 9.53264 74.0513 8.15116 72.4192 8.97757C71.2116 9.58911 70.8325 11.1221 70.7649 12.4733C70.7484 12.83 70.7457 13.1867 70.7525 13.5435C70.7525 13.4167 70.7525 13.2887 70.7649 13.1619C70.8284 11.8108 71.2075 10.2778 72.4192 9.66624C74.0513 8.83984 76.0116 10.2172 77.8064 9.95411C78.2934 11.1423 78.5614 12.4087 78.5977 13.6922Z" fill="black"/>
<path opacity="0.1" d="M64.7097 13.44C64.7333 13.1399 64.7273 12.8382 64.6918 12.5392C64.5457 11.3272 63.8826 10.1688 63.7627 8.98706C63.6083 10.4126 64.5167 11.7817 64.6918 13.2279C64.7097 13.3023 64.7097 13.3684 64.7097 13.44Z" fill="black"/>
<path opacity="0.1" d="M71.9734 25.8003C71.8879 26.8223 71.6467 27.9145 70.8706 28.5922C70.0945 29.2698 68.6649 29.2326 68.2335 28.3043C68.0956 28.0288 68.0749 27.7079 67.9412 27.4324C67.6352 26.8016 66.8825 26.5564 66.225 26.3099C64.3571 25.6116 62.5554 24.2439 62.1542 22.2867C62.1184 22.1094 62.094 21.9299 62.0812 21.7495C62.0473 22.1595 62.0719 22.5723 62.1542 22.9753C62.5554 24.927 64.3598 26.3003 66.225 26.9986C66.8825 27.2451 67.6352 27.4903 67.9412 28.1211C68.0791 28.3966 68.1025 28.7147 68.2335 28.993C68.6677 29.9213 70.1 29.9571 70.8706 29.2808C71.6412 28.6046 71.881 27.5109 71.9734 26.489C72.0154 25.951 72.0296 25.4113 72.0161 24.8719C72.0161 25.1846 71.9982 25.4931 71.9734 25.8003Z" fill="black"/>
<path opacity="0.1" d="M82.6211 15.7114C82.6211 15.9111 82.6211 16.1094 82.6211 16.3077C82.6983 13.7459 83.6385 11.1703 83.5461 8.66211C83.4744 10.9816 82.6735 13.3533 82.6211 15.7114Z" fill="black"/>
<path opacity="0.1" d="M79.6633 26.0745C79.6972 25.9111 79.7079 25.7437 79.695 25.5773C79.6395 25.2208 79.5144 24.8787 79.3269 24.5705C78.5302 23.0554 77.6217 21.5045 77.5142 19.8228C77.5142 19.8944 77.5045 19.9605 77.5031 20.0376C77.448 21.9025 78.4557 23.6091 79.3269 25.2591C79.475 25.5147 79.5881 25.7889 79.6633 26.0745Z" fill="black"/>
<path opacity="0.1" d="M83.4133 24.0814C83.3104 25.7501 82.8352 27.3746 82.0224 28.836C81.2946 30.1596 80.0084 31.4777 78.5182 31.2229C78.3847 31.2114 78.2592 31.1545 78.1626 31.0618C78.1346 31.0302 78.1126 30.9938 78.0978 30.9543C78.0812 31.0618 78.0674 31.1706 78.0592 31.2807C78.0307 31.4448 78.0678 31.6135 78.1626 31.7504C78.2592 31.8432 78.3847 31.9001 78.5182 31.9116C80.0084 32.1664 81.2946 30.8483 82.0224 29.5246C82.8352 28.0633 83.3104 26.4387 83.4133 24.77C83.4299 24.4477 83.4312 24.1268 83.4216 23.8059C83.4188 23.8982 83.4188 23.9891 83.4133 24.0814Z" fill="black"/>
</g>
<path opacity="0.1" d="M83.6387 65.545C83.6387 65.545 87.1277 67.0078 89.4284 63.771" stroke="black" stroke-miterlimit="10"/>
<path opacity="0.1" d="M84.3252 68.1015C84.3252 68.1015 87.1746 66.2504 90.8042 68.0409" stroke="black" stroke-miterlimit="10"/>
<path opacity="0.1" d="M65.252 67.6814C65.252 67.6814 66.4485 64.9845 69.6439 67.0409" stroke="black" stroke-miterlimit="10"/>
<path opacity="0.1" d="M61.373 27.7988L63.813 25.595C63.813 25.595 73.2738 24.9752 73.6653 28.1885C73.6653 28.1885 77.0192 24.3788 84.0731 25.2273L87.0575 27.6018L78.8085 31.2187L70.7924 33.9968L64.8883 31.3564L61.373 27.7988Z" fill="black"/>
<path d="M61.373 27.9367L63.813 25.733C63.813 25.733 73.2738 25.1131 73.6653 28.3265C73.6653 28.3265 77.0192 24.5168 84.0731 25.3652L87.0575 27.7397L78.8085 31.3566L70.7924 34.1347L64.8883 31.4944L61.373 27.9367Z" fill="#D5D6DB"/>
<path opacity="0.1" d="M60.2939 28.2122L61.3733 41.1137L72.815 41.6881L72.3187 28.8416L72.3091 28.6254L60.2939 28.2122Z" fill="black"/>
<path d="M60.2939 27.9365L61.3733 40.8381L72.815 41.4125L72.3187 28.566L72.3091 28.3497L60.2939 27.9365Z" fill="#096DD9"/>
<path opacity="0.1" d="M87.5812 27.9365L75.7783 29.705V42.6644L87.3123 40.9992L87.5812 27.9365Z" fill="black"/>
<path d="M87.5812 27.6611L75.7783 29.4296V42.3891L87.3123 40.7239L87.5812 27.6611Z" fill="#096DD9"/>
<path opacity="0.3" d="M84.7985 30.8235L78.4229 31.5314L78.5621 33.7021L84.7944 33.0217L84.7985 30.8235Z" fill="white"/>
<path d="M61.9929 47.747L62.6422 49.4921C62.6422 49.4921 63.6071 50.3185 64.6631 49.9053C65.719 49.4921 66.6399 49.2868 67.0989 48.8847C67.558 48.4825 68.2017 46.4619 68.2017 46.4619C68.2017 46.4619 68.8455 44.2582 69.4879 43.7072C70.1303 43.1563 71.8313 35.5657 69.4879 36.3081C67.1444 37.0505 65.3523 43.9372 65.3523 43.9372C65.3523 43.9372 64.9388 44.4414 64.3419 44.4882C63.745 44.535 62.5498 44.3959 62.3196 44.9014C62.0894 45.4069 61.3036 46.7374 61.9929 47.747Z" fill="#BE6F72"/>
<path opacity="0.1" d="M75.7779 29.7038C75.1736 29.8398 74.5458 29.8327 73.9448 29.683C73.3437 29.5333 72.7861 29.2451 72.3164 28.8416L72.814 41.6867C72.814 41.6867 73.9858 42.9538 75.7779 42.6646V29.7038Z" fill="black"/>
<path d="M75.7779 29.4284C75.1736 29.5644 74.5458 29.5573 73.9448 29.4076C73.3437 29.2579 72.7861 28.9697 72.3164 28.5662L72.814 41.4113C72.814 41.4113 73.9858 42.6784 75.7779 42.3892V29.4284Z" fill="#096DD9"/>
<path opacity="0.1" d="M75.7779 29.4284C75.1736 29.5644 74.5458 29.5573 73.9448 29.4076C73.3437 29.2579 72.7861 28.9697 72.3164 28.5662L72.814 41.4113C72.814 41.4113 73.9858 42.6784 75.7779 42.3892V29.4284Z" fill="black"/>
<path opacity="0.1" d="M76.0537 27.9806C76.0537 27.9806 80.8551 26.5138 82.1068 26.7204L76.0537 27.9806Z" fill="black"/>
<path opacity="0.1" d="M70.6833 27.3402C70.6833 27.3402 66.0294 26.2383 65.252 26.551L70.6833 27.3402Z" fill="black"/>
<path opacity="0.1" d="M79.0811 28.1638C79.0811 28.1638 82.2916 26.9876 83.4523 27.5468L79.0811 28.1638Z" fill="black"/>
<path opacity="0.1" d="M77.4639 57.6707C77.9614 57.2974 78.4909 56.9687 79.0464 56.6886C79.8735 56.2906 81.3899 55.2576 81.3899 55.2576" fill="black"/>
<path opacity="0.1" d="M65.2522 43.615C65.2522 43.615 63.2382 45.2609 62.633 45.4055C62.0279 45.5502 61.6543 46.8338 61.6543 46.8338" fill="black"/>
<path d="M86.3974 47.5019L85.755 49.2511C85.755 49.2511 84.79 50.0775 83.7327 49.6643C82.6754 49.2511 81.7573 49.0459 81.2969 48.6437C80.8364 48.2415 80.194 46.2209 80.194 46.2209C80.194 46.2209 79.5516 44.0172 78.9079 43.4663C78.2641 42.9153 76.5644 35.3248 78.9079 36.0672C81.2514 36.8096 83.0434 43.6963 83.0434 43.6963C83.0434 43.6963 83.457 44.2004 84.0539 44.2472C84.6508 44.294 85.846 44.1549 86.0762 44.6604C86.3064 45.1659 87.0866 46.4964 86.3974 47.5019Z" fill="#BE6F72"/>
<path opacity="0.1" d="M85.2705 44.2842C85.2705 44.2842 86.587 45.1299 86.5815 46.1408L85.2705 44.2842Z" fill="black"/>
<path d="M74.1012 19.7703C77.5021 19.7703 80.259 17.0157 80.259 13.6177C80.259 10.2197 77.5021 7.46509 74.1012 7.46509C70.7003 7.46509 67.9434 10.2197 67.9434 13.6177C67.9434 17.0157 70.7003 19.7703 74.1012 19.7703Z" fill="#BE6F72"/>
<path d="M70.2337 11.9663C70.9809 11.8492 71.6356 11.4154 72.3497 11.1661C73.9474 10.6055 75.7147 10.9898 77.3317 11.4953C77.952 11.6895 78.582 11.9085 79.2326 11.9085C79.8833 11.9085 80.5739 11.6426 80.9061 11.0821C81.2122 10.5669 81.1529 9.89754 80.8951 9.35625C80.6373 8.81495 80.2059 8.37971 79.7703 7.96926C78.3366 6.61671 76.5583 5.35231 74.5912 5.49005C73.7999 5.54652 73.0431 5.82887 72.3153 6.14153C71.3988 6.53614 70.5067 6.98503 69.6437 7.48582C68.9806 7.87009 67.7524 8.38384 67.3705 9.08629C66.5021 10.6689 68.8828 12.1784 70.2337 11.9663Z" fill="#3E373A"/>
<path opacity="0.1" d="M80.9058 10.5035C80.5735 11.064 79.8829 11.3299 79.2322 11.3299C78.5816 11.3299 77.9516 11.1191 77.3299 10.9249C75.7129 10.4194 73.947 10.0338 72.3479 10.5957C71.6352 10.845 70.9791 11.2844 70.2319 11.3946C69.1429 11.5654 67.3894 10.6178 67.1992 9.4126C66.9855 10.8051 69.0188 11.9979 70.2319 11.8078C70.9791 11.6907 71.6352 11.2569 72.3479 11.0089C73.947 10.447 75.7129 10.8326 77.3299 11.3381C77.9516 11.5323 78.5802 11.7513 79.2322 11.7431C79.8843 11.7348 80.5735 11.4786 80.9058 10.9167C81.078 10.6109 81.1457 10.2575 81.0988 9.90982C81.0772 10.1191 81.0115 10.3215 80.9058 10.5035Z" fill="black"/>
<path d="M130.878 85.1487C130.878 85.1487 131.696 86.2161 130.501 87.829C129.306 89.4419 128.321 90.8027 128.718 91.8081C128.718 91.8081 130.521 88.8138 131.988 88.7711C133.455 88.7284 132.49 86.9489 130.878 85.1487Z" fill="#096DD9"/>
<path opacity="0.1" d="M130.879 85.1487C130.95 85.2518 131.006 85.3645 131.045 85.4834C132.476 87.1637 133.24 88.7325 131.863 88.7711C130.581 88.8083 129.044 91.0988 128.676 91.6759C128.688 91.7226 128.702 91.7685 128.719 91.8136C128.719 91.8136 130.522 88.8193 131.988 88.7766C133.455 88.7339 132.49 86.9489 130.879 85.1487Z" fill="black"/>
<path d="M132.395 86.5096C132.395 86.8856 132.352 87.19 132.301 87.19C132.25 87.19 132.206 86.8856 132.206 86.5096C132.206 86.1336 132.258 86.3112 132.311 86.3112C132.363 86.3112 132.395 86.1336 132.395 86.5096Z" fill="#FFD037"/>
<path d="M132.918 86.9586C132.588 87.1376 132.3 87.2464 132.275 87.201C132.25 87.1555 132.497 86.9724 132.827 86.7878C133.156 86.6032 133.026 86.7382 133.051 86.7878C133.076 86.8374 133.248 86.7782 132.918 86.9586Z" fill="#FFD037"/>
<path d="M126.558 85.1487C126.558 85.1487 125.741 86.2161 126.936 87.829C128.131 89.4419 129.115 90.8027 128.717 91.8081C128.717 91.8081 126.915 88.8138 125.447 88.7711C123.979 88.7284 124.951 86.9489 126.558 85.1487Z" fill="#096DD9"/>
<path opacity="0.1" d="M126.558 85.1487C126.487 85.2518 126.431 85.3645 126.391 85.4834C124.96 87.1637 124.197 88.7325 125.574 88.7711C126.854 88.8083 128.393 91.0988 128.761 91.6759C128.749 91.7228 128.735 91.7688 128.717 91.8136C128.717 91.8136 126.915 88.8193 125.447 88.7766C123.979 88.7339 124.951 86.9489 126.558 85.1487Z" fill="black"/>
<path d="M125.039 86.5096C125.039 86.8856 125.08 87.19 125.133 87.19C125.185 87.19 125.228 86.8856 125.228 86.5096C125.228 86.1336 125.174 86.3112 125.123 86.3112C125.072 86.3112 125.039 86.1336 125.039 86.5096Z" fill="#FFD037"/>
<path d="M124.518 86.9586C124.847 87.1376 125.136 87.2464 125.16 87.201C125.185 87.1555 124.938 86.9724 124.609 86.7878C124.28 86.6032 124.409 86.7382 124.384 86.7878C124.359 86.8374 124.187 86.7782 124.518 86.9586Z" fill="#FFD037"/>
<path opacity="0.1" d="M128.719 99.9786C133.439 99.9786 137.265 99.3922 137.265 98.6687C137.265 97.9453 133.439 97.3589 128.719 97.3589C123.998 97.3589 120.172 97.9453 120.172 98.6687C120.172 99.3922 123.998 99.9786 128.719 99.9786Z" fill="#096DD9"/>
<path d="M133.117 90.3687L133.076 90.702L133.018 91.1731L132.994 91.37L132.937 91.8411L132.912 92.0381L132.855 92.5077L132.2 97.8656C132.143 98.3435 131.361 98.7168 130.417 98.7168H127.019C126.074 98.7168 125.294 98.3435 125.235 97.8656L124.58 92.5077L124.522 92.0381L124.499 91.8411L124.441 91.37L124.416 91.1731L124.359 90.702L124.318 90.3687C124.286 90.0933 124.708 89.8701 125.243 89.8701H132.194C132.727 89.8701 133.15 90.0974 133.117 90.3687Z" fill="#65617D"/>
<path d="M133.077 90.7021L133.02 91.1732H124.418L124.36 90.7021H133.077Z" fill="#9D9CB5"/>
<path d="M132.995 91.3701L132.939 91.8412H124.499L124.441 91.3701H132.995Z" fill="#9D9CB5"/>
<path d="M132.914 92.0381L132.856 92.5091H124.581L124.524 92.0381H132.914Z" fill="#9D9CB5"/>
</g>
<defs>
<linearGradient id="paint0_linear" x1="75.355" y1="69.1315" x2="75.355" y2="-6.18195e-05" gradientUnits="userSpaceOnUse">
<stop stop-color="#808080" stop-opacity="0.25"/>
<stop offset="0.54" stop-color="#808080" stop-opacity="0.12"/>
<stop offset="1" stop-color="#808080" stop-opacity="0.1"/>
</linearGradient>
<clipPath id="clip0">
<rect width="141" height="112" fill="white"/>
</clipPath>
</defs>
</svg>
