<svg width="95" height="85" viewBox="0 0 95 85" fill="none" xmlns="http://www.w3.org/2000/svg">
<g clip-path="url(#clip0)">
<path d="M94.1666 32.5057C94.1325 32.5057 94.0993 32.4953 94.0714 32.4759L47.9783 0.480436C47.838 0.383521 47.6713 0.331728 47.5007 0.332018C47.33 0.332308 47.1635 0.384667 47.0235 0.482059L1.26242 32.4756C1.22623 32.5009 1.18143 32.5109 1.13789 32.5033C1.09434 32.4956 1.05561 32.4711 1.03023 32.435C1.00484 32.3989 0.994868 32.3543 1.00251 32.3109C1.01015 32.2675 1.03478 32.2289 1.07098 32.2036L46.8321 0.210003C47.0281 0.0736755 47.2612 0.00039298 47.5001 1.57609e-06C47.7391 -0.000389828 47.9724 0.072128 48.1688 0.207813L94.2619 32.2032C94.2911 32.2235 94.3129 32.2524 94.3244 32.2859C94.3359 32.3194 94.3363 32.3556 94.3257 32.3894C94.315 32.4231 94.2939 32.4526 94.2652 32.4735C94.2366 32.4945 94.202 32.5057 94.1666 32.5057L94.1666 32.5057Z" fill="#3F3D56"/>
<path d="M3.87695 33.64L47.5456 1.38208L91.5456 35.9353L49.7956 60.6043L27.129 55.4545L3.87695 33.64Z" fill="#E6E6E6"/>
<path d="M29.043 75.8412H7.46964C7.33717 75.8414 7.20597 75.8155 7.08354 75.7651C6.9611 75.7147 6.84984 75.6407 6.75611 75.5474C6.66238 75.4541 6.58803 75.3433 6.5373 75.2214C6.48657 75.0994 6.46045 74.9687 6.46045 74.8366C6.46045 74.7046 6.48657 74.5739 6.5373 74.4519C6.58803 74.3299 6.66238 74.2191 6.75611 74.1258C6.84984 74.0325 6.9611 73.9585 7.08354 73.9081C7.20597 73.8577 7.33717 73.8319 7.46964 73.832H29.043C29.1755 73.8319 29.3067 73.8577 29.4291 73.9081C29.5516 73.9585 29.6628 74.0325 29.7566 74.1258C29.8503 74.2191 29.9246 74.3299 29.9754 74.4519C30.0261 74.5739 30.0522 74.7046 30.0522 74.8366C30.0522 74.9687 30.0261 75.0994 29.9754 75.2214C29.9246 75.3433 29.8503 75.4541 29.7566 75.5474C29.6628 75.6407 29.5516 75.7147 29.4291 75.7651C29.3067 75.8155 29.1755 75.8414 29.043 75.8412Z" fill="#096DD9"/>
<path d="M15.2097 71.5219H7.46964C7.33717 71.5221 7.20597 71.4962 7.08354 71.4458C6.9611 71.3954 6.84984 71.3214 6.75611 71.2281C6.66238 71.1348 6.58803 71.024 6.5373 70.902C6.48657 70.7801 6.46045 70.6493 6.46045 70.5173C6.46045 70.3853 6.48657 70.2545 6.5373 70.1325C6.58803 70.0106 6.66238 69.8998 6.75611 69.8065C6.84984 69.7132 6.9611 69.6392 7.08354 69.5888C7.20597 69.5384 7.33717 69.5125 7.46964 69.5127H15.2097C15.3422 69.5125 15.4734 69.5384 15.5958 69.5888C15.7182 69.6392 15.8295 69.7132 15.9232 69.8065C16.0169 69.8998 16.0913 70.0106 16.142 70.1325C16.1928 70.2545 16.2189 70.3853 16.2189 70.5173C16.2189 70.6493 16.1928 70.7801 16.142 70.902C16.0913 71.024 16.0169 71.1348 15.9232 71.2281C15.8295 71.3214 15.7182 71.3954 15.5958 71.4458C15.4734 71.4962 15.3422 71.5221 15.2097 71.5219Z" fill="#096DD9"/>
<path d="M48.16 51.6071C47.996 51.6073 47.8336 51.5756 47.6818 51.5137L20.75 40.3755V5.51099C20.7504 5.2027 20.8734 4.90713 21.0921 4.68913C21.3108 4.47113 21.6074 4.3485 21.9167 4.34814H73.5833C73.8926 4.3485 74.1892 4.47113 74.4079 4.68913C74.6266 4.90713 74.7496 5.2027 74.75 5.51099V40.3998L74.6994 40.4214L48.6527 51.5083C48.4967 51.5736 48.3292 51.6072 48.16 51.6071Z" fill="white"/>
<path d="M48.1603 51.6901C47.9855 51.6903 47.8123 51.6565 47.6504 51.5907L20.667 40.431V5.51105C20.6674 5.18072 20.7992 4.86404 21.0335 4.63047C21.2679 4.3969 21.5856 4.26551 21.917 4.26514H73.5836C73.915 4.26551 74.2328 4.3969 74.4671 4.63047C74.7015 4.86404 74.8333 5.18072 74.8336 5.51105V40.4547L48.6857 51.5847C48.5194 51.6544 48.3407 51.6903 48.1603 51.6901ZM21.0003 40.2091L47.7775 51.2835C48.0273 51.3845 48.307 51.3829 48.5555 51.2789L74.5003 40.2354V5.51105C74.5 5.26881 74.4034 5.03659 74.2315 4.8653C74.0597 4.69402 73.8267 4.59767 73.5837 4.59738H21.917C21.674 4.59767 21.441 4.69402 21.2691 4.8653C21.0973 5.03659 21.0006 5.26881 21.0003 5.51105L21.0003 40.2091Z" fill="#3F3D56"/>
<path d="M93.8333 32.1736H93.8L74.6667 40.3168L48.4884 51.4586C48.3861 51.5015 48.2763 51.5238 48.1653 51.5244C48.0544 51.525 47.9444 51.5037 47.8416 51.4619L20.8333 40.2936L1.22998 32.1869L1.20003 32.1736H1.16667C0.857353 32.1739 0.560805 32.2965 0.342087 32.5146C0.123369 32.7326 0.000343208 33.0281 0 33.3364V83.8372C0.000343649 84.1455 0.123369 84.4411 0.342087 84.6591C0.560805 84.8771 0.857353 84.9998 1.16667 85.0001H93.8333C94.1426 84.9998 94.4392 84.8771 94.6579 84.6591C94.8766 84.4411 94.9997 84.1455 95 83.8372V33.3364C94.9997 33.0281 94.8766 32.7326 94.6579 32.5146C94.4392 32.2965 94.1426 32.1739 93.8333 32.1736ZM94.6667 83.8372C94.6666 84.0575 94.5788 84.2687 94.4225 84.4245C94.2662 84.5802 94.0543 84.6678 93.8333 84.6679H1.16667C0.94568 84.6678 0.733771 84.5802 0.57751 84.4245C0.421248 84.2687 0.333422 84.0575 0.333333 83.8372V33.3364C0.333636 33.1216 0.417227 32.9153 0.56663 32.7605C0.716033 32.6057 0.919683 32.5144 1.13501 32.5058L20.8333 40.6524L47.7134 51.7692C48.0044 51.8872 48.3304 51.8854 48.62 51.7642L74.6667 40.6773L93.8667 32.5058C94.0817 32.5151 94.2848 32.6066 94.4337 32.7613C94.5827 32.916 94.6662 33.122 94.6667 33.3364V83.8372Z" fill="#3F3D56"/>
<path d="M47.891 41.7207C46.8967 41.7225 45.9288 41.4021 45.1333 40.8077L45.084 40.7708L34.6988 32.8455C34.2179 32.4782 33.8142 32.0201 33.5109 31.4973C33.2076 30.9745 33.0105 30.3973 32.931 29.7986C32.8515 29.1999 32.8911 28.5914 33.0475 28.008C33.2039 27.4245 33.4741 26.8775 33.8426 26.3981C34.2111 25.9187 34.6707 25.5164 35.1952 25.214C35.7197 24.9117 36.2989 24.7153 36.8995 24.6361C37.5002 24.5568 38.1106 24.5963 38.696 24.7522C39.2814 24.908 39.8302 25.1773 40.3112 25.5446L47.0379 30.6857L62.9342 10.0225C63.3029 9.54319 63.7627 9.14101 64.2873 8.83885C64.8119 8.5367 65.3911 8.34051 65.9918 8.26147C66.5925 8.18244 67.2029 8.22211 67.7882 8.37822C68.3736 8.53434 68.9223 8.80384 69.4031 9.17133L69.3043 9.30508L69.4057 9.17327C70.3756 9.91626 71.0102 11.0124 71.1703 12.2212C71.3304 13.4299 71.0028 14.6526 70.2596 15.621L51.5617 39.926C51.1293 40.486 50.5732 40.9393 49.9366 41.2505C49.3 41.5618 48.6 41.7226 47.891 41.7207Z" fill="#096DD9"/>
</g>
<defs>
<clipPath id="clip0">
<rect width="95" height="85" fill="white"/>
</clipPath>
</defs>
</svg>
