<svg width="101" height="95" viewBox="0 0 101 95" fill="none" xmlns="http://www.w3.org/2000/svg">
<path d="M74.7374 71.9301L23.8059 85.0455C22.0783 85.4884 20.2455 85.2278 18.7098 84.321C17.174 83.4142 16.0606 81.9353 15.6139 80.2086L0.210895 20.3938C-0.231915 18.6661 0.028654 16.8334 0.93544 15.2976C1.84223 13.7618 3.32117 12.6485 5.04782 12.2018L52.4312 0L64.5591 5.42927L79.5743 63.7381C80.0171 65.4657 79.7565 67.2985 78.8498 68.8342C77.943 70.37 76.464 71.4834 74.7374 71.9301Z" fill="#F2F2F2"/>
<path d="M5.53119 14.0773C4.3016 14.3954 3.24841 15.1882 2.60267 16.2819C1.95693 17.3756 1.77137 18.6807 2.08671 19.911L17.4897 79.7258C17.8078 80.9554 18.6007 82.0086 19.6943 82.6543C20.788 83.3001 22.0931 83.4856 23.3234 83.1703L74.2549 70.0549C75.4845 69.7367 76.5376 68.9439 77.1834 67.8502C77.8291 66.7566 78.0147 65.4514 77.6993 64.2211L62.9168 6.81581L52.2586 2.04443L5.53119 14.0773Z" fill="white"/>
<path d="M64.4302 5.7378L56.5479 7.76759C55.9725 7.91577 55.3617 7.82929 54.8501 7.52718C54.3384 7.22507 53.9677 6.73207 53.8195 6.15663L52.3203 0.334858C52.3138 0.30937 52.3145 0.282549 52.3225 0.257469C52.3305 0.23239 52.3454 0.210068 52.3655 0.193064C52.3856 0.176059 52.41 0.165059 52.4361 0.161327C52.4621 0.157595 52.4887 0.161281 52.5128 0.171962L64.4521 5.47422C64.4787 5.48602 64.5009 5.5058 64.5158 5.53081C64.5306 5.55582 64.5373 5.58482 64.5348 5.61379C64.5324 5.64277 64.5211 5.67027 64.5023 5.69249C64.4836 5.71471 64.4584 5.73055 64.4302 5.7378Z" fill="#F2F2F2"/>
<path d="M60.2823 56.8183L37.0939 62.7896C36.9515 62.8263 36.8032 62.8346 36.6575 62.8139C36.5119 62.7933 36.3717 62.7442 36.245 62.6694C36.1183 62.5946 36.0076 62.4956 35.9192 62.378C35.8308 62.2604 35.7664 62.1266 35.7297 61.9841C35.693 61.8417 35.6848 61.6934 35.7054 61.5477C35.726 61.4021 35.7751 61.2619 35.8499 61.1352C35.9247 61.0085 36.0237 60.8978 36.1413 60.8094C36.2589 60.721 36.3927 60.6566 36.5352 60.6199L59.7236 54.6487C59.866 54.612 60.0143 54.6037 60.16 54.6243C60.3056 54.645 60.4458 54.6941 60.5725 54.7689C60.6992 54.8437 60.8099 54.9427 60.8983 55.0603C60.9867 55.1778 61.0511 55.3117 61.0878 55.4541C61.1245 55.5966 61.1327 55.7449 61.1121 55.8906C61.0915 56.0362 61.0424 56.1764 60.9676 56.3031C60.8928 56.4297 60.7938 56.5404 60.6762 56.6289C60.5586 56.7173 60.4247 56.7817 60.2823 56.8183Z" fill="#CCCCCC"/>
<path d="M65.7011 59.3274L38.0378 66.451C37.7501 66.5251 37.4447 66.4819 37.1889 66.3308C36.933 66.1797 36.7477 65.9332 36.6736 65.6455C36.5995 65.3578 36.6427 65.0524 36.7938 64.7966C36.9448 64.5408 37.1913 64.3554 37.4791 64.2813L65.1424 57.1577C65.43 57.0839 65.7351 57.1273 65.9907 57.2784C66.2464 57.4295 66.4315 57.6759 66.5056 57.9634C66.5796 58.251 66.5365 58.5562 66.3856 58.8119C66.2348 59.0677 65.9886 59.2531 65.7011 59.3274Z" fill="#CCCCCC"/>
<path d="M27.6308 69.9815C29.8175 69.9815 31.5902 68.2088 31.5902 66.0221C31.5902 63.8354 29.8175 62.0627 27.6308 62.0627C25.4441 62.0627 23.6714 63.8354 23.6714 66.0221C23.6714 68.2088 25.4441 69.9815 27.6308 69.9815Z" fill="#E6E6E6"/>
<path d="M57.8175 46.4565L27.0211 54.384C26.131 54.6121 25.1869 54.4778 24.3958 54.0106C23.6047 53.5434 23.0312 52.7814 22.8011 51.8919L16.3473 26.8204C16.1193 25.9304 16.2536 24.9863 16.7208 24.1952C17.188 23.404 17.95 22.8306 18.8395 22.6005L49.6359 14.673C50.526 14.445 51.4701 14.5793 52.2612 15.0465C53.0523 15.5137 53.6258 16.2756 53.8559 17.1652L60.3096 42.2366C60.5377 43.1267 60.4034 44.0708 59.9362 44.8619C59.469 45.653 58.707 46.2265 57.8175 46.4565Z" fill="white"/>
<path d="M57.8175 46.4565L27.0211 54.384C26.131 54.6121 25.1869 54.4778 24.3958 54.0106C23.6047 53.5434 23.0312 52.7814 22.8011 51.8919L16.3473 26.8204C16.1193 25.9304 16.2536 24.9863 16.7208 24.1952C17.188 23.404 17.95 22.8306 18.8395 22.6005L49.6359 14.673C50.526 14.445 51.4701 14.5793 52.2612 15.0465C53.0523 15.5137 53.6258 16.2756 53.8559 17.1652L60.3096 42.2366C60.5377 43.1267 60.4034 44.0708 59.9362 44.8619C59.469 45.653 58.707 46.2265 57.8175 46.4565ZM18.9411 22.9953C18.1563 23.1983 17.484 23.7043 17.0717 24.4024C16.6595 25.1004 16.541 25.9335 16.7422 26.7188L23.196 51.7903C23.3989 52.5751 23.905 53.2474 24.603 53.6597C25.301 54.0719 26.1341 54.1904 26.9194 53.9892L57.7159 46.0617C58.5008 45.8587 59.173 45.3527 59.5853 44.6547C59.9975 43.9566 60.116 43.1236 59.9148 42.3383L53.461 17.2668C53.258 16.4819 52.752 15.8096 52.054 15.3974C51.3559 14.9852 50.5229 14.8666 49.7376 15.0678L18.9411 22.9953Z" fill="#E6E6E6"/>
<path d="M48.0734 23.103L32.5308 27.1039C32.395 27.1419 32.2497 27.1268 32.1245 27.0618C31.9993 26.9967 31.9035 26.8866 31.8564 26.7536C31.8345 26.6842 31.8269 26.6109 31.8342 26.5385C31.8416 26.466 31.8636 26.3958 31.8989 26.3321C31.9342 26.2684 31.9822 26.2125 32.0398 26.168C32.0975 26.1234 32.1636 26.0911 32.2341 26.0729L48.0555 22.0002C48.6946 22.3241 48.5264 22.9864 48.0732 23.1031L48.0734 23.103Z" fill="#F2F2F2"/>
<path d="M48.775 25.8291L33.2325 29.83C33.0966 29.8679 32.9514 29.8529 32.8262 29.7878C32.701 29.7228 32.6052 29.6127 32.5581 29.4797C32.5361 29.4102 32.5286 29.337 32.5359 29.2645C32.5432 29.1921 32.5652 29.1218 32.6005 29.0581C32.6359 28.9944 32.6838 28.9386 32.7415 28.894C32.7991 28.8495 32.8652 28.8172 32.9358 28.799L48.7571 24.7263C49.3963 25.0501 49.2281 25.7125 48.7749 25.8292L48.775 25.8291Z" fill="#F2F2F2"/>
<path d="M30.2723 32.2472L25.5288 33.4683C25.3739 33.508 25.2096 33.4846 25.0719 33.4033C24.9342 33.3219 24.8343 33.1893 24.7943 33.0345L23.3534 27.4368C23.3137 27.2819 23.337 27.1176 23.4184 26.9799C23.4997 26.8422 23.6323 26.7423 23.7872 26.7023L28.5306 25.4813C28.6855 25.4416 28.8498 25.465 28.9875 25.5463C29.1252 25.6276 29.2251 25.7602 29.2651 25.9151L30.706 31.5127C30.7458 31.6676 30.7224 31.832 30.6411 31.9697C30.5597 32.1074 30.4271 32.2072 30.2723 32.2472V32.2472Z" fill="#E6E6E6"/>
<path d="M50.1672 31.4229L26.4464 37.529C26.3105 37.567 26.1653 37.5519 26.0401 37.4869C25.9149 37.4218 25.819 37.3117 25.7719 37.1787C25.75 37.1092 25.7425 37.036 25.7498 36.9636C25.7571 36.8911 25.7791 36.8208 25.8144 36.7571C25.8498 36.6934 25.8977 36.6376 25.9553 36.5931C26.013 36.5485 26.0791 36.5162 26.1496 36.498L50.1494 30.3201C50.7885 30.6439 50.6204 31.3063 50.1672 31.4229L50.1672 31.4229Z" fill="#F2F2F2"/>
<path d="M50.8683 34.15L27.1475 40.2561C27.0116 40.294 26.8664 40.2789 26.7412 40.2139C26.616 40.1489 26.5202 40.0387 26.4731 39.9058C26.4512 39.8363 26.4436 39.7631 26.4509 39.6906C26.4582 39.6181 26.4802 39.5479 26.5156 39.4842C26.5509 39.4205 26.5989 39.3647 26.6565 39.3201C26.7142 39.2756 26.7803 39.2432 26.8508 39.225L50.8506 33.0471C51.4897 33.3709 51.3216 34.0333 50.8683 34.15V34.15Z" fill="#F2F2F2"/>
<path d="M51.5695 36.8753L27.8487 42.9814C27.7128 43.0194 27.5676 43.0043 27.4424 42.9393C27.3172 42.8742 27.2214 42.7641 27.1743 42.6311C27.1524 42.5616 27.1448 42.4884 27.1521 42.4159C27.1594 42.3435 27.1814 42.2732 27.2168 42.2095C27.2521 42.1458 27.3001 42.09 27.3577 42.0455C27.4153 42.0009 27.4814 41.9686 27.552 41.9504L51.5518 35.7725C52.1909 36.0963 52.0227 36.7586 51.5695 36.8753Z" fill="#F2F2F2"/>
<path d="M52.2722 39.6021L28.5513 45.7082C28.4155 45.7462 28.2702 45.7311 28.145 45.6661C28.0199 45.601 27.924 45.4909 27.8769 45.3579C27.855 45.2884 27.8474 45.2152 27.8548 45.1427C27.8621 45.0703 27.8841 45 27.9194 44.9363C27.9547 44.8726 28.0027 44.8168 28.0603 44.7723C28.118 44.7277 28.1841 44.6954 28.2546 44.6772L52.2544 38.4993C52.8935 38.8231 52.7254 39.4855 52.2722 39.6021L52.2722 39.6021Z" fill="#F2F2F2"/>
<path d="M52.9743 42.3277L29.2535 48.4338C29.1176 48.4717 28.9724 48.4567 28.8472 48.3916C28.722 48.3266 28.6262 48.2165 28.5791 48.0835C28.5571 48.014 28.5496 47.9408 28.5569 47.8683C28.5642 47.7959 28.5862 47.7256 28.6215 47.6619C28.6569 47.5982 28.7048 47.5424 28.7625 47.4978C28.8201 47.4533 28.8862 47.4209 28.9568 47.4028L52.9566 41.2249C53.5957 41.5487 53.4275 42.211 52.9743 42.3277Z" fill="#F2F2F2"/>
<path d="M27.9219 67.41C27.8357 67.4323 27.7446 67.426 27.6622 67.3921L27.6571 67.39L26.5785 66.9327C26.5284 66.9115 26.483 66.8806 26.4449 66.8419C26.4068 66.8031 26.3767 66.7573 26.3563 66.7069C26.3359 66.6565 26.3257 66.6025 26.3262 66.5482C26.3267 66.4938 26.3379 66.4401 26.3591 66.3901C26.3804 66.3401 26.4113 66.2947 26.4501 66.2567C26.489 66.2186 26.5349 66.1886 26.5853 66.1683C26.6357 66.148 26.6897 66.1378 26.744 66.1384C26.7984 66.139 26.8521 66.1503 26.9021 66.1716L27.601 66.4689L28.5169 64.3144C28.5381 64.2644 28.569 64.2191 28.6077 64.1811C28.6465 64.1431 28.6923 64.1131 28.7427 64.0927C28.793 64.0724 28.8469 64.0623 28.9011 64.0628C28.9554 64.0633 29.0091 64.0745 29.059 64.0957L29.0592 64.0958L29.0537 64.1098L29.0594 64.0957C29.1602 64.1387 29.2398 64.22 29.2808 64.3216C29.3218 64.4233 29.3208 64.537 29.278 64.638L28.2005 67.1712C28.1755 67.2296 28.1374 67.2815 28.0891 67.3228C28.0409 67.3641 27.9837 67.3937 27.9222 67.4094L27.9219 67.41Z" fill="white"/>
<path d="M94.2727 94.7239H41.6796C39.8961 94.7219 38.1863 94.0125 36.9252 92.7514C35.664 91.4902 34.9547 89.7804 34.9526 87.9969V26.2307C34.9547 24.4472 35.664 22.7373 36.9252 21.4762C38.1863 20.2151 39.8961 19.5057 41.6796 19.5037H90.6089L101 27.7858V87.9969C100.998 89.7804 100.288 91.4902 99.0272 92.7514C97.766 94.0125 96.0562 94.7219 94.2727 94.7239Z" fill="#E6E6E6"/>
<path d="M41.6796 21.4404C40.4095 21.4419 39.1919 21.947 38.2938 22.8451C37.3958 23.7432 36.8906 24.9608 36.8892 26.2309V87.9971C36.8906 89.2672 37.3958 90.4848 38.2938 91.3829C39.1919 92.2809 40.4095 92.7861 41.6796 92.7875H94.2726C95.5427 92.7861 96.7603 92.2809 97.6584 91.3829C98.5565 90.4848 99.0616 89.2672 99.0631 87.9971V28.719L89.9314 21.4404H41.6796Z" fill="white"/>
<path d="M84.0441 39.4001H60.0992C59.8021 39.4001 59.5172 39.2821 59.3071 39.072C59.097 38.8619 58.979 38.577 58.979 38.2799C58.979 37.9828 59.097 37.6979 59.3071 37.4878C59.5172 37.2777 59.8021 37.1597 60.0992 37.1597H84.0441C84.3412 37.1597 84.6261 37.2777 84.8362 37.4878C85.0463 37.6979 85.1643 37.9828 85.1643 38.2799C85.1643 38.577 85.0463 38.8619 84.8362 39.072C84.6261 39.2821 84.3412 39.4001 84.0441 39.4001Z" fill="#096DD9"/>
<path d="M88.6645 43.1811H60.0987C59.8019 43.1807 59.5173 43.0625 59.3076 42.8525C59.0978 42.6424 58.98 42.3577 58.98 42.0609C58.98 41.7641 59.0978 41.4794 59.3076 41.2693C59.5173 41.0593 59.8019 40.9411 60.0987 40.9407H88.6645C88.8117 40.9405 88.9576 40.9693 89.0937 41.0255C89.2297 41.0817 89.3534 41.1642 89.4576 41.2682C89.5618 41.3723 89.6444 41.4958 89.7008 41.6319C89.7572 41.7679 89.7862 41.9137 89.7862 42.0609C89.7862 42.2081 89.7572 42.3539 89.7008 42.4899C89.6444 42.626 89.5618 42.7495 89.4576 42.8536C89.3534 42.9576 89.2297 43.0401 89.0937 43.0963C88.9576 43.1525 88.8117 43.1813 88.6645 43.1811Z" fill="#096DD9"/>
<path d="M84.0432 54.1025H60.0992C59.8021 54.1025 59.5172 54.2206 59.3071 54.4306C59.097 54.6407 58.979 54.9256 58.979 55.2227C58.979 55.5198 59.097 55.8047 59.3071 56.0148C59.5172 56.2248 59.8021 56.3428 60.0992 56.3428H84.0432C84.3403 56.3428 84.6252 56.2248 84.8353 56.0148C85.0454 55.8047 85.1634 55.5198 85.1634 55.2227C85.1634 54.9256 85.0454 54.6407 84.8353 54.4306C84.6252 54.2206 84.3403 54.1025 84.0432 54.1025Z" fill="#CCCCCC"/>
<path d="M88.6645 57.884H60.0992C59.8021 57.884 59.5172 58.0021 59.3071 58.2121C59.097 58.4222 58.979 58.7071 58.979 59.0042C58.979 59.3013 59.097 59.5862 59.3071 59.7962C59.5172 60.0063 59.8021 60.1243 60.0992 60.1243H88.6645C88.9616 60.1243 89.2465 60.0063 89.4565 59.7962C89.6666 59.5862 89.7846 59.3013 89.7846 59.0042C89.7846 58.7071 89.6666 58.4222 89.4565 58.2121C89.2465 58.0021 88.9616 57.884 88.6645 57.884Z" fill="#CCCCCC"/>
<path d="M84.0441 73.2871H60.0992C59.8021 73.2871 59.5172 73.1691 59.3071 72.959C59.097 72.7489 58.979 72.464 58.979 72.1669C58.979 71.8698 59.097 71.5848 59.3071 71.3747C59.5172 71.1647 59.8021 71.0466 60.0992 71.0466H84.0441C84.3412 71.0466 84.6261 71.1647 84.8362 71.3747C85.0463 71.5848 85.1643 71.8698 85.1643 72.1669C85.1643 72.464 85.0463 72.7489 84.8362 72.959C84.6261 73.1691 84.3412 73.2871 84.0441 73.2871Z" fill="#CCCCCC"/>
<path d="M88.6645 77.0679H60.0987C59.8019 77.0675 59.5173 76.9493 59.3076 76.7392C59.0978 76.5292 58.98 76.2445 58.98 75.9476C58.98 75.6508 59.0978 75.3661 59.3076 75.156C59.5173 74.946 59.8019 74.8278 60.0987 74.8274H88.6645C88.8117 74.8272 88.9576 74.856 89.0937 74.9122C89.2297 74.9684 89.3534 75.0509 89.4576 75.155C89.5618 75.259 89.6444 75.3826 89.7008 75.5186C89.7572 75.6546 89.7862 75.8004 89.7862 75.9476C89.7862 76.0949 89.7572 76.2407 89.7008 76.3767C89.6444 76.5127 89.5618 76.6362 89.4576 76.7403C89.3534 76.8443 89.2297 76.9268 89.0937 76.983C88.9576 77.0392 88.8117 77.0681 88.6645 77.0679Z" fill="#CCCCCC"/>
<path d="M50.1269 44.13C52.3136 44.13 54.0863 42.3573 54.0863 40.1706C54.0863 37.9839 52.3136 36.2112 50.1269 36.2112C47.9402 36.2112 46.1675 37.9839 46.1675 40.1706C46.1675 42.3573 47.9402 44.13 50.1269 44.13Z" fill="#096DD9"/>
<path d="M49.7343 41.6807C49.6452 41.6809 49.5585 41.6521 49.4872 41.5986L49.4828 41.5953L48.5523 40.8835C48.5091 40.8505 48.4728 40.8093 48.4455 40.7623C48.4182 40.7153 48.4004 40.6633 48.3933 40.6094C48.3861 40.5555 48.3896 40.5007 48.4036 40.4482C48.4177 40.3956 48.4419 40.3464 48.475 40.3032C48.5081 40.2601 48.5493 40.2238 48.5964 40.1967C48.6435 40.1695 48.6955 40.1519 48.7495 40.1448C48.8034 40.1377 48.8582 40.1414 48.9107 40.1555C48.9632 40.1696 49.0124 40.194 49.0555 40.2272L49.6582 40.6894L51.0824 38.8313C51.1154 38.7882 51.1566 38.7521 51.2036 38.7249C51.2506 38.6977 51.3025 38.6801 51.3563 38.673C51.4101 38.6659 51.4648 38.6694 51.5172 38.6835C51.5697 38.6975 51.6188 38.7217 51.6619 38.7547L51.662 38.7548L51.6532 38.7671L51.6623 38.7548C51.7492 38.8216 51.806 38.9202 51.8204 39.0288C51.8347 39.1375 51.8054 39.2474 51.7387 39.3345L50.0635 41.519C50.0248 41.5693 49.9749 41.61 49.9179 41.638C49.8609 41.666 49.7981 41.6804 49.7346 41.6802L49.7343 41.6807Z" fill="white"/>
<path d="M54.4945 57.1134C54.4947 57.6334 54.3924 58.1484 54.1936 58.6289C53.9947 59.1094 53.7032 59.546 53.3356 59.9138C52.9679 60.2816 52.5315 60.5734 52.0511 60.7725C51.5707 60.9716 51.0558 61.0741 50.5358 61.0742C50.5017 61.0748 50.4677 61.0735 50.4338 61.0701C49.6553 61.0501 48.9 60.801 48.2623 60.3539C47.6247 59.9068 47.1331 59.2816 46.849 58.5565C46.5649 57.8313 46.501 57.0385 46.6652 56.2773C46.8294 55.516 47.2145 54.8201 47.7723 54.2766C48.3301 53.7331 49.0357 53.3662 49.801 53.2218C50.5663 53.0773 51.3571 53.1618 52.0746 53.4646C52.7921 53.7674 53.4044 54.275 53.8348 54.924C54.2653 55.5731 54.4947 56.3346 54.4945 57.1134Z" fill="#CCCCCC"/>
<path d="M50.1269 78.0167C52.3136 78.0167 54.0863 76.244 54.0863 74.0573C54.0863 71.8706 52.3136 70.0979 50.1269 70.0979C47.9402 70.0979 46.1675 71.8706 46.1675 74.0573C46.1675 76.244 47.9402 78.0167 50.1269 78.0167Z" fill="#CCCCCC"/>
<path d="M100.797 28.0526H92.6575C92.0632 28.0526 91.4934 27.8165 91.0732 27.3964C90.653 26.9762 90.417 26.4063 90.417 25.8121V19.8004C90.417 19.7741 90.4244 19.7483 90.4384 19.726C90.4524 19.7037 90.4724 19.6858 90.4961 19.6744C90.5198 19.6629 90.5462 19.6584 90.5724 19.6612C90.5985 19.6641 90.6233 19.6743 90.644 19.6907L100.884 27.8028C100.907 27.8209 100.923 27.8455 100.931 27.8735C100.94 27.9014 100.939 27.9311 100.929 27.9586C100.92 27.9861 100.902 28.0099 100.878 28.0267C100.854 28.0435 100.826 28.0526 100.797 28.0526Z" fill="#CCCCCC"/>
<path d="M54.4927 57.1137C54.4929 57.6337 54.3906 58.1487 54.1918 58.6292C53.9929 59.1097 53.7014 59.5463 53.3338 59.9141C52.9662 60.2819 52.5297 60.5737 52.0493 60.7728C51.5689 60.9719 51.054 61.0744 50.534 61.0745C50.4999 61.0751 50.4659 61.0738 50.432 61.0704C49.9205 59.7945 49.7233 58.4144 49.8571 57.0464C49.9908 55.6784 50.4516 54.3626 51.2006 53.21C52.1216 53.3678 52.9571 53.8462 53.5596 54.5606C54.162 55.2749 54.4925 56.1792 54.4927 57.1137Z" fill="#096DD9"/>
<path d="M58.979 55.2237C58.9795 54.9265 59.0978 54.6417 59.308 54.4315C59.5181 54.2214 59.803 54.1031 60.1002 54.1025H66.0668C66.4153 54.8114 66.663 55.5654 66.8027 56.3428H60.1002C59.8032 56.3428 59.5184 56.2249 59.3082 56.0151C59.098 55.8053 58.9796 55.5207 58.979 55.2237Z" fill="#096DD9"/>
<path d="M66.9403 57.884C66.9407 58.6407 66.8407 59.394 66.6427 60.1243H60.0992C59.8021 60.1243 59.5172 60.0063 59.3071 59.7962C59.097 59.5862 58.979 59.3013 58.979 59.0042C58.979 58.7071 59.097 58.4222 59.3071 58.2121C59.5172 58.0021 59.8021 57.884 60.0992 57.884H66.9403Z" fill="#096DD9"/>
<path d="M81.7037 71.7004C81.5348 71.9773 81.2628 72.1758 80.9475 72.2522C80.6322 72.3286 80.2996 72.2766 80.0226 72.1077L65.7522 63.4033C65.6151 63.3196 65.4958 63.2098 65.4011 63.08C65.3064 62.9503 65.2382 62.8032 65.2004 62.6471C65.1626 62.491 65.1559 62.3289 65.1807 62.1702C65.2055 62.0116 65.2613 61.8593 65.3449 61.7222C65.4286 61.585 65.5384 61.4657 65.6681 61.3711C65.7979 61.2764 65.945 61.2082 66.1011 61.1704C66.2572 61.1326 66.4193 61.1259 66.5779 61.1507C66.7366 61.1755 66.8889 61.2313 67.026 61.3149L81.2964 70.0193C81.5734 70.1882 81.7718 70.4602 81.8482 70.7755C81.9246 71.0908 81.8726 71.4235 81.7037 71.7004Z" fill="#3F3D56"/>
<path d="M67.4336 62.996C66.4258 64.6481 64.9508 65.9643 63.195 66.7782C61.4392 67.592 59.4815 67.8669 57.5695 67.5681C55.6574 67.2694 53.8769 66.4103 52.4531 65.0996C51.0293 63.7889 50.0262 62.0854 49.5705 60.2046C49.1148 58.3237 49.2271 56.35 49.8932 54.533C50.5593 52.716 51.7492 51.1373 53.3125 49.9966C54.8758 48.8559 56.7422 48.2043 58.6758 48.1243C60.6094 48.0444 62.5233 48.5396 64.1754 49.5473C66.3886 50.9007 67.9746 53.0767 68.5854 55.5979C69.1962 58.1192 68.7819 60.7798 67.4336 62.996ZM52.8151 54.0793C52.0593 55.3184 51.6879 56.7538 51.7479 58.204C51.8079 59.6542 52.2965 61.054 53.1521 62.2265C54.0076 63.3989 55.1916 64.2914 56.5544 64.7909C57.9172 65.2905 59.3974 65.3747 60.8081 65.033C62.2187 64.6912 63.4963 63.9388 64.4793 62.871C65.4623 61.8031 66.1066 60.4678 66.3307 59.0337C66.5548 57.5997 66.3486 56.1314 65.7383 54.8146C65.1279 53.4977 64.1407 52.3915 62.9016 51.6357C61.2394 50.6244 59.244 50.3137 57.3531 50.7718C55.4621 51.2299 53.8301 52.4194 52.8151 54.0793Z" fill="#3F3D56"/>
</svg>
