<svg width="175" height="132" viewBox="0 0 175 132" fill="none" xmlns="http://www.w3.org/2000/svg">
<g clip-path="url(#clip0)">
<path d="M136.029 85.4794L17.0254 102.562V18.7567H158.213L136.029 85.4794Z" fill="#0050B3"/>
<path d="M91.6608 43.4763H27.7412V28.0015H91.6608V43.4763ZM28.1172 43.0743H91.2848V28.4034H28.1172V43.0743Z" fill="#3F3D56"/>
<path d="M39.9613 33.2267H32.8174V40.8636H39.9613V33.2267Z" fill="#CFCCE0"/>
<path d="M39.0219 39.8587H31.502V31.8198H39.0219L39.0219 39.8587ZM31.878 39.4567H38.6459V32.2218H31.878L31.878 39.4567Z" fill="#3F3D56"/>
<path d="M84.329 33.4276H50.8652V33.8295H84.329V33.4276Z" fill="#3F3D56"/>
<path d="M84.329 36.2413H50.8652V36.6433H84.329V36.2413Z" fill="#3F3D56"/>
<path d="M84.329 39.0549H50.8652V39.4569H84.329V39.0549Z" fill="#3F3D56"/>
<path d="M91.6608 87.2881H27.7412V71.8132H91.6608V87.2881ZM28.1172 86.8861H91.2848V72.2152H28.1172V86.8861Z" fill="#3F3D56"/>
<path d="M39.9613 77.0385H32.8174V84.6754H39.9613V77.0385Z" fill="#CFCCE0"/>
<path d="M39.0219 83.6706H31.502V75.6317H39.0219L39.0219 83.6706ZM31.878 83.2686H38.6459V76.0337H31.878L31.878 83.2686Z" fill="#3F3D56"/>
<path d="M84.329 77.2395H50.8652V77.6415H84.329V77.2395Z" fill="#3F3D56"/>
<path d="M84.329 80.0531H50.8652V80.4551H84.329V80.0531Z" fill="#3F3D56"/>
<path d="M84.329 82.8667H50.8652V83.2686H84.329V82.8667Z" fill="#3F3D56"/>
<path d="M114.597 65.3822H50.6777V49.9073H114.597V65.3822ZM51.0537 64.9802H114.221V50.3093H51.0537V64.9802Z" fill="#3F3D56"/>
<path d="M102.378 62.7695H109.521V55.1326H102.378V62.7695Z" fill="#CFCCE0"/>
<path d="M110.837 61.7647H103.317V53.7258H110.837V61.7647ZM103.693 61.3628H110.461V54.1278H103.693L103.693 61.3628Z" fill="#3F3D56"/>
<path d="M91.4736 55.3336H58.0098V55.7356H91.4736V55.3336Z" fill="#3F3D56"/>
<path d="M91.4736 58.1472H58.0098V58.5492H91.4736V58.1472Z" fill="#3F3D56"/>
<path d="M91.4736 60.9608H58.0098V61.3628H91.4736V60.9608Z" fill="#3F3D56"/>
<path d="M101.453 38.9154C103.105 38.9154 104.445 37.4831 104.445 35.7162C104.445 33.9494 103.105 32.5171 101.453 32.5171C99.7998 32.5171 98.46 33.9494 98.46 35.7162C98.46 37.4831 99.7998 38.9154 101.453 38.9154Z" fill="#CFCCE0"/>
<path d="M105.777 83.3302C107.43 83.3302 108.769 81.8979 108.769 80.131C108.769 78.3642 107.43 76.9319 105.777 76.9319C104.124 76.9319 102.784 78.3642 102.784 80.131C102.784 81.8979 104.124 83.3302 105.777 83.3302Z" fill="#CFCCE0"/>
<path d="M38.8491 60.8214C40.5019 60.8214 41.8417 59.3891 41.8417 57.6222C41.8417 55.8554 40.5019 54.4231 38.8491 54.4231C37.1963 54.4231 35.8564 55.8554 35.8564 57.6222C35.8564 59.3891 37.1963 60.8214 38.8491 60.8214Z" fill="#CFCCE0"/>
<path d="M153.747 12.4115C151.668 8.65785 147.557 8.48291 147.557 8.48291C147.557 8.48291 143.551 7.93523 140.981 13.6521C138.585 18.9807 135.279 24.1256 140.448 25.373L141.382 22.2663L141.96 25.6043C142.696 25.6609 143.435 25.6744 144.172 25.6447C149.708 25.4536 154.98 25.7006 154.81 23.577C154.585 20.754 155.746 16.0233 153.747 12.4115Z" fill="#2F2E41"/>
<path d="M134.786 119.087L134.261 121.897L133.604 124.355C133.604 124.355 127.887 131.52 132.355 131.871C136.823 132.222 138.663 129.904 138.663 129.904V126.532L139.977 127.516L141.817 126.743V118.455L134.786 119.087Z" fill="#2F2E41"/>
<path d="M164.881 112.835L167.706 121.405C167.706 121.405 167.443 127.937 169.743 127.937C172.043 127.937 174.737 120.702 174.408 119.579C174.08 118.455 171.78 114.521 171.78 114.521L174.737 114.451L175 112.133L168.889 107.076L164.881 112.835Z" fill="#2F2E41"/>
<path d="M128.61 38.1686C128.61 38.1686 126.244 36.3423 128.61 32.1278C130.975 27.9133 134.458 22.9262 134.458 22.9262C134.458 22.9262 136.166 15.7615 138.072 16.6747C139.977 17.5878 136.692 24.4012 136.692 24.4012L133.144 32.4088L128.61 38.1686Z" fill="#FFB9B9"/>
<path d="M147.469 22.575C150.372 22.575 152.725 20.0591 152.725 16.9556C152.725 13.8522 150.372 11.3363 147.469 11.3363C144.565 11.3363 142.212 13.8522 142.212 16.9556C142.212 20.0591 144.565 22.575 147.469 22.575Z" fill="#FFB9B9"/>
<path d="M144.381 20.8189L146.286 27.7729L152.726 24.6822C152.726 24.6822 149.769 21.5916 150.886 19.3439L144.381 20.8189Z" fill="#FFB9B9"/>
<path d="M146.614 26.649L146.089 29.4586L142.475 33.3922L145.366 38.1685L153.185 25.5954L152.296 24.1831L146.614 26.649Z" fill="#FFB9B9"/>
<path d="M145.366 25.8061C145.366 25.8061 151.543 22.7857 152.725 23.5583C153.908 24.331 154.171 24.612 154.171 24.612C154.171 24.612 147.09 28.252 146.327 28.188C145.563 28.1241 145.366 25.8061 145.366 25.8061Z" fill="#CFCCE0"/>
<path d="M144.052 34.5161C144.052 34.5161 142.606 32.76 144.052 31.4254L140.701 33.322L139.649 40.4163L140.964 44.7713L148.191 36.3423L151.148 32.5493L149.506 29.8801C149.506 29.8801 146.68 34.3053 144.052 34.5161Z" fill="#CFCCE0"/>
<path d="M170.138 107.778C166.589 116.488 148.98 122.81 148.98 122.81L140.963 85.0899L142.54 120.983L119.806 117.12C119.806 117.12 120.726 98.4358 126.508 75.8883C130.912 58.717 135.962 49.0012 138.122 45.3437C138.797 44.1988 139.189 43.6474 139.189 43.6474C139.134 43.4788 139.082 43.3107 139.032 43.1431C138.138 40.0331 137.922 36.7456 138.401 33.5326L142.212 31.7064C142.212 31.7064 144.183 30.442 144.84 29.3884C145.497 28.3348 146.351 28.1943 146.351 28.1943C146.811 30.0908 141.358 34.516 141.358 34.516V43.3665C141.358 43.3665 141.883 43.0855 143.132 38.1686C144.38 33.2517 150.031 27.7026 151.542 25.8061C153.054 23.9095 155.748 24.4715 155.748 24.4715L152.45 45.9584L152.331 46.738L152.542 48.4266L156.93 83.6149L170.138 107.778Z" fill="#2F2E41"/>
<path d="M138.927 33.7433H138.402C138.402 33.7433 136.89 32.8302 136.233 33.3921C135.576 33.954 134.393 33.7433 134.393 33.7433V29.88C134.393 29.88 129.334 30.7931 128.348 37.3256C127.363 43.8581 120.792 46.3165 120.792 46.3165C120.792 46.3165 132.291 55.7289 135.51 54.3943C138.73 53.0597 141.884 37.1851 138.927 33.7433Z" fill="#2F2E41"/>
<path d="M138.121 45.3437C138.797 44.1988 139.189 43.6474 139.189 43.6474C139.134 43.4788 139.081 43.3107 139.031 43.1431L140.93 44.1742L152.45 45.9583L152.33 46.738L152.541 48.4266L140.733 45.2278L138.121 45.3437Z" fill="#CFCCE0"/>
<path d="M150.426 50.9525C150.426 50.9525 151.609 64.1579 159.231 64.4388L158.311 43.2961L154.828 44.7712L150.426 50.9525Z" fill="#2F2E41"/>
<path opacity="0.1" d="M150.426 50.9525C150.426 50.9525 151.609 64.1579 159.231 64.4388L158.311 43.2961L154.828 44.7712L150.426 50.9525Z" fill="black"/>
<path d="M157.653 46.457L154.565 52.9895C154.565 52.9895 152.331 62.2614 149.111 61.3482C145.892 60.4351 151.148 51.6937 151.148 51.6937L152.857 46.457L157.653 46.457Z" fill="#FFB9B9"/>
<path d="M154.697 25.1739L155.748 24.4012C155.748 24.4012 160.085 24.05 160.151 29.1776C160.216 34.3053 161.005 52.4978 160.151 55.2373C159.297 57.9767 160.151 64.4389 160.151 64.4389L158.574 65.2116L156.931 47.8619C156.931 47.8619 156.34 47.2297 155.486 48.0024C154.631 48.775 149.44 53.13 149.44 53.13L154.697 25.1739Z" fill="#2F2E41"/>
<path d="M141.654 44.3849L127.855 73.5352L130.484 77.6794L141.654 44.3849Z" fill="#CFCCE0"/>
<path d="M140.979 44.3715L142.109 77.0191L138.101 79.6085L140.979 44.3715Z" fill="#CFCCE0"/>
<path d="M140.996 45.9303C141.504 45.9303 141.916 45.49 141.916 44.9469C141.916 44.4038 141.504 43.9635 140.996 43.9635C140.488 43.9635 140.076 44.4038 140.076 44.9469C140.076 45.49 140.488 45.9303 140.996 45.9303Z" fill="#CFCCE0"/>
<path d="M148.061 11.6799C149.702 11.6799 151.033 10.2571 151.033 8.50199C151.033 6.74689 149.702 5.3241 148.061 5.3241C146.419 5.3241 145.088 6.74689 145.088 8.50199C145.088 10.2571 146.419 11.6799 148.061 11.6799Z" fill="#2F2E41"/>
<path d="M144.775 7.66568C144.775 6.88082 145.047 6.12374 145.538 5.54029C146.029 4.95685 146.705 4.5883 147.435 4.50566C147.02 4.45846 146.601 4.50503 146.205 4.64233C145.808 4.77962 145.443 5.00459 145.133 5.3026C144.823 5.60061 144.575 5.96501 144.405 6.37213C144.235 6.77924 144.147 7.21997 144.147 7.66568C144.147 8.1114 144.235 8.55212 144.405 8.95924C144.575 9.36635 144.823 9.73075 145.133 10.0288C145.443 10.3268 145.808 10.5517 146.205 10.689C146.601 10.8263 147.02 10.8729 147.435 10.8257C146.705 10.7431 146.029 10.3745 145.538 9.79107C145.047 9.20763 144.775 8.45055 144.775 7.66568Z" fill="#2F2E41"/>
<path d="M152.828 12.0497L148.766 9.77527L143.157 10.7058L141.996 16.1851L144.885 16.0663L145.692 14.0532V16.0331L147.025 15.9783L147.799 12.7733L148.282 16.1851L153.021 16.0817L152.828 12.0497Z" fill="#2F2E41"/>
<path d="M27.7741 79.8601L27.8694 79.6398C27.8302 79.6204 23.9118 77.6367 20.945 72.3212C18.2053 67.4128 15.7393 58.5764 19.5501 44.3548C21.1423 38.4127 21.8218 33.1031 21.5697 28.5737C21.3638 24.8727 20.5373 21.6666 19.1134 19.0447C16.2982 13.8607 12.0477 12.6981 12.0051 12.687L11.9512 12.9228C11.9929 12.9337 16.1562 14.0772 18.9206 19.1732C22.0922 25.0198 22.2305 33.4697 19.3317 44.2879C17.639 50.6052 17.0275 56.4048 17.5141 61.5258C17.9039 65.6281 18.9951 69.3066 20.7575 72.4593C23.7614 77.8326 27.7343 79.8404 27.7741 79.8601Z" fill="#CFCCE0"/>
<path d="M15.1745 25.3061C20.0294 25.3061 23.9652 21.0988 23.9652 15.9088C23.9652 10.7188 20.0294 6.51147 15.1745 6.51147C10.3195 6.51147 6.38379 10.7188 6.38379 15.9088C6.38379 21.0988 10.3195 25.3061 15.1745 25.3061Z" fill="#CFCCE0"/>
<path d="M0.658437 16.9866C-0.115062 14.5931 -0.207229 12.008 0.393591 9.55846C0.99441 7.10889 2.26123 4.90478 4.03386 3.22487C5.80648 1.54495 8.0053 0.464683 10.3522 0.120661C12.6992 -0.22336 15.0889 0.184319 17.2191 1.29215C19.3493 2.39997 21.1243 4.15819 22.3198 6.34446C23.5153 8.53073 24.0774 11.0469 23.9352 13.5747C23.7929 16.1025 22.9527 18.5284 21.5207 20.5457C20.0887 22.5631 18.1293 24.0812 15.8902 24.908C12.8876 26.0128 9.59764 25.7993 6.74211 24.3142C3.88658 22.8292 1.69869 20.194 0.658437 16.9866ZM0.873097 16.9074C1.63193 19.2556 3.02509 21.3105 4.87641 22.8122C6.72773 24.314 8.95406 25.1952 11.2739 25.3444C13.5937 25.4935 15.9027 24.904 17.9091 23.6503C19.9155 22.3965 21.529 20.535 22.5457 18.3009C23.5623 16.0669 23.9365 13.5608 23.6207 11.0994C23.305 8.63811 22.3136 6.33214 20.772 4.47312C19.2303 2.61411 17.2075 1.28556 14.9595 0.655462C12.7115 0.025368 10.3392 0.122036 8.14261 0.93324C5.19923 2.02421 2.78084 4.31873 1.41802 7.31342C0.0551936 10.3081 -0.140778 13.7584 0.873097 16.9074V16.9074Z" fill="#CFCCE0"/>
<path d="M13.3758 46.9174C17.4019 46.9174 20.6656 43.4284 20.6656 39.1245C20.6656 34.8207 17.4019 31.3317 13.3758 31.3317C9.34971 31.3317 6.08594 34.8207 6.08594 39.1245C6.08594 43.4284 9.34971 46.9174 13.3758 46.9174Z" fill="#CFCCE0"/>
<path d="M25.1502 71.1838C29.1763 71.1838 32.44 67.6948 32.44 63.3909C32.44 59.087 29.1763 55.598 25.1502 55.598C21.1241 55.598 17.8604 59.087 17.8604 63.3909C17.8604 67.6948 21.1241 71.1838 25.1502 71.1838Z" fill="#CFCCE0"/>
<path d="M161.514 131.665H105.847V132H161.514V131.665Z" fill="#3F3D56"/>
</g>
<defs>
<clipPath id="clip0">
<rect width="175" height="132" fill="white"/>
</clipPath>
</defs>
</svg>
