<svg width="166" height="117" viewBox="0 0 166 117" fill="none" xmlns="http://www.w3.org/2000/svg">
<g clip-path="url(#clip0)">
<path d="M1.87702 68.8973C1.87702 85.2551 11.537 90.9666 23.4532 90.9666C35.3693 90.9666 45.0293 85.2551 45.0293 68.8973C45.0293 52.5395 23.4532 31.7299 23.4532 31.7299C23.4532 31.7299 1.87702 52.5395 1.87702 68.8973Z" fill="#F2F2F2"/>
<path d="M24.2392 88.4645L24.0183 74.7744L14.822 57.838L23.9836 72.6269L23.8842 66.4713L17.5462 54.2179L23.858 64.8424L23.6794 53.7712L16.8924 44.0161L23.6513 52.0304L23.5396 31.73L24.2411 58.604L24.1835 57.4953L31.0839 46.8628L24.2942 59.6236L24.9372 71.988L24.9563 71.6598L32.9111 60.4707L24.9804 72.8193L25.0608 74.3655L25.0752 74.3888L25.0686 74.5158L26.6998 105.886H24.5204L24.2589 89.6824L16.3476 77.3642L24.2392 88.4645Z" fill="#3F3D56"/>
<path d="M46.7551 54.009C46.7551 75.1651 59.2487 82.552 74.6603 82.552C90.0719 82.552 102.565 75.1651 102.565 54.009C102.565 32.8529 74.6603 5.93909 74.6603 5.93909C74.6603 5.93909 46.7551 32.8529 46.7551 54.009Z" fill="#F2F2F2"/>
<path d="M75.677 79.3158L75.3913 61.6101L63.4974 39.7056L75.3464 58.8326L75.218 50.8714L67.0208 35.0237L75.184 48.7645V48.7647L74.9529 34.446L66.1751 21.8293L74.9166 32.1944L74.7722 5.93921L75.6795 40.6964L75.6049 39.2625L84.5293 25.5112L75.748 42.015L76.5796 58.0063L76.6043 57.5819L86.8926 43.1106L76.6355 59.0814L76.7395 61.0814L76.7581 61.1115L76.7497 61.2756L78.8593 101.847H76.0406L75.7024 80.8911L65.4704 64.9595L75.677 79.3158Z" fill="#3F3D56"/>
<path d="M3.60321 108.89C3.60321 110.483 8.19987 111.969 16.1416 113.222C30.5324 115.493 55.9049 117 84.8024 117C129.646 117 166 113.37 166 108.89C166 108.271 165.302 107.665 163.98 107.085C162.489 106.429 160.202 105.803 157.226 105.219C151.091 104.014 142.028 102.984 130.973 102.219C118.14 101.332 102.621 100.804 85.8804 100.784C85.5221 100.782 85.1628 100.782 84.8024 100.782C82.7857 100.782 80.7867 100.79 78.8054 100.804C77.8745 100.811 76.9478 100.819 76.0252 100.829C66.1653 100.935 56.8343 101.217 48.3544 101.642C47.9757 101.661 47.5987 101.682 47.2232 101.7C47.0949 101.707 46.9666 101.715 46.8383 101.721C46.8039 101.722 46.7695 101.724 46.735 101.727C45.0688 101.815 43.439 101.909 41.8458 102.009C41.3232 102.041 40.8054 102.074 40.2922 102.108C35.3059 102.434 30.703 102.814 26.5631 103.241C25.856 103.313 25.1623 103.387 24.4823 103.463C19.2441 104.041 14.8336 104.698 11.4354 105.411C6.41316 106.465 3.60321 107.644 3.60321 108.89Z" fill="#3F3D56"/>
<path opacity="0.1" d="M48.1943 112.51C38.423 112.51 30.5018 110.663 30.5018 108.384C30.5018 106.104 38.423 104.257 48.1943 104.257C57.9655 104.257 65.8867 106.104 65.8867 108.384C65.8867 110.663 57.9655 112.51 48.1943 112.51Z" fill="black"/>
<path opacity="0.1" d="M3.60448 108.89C3.60448 110.483 8.20113 111.969 16.1429 113.222C22.1476 112.562 26.3047 111.136 26.3047 109.486C26.3047 107.43 19.865 105.726 11.4367 105.411C6.41443 106.465 3.60448 107.644 3.60448 108.89Z" fill="black"/>
<path opacity="0.1" d="M77.9684 107.008C77.9684 109.727 97.2243 111.931 120.977 111.931C144.506 111.931 163.623 109.769 163.979 107.085C159.413 105.078 147.389 103.355 130.972 102.218C127.765 102.131 124.417 102.085 120.977 102.085C97.2243 102.085 77.9684 104.289 77.9684 107.008Z" fill="black"/>
<path d="M85.8815 0H157.227V107.587H85.8815V0Z" fill="#3F3D56"/>
<path d="M85.8803 37.3586H152.91V70.3733H85.8803V37.3586Z" fill="#2F2E41"/>
<path d="M59.5585 38.0826H125.869V69.5045H59.5585V38.0826Z" fill="#3F3D56"/>
<path d="M106.99 42.7163H121.806V48.0739H106.99V42.7163Z" fill="#0050B3"/>
<path d="M63.621 52.1284H118.137V53.5764H63.621V52.1284Z" fill="#0050B3"/>
<path d="M63.621 55.8932H118.137V57.3412H63.621V55.8932Z" fill="#0050B3"/>
<path d="M63.621 59.658H118.137V61.106H63.621V59.658Z" fill="#0050B3"/>
<path d="M63.621 63.4229H118.137V64.8709H63.621V63.4229Z" fill="#0050B3"/>
<path d="M137.664 12.1633H152.479V17.521H137.664V12.1633Z" fill="#F2F2F2"/>
<path d="M94.2958 21.5753H148.812V23.0233H94.2958V21.5753Z" fill="#F2F2F2"/>
<path d="M94.2958 25.3402H148.812V26.7882H94.2958V25.3402Z" fill="#F2F2F2"/>
<path d="M94.2958 29.105H148.812V30.553H94.2958V29.105Z" fill="#F2F2F2"/>
<path d="M94.2958 32.8699H148.812V34.3179H94.2958V32.8699Z" fill="#F2F2F2"/>
<path d="M137.088 73.7036H151.903V79.0613H137.088V73.7036Z" fill="#F2F2F2"/>
<path d="M93.7196 83.1158H148.235V84.5639H93.7196V83.1158Z" fill="#F2F2F2"/>
<path d="M93.7196 86.8806H148.235V88.3286H93.7196V86.8806Z" fill="#F2F2F2"/>
<path d="M93.7196 90.6454H148.235V92.0934H93.7196V90.6454Z" fill="#F2F2F2"/>
<path d="M93.7196 94.4103H148.235V95.8583H93.7196V94.4103Z" fill="#F2F2F2"/>
<path d="M52.873 22.1223C52.873 22.1223 49.9155 25.9369 50.2852 28.6351C50.6549 31.3333 44.1852 24.9135 44.1852 24.9135C44.1852 24.9135 46.4034 20.2614 45.2018 18.0284C44.0003 15.7955 52.873 22.1223 52.873 22.1223Z" fill="#FFB9B9"/>
<path d="M42.5207 99.3466C42.5207 99.3466 38.6389 103.626 39.2859 104.557C39.9329 105.487 51.301 109.023 52.595 108.837C53.8889 108.651 54.5359 107.72 54.0738 107.441C53.6116 107.162 50.6541 105.58 50.6541 105.58L48.1586 102.696C48.1586 102.696 46.3101 101.673 46.3101 101.114C46.3101 100.556 42.5207 99.3466 42.5207 99.3466Z" fill="#2F2E41"/>
<path d="M49.0829 104.092C49.0829 104.092 50.5617 106.511 50.8389 106.604C51.1162 106.697 49.4526 110.046 49.4526 110.046L45.5708 108.837L43.445 107.069L43.9071 104.65L49.0829 104.092Z" fill="#FFB9B9"/>
<path d="M53.057 57.9431L54.9055 66.2238C54.9055 66.2238 61.2828 80.6452 56.8464 83.1573L47.1419 101.859L41.9661 99.5326L50.654 80.3661L46.6798 58.3153L53.057 57.9431Z" fill="#D0CDE1"/>
<path opacity="0.1" d="M53.057 57.9431L54.9055 66.2238C54.9055 66.2238 61.2828 80.6452 56.8464 83.1573L47.1419 101.859L41.9661 99.5326L50.654 80.3661L46.6798 58.3153L53.057 57.9431Z" fill="black"/>
<path d="M52.4102 59.2457H53.348C53.4211 62.1073 53.262 64.97 52.8723 67.8055C52.2254 72.5506 50.5617 83.4365 50.5617 83.4365C50.5617 83.4365 50.7466 85.4834 50.192 86.1347C49.6375 86.7859 49.5451 85.9486 49.4526 87.4372C49.3602 88.9259 48.4822 99.2761 48.4822 99.2761C48.4822 99.2761 47.8814 101.393 48.5284 101.859C49.1754 102.324 50.4693 104.836 49.5451 105.208C48.6208 105.58 42.2435 106.045 41.9663 105.766C41.689 105.487 41.9663 87.9955 41.9663 87.9955C41.9663 87.9955 42.1511 84.4599 42.336 84.2738C42.5208 84.0878 43.3526 81.5756 43.0754 81.0174C42.7981 80.4591 42.9829 78.7844 42.9829 78.5053C42.9829 78.2262 43.8148 78.5053 43.0754 77.2957C42.336 76.0862 42.2435 66.4099 42.2435 66.4099C42.2435 66.4099 38.2693 60.2692 39.4708 58.6875L52.4102 59.2457Z" fill="#D0CDE1"/>
<path d="M50.2838 23.5179C46.9148 23.5179 44.1838 20.7686 44.1838 17.3772C44.1838 13.9857 46.9148 11.2365 50.2838 11.2365C53.6527 11.2365 56.3838 13.9857 56.3838 17.3772C56.3838 20.7686 53.6527 23.5179 50.2838 23.5179Z" fill="#FFB9B9"/>
<path d="M44.1844 23.89C44.1844 23.89 47.8814 24.8204 49.3601 27.0534L50.6541 27.3325V28.6351C50.6541 28.6351 53.0571 36.3575 52.5026 39.707C51.948 43.0565 52.5026 49.5694 53.4268 51.3372C54.3511 53.1049 54.6283 53.4771 54.1662 54.2214C53.7041 54.9658 53.0571 57.4779 53.5192 58.5944C53.9814 59.7109 53.5192 60.8274 49.2677 61.1065C45.0162 61.3856 39.0086 61.3856 39.0086 59.8969C39.0086 58.4083 39.3783 54.2214 39.0086 53.1049C38.6389 51.9885 38.4541 51.2441 38.6389 50.2207C38.8238 49.1972 38.2692 37.7531 38.2692 37.7531C38.2692 37.7531 38.1768 26.3091 44.1844 23.89Z" fill="#2F2E41"/>
<path d="M52.8723 52.6398L57.9557 60.2691C57.9557 60.2691 63.3163 65.2003 61.3754 67.4333C59.4345 69.6663 54.3511 60.9204 54.3511 60.9204L48.8057 54.5936L52.8723 52.6398Z" fill="#FFB9B9"/>
<path d="M49.6372 107.069C49.6372 107.069 49.822 105.859 50.469 105.859C51.116 105.859 55.4599 108.837 55.4599 108.837C55.4599 108.837 61.1902 109.488 58.972 110.698C56.7539 111.907 43.1675 112.093 43.0751 111.628C42.9826 111.163 42.7978 106.575 43.4447 106.589C44.0917 106.604 49.2675 107.627 49.2675 107.627L49.6372 107.069Z" fill="#2F2E41"/>
<path d="M49.8513 14.2047C50.068 14.3123 50.3069 14.3666 50.5484 14.3633C50.7977 14.3776 51.0953 14.3621 51.2279 14.149C51.2906 14.0089 51.3197 13.8558 51.3128 13.7022C51.3389 13.505 51.4045 13.3152 51.5056 13.1442C51.6067 12.9733 51.7412 12.8247 51.9009 12.7075C52.0606 12.5903 52.2423 12.507 52.4349 12.4624C52.6275 12.4179 52.8271 12.4131 53.0216 12.4484C52.9952 12.756 52.9022 13.054 52.7493 13.3215C53.0195 13.4138 53.3072 13.4421 53.59 13.4042C53.8728 13.3663 54.1431 13.2633 54.3799 13.103L54.4738 14.3563C54.8054 14.5158 55.2301 14.5491 55.5193 14.3208C55.8084 14.0925 55.8316 13.5567 55.5045 13.388C55.9085 13.3032 56.4026 13.121 56.4323 12.7067C56.4594 12.3286 56.0607 12.0519 55.9873 11.6801C55.9274 11.3769 56.0925 11.0474 55.9756 10.7615C55.8221 10.3859 55.2648 10.2895 55.1529 9.89924C55.096 9.70051 55.1779 9.48794 55.1584 9.28205C55.1072 8.74295 54.4339 8.51912 53.8968 8.54977C53.3597 8.58041 52.7735 8.72399 52.3172 8.43712C52.096 8.29803 51.9414 8.07541 51.747 7.90034C51.4783 7.66831 51.1441 7.52691 50.7914 7.49603C50.4386 7.46516 50.0852 7.54636 49.7807 7.72821C49.5647 7.86343 49.3762 8.05082 49.1353 8.13301C48.6423 8.30121 48.128 7.98296 47.6126 7.9096C47.4241 7.8771 47.2307 7.88804 47.047 7.94161C46.8633 7.99518 46.694 8.08998 46.552 8.21888C46.4141 8.35235 46.3238 8.52795 46.2952 8.71837C46.2667 8.9088 46.3014 9.1034 46.3939 9.27193C46.0916 9.22051 45.7711 9.17078 45.4861 9.2848C45.2012 9.39883 44.9834 9.74234 45.1152 10.0211C45.1642 10.0942 45.2029 10.1737 45.2302 10.2575C45.257 10.4197 45.1019 10.5583 44.9452 10.6048C44.7886 10.6513 44.6186 10.6426 44.4653 10.6991C43.8318 10.9325 43.9838 11.9521 43.4851 12.4095C43.314 12.5347 43.1333 12.646 42.9446 12.7423C42.697 12.9151 42.5158 13.1682 42.4314 13.4594C42.347 13.7505 42.3645 14.062 42.4808 14.3418C42.5808 14.5646 42.7483 14.7772 42.7281 15.0208C42.6998 15.3625 42.3361 15.5497 42.0809 15.7768C41.848 15.9929 41.6888 16.2774 41.6259 16.5899C41.563 16.9024 41.5995 17.2268 41.7303 17.5172C41.9649 18.0099 42.473 18.3834 42.5246 18.9273C42.547 19.1637 42.4765 19.3997 42.4805 19.6372C42.4954 19.8567 42.5593 20.07 42.6674 20.2612C42.7756 20.4524 42.9252 20.6166 43.1051 20.7415C43.4671 20.9884 43.8748 21.1592 44.304 21.2437C44.5055 21.2922 44.7459 21.3682 44.7946 21.5709C44.8525 21.8113 44.5861 22.0299 44.6136 22.2757C44.6309 22.3824 44.6895 22.4779 44.7766 22.5413C45.1372 22.8251 45.7078 22.5818 45.9283 22.178C46.1487 21.7742 46.1205 21.2848 46.0864 20.8254L45.9621 19.1545C45.9234 18.6347 45.9271 18.0173 46.3481 17.7137C46.8135 17.378 47.4913 17.6498 48.0176 17.423C48.5661 17.1866 48.7628 16.495 48.7407 15.8948C48.7185 15.2947 48.5477 14.6937 48.6459 14.1012C48.7677 13.3671 49.4164 12.8737 50.0713 13.3494C49.4957 13.2705 49.3963 13.9355 49.8513 14.2047Z" fill="#2F2E41"/>
<path opacity="0.1" d="M44.7385 28.3561C44.7385 28.3561 48.4354 29.8448 48.4354 33.0082C48.4354 36.1716 48.2506 40.3584 48.8976 41.7541C49.5445 43.1497 50.0991 43.6149 49.7294 44.7314C49.3597 45.8479 48.7127 45.6618 49.7294 46.4992C50.746 47.3365 50.6536 45.9409 50.746 47.3365C50.8385 48.7322 49.8218 48.9182 50.746 49.5695C51.6703 50.2208 54.0733 52.826 53.0566 53.6633C52.04 54.5007 49.3597 57.1989 48.4354 56.1755C47.5112 55.152 47.0491 52.5468 45.7551 52.7329C44.4612 52.919 44.2763 53.012 44.4612 52.0816C44.646 51.1512 45.4779 51.1512 44.3688 50.8721C43.2597 50.593 42.7976 51.2443 43.1672 50.3139C43.5369 49.3834 43.8142 49.0113 43.0748 47.9878C42.3354 46.9644 41.9657 46.6853 42.0581 45.6618C42.1506 44.6383 40.0248 35.4273 40.0248 35.4273C40.0248 35.4273 39.3778 27.6118 44.7385 28.3561Z" fill="black"/>
<path opacity="0.1" d="M45.755 28.17C45.755 28.17 49.452 29.6586 49.452 32.822C49.452 35.9854 49.2672 40.1723 49.9142 41.5679C50.5611 42.9635 51.1157 43.4287 50.746 44.5452C50.3763 45.6617 49.7293 45.4756 50.746 46.313C51.7626 47.1504 51.6702 45.7548 51.7626 47.1504C51.8551 48.546 50.8384 48.7321 51.7626 49.3834C52.6869 50.0347 55.0899 52.6398 54.0733 53.4772C53.0566 54.3145 50.3763 57.0127 49.452 55.9893C48.5278 54.9658 48.0657 52.3607 46.7717 52.5468C45.4778 52.7328 45.2929 52.8259 45.4778 51.8955C45.6626 50.9651 46.4944 50.9651 45.3854 50.6859C44.2763 50.4068 43.8141 51.0581 44.1838 50.1277C44.5535 49.1973 44.8308 48.8251 44.0914 47.8017C43.352 46.7782 42.9823 46.4991 43.0748 45.4756C43.1672 44.4522 41.0414 35.2411 41.0414 35.2411C41.0414 35.2411 40.3944 27.4256 45.755 28.17Z" fill="black"/>
<path d="M45.2932 27.8909C45.2932 27.8909 48.9901 29.3796 48.9901 32.543C48.9901 35.7064 48.8053 39.8932 49.4522 41.2889C50.0992 42.6845 50.6538 43.1497 50.2841 44.2662C49.9144 45.3827 49.2674 45.1966 50.2841 46.034C51.3007 46.8713 51.2083 45.4757 51.3007 46.8713C51.3932 48.267 50.3765 48.453 51.3007 49.1043C52.225 49.7556 54.628 52.3608 53.6113 53.1981C52.5947 54.0355 49.9144 56.7337 48.9901 55.7102C48.0659 54.6868 47.6038 52.0816 46.3098 52.2677C45.0159 52.4538 44.831 52.5468 45.0159 51.6164C45.2007 50.686 46.0325 50.686 44.9235 50.4069C43.8144 50.1278 43.3522 50.7791 43.7219 49.8486C44.0916 48.9182 44.3689 48.5461 43.6295 47.5226C42.8901 46.4992 42.5204 46.22 42.6129 45.1966C42.7053 44.1731 40.5795 34.9621 40.5795 34.9621C40.5795 34.9621 39.9325 27.1466 45.2932 27.8909Z" fill="#2F2E41"/>
<path d="M25.9717 92.1715C25.9717 100.312 20.8988 106.899 14.6296 106.899L25.9717 92.1715Z" fill="#2F2E41"/>
<path d="M14.6309 106.899C14.6309 98.667 8.96977 92.006 1.97376 92.006L14.6309 106.899Z" fill="#0050B3"/>
<path d="M21.8623 92.9094C21.8623 100.642 18.6274 106.899 14.6297 106.899L21.8623 92.9094Z" fill="#0050B3"/>
<path d="M14.6309 106.899C14.6309 96.3806 8.08752 87.8693 0.0012207 87.8693L14.6309 106.899Z" fill="#2F2E41"/>
<path d="M17.0146 107.003C17.0146 107.003 15.4061 106.953 14.9214 106.605C14.4366 106.258 12.4471 105.843 12.3269 106.4C12.2066 106.957 9.9096 109.172 11.7256 109.187C13.5416 109.201 15.9451 108.902 16.4289 108.605C16.9128 108.309 17.0146 107.003 17.0146 107.003Z" fill="#A8A8A8"/>
<path opacity="0.2" d="M11.6932 108.993C13.5092 109.007 15.9127 108.708 16.3965 108.411C16.765 108.185 16.9118 107.375 16.961 107C16.995 107.002 17.0146 107.003 17.0146 107.003C17.0146 107.003 16.9128 108.309 16.4289 108.605C15.9451 108.902 13.5416 109.201 11.7256 109.187C11.2014 109.182 11.0203 108.995 11.0302 108.717C11.1031 108.885 11.303 108.989 11.6932 108.993Z" fill="black"/>
</g>
<defs>
<clipPath id="clip0">
<rect width="166" height="117" fill="white" transform="matrix(-1 0 0 1 166 0)"/>
</clipPath>
</defs>
</svg>
