<svg width="481" height="358" viewBox="0 0 481 358" fill="none" xmlns="http://www.w3.org/2000/svg">
<g clip-path="url(#clip0)">
<path opacity="0.1" d="M473.116 159.415C473.03 159.923 472.944 160.431 472.848 160.939C469.769 178.236 464.742 194.911 457.267 210.221C457.021 210.729 456.772 211.237 456.517 211.745C451.72 221.399 445.829 230.471 438.96 238.783C435.236 243.268 431.176 247.527 426.348 250.601C419.582 254.91 411.67 256.66 403.895 258.093C395.816 259.585 387.632 260.814 379.467 262.175C376.572 262.646 373.696 263.141 370.838 263.658C362.95 265.082 355.12 266.728 347.477 268.909C338.026 271.63 328.857 275.136 320.228 280.102C319.538 280.495 318.855 280.898 318.18 281.313C317.503 281.721 316.817 282.138 316.159 282.564C315.5 282.991 314.837 283.412 314.183 283.843L313.175 284.523C312.844 284.741 312.517 284.977 312.19 285.195C311.218 285.857 310.259 286.555 309.301 287.226L309.265 287.253C308.634 287.707 308.007 288.16 307.38 288.614C303.842 291.231 300.382 293.97 296.935 296.718L294.759 298.455C293.636 299.344 292.513 300.231 291.39 301.117C290.731 301.639 290.064 302.156 289.401 302.673C288.919 303.049 288.442 303.425 287.952 303.797C285.495 305.688 283.006 307.539 280.468 309.307C279.864 309.729 279.25 310.151 278.651 310.564C273.569 314.035 268.164 317.008 262.511 319.443L262.438 319.475C259.653 320.66 256.788 321.647 253.864 322.427C252.188 322.881 250.512 323.239 248.814 323.52C244.289 324.302 239.67 324.381 235.121 323.756C226.179 322.491 217.8 318.314 208.88 316.917C190.478 314.065 172.608 323.266 155.291 330.49C151.052 332.262 146.767 333.925 142.434 335.479C139.564 336.513 136.68 337.497 133.783 338.431C116.131 344.133 97.9416 348.018 79.4987 350.027C71.9689 350.848 64.1167 351.238 56.4508 350.649C53.5558 350.436 50.6751 350.062 47.822 349.529C38.1169 347.715 29.0566 343.864 21.7585 336.83C15.6957 331.075 11.4176 323.552 8.15683 315.702C6.84586 312.548 5.69081 309.322 4.69169 306.024C3.12126 300.854 1.94171 295.574 1.16298 290.228C0.985861 289.022 0.826909 287.811 0.708831 286.6C0.472675 284.523 0.29707 282.437 0.18202 280.342C-0.45384 269.207 0.63531 258.04 3.411 247.236C6.50374 235.268 11.6628 223.808 13.9336 211.727C14.0289 211.219 14.1152 210.711 14.2015 210.203C14.5043 208.389 14.7344 206.542 14.8918 204.661C16.0363 189.886 11.6083 175.424 8.11142 160.939C7.9888 160.431 7.86618 159.923 7.7481 159.415C7.36964 157.81 7.01087 156.203 6.67177 154.595C3.43371 139.275 2.54812 122.881 5.42287 107.594C5.5137 107.086 5.61815 106.573 5.72261 106.07C7.66181 96.6007 11.0861 87.5941 16.3315 79.5716C21.7131 71.336 28.7796 64.4836 36.3139 58.4611C39.9925 55.5284 43.7967 52.7847 47.7266 50.23C50.5514 48.3978 53.4277 46.6639 56.3554 45.0283C80.0119 31.8767 107.002 25.4506 133.687 26.8882C135.101 26.9607 136.512 27.0575 137.92 27.1784C139.398 27.3054 140.87 27.4566 142.339 27.6319C159.519 29.6137 176.236 34.5252 192.854 39.8992C198.421 41.7132 203.976 43.5272 209.53 45.3412C212 46.1454 214.469 46.9391 216.937 47.7221C229.04 51.5361 241.343 54.9782 253.759 57.5722C256.638 58.1769 259.515 58.7286 262.388 59.2275C272.377 61.0144 282.486 62.0543 292.63 62.3385C296.565 62.4353 300.501 62.3945 304.437 62.2161C306.426 62.1254 308.417 61.9924 310.409 61.817C330.987 60.0574 350.828 54.1573 370.752 48.6155C373.631 47.8128 376.515 47.0146 379.381 46.2437C383.168 45.2278 386.96 44.2437 390.766 43.3367C414.463 37.6543 435.581 40.9196 457.612 52.6381C462.607 55.3002 467.603 58.511 470.691 63.4814C473.779 68.4517 474.529 74.6058 475.101 80.5285C475.909 88.9546 476.463 97.4986 476.641 106.079C476.641 106.587 476.641 107.095 476.672 107.603C477.072 124.976 476.014 142.482 473.116 159.415Z" fill="#0050B3"/>
<path opacity="0.1" d="M315.94 210.221H314.392V210.897V211.745H316.145L315.94 210.221ZM298.388 210.221C298.385 210.233 298.385 210.246 298.388 210.258L298.251 211.519V211.632V211.745H311.694V211.655L312.652 210.221H298.388ZM262.442 210.221V160.939H277.883C277.719 160.803 277.551 160.667 277.379 160.54L277.152 160.368C277.056 160.291 276.961 160.218 276.861 160.15C276.761 160.082 276.525 159.91 276.348 159.792C276.171 159.674 276.062 159.597 275.894 159.502L275.789 159.434H275.766H262.442V156.735L262.083 156.908L261.702 157.121H261.674L261.593 157.171L261.356 157.325C261.275 157.375 261.193 157.425 261.116 157.479C260.88 157.638 260.662 157.81 260.412 157.987L260.185 158.168C260.03 158.286 259.885 158.409 259.731 158.531C259.127 159.025 258.532 159.543 257.914 160.019C257.76 160.141 257.605 160.259 257.46 160.372C257.13 160.614 256.787 160.838 256.434 161.044C256.287 161.135 256.135 161.218 255.979 161.293L255.725 161.411L255.493 161.511C254.948 161.74 254.382 161.92 253.804 162.046V210.221H230.643C230.643 210.276 230.674 210.326 230.688 210.38C230.815 210.834 230.942 211.287 231.065 211.741H253.809V264.569H254.163L254.567 264.597L255.303 264.651L256.493 264.769L257.028 264.832L257.619 264.905H257.705C258.046 264.95 258.391 265.005 258.741 265.059L258.963 265.095L259.463 265.177L260.18 265.304L261.901 265.213L262.138 265.263C262.233 265.263 262.328 265.299 262.428 265.322V211.745H298.22V211.632V211.519L298.356 210.258C298.354 210.246 298.354 210.233 298.356 210.221H262.442ZM315.94 210.221H314.392V210.897V211.745H316.145L315.94 210.221ZM297.42 210.221L297.266 211.745H312.221L313.238 210.221H297.42ZM262.451 210.221V160.939H277.892C277.728 160.803 277.56 160.667 277.388 160.54L277.161 160.368C277.065 160.291 276.97 160.218 276.87 160.15C276.77 160.082 276.534 159.91 276.357 159.792C276.18 159.674 276.071 159.597 275.903 159.502L275.798 159.434H275.766H262.442V156.735L262.083 156.908L261.702 157.121H261.674L261.593 157.171L261.356 157.325C261.275 157.375 261.193 157.425 261.116 157.479C260.88 157.638 260.662 157.81 260.412 157.987L260.185 158.168C260.03 158.286 259.885 158.409 259.731 158.531C259.127 159.025 258.532 159.543 257.914 160.019C257.76 160.141 257.605 160.259 257.46 160.372C257.13 160.614 256.787 160.838 256.434 161.044C256.287 161.135 256.135 161.218 255.979 161.293L255.725 161.411L255.493 161.511C254.948 161.74 254.382 161.92 253.804 162.046V210.221H230.643C230.643 210.276 230.674 210.326 230.688 210.38C230.815 210.834 230.947 211.287 231.069 211.741H253.809V264.565L254.163 264.587L254.567 264.615L255.303 264.669L256.493 264.787L257.028 264.851L257.619 264.923H257.705C258.046 264.968 258.391 265.023 258.741 265.077L258.963 265.114L259.463 265.195L260.18 265.322L261.901 265.231L262.138 265.281C262.233 265.281 262.328 265.318 262.428 265.34V211.745H297.266L297.429 210.221H262.451ZM379.466 107.594H476.758C476.758 107.086 476.758 106.578 476.726 106.07H379.466V46.2347C376.578 47.0057 373.694 47.8038 370.838 48.6065V106.07H265.021L264.753 105.78L265.158 105.326L304.514 62.1935C300.578 62.3749 296.642 62.4157 292.706 62.3159L262.442 95.467V59.2185C259.553 58.7197 256.677 58.1679 253.813 57.5632V93.7981L209.566 45.3322C204.011 43.5182 198.457 41.6725 192.889 39.8902L253.032 105.78L252.764 106.07H142.375V27.6139C140.903 27.4476 139.43 27.2964 137.956 27.1604C136.548 27.0364 135.137 26.9397 133.723 26.8701V106.07H56.3911V45.0284C53.4573 46.661 50.5811 48.3949 47.7624 50.2301V106.07H5.70386C5.59941 106.573 5.49495 107.086 5.40412 107.594H47.726V159.416H7.74752C7.8656 159.923 7.98822 160.431 8.11084 160.939H47.7442V210.221H14.1873C14.101 210.729 14.0147 211.237 13.9194 211.745H47.7442V349.542C50.5973 350.076 53.478 350.45 56.373 350.662V211.745H133.723V338.445C136.624 337.505 139.507 336.521 142.375 335.493V211.745H253.795V322.445C256.719 321.665 259.585 320.678 262.369 319.493L262.442 319.461V211.745H370.81V263.658C373.683 263.141 376.56 262.646 379.439 262.175V211.745H456.494C456.748 211.237 456.998 210.729 457.243 210.221H379.466V160.939H472.852C472.948 160.431 473.034 159.923 473.12 159.416H379.466V107.594ZM56.3957 107.594H133.723V159.416H56.3911L56.3957 107.594ZM56.3957 210.221V160.939H133.723V210.221H56.3957ZM142.379 107.594H253.795V159.416H142.375L142.379 107.594ZM142.379 210.221V160.939H253.795V210.221H142.379ZM370.815 210.221H262.442V160.939H370.81L370.815 210.221ZM370.815 159.429H262.442V108.981L263.963 107.594H370.81L370.815 159.429ZM298.392 210.221C298.39 210.233 298.39 210.246 298.392 210.258L298.256 211.519V211.632V211.745H311.699V211.655L312.657 210.221H298.392ZM315.945 210.221H314.396V210.897V211.745H316.149L315.945 210.221ZM262.446 210.221V160.939H277.887C277.724 160.803 277.556 160.667 277.383 160.54L277.156 160.368C277.061 160.291 276.965 160.218 276.866 160.15C276.766 160.082 276.529 159.91 276.352 159.792C276.175 159.674 276.066 159.597 275.898 159.502L275.794 159.434H275.771H262.442V156.735L262.083 156.908L261.702 157.121H261.674L261.593 157.171L261.356 157.325C261.275 157.375 261.193 157.425 261.116 157.479C260.88 157.638 260.662 157.81 260.412 157.987L260.185 158.168C260.03 158.286 259.885 158.409 259.731 158.531C259.127 159.025 258.532 159.543 257.914 160.019C257.76 160.141 257.605 160.259 257.46 160.372C257.13 160.614 256.787 160.838 256.434 161.044C256.287 161.135 256.135 161.218 255.979 161.293L255.725 161.411L255.493 161.511C254.948 161.74 254.382 161.92 253.804 162.046V210.221H230.643C230.643 210.276 230.674 210.326 230.688 210.38C230.815 210.834 230.942 211.287 231.065 211.741H253.809V264.569H254.163L254.567 264.597L255.303 264.651L256.493 264.769L257.028 264.832L257.619 264.905H257.705C258.046 264.95 258.391 265.005 258.741 265.059L258.963 265.095L259.463 265.177L260.18 265.304L261.901 265.213L262.138 265.263C262.233 265.263 262.328 265.299 262.428 265.322V211.745H298.22V211.632V211.519L298.356 210.258C298.354 210.246 298.354 210.233 298.356 210.221H262.446Z" fill="#0050B3"/>
<path opacity="0.1" d="M93.5722 71.9121H94.2625C94.0263 71.7756 93.8276 71.5828 93.6841 71.3509C93.5407 71.1191 93.457 70.8553 93.4405 70.5833C93.4405 69.5312 94.7302 68.6741 96.3061 68.6741H116.357C117.933 68.6741 119.222 69.5312 119.222 70.5833C119.222 71.6309 117.933 72.4926 116.357 72.4926H115.689C115.924 72.6299 116.122 72.823 116.264 73.0548C116.407 73.2866 116.49 73.5498 116.507 73.8213C116.507 74.7283 115.571 75.4721 114.318 75.6762H120.09C121.661 75.6762 122.951 76.5333 122.951 77.5854C122.951 78.6375 121.661 79.4901 120.09 79.4901H100.017C98.4452 79.4901 97.1554 78.633 97.1554 77.5854C97.1554 76.6784 98.0909 75.9347 99.3444 75.7306H93.5722C92.0008 75.7306 90.711 74.8735 90.711 73.8213C90.711 72.7692 91.9917 71.9121 93.5722 71.9121Z" fill="#0050B3"/>
<path opacity="0.1" d="M310.891 90.084H311.563C311.326 89.9467 311.127 89.7531 310.984 89.5205C310.84 89.2879 310.757 89.0234 310.741 88.7507C310.741 87.7031 312.03 86.8459 313.606 86.8459H333.657C335.233 86.8459 336.523 87.7031 336.523 88.7507C336.523 89.8028 335.233 90.6599 333.657 90.6599H332.989C333.225 90.798 333.422 90.9919 333.565 91.2244C333.708 91.457 333.791 91.721 333.807 91.9932C333.807 92.9002 332.871 93.6394 331.618 93.8435H337.39C338.961 93.8435 340.251 94.7052 340.251 95.7528C340.251 96.8004 338.961 97.662 337.39 97.662H317.344C315.773 97.662 314.483 96.8049 314.483 95.7528C314.483 94.8458 315.418 94.102 316.672 93.9025H310.891C309.319 93.9025 308.029 93.0408 308.029 91.9932C308.029 90.9456 309.328 90.084 310.891 90.084Z" fill="#0050B3"/>
<path opacity="0.1" d="M62.8131 167.846H63.4852C63.2498 167.708 63.052 167.514 62.9095 167.282C62.7669 167.049 62.6839 166.785 62.6678 166.513C62.6678 165.465 63.953 164.604 65.5289 164.604H85.5795C87.1553 164.604 88.4451 165.465 88.4451 166.513C88.4451 167.565 87.1553 168.422 85.5795 168.422H84.9119C85.1473 168.56 85.3451 168.754 85.4876 168.987C85.6302 169.219 85.7132 169.483 85.7293 169.755C85.7293 170.662 84.7938 171.402 83.5403 171.606H89.3125C90.8884 171.606 92.1737 172.463 92.1737 173.515C92.1737 174.567 90.8884 175.424 89.3125 175.424H69.2574C67.6861 175.424 66.3963 174.562 66.3963 173.515C66.3963 172.608 67.3364 171.864 68.5853 171.66H62.8131C61.2418 171.66 59.952 170.803 59.952 169.755C59.952 168.708 61.2418 167.846 62.8131 167.846Z" fill="#0050B3"/>
<path d="M294.705 298.473C293.581 299.362 292.458 300.249 291.335 301.135C290.676 301.657 290.009 302.174 289.346 302.691C288.864 303.067 288.387 303.444 287.897 303.815C285.44 305.706 282.951 307.557 280.413 309.325C279.809 309.747 279.196 310.169 278.596 310.582C273.514 314.053 268.109 317.026 262.456 319.461L262.383 319.493V298.473H294.705Z" fill="#65617D"/>
<path d="M345.242 215.863L345.751 200.195C345.447 199.959 345.138 199.741 344.843 199.523C344.968 194.852 344.701 190.178 344.043 185.551C341.991 169.882 328.662 169.542 324.901 172.776C324.403 173.205 323.859 173.579 323.28 173.891C323.621 171.656 324.043 169.415 324.347 167.202C325.991 155.266 323.439 141.838 314.165 134.124C310.282 130.899 305.536 128.917 301.272 126.219C293.633 121.407 287.598 114.301 279.873 109.616C272.148 104.932 261.298 103.177 254.558 109.199C251.947 111.53 250.262 114.764 247.583 117.013C242.587 121.203 234.799 121.48 230.439 126.16C230.221 126.396 230.012 126.636 229.812 126.89C226.179 131.543 227.173 138.142 228.332 143.915C229.726 150.862 229.149 156.431 235.117 158.427C235.139 158.704 235.157 158.98 235.189 159.252C235.675 163.514 237.087 167.619 239.327 171.279C241.568 174.939 244.582 178.065 248.16 180.44L247.192 180.785C244.613 181.692 242.292 182.571 240.807 183.175C235.357 185.392 223.885 188.281 223.885 188.281C223.885 188.281 223.613 191.546 223.663 196.362C219.839 200.512 213.458 207.804 211.583 212.126C208.858 218.43 193.462 236.484 189.361 239.209C185.26 241.935 180.814 245.168 180.814 245.168C180.814 245.168 174.32 248.747 171.245 249.087C169.115 249.322 162.526 248.062 162.526 248.062C162.526 248.062 136.208 215.863 137.916 240.57C139.623 265.277 160.646 266.116 160.646 266.116L181.841 265.776C181.841 265.776 193.294 267.308 198.421 263.055C202.799 259.427 225.489 239.522 232.778 230.493C232.946 230.679 233.114 230.86 233.291 231.037C233.291 231.037 236.193 227.291 236.538 231.037C236.883 234.783 234.653 236.479 235.852 237.84C237.051 239.2 240.639 243.971 240.807 245.844C240.975 247.717 236.025 255.368 244.395 261.173C244.526 261.263 244.667 261.349 244.822 261.436C246.316 264.832 251.066 268.156 251.066 268.156L276.703 267.816L325.074 271.562C325.074 271.562 326.513 270.297 328.462 268.229C331.064 270.614 334.674 272.66 338.744 271.404C338.744 271.404 344.557 264.424 344.729 259.826C344.729 259.826 340.969 250.116 339.279 247.223C337.59 244.329 340.478 238.026 340.478 238.026C340.478 238.026 342.527 231.894 343.726 231.894C344.924 231.894 344.066 227.813 344.066 227.813C343.613 227.146 343.329 226.378 343.24 225.577C343.15 224.776 343.258 223.965 343.553 223.214C344.557 220.634 345.242 215.863 345.242 215.863Z" fill="url(#paint0_linear)"/>
<path d="M316.245 212.335L314.428 214.457L307.089 222.992L297.502 223.573L282.156 224.516C282.156 224.516 261.465 199.619 265.353 194.199C266.765 192.245 266.997 189.664 266.715 187.229C266.679 186.893 266.629 186.558 266.57 186.227C266.105 183.65 265.292 181.148 264.154 178.789L264.663 178.558L264.99 178.408L283.083 170.164L287.561 168.123C287.784 169.355 288.197 170.546 288.787 171.651C288.873 171.823 288.969 171.996 289.068 172.159C295.24 182.363 315.032 175.909 315.032 175.909L316.245 212.335Z" fill="#EE8E9E"/>
<path d="M342.998 199.596C342.862 205.773 341.854 208.439 341.854 208.439L316.244 212.335L315.286 205.695L311.494 179.478L315.055 175.923C316.477 176.229 317.951 176.205 319.363 175.853C320.775 175.501 322.086 174.83 323.197 173.891C326.926 170.671 340.155 171.012 342.19 186.589C342.787 190.898 343.058 195.246 342.998 199.596Z" fill="#EE8E9E"/>
<path d="M336.936 271.943C336.936 271.943 342.699 265 342.871 260.429L337.104 250.774L332.017 245.332L322.516 263.644C322.516 263.644 328.793 274.483 336.936 271.943Z" fill="#DFE5EE"/>
<path opacity="0.1" d="M336.936 271.943C336.936 271.943 342.699 265 342.871 260.429L337.104 250.774L332.017 245.332L322.516 263.644C322.516 263.644 328.793 274.483 336.936 271.943Z" fill="black"/>
<path d="M289.345 302.691C288.864 303.067 288.387 303.444 287.897 303.816C285.44 305.707 282.951 307.557 280.412 309.326C279.808 309.747 279.195 310.169 278.596 310.582H253.795H142.375H133.723L90.8608 309.049L56.391 308.759L47.7623 308.305L4.7092 306.038C3.13196 300.864 1.94632 295.58 1.16231 290.229C0.985197 289.022 0.826246 287.811 0.708168 286.601L47.7441 289.204L56.3729 289.689L133.705 293.997L142.356 294.478L253.777 300.691L262.351 301.172H262.424L289.345 302.691Z" fill="#D48A9B"/>
<path d="M347.449 268.909C337.998 271.63 328.829 275.136 320.2 280.102C319.514 280.496 318.838 280.9 318.152 281.313C317.466 281.725 316.79 282.138 316.131 282.564C315.473 282.991 314.809 283.412 314.156 283.843L313.147 284.524L312.162 285.195C311.19 285.861 310.232 286.555 309.273 287.226L309.237 287.254C308.606 287.707 307.979 288.161 307.352 288.614C303.815 291.231 300.354 293.97 296.907 296.718C296.18 297.299 295.452 297.878 294.723 298.455L291.362 301.117C290.703 301.639 290.036 302.156 289.373 302.673C288.891 303.049 288.414 303.426 287.924 303.797L262.492 302.587H262.419L253.845 302.187L142.375 296.913L133.723 296.501L56.3911 292.832L47.7624 292.419L1.1624 290.229C0.985283 289.022 0.826332 287.811 0.708254 286.601C0.472098 284.524 0.296493 282.437 0.181442 280.342L47.7578 263.563L56.3866 260.51L64.2252 257.744L78.5081 258.488L111.52 260.179L133.737 261.345L142.388 261.798L147.915 262.089L149.237 262.161L195.75 264.587L196.241 264.619L216.995 265.699H217.232H217.368L219.443 265.803L226.519 266.175L235.366 266.628L238.281 266.782L238.831 266.814L242.954 267.027L244.131 267.086L248.068 267.295L249.635 267.381H249.685H250.012L253.695 267.576L259.399 267.875H259.426L261.197 267.966H261.388L262.446 268.025L265.044 268.161L267.315 268.279H267.338L269.885 268.411H269.926L271.856 268.515L273.337 268.592L278.591 268.869L279.536 268.918H279.863L280.317 268.946L281.857 269.027L282.547 269.064L287.906 269.34H288.396L296.308 269.272H296.362L326.44 269.027H327.017H327.626H329.415L339.097 268.95H340.541L347.449 268.909Z" fill="#EFC6CD"/>
<path d="M144.451 269.531L147.248 284.392L223.309 283.249C223.309 283.249 229.031 284.9 228.904 280.329C228.904 280.329 240.48 269.404 299.115 282.106L276.603 264.451L215.066 267.753L143.71 265.848L144.451 269.531Z" fill="#0050B3"/>
<path d="M145.849 265.975L148.519 282.106C148.519 282.106 213.916 280.202 224.198 281.979L216.428 267.245C216.428 267.245 176.885 263.563 145.849 265.975Z" fill="white"/>
<path opacity="0.1" d="M145.849 265.975L148.519 282.106C148.519 282.106 213.916 280.202 224.198 281.979L216.428 267.245C216.428 267.245 176.885 263.563 145.849 265.975Z" fill="black"/>
<path d="M146.825 265.916L149.459 280.918C149.459 280.918 214.025 279.149 224.198 280.8L216.537 267.1C216.537 267.1 177.471 263.671 146.825 265.916Z" fill="white"/>
<path opacity="0.1" d="M148.011 266.379L150.577 280.41C150.577 280.41 213.726 278.755 223.694 280.301L216.201 267.481C216.201 267.481 177.989 264.261 148.011 266.379Z" fill="black"/>
<path d="M148.52 265.866L151.099 279.925C151.099 279.925 214.248 278.27 224.217 279.816L216.705 266.982C216.705 266.982 178.498 263.767 148.52 265.866Z" fill="white"/>
<path d="M103.841 227.713C103.841 227.713 107.147 232.026 102.319 238.543C97.4917 245.06 93.5043 250.556 95.1165 254.619C95.1165 254.619 102.383 242.52 108.332 242.375C114.282 242.23 110.367 234.987 103.841 227.713Z" fill="#0050B3"/>
<path opacity="0.1" d="M103.84 227.713C104.131 228.131 104.359 228.59 104.517 229.074C110.303 235.876 113.386 242.225 107.823 242.361C102.641 242.506 96.4284 251.758 94.9388 254.098C94.9903 254.273 95.0494 254.45 95.116 254.629C95.116 254.629 102.382 242.529 108.332 242.384C114.281 242.239 110.366 234.987 103.84 227.713Z" fill="black"/>
<path d="M109.985 233.214C109.985 234.729 109.813 235.962 109.604 235.962C109.395 235.962 109.222 234.729 109.222 233.214C109.222 231.699 109.436 232.407 109.645 232.407C109.853 232.407 109.985 231.695 109.985 233.214Z" fill="#FFD037"/>
<path d="M112.092 235.024C110.757 235.754 109.594 236.194 109.494 236.008C109.394 235.822 110.402 235.101 111.729 234.357C113.055 233.613 112.537 234.158 112.637 234.357C112.737 234.557 113.427 234.298 112.092 235.024Z" fill="#FFD037"/>
<path d="M86.388 227.713C86.388 227.713 83.0818 232.026 87.9139 238.543C92.746 245.06 96.7243 250.556 95.1167 254.619C95.1167 254.619 87.8276 242.52 81.8965 242.375C75.9653 242.23 79.8619 234.987 86.388 227.713Z" fill="#0050B3"/>
<path opacity="0.1" d="M86.388 227.713C86.0998 228.133 85.872 228.591 85.7113 229.074C79.9255 235.876 76.8418 242.225 82.4051 242.361C87.5869 242.506 93.8042 251.758 95.2938 254.098C95.2453 254.273 95.1863 254.45 95.1167 254.629C95.1167 254.629 87.8276 242.529 81.8965 242.384C75.9653 242.239 79.8619 234.987 86.388 227.713Z" fill="black"/>
<path d="M80.2434 233.214C80.2434 234.729 80.416 235.962 80.6249 235.962C80.8338 235.962 81.0064 234.729 81.0064 233.214C81.0064 231.699 80.7929 232.407 80.584 232.407C80.3751 232.407 80.2434 231.695 80.2434 233.214Z" fill="#FFD037"/>
<path d="M78.1354 235.024C79.4706 235.754 80.6377 236.194 80.7377 236.008C80.8376 235.822 79.8294 235.101 78.5033 234.357C77.1771 233.613 77.6949 234.158 77.595 234.357C77.495 234.557 76.8002 234.298 78.1354 235.024Z" fill="#FFD037"/>
<path d="M112.883 248.801L112.719 250.161L112.488 252.062L112.392 252.855L112.161 254.76L112.061 255.554L111.825 257.458L109.182 279.099C108.945 281.031 105.785 282.537 101.97 282.537H88.2455C84.4307 282.537 81.2744 281.031 81.0382 279.099L78.3905 257.458L78.1589 255.554L78.0635 254.76L77.8274 252.855L77.732 252.062L77.5004 250.161L77.3324 248.801C77.2007 247.708 78.9082 246.787 81.07 246.787H109.163C111.321 246.787 113.033 247.708 112.883 248.801Z" fill="#65617D"/>
<path d="M112.733 250.148L112.501 252.053H77.7315L77.4998 250.148H112.733Z" fill="#9D9CB5"/>
<path d="M112.406 252.846L112.175 254.751H78.0637L77.8275 252.846H112.406Z" fill="#9D9CB5"/>
<path d="M112.074 255.544L111.843 257.445H78.3904L78.1588 255.544H112.074Z" fill="#9D9CB5"/>
<path d="M154.796 247.05C154.796 247.05 145.977 238.584 146.317 249.59C146.658 260.597 154.796 247.05 154.796 247.05Z" fill="#EE8E9E"/>
<path d="M233.994 227.745C233.799 228.597 232.85 230.012 231.369 231.786C223.722 240.983 201.963 260.098 197.699 263.644C192.613 267.88 181.25 266.365 181.25 266.365L160.223 266.705C160.223 266.705 139.364 265.857 137.665 241.309C135.967 216.761 162.085 248.76 162.085 248.76C162.085 248.76 168.625 250.012 170.736 249.776C173.788 249.44 180.233 245.885 180.233 245.885C180.233 245.885 184.642 242.665 188.711 239.958C192.781 237.25 208.044 219.296 210.76 213.029C212.482 209.051 218.027 202.548 221.855 198.331C224.053 195.904 225.684 194.249 225.684 194.249C225.684 194.249 235.18 222.493 233.994 227.745Z" fill="#EE8E9E"/>
<path opacity="0.1" d="M233.994 227.745C233.799 228.597 232.85 230.012 231.37 231.786C223.649 223.935 222.037 208.271 221.855 198.312C224.053 195.886 225.684 194.231 225.684 194.231C225.684 194.231 235.18 222.493 233.994 227.745Z" fill="black"/>
<path opacity="0.1" d="M314.423 214.457L307.089 222.992L297.502 223.573L282.156 224.516C282.156 224.516 261.465 199.619 265.353 194.199C266.765 192.245 266.997 189.664 266.715 187.229C266.679 186.893 266.629 186.558 266.57 186.227C266.105 183.65 265.292 181.148 264.154 178.789L264.663 178.558L264.99 178.408C265.797 180.655 266.355 182.983 266.652 185.351C266.702 185.673 266.747 186.009 266.793 186.354C266.952 187.578 267.097 188.939 267.247 190.435C268.428 204.14 277.061 209.296 280.957 210.938C282.21 211.466 283.435 212.058 284.627 212.711C288.376 214.776 292.699 215.556 296.934 214.933C306.553 213.673 314.396 206.693 314.396 206.693L314.437 213.564L314.423 214.457Z" fill="black"/>
<path d="M314.719 267.712C314.719 267.712 251.633 267.54 243.318 261.785C235.002 256.03 239.93 248.406 239.757 246.542C239.585 244.679 236.029 239.939 234.843 238.579C233.658 237.218 235.861 235.531 235.52 231.808C235.179 228.085 232.3 231.808 232.3 231.808C220.424 219.781 222.967 189.301 222.967 189.301C222.967 189.301 234.321 186.426 239.771 184.218C241.247 183.619 243.545 182.766 246.129 181.846L247.087 181.501C253.749 179.12 261.67 176.431 261.67 176.431C261.67 176.431 263.191 175.356 264.722 178.571C265.421 180.05 266.125 182.431 266.688 186.236C266.738 186.558 266.783 186.893 266.829 187.238C266.988 188.462 267.133 189.823 267.283 191.319C268.464 205.024 277.097 210.181 280.994 211.822C282.247 212.35 283.471 212.942 284.663 213.595C288.412 215.66 292.735 216.441 296.971 215.818C306.589 214.557 314.432 207.577 314.432 207.577L314.473 214.448L314.591 235.092L314.719 267.712Z" fill="#DFE5EE"/>
<path d="M312.003 240.955L310.986 247.391C310.986 247.391 285.885 253.653 276.053 255.517C266.221 257.381 245.016 255.009 243.49 259.073C241.965 263.136 249.935 268.728 249.935 268.728L275.367 268.388L323.361 272.116C323.361 272.116 341.677 256.025 335.741 244.846C329.806 233.668 312.003 240.955 312.003 240.955Z" fill="#EE8E9E"/>
<path opacity="0.1" d="M260.28 190.149C260.28 190.149 248.745 199.632 250.952 204.208C253.159 208.784 260.28 190.149 260.28 190.149Z" fill="black"/>
<path opacity="0.1" d="M246.034 207.251C246.034 207.251 234.331 227.405 235.012 228.928C235.693 230.452 238.913 235.872 238.741 231.808C238.568 227.745 246.034 207.251 246.034 207.251Z" fill="black"/>
<path opacity="0.1" d="M250.784 210.811C250.784 210.811 248.059 223.341 245.357 228.593C242.655 233.844 250.784 210.811 250.784 210.811Z" fill="black"/>
<path opacity="0.1" d="M289.091 172.172C286.848 176.279 283.654 179.789 279.774 182.41C275.895 185.031 271.444 186.686 266.792 187.238H266.738C259.421 188.096 252.05 186.169 246.092 181.841C252.905 179.383 261.633 176.426 261.633 176.426C261.633 176.426 263.155 175.351 264.685 178.567L287.583 168.136C287.84 169.561 288.351 170.928 289.091 172.172Z" fill="black"/>
<path d="M292.67 157.125C292.678 162.225 291.347 167.239 288.81 171.665C287.597 173.775 286.128 175.728 284.436 177.479C279.715 182.387 273.424 185.493 266.652 186.258H266.593C265.51 186.382 264.422 186.444 263.332 186.444C256.123 186.444 249.167 183.794 243.79 179C238.414 174.205 234.993 167.602 234.18 160.45C234.054 159.352 233.992 158.248 233.994 157.143C233.994 149.374 237.085 141.922 242.587 136.428C248.089 130.934 255.551 127.847 263.332 127.847C271.113 127.847 278.575 130.934 284.077 136.428C289.579 141.922 292.67 149.374 292.67 157.143V157.125Z" fill="#EE8E9E"/>
<path opacity="0.1" d="M311.667 212.562L314.392 208.48C314.392 208.48 329.315 190.698 343.911 202.045L343.403 217.627C343.403 217.627 342.721 222.366 341.704 224.883C341.412 225.63 341.306 226.437 341.394 227.234C341.483 228.031 341.764 228.794 342.213 229.459C342.213 229.459 343.062 233.541 341.877 233.541C340.691 233.541 338.652 239.636 338.652 239.636C338.652 239.636 335.769 245.903 337.467 248.783C339.166 251.663 342.894 261.313 342.894 261.313C342.894 261.313 336.958 257.758 335.26 251.83C335.26 251.83 320.845 240.652 309.651 247.749L311.667 212.562Z" fill="black"/>
<path opacity="0.1" d="M342.998 199.596C342.862 205.773 341.854 208.439 341.854 208.439L316.245 212.335L315.286 205.695C318.638 202.203 330.827 191.102 342.998 199.596Z" fill="black"/>
<path d="M311.667 211.655L314.392 207.573C314.392 207.573 329.315 189.791 343.911 201.138L343.403 216.72C343.403 216.72 342.721 221.459 341.704 223.976C341.412 224.723 341.306 225.53 341.394 226.327C341.483 227.124 341.764 227.887 342.213 228.552C342.213 228.552 343.062 232.634 341.877 232.634C340.691 232.634 338.652 238.729 338.652 238.729C338.652 238.729 335.769 244.996 337.467 247.876C339.166 250.756 342.894 260.406 342.894 260.406C342.894 260.406 336.958 256.851 335.26 250.924C335.26 250.924 320.845 239.745 309.651 246.842L311.667 211.655Z" fill="#DFE5EE"/>
<path opacity="0.1" d="M335.746 200.14C335.746 200.14 311.159 215.214 312.344 228.434C312.344 228.434 326.082 204.203 335.746 200.14Z" fill="black"/>
<path opacity="0.1" d="M314.42 214.462L314.538 235.105C309.887 235.314 305.505 234.711 302.04 231.704C299.628 229.609 298.225 226.715 297.498 223.586C296.958 221.065 296.759 218.482 296.908 215.908C296.905 215.883 296.905 215.857 296.908 215.831C297.194 210.131 298.506 204.43 297.816 198.766C297.126 193.102 293.688 187.124 288.075 185.932C286.967 185.691 285.722 185.605 284.932 184.793C284.06 183.886 284.101 182.476 284.196 181.22L284.36 179.102C284.401 178.558 284.419 178.018 284.419 177.478C284.415 172.664 282.738 167.999 279.673 164.282C276.609 160.565 272.347 158.026 267.615 157.098L267.434 157.066C265.853 156.749 264.209 156.436 262.629 156.799C259.622 157.493 257.679 160.404 254.908 161.787C249.595 164.436 240.734 161.538 235.171 160.626C234.808 160.567 234.463 160.499 234.131 160.422C234.005 159.325 233.943 158.221 233.945 157.116C233.947 152.629 234.981 148.202 236.968 144.177C238.954 140.153 241.84 136.637 245.403 133.903C248.966 131.168 253.11 129.287 257.516 128.405C261.921 127.523 266.471 127.663 270.814 128.815C275.157 129.967 279.177 132.1 282.564 135.049C285.951 137.998 288.614 141.684 290.348 145.824C292.082 149.963 292.841 154.445 292.566 158.924C292.29 163.403 290.988 167.759 288.76 171.655C288.847 171.828 288.942 172 289.042 172.163C295.214 182.367 315.006 175.914 315.006 175.914L316.195 212.326L314.42 214.462Z" fill="black"/>
<path d="M255.975 161.284C258.727 159.896 260.67 156.985 263.695 156.295C265.271 155.932 266.915 156.245 268.504 156.558L268.686 156.595C273.688 157.583 278.154 160.369 281.237 164.426C284.319 168.482 285.805 173.526 285.412 178.603L285.249 180.721C285.149 181.973 285.108 183.392 285.989 184.29C286.775 185.102 288.019 185.197 289.127 185.424C294.74 186.621 298.178 192.566 298.869 198.262C299.559 203.958 298.224 209.677 297.96 215.4C297.697 221.124 298.751 227.441 303.083 231.2C309.895 237.096 320.25 233.74 329.265 233.2C325.277 233.2 322.289 229.092 322.071 225.119C321.853 221.146 323.624 217.364 325.318 213.781C327.012 210.199 328.711 206.344 328.334 202.38C327.816 196.938 323.52 192.58 321.876 187.342C319.959 181.247 321.808 174.703 322.675 168.368C324.305 156.504 321.767 143.148 312.57 135.479C308.719 132.273 304.01 130.3 299.777 127.616C292.193 122.813 286.212 115.77 278.546 111.099C270.88 106.428 260.116 104.696 253.427 110.682C250.838 112.999 249.167 116.215 246.506 118.45C241.306 122.827 233.04 122.908 228.871 128.278C225.283 132.899 226.255 139.461 227.404 145.198C228.935 152.849 228.072 158.803 236.26 160.164C241.801 161.039 250.656 163.937 255.975 161.284Z" fill="#603556"/>
<path opacity="0.1" d="M323.443 229.545C316.881 230.348 310.377 230.761 305.6 226.625C301.267 222.865 300.2 216.552 300.477 210.825C300.754 205.097 302.08 199.374 301.385 193.682C300.69 187.991 297.257 182.045 291.644 180.848C290.536 180.612 289.296 180.526 288.506 179.714C287.629 178.807 287.665 177.392 287.765 176.141L287.929 174.023C288.321 168.946 286.835 163.903 283.753 159.847C280.67 155.792 276.204 153.006 271.203 152.019L271.021 151.983C269.431 151.67 267.787 151.357 266.211 151.72C263.205 152.413 261.261 155.348 258.491 156.708C253.173 159.361 244.322 156.463 238.749 155.552C230.575 154.214 231.428 148.25 229.893 140.586C229.035 136.305 228.277 131.561 229.439 127.507C229.221 127.738 229.012 127.961 228.813 128.237C225.225 132.858 226.197 139.421 227.346 145.157C228.876 152.808 228.013 158.763 236.201 160.123C241.769 161.03 250.625 163.932 255.943 161.279C258.695 159.892 260.639 156.98 263.664 156.291C265.24 155.928 266.884 156.241 268.473 156.554L268.655 156.59C273.657 157.579 278.123 160.365 281.205 164.421C284.288 168.477 285.774 173.522 285.381 178.599L285.217 180.717C285.118 181.968 285.077 183.388 285.958 184.286C286.743 185.097 287.988 185.193 289.096 185.419C294.709 186.617 298.147 192.562 298.837 198.258C299.528 203.954 298.197 209.673 297.929 215.396C297.661 221.119 298.719 227.437 303.052 231.196C309.864 237.092 320.219 233.736 329.233 233.196C326.786 233.21 324.728 231.659 323.443 229.545Z" fill="black"/>
<path d="M139.132 244.674L167.13 234.244C167.792 233.997 168.525 234.023 169.168 234.315C169.811 234.608 170.311 235.143 170.559 235.804C170.806 236.465 170.781 237.196 170.488 237.838C170.195 238.48 169.659 238.98 168.997 239.228L140.999 249.658L134.995 249.059L139.132 244.674Z" fill="#5C5C8E"/>
<path opacity="0.1" d="M169.714 234.951C169.961 235.612 169.934 236.345 169.641 236.987C169.347 237.629 168.81 238.128 168.147 238.375L140.131 248.842L135.626 248.388L134.976 249.078L140.98 249.676L168.978 239.246C169.64 238.998 170.176 238.499 170.469 237.856C170.762 237.214 170.788 236.483 170.54 235.822C170.334 235.271 169.951 234.803 169.451 234.493C169.551 234.638 169.639 234.791 169.714 234.951Z" fill="white"/>
<path d="M139.137 244.674L140.999 249.658L136.076 249.164L135 249.055L136.471 247.495L139.137 244.674Z" fill="#EFC8C4"/>
<path d="M136.467 247.481C136.582 247.567 136.68 247.673 136.757 247.794C136.803 247.867 136.828 247.951 136.828 248.037C136.828 248.123 136.803 248.207 136.757 248.279C136.68 248.359 136.589 248.425 136.49 248.474C136.377 248.549 136.283 248.649 136.214 248.765C136.145 248.881 136.102 249.011 136.09 249.146L135.009 249.041L136.467 247.481Z" fill="#727A9C"/>
<path d="M227.042 276.506C227.042 276.506 251.293 271.422 291.985 277.866L276.044 266.184L247.042 260.257L226.524 265.699L227.042 276.506Z" fill="white"/>
<path opacity="0.1" d="M227.042 276.506C227.042 276.506 251.293 271.422 291.985 277.866L276.044 266.184L247.042 260.257L226.524 265.699L227.042 276.506Z" fill="black"/>
<path d="M224.198 282.002C224.198 282.002 236.41 249.014 299.132 282.106L276.62 267.64C276.62 267.64 222.69 252.76 216.459 269.907L224.198 282.002Z" fill="white"/>
<path opacity="0.1" d="M224.198 281.979C224.198 281.979 236.41 246.71 299.132 282.614L276.62 266.923C276.62 266.923 222.672 249.128 216.428 267.753L224.198 281.979Z" fill="black"/>
<path d="M224.198 281.993C224.198 281.993 236.41 246.202 299.132 282.106L276.62 266.415C276.62 266.415 222.69 249.127 216.459 267.775L224.198 281.993Z" fill="white"/>
<path opacity="0.1" d="M224.199 282.002C224.199 282.002 236.411 242.225 299.133 282.614L276.602 264.959C276.602 264.959 222.673 246.819 216.442 267.753L224.199 282.002Z" fill="black"/>
<path d="M224.199 281.979C224.199 281.979 236.411 241.717 299.133 282.106L276.602 264.451C276.602 264.451 222.673 246.311 216.442 267.245L224.199 281.979Z" fill="white"/>
<path opacity="0.1" d="M412.37 278.188C412.37 278.188 397.315 294.292 410.866 302.115C410.866 302.115 412.638 304.246 415.167 303.131C415.167 303.131 414.313 302.373 416.026 300.913C416.631 300.389 417.172 299.795 417.638 299.144C418.269 298.266 418.598 297.205 418.573 296.124C418.573 296.124 420.544 289.734 414.282 281.44C414.282 281.44 413.714 278.664 413.233 278.36L412.088 282.229C412.088 282.229 414.963 282.959 416.044 285.145C416.044 285.145 412.256 282.174 411.888 282.796C411.816 282.923 411.375 284.877 411.375 284.877C411.375 284.877 416.371 286.165 417.933 289.594C417.933 289.594 413.896 285.453 411.203 285.616L410.712 288.6C410.712 288.6 416.057 289.707 417.978 293.544C417.978 293.544 413.61 289.358 410.639 289.263L410.553 292.26C410.553 292.26 415.744 293.439 417.329 296.641C417.329 296.641 411.793 292.319 410.58 292.95C410.58 292.95 410.667 295.711 411.035 296.432C411.035 296.432 414.74 297.339 415.494 299.308C415.494 299.308 411.489 296.809 411.144 297.19C411.144 297.19 412.22 300.754 413.719 302.274C413.719 302.274 411.339 300.192 410.594 297.385C410.594 297.385 409.586 299.14 409.84 300.863C409.84 300.863 408.355 299.221 410.344 296.519C410.344 296.519 409.618 293.707 409.799 293.262C409.799 293.262 407.46 295.652 406.861 297.797C406.861 297.797 406.407 295.113 409.795 292.487V289.467C409.795 289.467 406.534 292.464 405.862 294.319C405.862 294.319 405.816 291.507 409.863 288.709L410.317 285.775C410.317 285.775 407.311 288.142 406.116 290.047C406.116 290.047 406.634 287.426 410.476 284.941L411.007 283.018C411.007 283.018 408.846 284.786 408.282 285.349C407.719 285.911 407.506 285.802 407.506 285.802C408.39 284.282 409.679 283.035 411.23 282.201C411.23 282.201 412.619 278.292 412.37 278.188Z" fill="#0050B3"/>
<path opacity="0.1" d="M479.669 16.1538C479.669 16.1538 459.555 25.2239 469.038 37.6453C469.038 37.6453 469.851 40.2983 472.612 40.2439C472.612 40.2439 472.117 39.2144 474.261 38.5251C475.022 38.2765 475.751 37.937 476.431 37.5138C477.354 36.9462 478.066 36.0947 478.461 35.0876C478.461 35.0876 482.749 29.9539 480.174 19.8907C480.174 19.8907 480.723 17.1107 480.396 16.6436L477.844 19.7728C477.844 19.7728 480.214 21.5505 480.369 23.9858C480.369 23.9858 478.025 19.7864 477.444 20.2217C477.326 20.3079 476.168 21.9405 476.168 21.9405C476.168 21.9405 480.255 25.0515 480.396 28.8202C480.396 28.8202 478.271 23.4416 475.718 22.5527L474.115 25.1196C474.115 25.1196 478.62 28.1989 478.92 32.4799C478.92 32.4799 476.504 26.9381 473.802 25.7046L472.562 28.4256C472.562 28.4256 476.899 31.514 477.104 35.0785C477.104 35.0785 473.666 28.9562 472.303 29.0741C472.303 29.0741 471.318 31.65 471.395 32.4618C471.395 32.4618 474.456 34.7293 474.401 36.8336C474.401 36.8336 471.676 32.9878 471.222 33.2055C471.222 33.2055 470.836 36.9061 471.636 38.8879C471.636 38.8879 470.241 36.049 470.641 33.1738C470.641 33.1738 469.029 34.4073 468.602 36.0943C468.602 36.0943 467.866 34.0037 470.745 32.2758C470.745 32.2758 471.159 29.4052 471.499 29.065C471.499 29.065 468.416 30.3666 467.044 32.099C467.044 32.099 467.657 29.446 471.804 28.3304L472.984 25.5549C472.984 25.5549 468.82 27.0606 467.48 28.5118C467.48 28.5118 468.525 25.8996 473.339 24.8837L474.887 22.3532C474.887 22.3532 471.2 23.3826 469.36 24.6751C469.36 24.6751 470.854 22.462 475.36 21.6457L476.59 20.0766C476.59 20.0766 473.911 20.8748 473.162 21.1741C472.412 21.4734 472.253 21.2965 472.253 21.2965C473.665 20.23 475.346 19.5767 477.108 19.41C477.108 19.41 479.833 16.3352 479.669 16.1538Z" fill="#0050B3"/>
<path opacity="0.1" d="M288.76 21.7681C288.76 21.7681 258.541 30.3846 273.233 43.2097C273.233 43.2097 274.536 45.9307 278.719 45.9307C278.719 45.9307 277.937 44.8786 281.171 44.2392C282.284 44.0156 283.375 43.6938 284.432 43.2777C285.677 42.8418 286.738 41.9958 287.438 40.8787C287.438 40.8787 293.796 35.7995 289.623 25.5594C289.623 25.5594 290.381 22.7658 289.872 22.2851L286.094 25.378C286.094 25.378 289.727 27.2419 290.031 29.7044C290.031 29.7044 286.366 25.4006 285.49 25.8224C285.313 25.9086 283.601 27.523 283.601 27.523C283.601 27.523 289.904 30.7792 290.19 34.5931C290.19 34.5931 286.83 29.1012 282.924 28.1353L280.562 30.6839C280.562 30.6839 287.465 33.9174 288.033 38.2529C288.033 38.2529 284.227 32.5887 280.104 31.269L278.287 33.99C278.287 33.99 284.936 37.228 285.372 40.8379C285.372 40.8379 279.999 34.5569 277.937 34.634C277.937 34.634 276.516 37.2189 276.643 38.0398C276.643 38.0398 281.339 40.4343 281.316 42.5385C281.316 42.5385 277.075 38.5749 276.375 38.7835C276.375 38.7835 275.894 42.5158 277.156 44.5385C277.156 44.5385 274.967 41.6315 275.494 38.7382C275.494 38.7382 273.092 39.9399 272.488 41.6315C272.488 41.6315 271.316 39.5046 275.63 37.8357C275.63 37.8357 276.18 34.9423 276.684 34.6067C276.684 34.6067 272.052 35.8403 270.022 37.5545C270.022 37.5545 270.876 34.8879 277.125 33.8721L278.841 31.0966C278.841 31.0966 272.574 32.5116 270.585 33.9401C270.585 33.9401 272.097 31.3279 279.363 30.4209L281.634 27.904C281.634 27.904 276.075 28.8427 273.323 30.1035C273.323 30.1035 275.526 27.904 282.324 27.201L284.141 25.6501C284.141 25.6501 280.104 26.3847 278.977 26.6659C277.851 26.9471 277.615 26.7657 277.615 26.7657C279.885 25.6683 282.361 25.0625 284.881 24.9879C284.881 24.9879 289.023 21.9585 288.76 21.7681Z" fill="#0050B3"/>
<path opacity="0.1" d="M377.913 358.004C377.913 358.004 393.127 342.046 379.652 334.091C379.652 334.091 377.899 331.942 375.361 333.03C375.361 333.03 376.21 333.796 374.484 335.243C373.874 335.761 373.327 336.349 372.854 336.994C372.212 337.866 371.874 338.923 371.891 340.005C371.891 340.005 369.852 346.377 376.037 354.73C376.037 354.73 376.578 357.51 377.055 357.823L378.24 353.964C378.24 353.964 375.37 353.206 374.311 351.011C374.311 351.011 378.067 354.014 378.44 353.397C378.517 353.27 378.976 351.324 378.976 351.324C378.976 351.324 373.98 349.964 372.463 346.544C372.463 346.544 376.46 350.726 379.157 350.585L379.675 347.606C379.675 347.606 374.343 346.449 372.449 342.617C372.449 342.617 376.777 346.844 379.748 346.971L379.861 343.969C379.861 343.969 374.679 342.717 373.108 339.497C373.108 339.497 378.603 343.878 379.82 343.257C379.82 343.257 379.761 340.499 379.366 339.774C379.366 339.774 375.669 338.803 374.934 336.853C374.934 336.853 378.917 339.393 379.262 339.012C379.262 339.012 378.222 335.438 376.737 333.905C376.737 333.905 379.098 336.01 379.816 338.821C379.816 338.821 380.842 337.075 380.601 335.352C380.601 335.352 382.073 337.012 380.056 339.692C380.056 339.692 380.756 342.513 380.57 342.953C380.57 342.953 382.931 340.585 383.549 338.468C383.549 338.468 384.003 341.157 380.565 343.746L380.52 346.767C380.52 346.767 383.808 343.801 384.498 341.95C384.498 341.95 384.498 344.767 380.442 347.524L379.988 350.454C379.988 350.454 383.017 348.114 384.23 346.222C384.23 346.222 383.685 348.835 379.82 351.284L379.271 353.202C379.271 353.202 381.451 351.456 382.032 350.898C382.613 350.34 382.813 350.445 382.813 350.445C381.915 351.958 380.613 353.192 379.053 354.009C379.053 354.009 377.686 357.896 377.913 358.004Z" fill="#0050B3"/>
<path opacity="0.1" d="M229.53 0.562253C229.53 0.562253 232.123 22.4392 246.856 17.1605C246.856 17.1605 249.63 17.1831 250.412 14.5347C250.412 14.5347 249.276 14.6979 249.267 12.4486C249.257 11.6484 249.151 10.8523 248.954 10.0768C248.692 9.02754 248.094 8.0926 247.251 7.41469C247.251 7.41469 243.636 1.78218 233.231 1.2289C233.231 1.2289 230.743 -0.131606 230.198 0.0407255L232.418 3.41025C232.418 3.41025 234.83 1.68694 237.201 2.2765C237.201 2.2765 232.486 3.24699 232.727 3.92725C232.773 4.06783 233.981 5.65963 233.981 5.65963C233.981 5.65963 238.227 2.66651 241.86 3.68689C241.86 3.68689 236.088 4.08597 234.471 6.24918L236.41 8.55298C236.41 8.55298 240.707 5.18799 244.889 6.19023C244.889 6.19023 238.867 6.82513 236.874 9.02462L239.135 11.0291C239.135 11.0291 243.386 7.82737 246.856 8.68903C246.856 8.68903 239.971 10.1221 239.671 11.4509C239.671 11.4509 241.837 13.1651 242.637 13.3465C242.637 13.3465 245.743 11.1198 247.714 11.8001C247.714 11.8001 243.218 13.2422 243.286 13.7501C243.286 13.7501 246.706 15.2285 248.836 15.0653C248.836 15.0653 245.707 15.5188 243.082 14.2943C243.082 14.2943 243.772 16.1945 245.257 17.1151C245.257 17.1151 243.041 17.1831 242.255 13.9406C242.255 13.9406 239.639 12.6799 239.417 12.2581C239.417 12.2581 239.735 15.5823 240.974 17.4099C240.974 17.4099 238.622 16.0494 238.804 11.7456L236.533 9.78197C236.533 9.78197 236.719 14.2036 237.7 15.9179C237.7 15.9179 235.52 14.1356 235.992 9.2423L234.044 7.00653C234.044 7.00653 233.912 10.825 234.594 12.9656C234.594 12.9656 232.927 10.8795 233.508 6.34442L232.377 4.6982C232.377 4.6982 232.337 7.48725 232.377 8.29448C232.418 9.10172 232.223 9.17881 232.223 9.17881C231.626 7.51715 231.504 5.72251 231.869 3.99527C231.869 3.99527 229.757 0.453412 229.53 0.562253Z" fill="#0050B3"/>
<path opacity="0.1" d="M339.643 308.387C339.643 308.387 318.38 302.491 317.699 318.11C317.699 318.11 316.627 320.668 318.784 322.391C318.784 322.391 319.061 321.285 321.15 322.124C321.895 322.418 322.673 322.624 323.466 322.736C324.539 322.89 325.634 322.689 326.582 322.164C326.582 322.164 333.167 320.958 337.636 311.58C337.636 311.58 339.838 309.797 339.906 309.226L335.942 310.001C335.942 310.001 336.623 312.886 335.179 314.854C335.179 314.854 336.087 310.128 335.347 310.092C335.197 310.092 333.262 310.595 333.262 310.595C333.262 310.595 334.425 315.611 332.104 318.582C332.104 318.582 333.921 313.094 332.526 310.781L329.647 311.729C329.647 311.729 331.137 316.972 328.621 320.455C328.621 320.455 330.319 314.654 329.029 311.979L326.332 313.289C326.332 313.289 327.694 318.432 325.573 321.316C325.573 321.316 326.854 314.414 325.732 313.629C325.732 313.629 323.325 314.99 322.858 315.652C322.858 315.652 323.766 319.366 322.367 320.931C322.367 320.931 322.73 316.228 322.235 316.101C322.235 316.101 319.565 318.7 318.911 320.731C318.911 320.731 319.66 317.661 321.809 315.706C321.809 315.706 319.783 315.625 318.371 316.645C318.371 316.645 319.143 314.573 322.458 315.085C322.458 315.085 324.62 313.14 325.097 313.099C325.097 313.099 321.918 312.128 319.729 312.582C319.729 312.582 321.899 310.931 325.801 312.727L328.489 311.366C328.489 311.366 324.32 309.865 322.363 310.124C322.363 310.124 324.838 308.763 329.175 311.072L331.981 310.115C331.981 310.115 328.494 308.55 326.25 308.369C326.25 308.369 328.816 307.62 332.799 309.874L334.752 309.453C334.752 309.453 332.181 308.355 331.414 308.092C330.646 307.829 330.651 307.639 330.651 307.639C332.41 307.719 334.112 308.284 335.569 309.271C335.569 309.271 339.656 308.636 339.643 308.387Z" fill="#0050B3"/>
</g>
<defs>
<linearGradient id="paint0_linear" x1="241.792" y1="271.775" x2="241.792" y2="105.335" gradientUnits="userSpaceOnUse">
<stop stop-color="#808080" stop-opacity="0.25"/>
<stop offset="0.54" stop-color="#808080" stop-opacity="0.12"/>
<stop offset="1" stop-color="#808080" stop-opacity="0.1"/>
</linearGradient>
<clipPath id="clip0">
<rect width="481" height="358" fill="white"/>
</clipPath>
</defs>
</svg>
